<svg xmlns="http://www.w3.org/2000/svg" width="86" height="86" viewBox="0 0 86 86">
  <g id="Grupo_1075585" data-name="Grupo 1075585" transform="translate(-1050 -2102)">
    <circle id="Elipse_10039" data-name="Elipse 10039" cx="43" cy="43" r="43" transform="translate(1050 2102)" fill="#1682fb"/>
    <path id="onboarding" d="M60.686,39.721a5.628,5.628,0,1,0,0,7.959A5.628,5.628,0,0,0,60.686,39.721Zm20.476,9.607A5.628,5.628,0,1,0,75.539,43.7,5.627,5.627,0,0,0,81.162,49.328ZM61.7,76.085c-.3-.3-.528-.626-.928-.626a.723.723,0,0,0-.513.211l-4.268,4.268a.73.73,0,0,0,0,1.026c.3.3.528.626.928.626a.787.787,0,0,0,.618-.315L61.7,77.112A.731.731,0,0,0,61.7,76.085Zm-1.453,7.7a.787.787,0,0,1-.615.313c-.4,0-.613-.311-.928-.626a.731.731,0,0,1,0-1.026l4.163-4.163a.79.79,0,0,1,.618-.315c.4,0,.613.311.928.626a.731.731,0,0,1,0,1.026Zm9.592-.185c-.315-.315-.53-.626-.928-.626a.79.79,0,0,0-.618.315l-4.166,4.166a.731.731,0,0,0,0,1.024c.315.315.53.626.928.626a.723.723,0,0,0,.513-.211l4.268-4.268A.73.73,0,0,0,69.843,83.6Zm-6.879,2.689a.787.787,0,0,1-.615.313c-.4,0-.613-.311-.928-.626a.731.731,0,0,1,0-1.024l4.166-4.166a.788.788,0,0,1,.618-.315c.4,0,.625.322.928.626a.73.73,0,0,1,0,1.024ZM70.6,82.014a2.369,2.369,0,0,0-1.621-.693,2.8,2.8,0,0,0-1.092-1.81,2.369,2.369,0,0,0-1.621-.694,2.8,2.8,0,0,0-1.092-1.81,2.369,2.369,0,0,0-1.621-.693,2.8,2.8,0,0,0-1.092-1.81,2.381,2.381,0,0,0-3.36,0L55.609,77.99l-2.233-1.733a.82.82,0,0,0-.323-.15v0l-7.494-1.651a1.509,1.509,0,0,1-1.2-1.436l-.376-9.431a1.532,1.532,0,0,1,2.175-1.458l9.566,4.38a.821.821,0,0,0,.748-.033h0c3.516-1.991,7.625-2.007,11.694-1.063a20.925,20.925,0,0,0-4.5,2.9c-3.015,2.483-1.729,6.471,2.559,5.815,3.971-.607,5.242-3.876,8.378-.7,1.93,1.956,3.917,3.8,5.907,5.656-1.722,1.98-3.087,3.627-4.236,5.015-4.284,5.171-5.334,6.437-8.086,4.511l2.823-2.823a2.381,2.381,0,0,0,0-3.36Zm2.938-32.4a6.5,6.5,0,1,1-9.192,0A6.5,6.5,0,0,1,73.533,49.614ZM65.214,61.2a7.922,7.922,0,0,1-3.655-9.857,6.239,6.239,0,0,0-2.677-.6H54.53A6.352,6.352,0,0,0,48.2,57.075v4.181l7.83,3.585a16.077,16.077,0,0,1,9.185-1.584V61.2Zm6.031.587a7.956,7.956,0,0,1-4.616,0v1.656a29.972,29.972,0,0,1,4.3,1.028q.186-.042.372-.077a3.981,3.981,0,0,1-.055-.658Zm5.07-10.444A7.922,7.922,0,0,1,72.66,61.2V63.73a2.626,2.626,0,0,0,.043.476,12.032,12.032,0,0,1,6.99,1.76l9.982-5.714V57.075a6.352,6.352,0,0,0-6.332-6.332H78.991a6.241,6.241,0,0,0-2.677.6Zm-4.031-.324L67.394,55.9l-1.8-1.8a.707.707,0,0,0-1,1l2.3,2.3a.708.708,0,0,0,1,0l5.39-5.389a.707.707,0,0,0-1-1ZM91.338,61.2,80.092,67.639a.825.825,0,0,1-.872-.033,10.377,10.377,0,0,0-7.413-1.634,15.574,15.574,0,0,0-7.1,3.61c-1.6,1.318-1.492,3.336,1.269,2.914,3.733-.571,5.6-4.473,9.8-.22,1.976,2,4.036,3.9,6.11,5.842l10.941-2.831a1.522,1.522,0,0,0,1.15-1.543l-.341-11.253a1.53,1.53,0,0,0-2.3-1.291Z" transform="translate(1024.022 2080.928)" fill="#fff" fill-rule="evenodd"/>
  </g>
</svg>
