<svg xmlns="http://www.w3.org/2000/svg" width="50" height="50.123" viewBox="0 0 50 50.123">
  <path id="gamification" d="M62.525,56.555A6.854,6.854,0,1,0,55.673,49.7,6.854,6.854,0,0,0,62.525,56.555Zm-6.452,24.99a7.688,7.688,0,0,1-6.39.272l.705,2.177c.474,1.462,1.688,4.014,3.193,2.8a5.148,5.148,0,0,0,1.372-2.222Zm19.3.272a7.688,7.688,0,0,1-6.39-.272L70.1,84.567c.422,1.14,1.225,2.588,2.2,2.546,1.062-.045,1.932-1.794,2.361-3.12Zm-19.8-7.98a.687.687,0,0,1,0,1.373H52.833v2.737a.687.687,0,1,1-1.373,0V75.209H48.723a.687.687,0,0,1,0-1.373H51.46V71.1a.687.687,0,0,1,1.373,0v2.737Zm18.509-.643a1.611,1.611,0,1,0,0,2.279A1.613,1.613,0,0,0,74.079,73.193Zm-.453-1.766a2.989,2.989,0,0,1,2.219,2.218h.518a.687.687,0,0,1,0,1.373h-.518a2.989,2.989,0,0,1-2.219,2.219v.518a.687.687,0,0,1-1.373,0v-.518a2.989,2.989,0,0,1-2.218-2.219h-.518a.687.687,0,0,1,0-1.373h.518a2.989,2.989,0,0,1,2.218-2.218v-.518a.687.687,0,1,1,1.373,0ZM63.383,73.836a.687.687,0,0,1,0,1.373H61.671a.687.687,0,1,1,0-1.373ZM86.828,36.991H74.978a.706.706,0,0,0-.7.7V47.5a.706.706,0,0,0,.7.7h2.25v0a.684.684,0,0,1,.684.681l.015,2.952,3.378-3.4a.685.685,0,0,1,.522-.24h5a.706.706,0,0,0,.7-.7V37.694A.7.7,0,0,0,86.828,36.991Zm-36.745,0H38.233a.706.706,0,0,0-.7.7V47.5a.706.706,0,0,0,.7.7h5a.685.685,0,0,1,.522.24l3.378,3.4.015-2.952a.684.684,0,0,1,.684-.681v0h2.25a.706.706,0,0,0,.7-.7v-9.81A.706.706,0,0,0,50.082,36.991ZM69.1,69.357a6.315,6.315,0,1,1-2.151,8.4.684.684,0,0,0-.6-.352v0H58.707a.687.687,0,0,0-.625.4,6.353,6.353,0,0,1-1.04,1.364,6.247,6.247,0,0,1-1.258.973,6.315,6.315,0,1,1,2.324-8.507.684.684,0,0,0,.6.352v0h7.639a.687.687,0,0,0,.625-.4A6.351,6.351,0,0,1,69,69.42.7.7,0,0,0,69.1,69.357Zm-13.256-3.4a.687.687,0,1,1,1.373,0v2.605A7.726,7.726,0,0,1,59.1,70.617h6.862a7.723,7.723,0,0,1,2.032-2.162v-2.5a.687.687,0,1,1,1.373,0v1.709a7.653,7.653,0,0,1,3.446-.649v-1.4a7.716,7.716,0,0,0-7.692-7.692h-5.18a7.716,7.716,0,0,0-7.692,7.692v1.4a7.65,7.65,0,0,1,3.594.717Zm25.4-24.583a.957.957,0,0,0,.921.67l1.111,0-.9.651a.966.966,0,0,0-.352,1.084l.346,1.058-.9-.655a.95.95,0,0,0-1.138,0l-.9.655.346-1.058a.964.964,0,0,0-.352-1.084l-.9-.651,1.111,0a.957.957,0,0,0,.921-.67l.341-1.056Zm.579-2.661.634,1.963,2.064,0a.968.968,0,0,1,.568,1.751l-1.672,1.209L84.06,45.6a.968.968,0,0,1-1.489,1.08L80.9,45.459l-1.668,1.217a.968.968,0,0,1-1.489-1.08l.641-1.961-1.672-1.209a.968.968,0,0,1,.568-1.751l2.064,0,.634-1.963a.968.968,0,0,1,1.841,0Zm-36.413.452v3.357a1.254,1.254,0,0,1-2.495.174L42.9,39.167h2.507Zm-3.88,2.946h-.52V40.719h.52Zm5.253-1.394h.52v1.394h-.52Zm-1.551,5.209a.687.687,0,1,1,0,1.373h-2.15a.687.687,0,1,1,0-1.373h.388v-.868a2.644,2.644,0,0,1-1.757-1.573h-.831a1.247,1.247,0,0,1-1.245-1.245v-1.65a1.247,1.247,0,0,1,1.245-1.245h.648v-.865a.687.687,0,0,1,.687-.687H46.1a.687.687,0,0,1,.687.687v.865c.6,0,1.086-.077,1.528.365a1.242,1.242,0,0,1,.365.88v1.65a1.247,1.247,0,0,1-1.245,1.245H46.6a2.644,2.644,0,0,1-1.757,1.573v.868Zm.2,11.049a.687.687,0,0,1,0-1.373h4.978a.687.687,0,1,1,0,1.373Zm28.906,0a.687.687,0,0,1,0-1.373h4.978a.687.687,0,0,1,0,1.373Z" transform="translate(-37.53 -36.991)" fill="#1682fb" fill-rule="evenodd"/>
</svg>
