<svg xmlns="http://www.w3.org/2000/svg" width="31.929" height="32" viewBox="0 0 31.929 32">
  <g id="Grupo_1075589" data-name="Grupo 1075589" transform="translate(-730.144 -3197.887)">
    <g id="g13374" transform="translate(731.144 3198.887)">
      <path id="path13376" d="M-211.269-105.634a15,15,0,0,1-15,15,15,15,0,0,1-15-15,15,15,0,0,1,15-15,15,15,0,0,1,15,15" transform="translate(241.269 120.634)" fill="#05e39c"/>
    </g>
    <g id="g13378" transform="translate(731.144 3198.887)">
      <path id="path13380" d="M-54.772-105.634a15.005,15.005,0,0,1,11.111-14.49,15.011,15.011,0,0,0-3.889-.51,15,15,0,0,0-15,15,15,15,0,0,0,15,15,15.017,15.017,0,0,0,3.889-.51,15.006,15.006,0,0,1-11.111-14.49" transform="translate(62.549 120.634)" fill="#0ed290"/>
    </g>
    <g id="g13382" transform="translate(731.144 3198.887)">
      <path id="path13384" d="M-208.889-83.272A15,15,0,0,0-223.551-95.1a15,15,0,0,0-15,15,15,15,0,0,0,15,15,15,15,0,0,0,14.77-12.373" transform="translate(238.551 95.097)" fill="none" stroke="#000" stroke-linecap="round" stroke-linejoin="round" stroke-miterlimit="10" stroke-width="2"/>
    </g>
    <g id="g13386" transform="translate(738.317 3209.477)">
      <path id="path13388" d="M0-21.036,6.433-14.6l9.42-9.421" transform="translate(0 24.023)" fill="none" stroke="#000" stroke-linecap="round" stroke-linejoin="round" stroke-miterlimit="10" stroke-width="2"/>
    </g>
  </g>
</svg>
