<svg id="Grupo_1074165" data-name="Grupo 1074165" xmlns="http://www.w3.org/2000/svg" width="80" height="80" viewBox="0 0 80 80">
  <circle id="Elipse_9914" data-name="Elipse 9914" cx="40" cy="40" r="40" fill="#f6f6f6"/>
  <g id="advice" transform="translate(5.772 13.711)">
    <g id="Grupo_1075611" data-name="Grupo 1075611" transform="translate(10.317 0.773)">
      <path id="Trazado_832335" data-name="Trazado 832335" d="M276.789,273.415l4.561-3.892a2.253,2.253,0,0,0,.259-3.16,2.216,2.216,0,0,0-3.138-.261l-9.48,8.09-5.611,4.02,5.022,1.647Z" transform="translate(-238.615 -238.975)" fill="#ffe0d1"/>
      <path id="Trazado_832336" data-name="Trazado 832336" d="M270.666,275.214l9.48-8.09a2.213,2.213,0,0,1,1.636-.525,2.223,2.223,0,0,0-3.311-.5l-9.48,8.09-5.611,4.02,2.126.7Z" transform="translate(-238.616 -238.976)" fill="#ffd1c2"/>
      <path id="Trazado_832337" data-name="Trazado 832337" d="M240.363,264.391l7.048-5.973a2.2,2.2,0,0,0-3-3.2l-6.28,5.322-6.847,5.894,3.561,2.883Z" transform="translate(-209.824 -229.219)" fill="#ffe0d1"/>
      <path id="Trazado_832338" data-name="Trazado 832338" d="M233.083,267.552l6.848-5.894,6.28-5.322a2.189,2.189,0,0,1,1.538-.518,2.2,2.2,0,0,0-3.34-.6l-6.28,5.322-6.848,5.894,3.561,2.883.2-.177Z" transform="translate(-209.824 -229.219)" fill="#ffd1c2"/>
      <g id="Grupo_1075609" data-name="Grupo 1075609" transform="translate(0)">
        <g id="XMLID_169_" transform="translate(0 28.094)">
          <g id="Grupo_1075604" data-name="Grupo 1075604" transform="translate(0 0)">
            <path id="Trazado_832339" data-name="Trazado 832339" d="M52.507,287.19l.176.02h6.738a2.169,2.169,0,0,0,1.4-.514l7.149-6.059a2.2,2.2,0,0,1,2.841,3.353l-11.285,9.565a7.806,7.806,0,0,1-4.113,1.793l-12.6,1.516-4.731,5.665a1.018,1.018,0,0,1-1.091.317l-13.208-4.225a1.018,1.018,0,0,1-.488-1.6l5.054-6.379.4-.846a11.874,11.874,0,0,1,10.728-6.785H50.154a2.754,2.754,0,0,1,2.354,4.181Z" transform="translate(-23.076 -280.116)" fill="#ffe0d1"/>
          </g>
          <g id="Grupo_1075605" data-name="Grupo 1075605" transform="translate(29.92)">
            <path id="Trazado_832340" data-name="Trazado 832340" d="M313.41,288.691l.183.021h6.981a2.214,2.214,0,0,0,1.453-.546l7.407-6.437a2.246,2.246,0,0,1,2.352-.375,2.2,2.2,0,0,0-3.4-.719l-7.149,6.059a2.169,2.169,0,0,1-1.4.514h-6.012A2.974,2.974,0,0,1,313.41,288.691Z" transform="translate(-313.41 -280.114)" fill="#ffd1c2"/>
          </g>
          <g id="Grupo_1075608" data-name="Grupo 1075608" transform="translate(7.673 2.147)">
            <g id="XMLID_170_">
              <g id="Grupo_1075607" data-name="Grupo 1075607">
                <g id="Grupo_1075606" data-name="Grupo 1075606" transform="translate(5.402)">
                  <path id="Trazado_832341" data-name="Trazado 832341" d="M166.484,348l-.176-.02c.018-.029.033-.059.05-.089H149.952a2.958,2.958,0,0,0,2.958,2.958h11.047A4.293,4.293,0,0,0,168,348Z" transform="translate(-149.952 -343.056)" fill="#ffd1c2"/>
                  <path id="Trazado_832342" data-name="Trazado 832342" d="M283.565,342.207l-3.936,2.82h.641a4.289,4.289,0,0,0,4.241-3.628Z" transform="translate(-266.265 -337.231)" fill="#ffd1c2"/>
                  <path id="Trazado_832343" data-name="Trazado 832343" d="M241.126,305.232a4.279,4.279,0,0,0-1.185-3.827,4.363,4.363,0,0,0-.541-.458l-1.27,1.077-6.848,5.894,1.02.825h4.6c.085,0,.169,0,.254-.008l3.205-2.858Z" transform="translate(-222.9 -300.948)" fill="#ffd1c2"/>
                </g>
                <path id="Trazado_832344" data-name="Trazado 832344" d="M119.688,310.939a2.75,2.75,0,0,1-2.812,2.752h-13.8l-5.541-1.679a11.876,11.876,0,0,1,8.731-3.825h10.673a2.751,2.751,0,0,1,2.753,2.753Z" transform="translate(-97.531 -307.44)" fill="#ffe0d1"/>
              </g>
            </g>
          </g>
        </g>
        <path id="Trazado_832345" data-name="Trazado 832345" d="M102.611,7.5H85.254a5.58,5.58,0,0,0-5.58,5.58V23.888a5.58,5.58,0,0,0,5.58,5.58h2.352L89,32.589a.7.7,0,0,0,1.285,0l1.39-3.122h10.942a5.58,5.58,0,0,0,5.58-5.58V13.08A5.58,5.58,0,0,0,102.611,7.5Z" transform="translate(-73.841 -7.5)" fill="#fbe88c"/>
        <circle id="Elipse_10042" data-name="Elipse 10042" cx="6.454" cy="6.454" r="6.454" transform="translate(13.637 4.482)" fill="#f9f7f7"/>
      </g>
      <g id="Grupo_1075610" data-name="Grupo 1075610" transform="translate(0 30.987)">
        <path id="Trazado_832346" data-name="Trazado 832346" d="M30.027,318.1l.4-.846a11.874,11.874,0,0,1,10.728-6.785H51.829a2.751,2.751,0,0,1,1.066.214,2.753,2.753,0,0,0-2.742-2.5H39.48a11.874,11.874,0,0,0-10.728,6.785l-.4.846L23.3,322.2a1.018,1.018,0,0,0,.488,1.6l1.381.442Z" transform="translate(-23.076 -308.186)" fill="#ffd1c2"/>
      </g>
      <path id="Trazado_832347" data-name="Trazado 832347" d="M89.3,25.6a4.327,4.327,0,0,1-4.327-4.327V9.412A4.308,4.308,0,0,1,85.416,7.5h-.162a5.58,5.58,0,0,0-5.58,5.58V23.888a5.58,5.58,0,0,0,5.58,5.58h2.352L89,32.589a.7.7,0,0,0,1.285,0l1.39-3.122h10.942a5.583,5.583,0,0,0,5.311-3.864Z" transform="translate(-73.841 -7.5)" fill="#fbe372"/>
    </g>
    <g id="Grupo_1075612" data-name="Grupo 1075612" transform="translate(8.851 0)">
      <path id="Trazado_832348" data-name="Trazado 832348" d="M58.9,250.069a2.971,2.971,0,0,0-4.187-.346l-.4.337a2.972,2.972,0,0,0-4.837-1.7l-.355.3a2.975,2.975,0,0,0-4.83-1.654l-5.941,5.035a3.514,3.514,0,0,0-.959-.134H26.72a12.646,12.646,0,0,0-11.426,7.226l-.363.766-5.913,7.464a.773.773,0,1,0,1.212.96L16.2,260.8a.77.77,0,0,0,.092-.149l.4-.846a11.151,11.151,0,0,1,10.029-6.343H37.394a1.979,1.979,0,0,1,0,3.958H30.445a.773.773,0,0,0,0,1.546h6.881a3.5,3.5,0,0,0,2.533-1,3.6,3.6,0,0,0,.273-.3h6.531a2.944,2.944,0,0,0,1.9-.7l7.149-6.058a1.425,1.425,0,1,1,1.843,2.174L46.27,262.641a7.01,7.01,0,0,1-3.705,1.616l-2.037.245a.773.773,0,1,0,.185,1.535l2.037-.245a8.55,8.55,0,0,0,4.52-1.972l11.285-9.564a2.971,2.971,0,0,0,.346-4.187Zm-13.607-1.878a1.425,1.425,0,0,1,1.971,2.051l-6.349,5.381q0-.092,0-.185a3.515,3.515,0,0,0-1.129-2.583Zm-2.565,7.922,7.75-6.568a1.425,1.425,0,1,1,1.843,2.174l-4.756,4.063a1.4,1.4,0,0,1-.9.331Z" transform="translate(-8.851 -220.925)"/>
      <path id="Trazado_832349" data-name="Trazado 832349" d="M170.061,426.648l-7.271.875a.773.773,0,0,0-.5.272l-5.171,6.19a.773.773,0,0,0,1.186.991l4.974-5.955,6.966-.838a.773.773,0,1,0-.185-1.535Z" transform="translate(-141.677 -382.675)"/>
      <path id="Trazado_832350" data-name="Trazado 832350" d="M78.526,23.514h1.85l1.186,2.663a1.476,1.476,0,0,0,2.7,0l1.186-2.663H89.4a.773.773,0,0,0,0-1.546H84.941a.773.773,0,0,0-.706.459L82.909,25.4l-1.326-2.978a.773.773,0,0,0-.706-.459H78.526a4.812,4.812,0,0,1-4.807-4.807V6.353a4.813,4.813,0,0,1,4.807-4.807H95.884a4.812,4.812,0,0,1,4.807,4.807V17.161a4.812,4.812,0,0,1-4.807,4.807H92.7a.773.773,0,0,0,0,1.546h3.187a6.36,6.36,0,0,0,6.353-6.353V6.353A6.36,6.36,0,0,0,95.884,0H78.526a6.36,6.36,0,0,0-6.353,6.353V17.161A6.36,6.36,0,0,0,78.526,23.514Z" transform="translate(-65.647 0)"/>
      <path id="Trazado_832351" data-name="Trazado 832351" d="M150.292,46.387a.773.773,0,0,0-1.077.188A7.227,7.227,0,1,0,161.649,47.6l2.474-2.365a.773.773,0,0,0-1.068-1.118l-2.244,2.144a7.221,7.221,0,0,0-8.778-2.068.773.773,0,0,0,.663,1.4,5.68,5.68,0,0,1,6.992,1.745l-4.822,4.608-.972-.972a.773.773,0,0,0-1.093,1.093l1.506,1.506a.773.773,0,0,0,1.081.012l5.067-4.842a5.681,5.681,0,1,1-9.975-1.276.773.773,0,0,0-.188-1.077Z" transform="translate(-133.575 -39.014)"/>
    </g>
  </g>
</svg>
