<svg xmlns="http://www.w3.org/2000/svg" width="60" height="60" viewBox="0 0 60 60">
  <g id="Grupo_1078853" data-name="Grupo 1078853" transform="translate(-180 -3409)">
    <circle id="Elipse_10106" data-name="Elipse 10106" cx="30" cy="30" r="30" transform="translate(180 3409)" fill="#1682fb"/>
    <path id="engagement" d="M53.612,55.65a4.1,4.1,0,1,0,0,5.8A4.1,4.1,0,0,0,53.612,55.65Zm27.555,0a4.1,4.1,0,1,0,0,5.8A4.1,4.1,0,0,0,81.167,55.65ZM74.119,39.032H63.514a.679.679,0,0,0-.676.676v8.78a.679.679,0,0,0,.676.676H67.99a.566.566,0,0,1,.431.2l3.105,3.121.014-2.755a.565.565,0,0,1,.565-.563v0h2.014a.679.679,0,0,0,.676-.676v-8.78A.679.679,0,0,0,74.119,39.032ZM70.761,42.1a2.75,2.75,0,1,1-4.694,1.944A2.75,2.75,0,0,1,70.761,42.1Zm-1.944-1.94a3.884,3.884,0,1,1-3.884,3.884A3.885,3.885,0,0,1,68.817,40.161ZM67.3,42.625a.567.567,0,1,1,1.135,0v.809a.567.567,0,0,1-1.135,0Zm1.889,0a.567.567,0,1,1,1.135,0v.809a.567.567,0,0,1-1.135,0Zm.444,2.11a.566.566,0,1,1,.962.6,2.1,2.1,0,0,1-3.565,0,.566.566,0,1,1,.962-.6A.968.968,0,0,0,69.637,44.735Zm-6.43-6.812a1.816,1.816,0,0,0-1.5,1.784v7.424H58.056a.566.566,0,0,0-.431.2l-3.105,3.121L54.505,47.7a.565.565,0,0,0-.565-.563v0H51.926a.679.679,0,0,1-.676-.676v-8.78A.679.679,0,0,1,51.926,37H62.532a.674.674,0,0,1,.477.2A.857.857,0,0,1,63.207,37.923Zm-4.339,1.608a2,2,0,0,0-1.417.585l-.2.2-.242-.242a2,2,0,0,0-2.834,2.834l2.675,2.675a.567.567,0,0,0,.8,0l2.636-2.636a2.006,2.006,0,0,0-1.417-3.42Zm.615,1.388a.874.874,0,0,0-1.23,0l-.6.6a.567.567,0,0,1-.8,0L56.2,40.88a.87.87,0,0,0-1.23,1.23l2.274,2.274,2.235-2.235a.874.874,0,0,0,0-1.23ZM72.128,67.528a1.878,1.878,0,0,1,1.256,3.3,1.874,1.874,0,0,1-.413,2.76,1.87,1.87,0,0,1,.278,1.475,1.86,1.86,0,0,0,.681.127h8.676a1.892,1.892,0,0,0,1.885-1.885V68.4a4.634,4.634,0,0,0-4.619-4.619H76.664A4.638,4.638,0,0,0,72.128,67.528ZM58.8,66.68H57.29a1.2,1.2,0,0,0-1.2,1.2v9.345a1.2,1.2,0,0,0,1.2,1.2H58.8a1.2,1.2,0,0,0,1.2-1.2V67.876A1.2,1.2,0,0,0,58.8,66.68Zm2.33,2.3c1.128-.407,2.905.129,4.189-1.261a5.823,5.823,0,0,0,.952-1.348c.655-1.318.339-2.384.558-2.731.013-.021.119-.021.348-.006a2.714,2.714,0,0,1,.8.326,1.146,1.146,0,0,1,.5.612c.283.877-.447,2.255-1.066,3.219a.567.567,0,0,0,.476.872h4.282a.743.743,0,0,1,.524,1.266.675.675,0,0,1-.366.2.47.47,0,0,0-.384.465v.31a.465.465,0,0,0,.289.436.743.743,0,0,1,.235,1.209.8.8,0,0,1-.587.223.473.473,0,0,0-.456.473v.281a.465.465,0,0,0,.288.435.743.743,0,0,1-.288,1.426h-.151a.474.474,0,0,0-.473.473v.285a.465.465,0,0,0,.288.435.743.743,0,0,1-.288,1.426H63.7a3.005,3.005,0,0,1-1.419-.331,4.056,4.056,0,0,1-1.15-.9V68.979Zm-4.976-3.137a2.335,2.335,0,0,0-1.2,2.035v7.316H46.375a1.892,1.892,0,0,1-1.885-1.885V68.4a4.634,4.634,0,0,1,4.619-4.619h3.207A4.616,4.616,0,0,1,56.156,65.841Zm2.147,9.3a.365.365,0,0,1-.516.516A.365.365,0,0,1,58.3,75.137ZM58.046,73.9a1.5,1.5,0,1,1-1.5,1.5A1.5,1.5,0,0,1,58.046,73.9Z" transform="translate(145.51 3381)" fill="#fff" fill-rule="evenodd"/>
  </g>
</svg>
