<svg xmlns="http://www.w3.org/2000/svg" width="50" height="50.309" viewBox="0 0 50 50.309">
  <path id="intuitive" d="M63.236,52.169a4,4,0,1,0,0,5.651A4,4,0,0,0,63.236,52.169ZM60.411,71.707l-5.343-3.085V64.863a.671.671,0,0,0-.557-.661c-1.138-.228-2.178-.464-3.217-.7-1.441-.327-2.883-.655-4.354-.919a3.147,3.147,0,0,1-1.728-.864c-1.554-1.631-.2-4.038,1.486-3.736,4.546.815,9.051,2.313,13.713,2.353s9.176-1.493,13.712-2.348a1.55,1.55,0,0,1,.766.051c1.922.618,2.109,3.973-.966,4.55-2.586.485-5.036,1.155-7.629,1.672a.671.671,0,0,0-.54.658h0v3.7ZM67,75.58l3.8-2.2a2.671,2.671,0,0,0,.971-3.627h0a2.668,2.668,0,0,0-3.627-.974h0l-6.4,3.695,4.7,2.715ZM54.1,77.285a2.587,2.587,0,0,0-.333,1.023A3.077,3.077,0,0,0,54.078,80a2.671,2.671,0,0,0,3.619.954l1.377-.795ZM78.41,40.6h2.449l1.375-4.548a2.827,2.827,0,1,0-5.3.177.678.678,0,0,1,.026.078Zm2.815,3.729H77.876a1.443,1.443,0,0,0,1.381,1.046c.622,0,1.113.065,1.6-.422A1.443,1.443,0,0,0,81.225,44.33Zm-3.4-1.342H81.28V41.943H77.822Zm2.406-6.129v2.561a.671.671,0,1,1-1.342,0V36.86a1.628,1.628,0,0,1-.956-1.483.671.671,0,0,1,1.342,0,.286.286,0,0,0,.571,0,.671.671,0,0,1,1.342,0A1.628,1.628,0,0,1,80.228,36.86ZM64.81,50.14a.669.669,0,1,1,.912-.98,7.8,7.8,0,0,1,2.5,5.723.671.671,0,1,1-1.342,0A6.439,6.439,0,0,0,64.81,50.14ZM53.942,54.883a.671.671,0,0,1-1.342,0,7.8,7.8,0,0,1,2.5-5.723.669.669,0,0,1,.912.98A6.437,6.437,0,0,0,53.942,54.883ZM58.5,48.7a.669.669,0,0,1-.393-1.279,7.8,7.8,0,0,1,4.6,0A.669.669,0,0,1,62.32,48.7,6.547,6.547,0,0,0,58.5,48.7Zm7.868-1.284a9.452,9.452,0,0,1,3.507,7.357.671.671,0,1,0,1.342,0,10.779,10.779,0,0,0-4-8.394.669.669,0,0,0-.844,1.038ZM50.945,54.771a9.45,9.45,0,0,1,3.507-7.357.669.669,0,0,0-.844-1.038,10.778,10.778,0,0,0-4,8.394.671.671,0,1,0,1.342,0Zm6.073-8.842a.668.668,0,1,1-.477-1.247,10.792,10.792,0,0,1,7.739,0,.668.668,0,0,1-.477,1.247,9.529,9.529,0,0,0-6.785,0Zm-13.8-6.894a2.87,2.87,0,1,0,0,4.059A2.873,2.873,0,0,0,43.214,39.035Zm-5.637,4.2a4.213,4.213,0,0,1,0-4.349,9.032,9.032,0,0,0-3.038,2.175A9.029,9.029,0,0,0,37.577,43.239Zm7.215-4.349a4.214,4.214,0,0,1,0,4.349,9.031,9.031,0,0,0,3.038-2.175A9.033,9.033,0,0,0,44.792,38.89ZM40.513,46.82a.671.671,0,0,1,1.342,0v6.115h6.383a.671.671,0,0,1,0,1.342H41.184a.671.671,0,0,1-.671-.671V46.82Zm0-15.154a.671.671,0,1,1,1.342,0v3.643a.671.671,0,0,1-1.342,0Zm-3.048,14.5a.668.668,0,0,1,1.158.666l-1.56,2.7a.668.668,0,0,1-1.158-.666ZM45.3,32.592a.668.668,0,0,1,1.158.666l-1.56,2.7a.668.668,0,0,1-1.158-.666Zm-11.5,11.959a.668.668,0,0,1,.666,1.158l-1.1.633a.668.668,0,1,1-.666-1.158Zm15.179-8.765a.669.669,0,1,1,.671,1.158l-1.1.633a.669.669,0,1,1-.671-1.158Zm-14.514.633a.668.668,0,0,1-.666,1.158l-1.1-.633a.668.668,0,1,1,.666-1.158Zm15.182,8.765a.668.668,0,1,1-.666,1.158l-1.1-.633a.668.668,0,0,1,.666-1.158ZM38.624,35.294a.668.668,0,0,1-1.158.666l-1.56-2.7a.668.668,0,0,1,1.158-.666Zm7.839,13.577-1.56-2.7a.668.668,0,0,0-1.158.666l1.56,2.7a.668.668,0,1,0,1.158-.666Zm32.526-.719a.671.671,0,0,1,1.342,0v5.454a.671.671,0,0,1-.671.671H72.606a.671.671,0,1,1,0-1.342h6.383ZM54.1,69.612l-1.431-.826h0a2.655,2.655,0,0,0-2.654,4.6l4.209,2.43.046.026,8.852,5.111h0a2.655,2.655,0,0,0,2.654-4.6Z" transform="translate(-32.377 -30.995)" fill="#1682fb" fill-rule="evenodd"/>
</svg>
