<svg xmlns="http://www.w3.org/2000/svg" width="50" height="51.771" viewBox="0 0 50 51.771">
  <path id="engagement" d="M55.893,60.312a5.126,5.126,0,1,0,0,7.249A5.126,5.126,0,0,0,55.893,60.312Zm34.444,0a5.126,5.126,0,1,0,0,7.249A5.126,5.126,0,0,0,90.337,60.312ZM81.527,39.54H68.27a.849.849,0,0,0-.845.845V51.359a.849.849,0,0,0,.845.845h5.595a.708.708,0,0,1,.539.248l3.881,3.9.018-3.443a.706.706,0,0,1,.706-.7v0h2.517a.849.849,0,0,0,.845-.845V40.384A.849.849,0,0,0,81.527,39.54Zm-4.2,3.837a3.437,3.437,0,1,1-5.868,2.43,3.438,3.438,0,0,1,5.868-2.43ZM74.9,40.952a4.855,4.855,0,1,1-4.855,4.855A4.856,4.856,0,0,1,74.9,40.952Zm-1.89,3.08a.709.709,0,1,1,1.418,0v1.012a.709.709,0,0,1-1.418,0Zm2.361,0a.709.709,0,0,1,1.418,0v1.012a.709.709,0,0,1-1.418,0Zm.555,2.637a.708.708,0,1,1,1.2.748,2.627,2.627,0,0,1-4.456,0,.708.708,0,0,1,1.2-.748A1.21,1.21,0,0,0,75.924,46.669Zm-8.037-8.515a2.27,2.27,0,0,0-1.88,2.231v9.28h-4.56a.708.708,0,0,0-.539.248l-3.881,3.9-.018-3.443a.706.706,0,0,0-.706-.7v0H53.786a.849.849,0,0,1-.845-.845V37.845A.849.849,0,0,1,53.786,37H67.042a.842.842,0,0,1,.6.249A1.071,1.071,0,0,1,67.887,38.154Zm-5.424,2.01a2.5,2.5,0,0,0-1.771.732l-.254.254-.3-.3a2.505,2.505,0,0,0-3.543,3.543l3.344,3.344a.709.709,0,0,0,1,0l3.3-3.3a2.507,2.507,0,0,0-1.771-4.274Zm.769,1.735a1.093,1.093,0,0,0-1.537,0l-.755.755a.709.709,0,0,1-1,0l-.8-.8A1.087,1.087,0,0,0,57.6,43.387l2.842,2.842,2.794-2.794a1.093,1.093,0,0,0,0-1.537ZM79.037,75.16a2.347,2.347,0,0,1,1.57,4.128,2.342,2.342,0,0,1-.516,3.45,2.337,2.337,0,0,1,.347,1.844,2.325,2.325,0,0,0,.852.159H92.134a2.365,2.365,0,0,0,2.356-2.356v-6.13a5.793,5.793,0,0,0-5.774-5.774H84.708A5.8,5.8,0,0,0,79.037,75.16ZM62.379,74.1H60.49A1.5,1.5,0,0,0,59,75.6V87.276A1.5,1.5,0,0,0,60.49,88.77h1.889a1.5,1.5,0,0,0,1.495-1.495V75.6A1.5,1.5,0,0,0,62.379,74.1Zm2.913,2.873c1.41-.509,3.632.162,5.237-1.576a7.278,7.278,0,0,0,1.19-1.685c.819-1.648.424-2.98.7-3.414.016-.026.149-.026.435-.007a3.392,3.392,0,0,1,.994.407,1.432,1.432,0,0,1,.623.765c.354,1.1-.558,2.819-1.333,4.024a.709.709,0,0,0,.6,1.09h5.353a.928.928,0,0,1,.655,1.583.843.843,0,0,1-.458.25.587.587,0,0,0-.48.581v.388a.581.581,0,0,0,.361.545.929.929,0,0,1,.294,1.511,1,1,0,0,1-.733.278.591.591,0,0,0-.57.591v.352a.581.581,0,0,0,.36.544.928.928,0,0,1-.36,1.783h-.189a.592.592,0,0,0-.591.591v.356a.581.581,0,0,0,.36.544.928.928,0,0,1-.36,1.783H68.5a3.757,3.757,0,0,1-1.774-.414,5.069,5.069,0,0,1-1.437-1.129V76.974Zm-6.22-3.922a2.919,2.919,0,0,0-1.5,2.543v9.146H46.846a2.365,2.365,0,0,1-2.356-2.356v-6.13a5.793,5.793,0,0,1,5.774-5.774h4.008A5.77,5.77,0,0,1,59.073,73.052Zm2.684,11.619a.456.456,0,0,1-.645.645A.456.456,0,0,1,61.757,84.671Zm-.322-1.552a1.874,1.874,0,1,1-1.874,1.874A1.876,1.876,0,0,1,61.435,83.119Z" transform="translate(-44.49 -37)" fill="#1682fb" fill-rule="evenodd"/>
</svg>
