<svg xmlns="http://www.w3.org/2000/svg" width="86" height="86" viewBox="0 0 86 86">
  <g id="Grupo_1075616" data-name="Grupo 1075616" transform="translate(-630 -2102)">
    <circle id="Elipse_10038" data-name="Elipse 10038" cx="43" cy="43" r="43" transform="translate(630 2102)" fill="#1682fb"/>
    <g id="sync-circular-arrows" transform="translate(641.485 2118.86)">
      <path id="Trazado_832357" data-name="Trazado 832357" d="M51.919,183.259l-1.669-5.907c-12.492,11.045-22.883.877-24.777-2.043l.963-.595a1.372,1.372,0,0,0-.125-2.4l-8.639-4.164a1.372,1.372,0,0,0-1.967,1.214l-.147,9.59a1.372,1.372,0,0,0,2.092,1.188l.461-.285c7.921,12.85,26.1,14.109,35.94,5.719A3.508,3.508,0,0,1,51.919,183.259Z" transform="translate(-7.461 -138.616)" fill="#fff"/>
      <path id="Trazado_832358" data-name="Trazado 832358" d="M15.29,29.573c-1.016-5.506,2.639-16.7,14.77-18.022V11.7a1.371,1.371,0,0,0,2.11,1.155l8.083-5.161a1.372,1.372,0,0,0,0-2.312L32.169.216a1.371,1.371,0,0,0-2.11,1.155V2.883C18.276,2.832,5.745,13.972,6.552,29c0,0,1.824-1.769,3.065-1.769C10.66,27.227,10.847,27.432,15.29,29.573Z" transform="translate(0 0)" fill="#fff"/>
      <path id="Trazado_832359" data-name="Trazado 832359" d="M199.061,64.469a1.371,1.371,0,0,0-.946-1.03l-.989-.3a24.938,24.938,0,0,0-11.591-30.032,3.566,3.566,0,0,1,.093.742,3.525,3.525,0,0,1-1.635,2.984l-4.668,2.98a16.225,16.225,0,0,1,9.5,20.82l-.592-.178a1.372,1.372,0,0,0-1.716,1.686l2.607,9.229a1.371,1.371,0,0,0,2.212.668l7.279-6.245A1.371,1.371,0,0,0,199.061,64.469Z" transform="translate(-142.576 -27.315)" fill="#fff"/>
    </g>
  </g>
</svg>
