<svg xmlns="http://www.w3.org/2000/svg" width="86" height="86" viewBox="0 0 86 86">
  <g id="Grupo_1075620" data-name="Grupo 1075620" transform="translate(-1050 -2102)">
    <circle id="Elipse_10039" data-name="Elipse 10039" cx="43" cy="43" r="43" transform="translate(1050 2102)" fill="#1682fb"/>
    <path id="deal_1_" data-name="deal(1)" d="M55.215,43.294q-.007-.12-.012-.241H54.67Zm22.61-.241q-.028.641-.093,1.274.094-.044.191-.081l2.543-.986a3.086,3.086,0,0,1,.98-.207Zm-10.378,0V48.02c2.615-1.094,4.612-.278,6.362.437.348.142.683.279,1,.386a19.945,19.945,0,0,0,1.147-5.79Zm-1.865,0H57.07q.044.912.168,1.807a3.139,3.139,0,0,1,.378,1.981q.2.81.461,1.6a6.728,6.728,0,0,0,2.174-.28,7.622,7.622,0,0,1,5.331.152Zm0-1.865v-7.22a29.46,29.46,0,0,1-6.369-.873,19.637,19.637,0,0,0-2.146,8.094Zm10.38,0a19.634,19.634,0,0,0-2.146-8.094,29.459,29.459,0,0,1-6.369.874v7.22h8.515ZM79.131,31A16.746,16.746,0,0,1,83.3,41.189H77.828a21.483,21.483,0,0,0-2.2-8.631A20.1,20.1,0,0,0,79.131,31Zm-8.743-5.25A21.859,21.859,0,0,1,74.72,30.9a18.916,18.916,0,0,0,3.048-1.271A16.775,16.775,0,0,0,70.388,25.754Zm-2.941.063a20,20,0,0,1,5.4,5.6,27.866,27.866,0,0,1-5.4.688Zm-1.865,0a20,20,0,0,0-5.4,5.6,27.859,27.859,0,0,0,5.4.688ZM55.26,29.627a16.773,16.773,0,0,1,7.38-3.873A21.859,21.859,0,0,0,58.308,30.9,18.906,18.906,0,0,1,55.26,29.627ZM55.2,41.189H49.724A16.746,16.746,0,0,1,53.9,31a20.088,20.088,0,0,0,3.5,1.553A21.483,21.483,0,0,0,55.2,41.189ZM69.035,18.968A23.3,23.3,0,0,1,89.667,39.6a2.645,2.645,0,0,1,0,5.043,23.135,23.135,0,0,1-2.291,7.838l-.948-2.446A21.285,21.285,0,0,0,87.8,44.54a2.645,2.645,0,0,1,0-4.838A21.435,21.435,0,0,0,68.933,20.833a2.645,2.645,0,0,1-4.838,0A21.435,21.435,0,0,0,45.226,39.7a2.645,2.645,0,0,1,0,4.838,21.285,21.285,0,0,0,1.35,5.432l-1.021,2.31a23.136,23.136,0,0,1-2.194-7.64,2.645,2.645,0,0,1,0-5.043A23.3,23.3,0,0,1,63.992,18.968a2.645,2.645,0,0,1,5.043,0Zm-14,47.387L56.747,63.4a1.191,1.191,0,0,0-2.152-1.014l-1.307,2.444a1.2,1.2,0,0,0,.487,1.613A1.217,1.217,0,0,0,55.04,66.355Zm5.138-.755-1.911,3.7a1.191,1.191,0,0,1-2.079-1.162c.671-1.255,1.4-2.472,2.111-3.705A1.188,1.188,0,0,1,60.178,65.6Zm1.961,5.147,1.671-3.211a1.187,1.187,0,0,0-1.986-1.069l-1.8,3.493a1.188,1.188,0,0,0,.624,1.1A1.2,1.2,0,0,0,62.139,70.746Zm5.182-.911-1.284,2.4a1.169,1.169,0,0,1-1.636.4,1.144,1.144,0,0,1-.568-1.108l1.625-3.123a1.19,1.19,0,0,1,1.863,1.43Zm1.949-.011a3.045,3.045,0,0,1-.31.886L68.324,71.9l.625.359a1.149,1.149,0,0,0,1.491-.441A1.111,1.111,0,0,0,70,70.254c-.242-.136-.486-.291-.732-.43ZM60.348,55.639q1.129-.7,2.174-1.481c1.524-1.145,2.74-2.616,4.245-3.644,2.676-1.836,4.653-1.027,6.341-.338,1.38.564,2.613,1.068,3.989.546l3.469,8.948-.368.154a3.049,3.049,0,0,0-.725-.573l-7.12-4.058c-1.918-1.093-3.884-.3-5.932.532s-4.211,1.7-6.073-.085ZM67.12,57.45c1.622-.657,3.181-1.288,4.315-.641l7.12,4.058a1.147,1.147,0,0,1,.451,1.546,1.125,1.125,0,0,1-1.5.451c-1.632-.932-3.279-1.838-4.91-2.772a.932.932,0,0,0-.925,1.617c1.63.933,3.269,1.851,4.908,2.769A1.128,1.128,0,1,1,75.5,66.462l-6.45-3.629a.931.931,0,0,0-.911,1.625c1.755.987,3.505,1.992,5.26,2.975a1.128,1.128,0,1,1-1.074,1.985l-3.721-2.106a3.054,3.054,0,0,0-3.091-.993,3.048,3.048,0,0,0-3.631-1.942,3.042,3.042,0,0,0-3.25-2.012,3.046,3.046,0,0,0-4.894-1.8A2.512,2.512,0,0,0,52.5,58.7l3.911-8.848c1.467.775,2.807.461,4.261.12a6.447,6.447,0,0,1,3.853-.067c-1.076.943-1.934,1.877-3.118,2.766a28.194,28.194,0,0,1-2.716,1.788,1.181,1.181,0,0,0-.336,1.74c2.64,3.4,5.312,2.648,8.765,1.25Zm20.752,1.468L82.751,45.71A1.249,1.249,0,0,0,81.14,45l-2.543.986a1.249,1.249,0,0,0-.711,1.611L83.007,60.8a1.249,1.249,0,0,0,1.611.711l2.543-.986A1.249,1.249,0,0,0,87.872,58.919ZM80.8,48.738a.847.847,0,1,1,.847-.847A.847.847,0,0,1,80.8,48.738ZM55.042,45.257l-2.494-1.1a1.249,1.249,0,0,0-1.643.636L45.178,57.747a1.249,1.249,0,0,0,.636,1.643l2.494,1.1a1.249,1.249,0,0,0,1.643-.636L55.678,46.9a1.249,1.249,0,0,0-.636-1.643ZM52.715,47.9A.847.847,0,1,1,53.6,47.1.847.847,0,0,1,52.715,47.9Z" transform="translate(1026.486 2100.036)" fill="#fff" fill-rule="evenodd"/>
  </g>
</svg>
