<svg xmlns="http://www.w3.org/2000/svg" width="50" height="50" viewBox="0 0 50 50">
  <g id="learning" transform="translate(-2 -2)">
    <path id="Trazado_832379" data-name="Trazado 832379" d="M13.017,10.475l4.237-4.237L13.017,2V4.542A11.017,11.017,0,0,0,2,15.559H5.39a7.627,7.627,0,0,1,7.627-7.627Z" fill="#fff"/>
    <path id="Trazado_832380" data-name="Trazado 832380" d="M41.169,5.542A2.542,2.542,0,0,0,38.627,3H31V19.949H41.169Zm-1.695,9.322h-6.78V13.169h6.78Zm0-3.39h-6.78V9.78h6.78Zm0-3.39H34.39V6.39h5.085Z" transform="translate(-4.424 -0.153)" fill="#fff"/>
    <path id="Trazado_832381" data-name="Trazado 832381" d="M55.169,3H47.542A2.542,2.542,0,0,0,45,5.542V19.949H55.169ZM53.475,14.864h-6.78V13.169h6.78Zm0-3.39h-6.78V9.78h6.78Zm0-3.39H48.39V6.39h5.085Z" transform="translate(-6.559 -0.153)" fill="#fff"/>
    <path id="Trazado_832382" data-name="Trazado 832382" d="M40.01,33.185a3.4,3.4,0,0,0,2.719-3.322,3.338,3.338,0,0,0-.465-1.695H26.627a2.542,2.542,0,0,1-2.542-2.542V23.543a3.378,3.378,0,0,0-1.441,1.664,2.718,2.718,0,0,1-1.517,1.519,3.384,3.384,0,0,0,.593,6.459.847.847,0,0,1,.678.855c0,.023,0,.065-.008.1a3.394,3.394,0,0,0,3.39,3.35,3.342,3.342,0,0,0,1.587-.416.847.847,0,0,1,1.017.169,3.353,3.353,0,0,0,4.953,0,.847.847,0,0,1,1.021-.169,3.342,3.342,0,0,0,1.592.416,3.394,3.394,0,0,0,3.39-3.347,1.024,1.024,0,0,1-.008-.1A.847.847,0,0,1,40.01,33.185Z" transform="translate(-2.593 -3.286)" fill="#fff"/>
    <path id="Trazado_832383" data-name="Trazado 832383" d="M54.966,5h-.847V21.1a.847.847,0,0,1-.847.847H29.542a.847.847,0,0,1-.847-.847V5h-.847A.847.847,0,0,0,27,5.847V22.8a.847.847,0,0,0,.847.847H54.966a.847.847,0,0,0,.847-.847V5.847A.847.847,0,0,0,54.966,5Z" transform="translate(-3.814 -0.458)" fill="#fff"/>
    <path id="Trazado_832384" data-name="Trazado 832384" d="M44.68,26.923H42.689a5.042,5.042,0,0,1,.3,1.695,5.1,5.1,0,0,1-3.421,4.805,5.092,5.092,0,0,1-5.053,4.517,4.915,4.915,0,0,1-1.819-.353,5.042,5.042,0,0,1-6.531,0,4.915,4.915,0,0,1-1.819.353,5.092,5.092,0,0,1-5.053-4.517,5.08,5.08,0,0,1-.235-9.515,1.017,1.017,0,0,0,.578-.578,5.063,5.063,0,0,1,3.015-2.892V15.383a10.242,10.242,0,0,0-7.627,9.845.847.847,0,0,1-.08.358L9.57,37.092h4.6a.847.847,0,0,1,.847.847V48.109h8.475a.847.847,0,0,1,.847.847v5.085h16.1v-.847a.847.847,0,0,1-.847-.847v-3.39a.847.847,0,0,1,.847-.847V43.025a.847.847,0,0,1,.129-.449L44.68,36Z" transform="translate(-1.155 -2.041)" fill="#fff"/>
    <path id="Trazado_832385" data-name="Trazado 832385" d="M53.283,44.606h.5a.847.847,0,0,1,.847.847A8.486,8.486,0,0,1,47,53.885v1.7a10.184,10.184,0,0,0,9.322-10.135.847.847,0,0,1,.847-.847h.5l-2.192-2.192Z" transform="translate(-6.864 -6.165)" fill="#fff"/>
  </g>
</svg>
