<svg xmlns="http://www.w3.org/2000/svg" xmlns:xlink="http://www.w3.org/1999/xlink" width="245" height="268" viewBox="0 0 245 268">
  <defs>
    <clipPath id="clip-path">
      <circle id="Elipse_10073" data-name="Elipse 10073" cx="102.5" cy="102.5" r="102.5" transform="translate(285 15086)" fill="#fff" stroke="#707070" stroke-width="1"/>
    </clipPath>
    <clipPath id="clip-path-2">
      <rect id="Rectángulo_384618" data-name="Rectángulo 384618" width="143" height="141.661" fill="none"/>
    </clipPath>
    <clipPath id="clip-path-4">
      <rect id="Rectángulo_384608" data-name="Rectángulo 384608" width="135.178" height="111.308" fill="none"/>
    </clipPath>
    <clipPath id="clip-path-5">
      <path id="Trazado_833251" data-name="Trazado 833251" d="M53.257,528.618a7.868,7.868,0,1,1,4.884,1.7,7.868,7.868,0,0,1-4.884-1.7m3.479-18.394a3.929,3.929,0,0,1-4.2-2.741,15.892,15.892,0,0,0-4.145,2.3,3.927,3.927,0,0,1-4.8,6.048,15.927,15.927,0,0,0-1.3,4.561,3.927,3.927,0,0,1,.885,7.669,15.883,15.883,0,0,0,2.3,4.146,3.926,3.926,0,0,1,6.048,4.8,15.878,15.878,0,0,0,4.561,1.3,3.927,3.927,0,0,1,7.67-.884,15.9,15.9,0,0,0,4.146-2.3,3.927,3.927,0,0,1,4.8-6.048,15.892,15.892,0,0,0,1.3-4.561,3.928,3.928,0,0,1-.885-7.67,15.889,15.889,0,0,0-2.3-4.145,3.927,3.927,0,0,1-6.048-4.8,15.9,15.9,0,0,0-4.561-1.3,3.928,3.928,0,0,1-3.468,3.626" transform="translate(-42.292 -506.599)" fill="none"/>
    </clipPath>
    <linearGradient id="linear-gradient" x1="0.05" y1="2.542" x2="0.052" y2="2.542" gradientUnits="objectBoundingBox">
      <stop offset="0" stop-color="#be96f8"/>
      <stop offset="1" stop-color="#8183f1"/>
    </linearGradient>
    <clipPath id="clip-path-6">
      <path id="Trazado_833252" data-name="Trazado 833252" d="M354.433,292.076a4.944,4.944,0,1,1,3.069,1.071,4.944,4.944,0,0,1-3.069-1.071m2.186-11.559a2.469,2.469,0,0,1-2.64-1.723,9.984,9.984,0,0,0-2.6,1.448,2.468,2.468,0,0,1-3.015,3.8,10.011,10.011,0,0,0-.816,2.866,2.468,2.468,0,0,1,.556,4.82,9.98,9.98,0,0,0,1.448,2.605,2.467,2.467,0,0,1,3.8,3.015,9.979,9.979,0,0,0,2.866.816,2.468,2.468,0,0,1,4.82-.556,9.989,9.989,0,0,0,2.605-1.448,2.468,2.468,0,0,1,3.015-3.8,9.986,9.986,0,0,0,.816-2.866,2.468,2.468,0,0,1-.556-4.82,9.988,9.988,0,0,0-1.448-2.6,2.468,2.468,0,0,1-3.8-3.015,9.988,9.988,0,0,0-2.866-.817,2.469,2.469,0,0,1-2.18,2.278" transform="translate(-347.542 -278.238)" fill="none"/>
    </clipPath>
    <linearGradient id="linear-gradient-2" x1="-0.876" y1="4.628" x2="-0.873" y2="4.628" gradientUnits="objectBoundingBox">
      <stop offset="0" stop-color="#2c7efe"/>
      <stop offset="1" stop-color="#84b2fe"/>
    </linearGradient>
    <clipPath id="clip-path-7">
      <path id="Trazado_833253" data-name="Trazado 833253" d="M445.671,493.149a7.365,7.365,0,1,1,1.847.235,7.373,7.373,0,0,1-1.847-.235m-2.428-21.5a3.68,3.68,0,0,1-6.232,3.675,14.886,14.886,0,0,0-2.673,3.55,3.679,3.679,0,0,1-1.808,7,14.926,14.926,0,0,0,.623,4.4,3.68,3.68,0,0,1,3.675,6.231,14.883,14.883,0,0,0,3.55,2.674,3.679,3.679,0,0,1,7,1.807,14.874,14.874,0,0,0,4.4-.623,3.68,3.68,0,0,1,6.231-3.675,14.894,14.894,0,0,0,2.674-3.55,3.679,3.679,0,0,1,1.807-7,14.9,14.9,0,0,0-.623-4.4,3.68,3.68,0,0,1-3.675-6.231,14.888,14.888,0,0,0-3.55-2.673,3.679,3.679,0,0,1-7-1.807H447.5a14.9,14.9,0,0,0-4.261.623" transform="translate(-432.53 -471.028)" fill="none"/>
    </clipPath>
    <linearGradient id="linear-gradient-3" x1="-0.702" y1="2.749" x2="-0.7" y2="2.749" gradientUnits="objectBoundingBox">
      <stop offset="0" stop-color="#2c7efe"/>
      <stop offset="1" stop-color="#0643a3"/>
    </linearGradient>
    <clipPath id="clip-path-9">
      <path id="Rectángulo_384615" data-name="Rectángulo 384615" d="M10.173,0H89.931A10.173,10.173,0,0,1,100.1,10.173V51.554A10.173,10.173,0,0,1,89.931,61.727H10.174A10.174,10.174,0,0,1,0,51.553V10.173A10.173,10.173,0,0,1,10.173,0Z" fill="none"/>
    </clipPath>
    <linearGradient id="linear-gradient-4" x1="-0.214" y1="1.221" x2="-0.213" y2="1.221" gradientUnits="objectBoundingBox">
      <stop offset="0" stop-color="#d5f0ff"/>
      <stop offset="1" stop-color="#62cbec"/>
    </linearGradient>
    <clipPath id="clip-path-11">
      <rect id="Rectángulo_384616" data-name="Rectángulo 384616" width="44.295" height="34.39" fill="none"/>
    </clipPath>
  </defs>
  <g id="Grupo_1078897" data-name="Grupo 1078897" transform="translate(-809 -14358)">
    <g id="Grupo_1076128" data-name="Grupo 1076128" transform="translate(-16 -728)">
      <circle id="Elipse_10071" data-name="Elipse 10071" cx="122.5" cy="122.5" r="122.5" transform="translate(825 15086)" fill="#fff"/>
      <circle id="Elipse_10072" data-name="Elipse 10072" cx="102.5" cy="102.5" r="102.5" transform="translate(846 15106)" fill="#e1f6ef"/>
      <g id="Enmascarar_grupo_251" data-name="Enmascarar grupo 251" transform="translate(561 20)" clip-path="url(#clip-path)">
        <g id="Grupo_1076015" data-name="Grupo 1076015" transform="translate(316 15117.669)">
          <g id="Grupo_1076014" data-name="Grupo 1076014" clip-path="url(#clip-path-2)">
            <g id="Grupo_1075998" data-name="Grupo 1075998" transform="translate(0 0)">
              <g id="Grupo_1075997" data-name="Grupo 1075997" clip-path="url(#clip-path-2)">
                <g id="Grupo_1075996" data-name="Grupo 1075996" transform="translate(2.387 6.112)" opacity="0.5">
                  <g id="Grupo_1075995" data-name="Grupo 1075995">
                    <g id="Grupo_1075994" data-name="Grupo 1075994" clip-path="url(#clip-path-4)">
                      <path id="Trazado_833250" data-name="Trazado 833250" d="M83.432,185.223c-1.618,1.488-8.859,12.483-37.477-1.951C34.719,177.6,27.977,168.594,32.3,157.339c5.91-15.376,9.889-18.115,4.932-32.564-2.881-8.4-16.912-41.409,23.557-43.212,18.578-.828,21.788,16.46,54.965,1.167,55.163-25.43,67.776,99.724,24.2,101.665-17.978.8-29.1-.642-50.173-.808-1.2-.009-3.874-.015-5.052.834Z" transform="translate(-30.98 -79.321)" fill="#c7e9f4" fill-rule="evenodd"/>
                    </g>
                  </g>
                </g>
              </g>
            </g>
            <g id="Grupo_1076000" data-name="Grupo 1076000" transform="translate(3.259 39.034)">
              <g id="Grupo_1075999" data-name="Grupo 1075999" clip-path="url(#clip-path-5)">
                <rect id="Rectángulo_384610" data-name="Rectángulo 384610" width="42.5" height="42.499" transform="translate(-12.626 6.265) rotate(-26.391)" fill="url(#linear-gradient)"/>
              </g>
            </g>
            <g id="Grupo_1076002" data-name="Grupo 1076002" transform="translate(26.778 21.438)">
              <g id="Grupo_1076001" data-name="Grupo 1076001" clip-path="url(#clip-path-6)">
                <rect id="Rectángulo_384611" data-name="Rectángulo 384611" width="26.708" height="26.708" transform="translate(-7.934 3.937) rotate(-26.391)" fill="url(#linear-gradient-2)"/>
              </g>
            </g>
            <g id="Grupo_1076004" data-name="Grupo 1076004" transform="translate(33.326 36.293)">
              <g id="Grupo_1076003" data-name="Grupo 1076003" clip-path="url(#clip-path-7)">
                <rect id="Rectángulo_384612" data-name="Rectángulo 384612" width="40.192" height="40.186" transform="translate(-11.95 5.923) rotate(-26.391)" fill="url(#linear-gradient-3)"/>
              </g>
            </g>
            <g id="Grupo_1076006" data-name="Grupo 1076006" transform="translate(0 0)">
              <g id="Grupo_1076005" data-name="Grupo 1076005" clip-path="url(#clip-path-2)">
                <path id="Trazado_833254" data-name="Trazado 833254" d="M213.742,788.2H322.018a.968.968,0,0,1,.968.968v74.365a.97.97,0,0,1-.968.968H213.742a.972.972,0,0,1-.968-.968V789.172a.97.97,0,0,1,.968-.968" transform="translate(-196.38 -727.473)" fill="#2c7efe" fill-rule="evenodd"/>
              </g>
            </g>
            <g id="Grupo_1076008" data-name="Grupo 1076008" transform="translate(21.448 66.262)">
              <g id="Grupo_1076007" data-name="Grupo 1076007" clip-path="url(#clip-path-9)">
                <rect id="Rectángulo_384614" data-name="Rectángulo 384614" width="100.104" height="61.727" transform="translate(0)" fill="url(#linear-gradient-4)"/>
              </g>
            </g>
            <g id="Grupo_1076013" data-name="Grupo 1076013" transform="translate(0 0)">
              <g id="Grupo_1076012" data-name="Grupo 1076012" clip-path="url(#clip-path-2)">
                <path id="Trazado_833255" data-name="Trazado 833255" d="M92.837,1701.437h48.984a2.68,2.68,0,0,0,2.3,1.315h21.191a2.676,2.676,0,0,0,2.3-1.315H216.6a2.681,2.681,0,0,1,2.673,2.673v4.479a2.679,2.679,0,0,1-2.673,2.67H92.837a2.679,2.679,0,0,1-2.673-2.67v-4.479a2.681,2.681,0,0,1,2.673-2.673" transform="translate(-83.217 -1570.341)" fill="#0643a3" fill-rule="evenodd"/>
                <path id="Trazado_833256" data-name="Trazado 833256" d="M378.468,867.206h-100.1v-6.441a.787.787,0,0,1,.784-.784h98.536a.787.787,0,0,1,.784.784Z" transform="translate(-256.916 -793.719)" fill="#0643a3" fill-rule="evenodd"/>
                <path id="Trazado_833257" data-name="Trazado 833257" d="M338.553,889.651a1.568,1.568,0,1,0-1.568-1.568,1.57,1.57,0,0,0,1.568,1.568" transform="translate(-311.02 -818.209)" fill="#fff" fill-rule="evenodd"/>
                <path id="Trazado_833258" data-name="Trazado 833258" d="M403.062,889.651a1.568,1.568,0,1,0-1.568-1.568,1.572,1.572,0,0,0,1.568,1.568" transform="translate(-370.559 -818.209)" fill="#fff" fill-rule="evenodd"/>
                <path id="Trazado_833259" data-name="Trazado 833259" d="M468.094,889.651a1.568,1.568,0,1,0-1.568-1.568,1.57,1.57,0,0,0,1.568,1.568" transform="translate(-430.58 -818.209)" fill="#fff" fill-rule="evenodd"/>
                <path id="Trazado_833260" data-name="Trazado 833260" d="M602.508,887.633h48.708a1.482,1.482,0,0,1,0,2.963H602.508a1.482,1.482,0,1,1,0-2.963" transform="translate(-554.714 -819.241)" fill="#fff" fill-rule="evenodd"/>
                <path id="Trazado_833261" data-name="Trazado 833261" d="M1385.825,880.739h5.309a.4.4,0,1,1,0,.8h-5.309a.4.4,0,0,1,0-.8" transform="translate(-1278.676 -812.878)" fill="#fff" fill-rule="evenodd"/>
                <path id="Trazado_833262" data-name="Trazado 833262" d="M1385.825,902.428h5.309a.4.4,0,1,1,0,.8h-5.309a.4.4,0,0,1,0-.8" transform="translate(-1278.676 -832.896)" fill="#fff" fill-rule="evenodd"/>
                <path id="Trazado_833263" data-name="Trazado 833263" d="M1385.825,922.553h5.309a.4.4,0,1,1,0,.8h-5.309a.4.4,0,0,1,0-.8" transform="translate(-1278.676 -851.47)" fill="#fff" fill-rule="evenodd"/>
                <path id="Trazado_833264" data-name="Trazado 833264" d="M403.555,1020.98a6.808,6.808,0,1,1,6.808-6.808,6.815,6.815,0,0,1-6.808,6.808m0-12.624a5.816,5.816,0,1,0,5.816,5.816,5.822,5.822,0,0,0-5.816-5.816" transform="translate(-366.178 -929.747)" fill="#0643a3"/>
                <path id="Trazado_833265" data-name="Trazado 833265" d="M403.555,1240.867a6.816,6.816,0,1,1,6.808-6.825,6.824,6.824,0,0,1-6.808,6.825m0-12.641a5.825,5.825,0,1,0,5.816,5.816,5.822,5.822,0,0,0-5.816-5.816" transform="translate(-366.178 -1132.676)" fill="#0643a3"/>
                <path id="Trazado_833266" data-name="Trazado 833266" d="M403.555,1468.882a6.808,6.808,0,1,1,6.808-6.808,6.816,6.816,0,0,1-6.808,6.808m0-12.624a5.816,5.816,0,1,0,5.816,5.816,5.822,5.822,0,0,0-5.816-5.816" transform="translate(-366.178 -1343.138)" fill="#0643a3"/>
                <path id="Trazado_833267" data-name="Trazado 833267" d="M1260.242,1032.984h13.69c.476,0,.852.261.852.591s-.376.591-.852.591h-13.69c-.476,0-.852-.261-.852-.591s.376-.591.852-.591" transform="translate(-1162.354 -953.393)" fill="#0643a3" fill-rule="evenodd"/>
                <path id="Trazado_833268" data-name="Trazado 833268" d="M984.947,1069.318h34.9c.476,0,.852.261.852.591s-.376.591-.852.591h-34.9c-.451,0-.852-.261-.852-.591s.4-.591.852-.591" transform="translate(-908.27 -986.927)" fill="#0643a3" fill-rule="evenodd"/>
                <path id="Trazado_833269" data-name="Trazado 833269" d="M1240.067,1107.005h15.244c.476,0,.853.261.853.591s-.376.591-.853.591h-15.244c-.476,0-.852-.261-.852-.591s.376-.591.852-.591" transform="translate(-1143.733 -1021.71)" fill="#0643a3" fill-rule="evenodd"/>
                <path id="Trazado_833270" data-name="Trazado 833270" d="M654.984,1143.112h21.337c.476,0,.852.261.852.591s-.376.591-.852.591H654.984c-.476,0-.852-.261-.852-.591s.376-.591.852-.591" transform="translate(-603.731 -1055.035)" fill="#0643a3" fill-rule="evenodd"/>
                <path id="Trazado_833271" data-name="Trazado 833271" d="M654.984,1032.984h43.4c.476,0,.852.261.852.591s-.376.591-.852.591h-43.4c-.476,0-.852-.261-.852-.591s.376-.591.852-.591" transform="translate(-603.731 -953.393)" fill="#0643a3" fill-rule="evenodd"/>
                <path id="Trazado_833272" data-name="Trazado 833272" d="M654.984,1069.318h22.164c.476,0,.852.261.852.591s-.376.591-.852.591H654.984c-.476,0-.852-.261-.852-.591s.376-.591.852-.591" transform="translate(-603.731 -986.927)" fill="#0643a3" fill-rule="evenodd"/>
                <path id="Trazado_833273" data-name="Trazado 833273" d="M654.984,1107.005H696.2c.476,0,.878.261.878.591s-.4.591-.878.591H654.984c-.476,0-.852-.261-.852-.591s.376-.591.852-.591" transform="translate(-603.731 -1021.71)" fill="#0643a3" fill-rule="evenodd"/>
                <path id="Trazado_833274" data-name="Trazado 833274" d="M1260.242,1252.853h13.69c.476,0,.852.278.852.591,0,.33-.376.591-.852.591h-13.69c-.476,0-.852-.261-.852-.591,0-.313.376-.591.852-.591" transform="translate(-1162.354 -1156.321)" fill="#0643a3" fill-rule="evenodd"/>
                <path id="Trazado_833275" data-name="Trazado 833275" d="M1311.982,1289.187h9.7c.476,0,.852.278.852.609,0,.313-.376.591-.852.591h-9.7c-.476,0-.852-.278-.852-.591,0-.33.376-.609.852-.609" transform="translate(-1210.107 -1189.855)" fill="#0643a3" fill-rule="evenodd"/>
                <path id="Trazado_833276" data-name="Trazado 833276" d="M926.374,1326.873h39.414c.476,0,.853.278.853.591,0,.33-.376.591-.853.591H926.374c-.476,0-.852-.261-.852-.591,0-.313.376-.591.852-.591" transform="translate(-854.21 -1224.637)" fill="#0643a3" fill-rule="evenodd"/>
                <path id="Trazado_833277" data-name="Trazado 833277" d="M654.984,1363.207h41.972c.476,0,.852.261.852.591,0,.313-.376.591-.852.591H654.984c-.476,0-.852-.278-.852-.591,0-.33.376-.591.852-.591" transform="translate(-603.731 -1258.172)" fill="#0643a3" fill-rule="evenodd"/>
                <path id="Trazado_833278" data-name="Trazado 833278" d="M654.984,1252.853h14.191c.477,0,.853.278.853.591,0,.33-.376.591-.853.591H654.984c-.476,0-.852-.261-.852-.591,0-.313.376-.591.852-.591" transform="translate(-603.731 -1156.321)" fill="#0643a3" fill-rule="evenodd"/>
                <path id="Trazado_833279" data-name="Trazado 833279" d="M654.984,1289.187H701.8c.476,0,.852.278.852.609,0,.313-.376.591-.852.591H654.984c-.476,0-.852-.278-.852-.591,0-.33.376-.609.852-.609" transform="translate(-603.731 -1189.855)" fill="#0643a3" fill-rule="evenodd"/>
                <path id="Trazado_833280" data-name="Trazado 833280" d="M654.984,1326.873H672.31c.476,0,.852.278.852.591,0,.33-.376.591-.852.591H654.984c-.476,0-.852-.261-.852-.591,0-.313.376-.591.852-.591" transform="translate(-603.731 -1224.637)" fill="#0643a3" fill-rule="evenodd"/>
                <path id="Trazado_833281" data-name="Trazado 833281" d="M889.3,1252.853h24.9c.476,0,.853.278.853.591,0,.33-.376.591-.853.591H889.3c-.476,0-.878-.261-.878-.591,0-.313.4-.591.878-.591" transform="translate(-819.971 -1156.321)" fill="#0643a3" fill-rule="evenodd"/>
                <path id="Trazado_833282" data-name="Trazado 833282" d="M1098.188,1480.885h26.176c.476,0,.852.261.852.591s-.376.591-.852.591h-26.176c-.476,0-.853-.261-.853-.591s.376-.591.853-.591" transform="translate(-1012.786 -1366.783)" fill="#0643a3" fill-rule="evenodd"/>
                <path id="Trazado_833283" data-name="Trazado 833283" d="M1209.478,1517.219h17.6c.476,0,.852.261.852.591s-.376.591-.852.591h-17.6c-.476,0-.853-.261-.853-.591s.376-.591.853-.591" transform="translate(-1115.5 -1400.317)" fill="#0643a3" fill-rule="evenodd"/>
                <path id="Trazado_833284" data-name="Trazado 833284" d="M907.826,1554.906H948.67c.476,0,.852.261.852.591s-.376.591-.852.591H907.826c-.451,0-.852-.261-.852-.591s.4-.591.852-.591" transform="translate(-837.091 -1435.1)" fill="#0643a3" fill-rule="evenodd"/>
                <path id="Trazado_833285" data-name="Trazado 833285" d="M654.984,1591.014h7.823c.476,0,.853.261.853.591s-.376.591-.853.591h-7.823c-.476,0-.852-.261-.852-.591s.376-.591.852-.591" transform="translate(-603.731 -1468.426)" fill="#0643a3" fill-rule="evenodd"/>
                <path id="Trazado_833286" data-name="Trazado 833286" d="M654.984,1480.885h30.639c.451,0,.852.261.852.591s-.4.591-.852.591H654.984c-.476,0-.852-.261-.852-.591s.376-.591.852-.591" transform="translate(-603.731 -1366.783)" fill="#0643a3" fill-rule="evenodd"/>
                <path id="Trazado_833287" data-name="Trazado 833287" d="M654.984,1517.219h8.7c.476,0,.852.261.852.591s-.376.591-.852.591h-8.7c-.476,0-.852-.261-.852-.591s.376-.591.852-.591" transform="translate(-603.731 -1400.317)" fill="#0643a3" fill-rule="evenodd"/>
                <path id="Trazado_833288" data-name="Trazado 833288" d="M654.984,1554.906h16.122c.451,0,.852.261.852.591s-.4.591-.852.591H654.984c-.476,0-.852-.261-.852-.591s.376-.591.852-.591" transform="translate(-603.731 -1435.1)" fill="#0643a3" fill-rule="evenodd"/>
                <path id="Trazado_833289" data-name="Trazado 833289" d="M815.409,1517.219h26.677c.451,0,.852.261.852.591s-.4.591-.852.591H815.409c-.451,0-.853-.261-.853-.591s.4-.591.853-.591" transform="translate(-751.794 -1400.317)" fill="#0643a3" fill-rule="evenodd"/>
                <path id="Trazado_833290" data-name="Trazado 833290" d="M423.738,1028.113h0a1.606,1.606,0,0,1,2.243,0l3.182,3.182,6.868-6.868a1.586,1.586,0,0,1,2.243,2.243l-7.877,7.877a1.607,1.607,0,0,1-1.234.47,1.645,1.645,0,0,1-1.252-.47l-4.173-4.173a1.6,1.6,0,0,1,0-2.26" transform="translate(-390.656 -945.061)" fill="#e55a7f" fill-rule="evenodd"/>
                <path id="Trazado_833291" data-name="Trazado 833291" d="M423.738,1248.156h0a1.574,1.574,0,0,1,2.243,0l3.182,3.182,6.868-6.886a1.606,1.606,0,0,1,2.243,0,1.574,1.574,0,0,1,0,2.243l-7.877,7.894a1.592,1.592,0,0,1-1.234.452,1.63,1.63,0,0,1-1.252-.452l-4.173-4.19a1.574,1.574,0,0,1,0-2.243" transform="translate(-390.656 -1148.146)" fill="#e55a7f" fill-rule="evenodd"/>
                <path id="Trazado_833292" data-name="Trazado 833292" d="M423.738,1476.015h0a1.606,1.606,0,0,1,2.243,0l3.182,3.182,6.868-6.868a1.586,1.586,0,0,1,2.243,2.243l-7.877,7.877a1.547,1.547,0,0,1-1.234.469,1.584,1.584,0,0,1-1.252-.469l-4.173-4.173a1.6,1.6,0,0,1,0-2.26" transform="translate(-390.656 -1358.452)" fill="#e55a7f" fill-rule="evenodd"/>
                <path id="Trazado_833293" data-name="Trazado 833293" d="M981.464,79.763a32.574,32.574,0,1,0-32.616-32.616,32.641,32.641,0,0,0,32.616,32.616" transform="translate(-875.739 -13.489)" fill="#fff" fill-rule="evenodd"/>
                <path id="Trazado_833294" data-name="Trazado 833294" d="M1642.29,116.976a.749.749,0,0,1-.7-.493,32.843,32.843,0,0,0-9.8-14.008.749.749,0,0,1,.959-1.151,34.341,34.341,0,0,1,10.254,14.647.75.75,0,0,1-.7,1.005" transform="translate(-1505.804 -93.357)" fill="#db3a55"/>
                <path id="Trazado_833295" data-name="Trazado 833295" d="M1637.774,112.836a1.129,1.129,0,0,1-1.058-.742,32.468,32.468,0,0,0-9.692-13.847,1.126,1.126,0,0,1,1.441-1.73,34.719,34.719,0,0,1,10.367,14.808,1.126,1.126,0,0,1-1.058,1.511M1627.745,97.01l-.034,0a.372.372,0,0,0-.2.656,33.225,33.225,0,0,1,9.918,14.169.376.376,0,0,0,.477.222.371.371,0,0,0,.222-.477A33.961,33.961,0,0,0,1627.983,97.1a.37.37,0,0,0-.237-.086" transform="translate(-1501.288 -88.84)" fill="#db3a55"/>
                <path id="Trazado_833296" data-name="Trazado 833296" d="M972.493,71.54a33.323,33.323,0,1,1,0-66.646,33.022,33.022,0,0,1,15.949,4.052.749.749,0,0,1-.716,1.316,31.54,31.54,0,0,0-15.234-3.87,31.825,31.825,0,1,0,31.867,31.783,27.2,27.2,0,0,0-.819-6.807.749.749,0,1,1,1.45-.376,28.677,28.677,0,0,1,.867,7.183A33.4,33.4,0,0,1,972.493,71.54" transform="translate(-866.768 -4.517)" fill="#db3a55"/>
                <path id="Trazado_833297" data-name="Trazado 833297" d="M967.976,67.4a33.7,33.7,0,1,1,0-67.4,33.4,33.4,0,0,1,16.13,4.1,1.126,1.126,0,1,1-1.076,1.978,31.168,31.168,0,0,0-15.054-3.824,31.448,31.448,0,1,0,31.49,31.406,26.819,26.819,0,0,0-.807-6.713,1.126,1.126,0,1,1,2.18-.565,29.065,29.065,0,0,1,.879,7.278A33.78,33.78,0,0,1,967.976,67.4m0-66.645a32.946,32.946,0,1,0,32.988,32.9,28.305,28.305,0,0,0-.855-7.089.371.371,0,0,0-.172-.228.366.366,0,0,0-.28-.039.373.373,0,0,0-.268.454,27.569,27.569,0,0,1,.831,6.9A32.244,32.244,0,1,1,967.976,1.5,31.914,31.914,0,0,1,983.39,5.414a.372.372,0,1,0,.355-.654A32.646,32.646,0,0,0,967.976.754" transform="translate(-862.251 0)" fill="#db3a55"/>
                <path id="Trazado_833298" data-name="Trazado 833298" d="M1068.192,262.271l-13.99-7.417c-.674-.421-.843.337-.59.759l12.642,13.822c1.349,1.18,2.36,1.18,3.877,0,10.788-9.608,21.491-19.215,32.279-28.823a.448.448,0,0,0-.59-.674Z" transform="translate(-972.328 -221.365)" fill="#db3a55" fill-rule="evenodd"/>
                <path id="Trazado_833299" data-name="Trazado 833299" d="M202.652,1659.6c.266-1.529,2.164-2.193,2.854-3.185.353-.638-1.114-.762-.858-1,.569-.465,2.473-.013,3.187-.7,1.019-.9-2.372-1.005-1.431-2.194.367-.517,3.025.888,4.03-.054.69-.644-1.207-1.086-1.118-1.416.092-.459,3.51.467,4.1-.89.122-1.223-1.714-.331-1.931-.88-.123-.53,2.93-.718,2.041-2.807-1.071-1.675-4.029,2.626-4.7,2.343-.752-.548,1.66-2.081-.454-2.4-2.144.015-1.293,3.41-1.913,3.4-.758.183-.61-1.669-1.713-.941-.992.622.608,2.605-.337,3.139-.715.141,0-1.893-1.358-1.645-1.38.318.337,3.4-.609,3.927-.423.336-.512-1.885-1.344-1.356-.889.715-.161,3.167-.241,4.75.663.7,1.128,1.2,1.789,1.9" transform="translate(-185.197 -1519.26)" fill="#65b646" fill-rule="evenodd"/>
                <path id="Trazado_833300" data-name="Trazado 833300" d="M169.1,1612.343c-.736-1.366.345-3.06.274-4.267-.117-.72-1.345.089-1.289-.253.16-.716,1.937-1.539,2.073-2.52.246-1.334-2.485.677-2.481-.84-.032-.633,2.927-1.171,3.134-2.531.143-.934-1.62-.109-1.753-.425-.213-.417,3.046-1.8,2.675-3.236-.659-1.035-1.553.8-2.062.5-.425-.341,1.86-2.375-.13-3.468-1.875-.655-1.544,4.554-2.245,4.744-.929.035.019-2.662-1.839-1.6-1.676,1.336,1.092,3.479.6,3.856-.481.613-1.511-.934-1.928.319-.4,1.1,2.088,1.672,1.675,2.677-.475.554-1.169-1.491-2.083-.453-.89,1.1,2.369,2.467,1.948,3.463-.124.526-1.567-1.166-1.895-.233-.258,1.11,1.832,2.587,2.747,3.881l2.58.387" transform="translate(-150.962 -1472.336)" fill="#65b646" fill-rule="evenodd"/>
                <path id="Trazado_833301" data-name="Trazado 833301" d="M72.412,1661.9c-.215-1.537-2.089-2.263-2.746-3.276-.332-.649,1.137-.725.889-.967-.555-.482-2.472-.093-3.162-.8-.989-.929,2.4-.926,1.5-2.144-.349-.53-3.051.788-4.025-.187-.669-.667,1.242-1.046,1.164-1.379-.076-.463-3.522.352-4.072-1.024-.081-1.226,1.722-.276,1.959-.817.14-.526-2.907-.813-1.95-2.871,1.125-1.638,3.942,2.757,4.618,2.494.77-.523-1.591-2.134.533-2.381,2.143.084,1.18,3.451,1.8,3.461.752.21.664-1.647,1.743-.883.97.653-.694,2.583.234,3.147.711.166.059-1.892,1.41-1.6,1.37.362-.448,3.39.482,3.943.412.35.572-1.867,1.388-1.31.865.743.056,3.171.085,4.754l-1.851,1.841" transform="translate(-57.023 -1521.085)" fill="#65b646" fill-rule="evenodd"/>
                <path id="Trazado_833302" data-name="Trazado 833302" d="M216.829,1658.952a25.391,25.391,0,0,0-4.852,6.551l1.122,1.191c.266-1.529,2.163-2.193,2.854-3.185.353-.638-1.114-.762-.858-.995.569-.465,2.473-.013,3.186-.7,1.019-.9-2.372-1.005-1.431-2.194.367-.517,3.025.888,4.03-.054.69-.644-1.207-1.086-1.118-1.416.092-.459,3.51.467,4.1-.89.122-1.223-1.714-.331-1.931-.88-.119-.513,2.729-.7,2.116-2.6a24.3,24.3,0,0,0-7.223,5.173" transform="translate(-195.644 -1526.355)" fill="#97cb69" fill-rule="evenodd"/>
                <path id="Trazado_833303" data-name="Trazado 833303" d="M208.767,1605.993a25.425,25.425,0,0,0,.236,8.149l1.619.243c-.736-1.366.345-3.06.274-4.267-.117-.72-1.345.089-1.289-.253.16-.716,1.937-1.539,2.074-2.52.246-1.333-2.485.677-2.481-.839-.032-.633,2.927-1.171,3.134-2.531.143-.935-1.62-.109-1.753-.425-.213-.417,3.046-1.8,2.675-3.236-.659-1.035-1.553.8-2.062.5-.411-.33,1.709-2.242.056-3.354a24.274,24.274,0,0,0-2.482,8.531" transform="translate(-192.484 -1474.377)" fill="#97cb69" fill-rule="evenodd"/>
                <path id="Trazado_833304" data-name="Trazado 833304" d="M68.948,1660.859a25.385,25.385,0,0,1,4.635,6.705l-1.161,1.156c-.215-1.537-2.089-2.263-2.746-3.276-.332-.649,1.137-.725.889-.968-.555-.482-2.472-.093-3.162-.8-.989-.929,2.4-.926,1.5-2.144-.349-.53-3.051.788-4.025-.187-.669-.667,1.242-1.046,1.164-1.379-.076-.463-3.522.352-4.072-1.024-.081-1.226,1.722-.276,1.959-.817.134-.508-2.706-.793-2.032-2.669a24.256,24.256,0,0,1,7.05,5.4" transform="translate(-57.033 -1527.901)" fill="#97cb69" fill-rule="evenodd"/>
                <path id="Trazado_833305" data-name="Trazado 833305" d="M1599.556,1617.735l-.181-.22c5.12-4.227,10.622-11.321,11.368-17.64l.283.033a22.815,22.815,0,0,1-4.167,9.826,40.149,40.149,0,0,1-7.3,8" transform="translate(-1476.143 -1476.604)" fill="#09a98e"/>
                <path id="Trazado_833306" data-name="Trazado 833306" d="M1550.555,1581.429c.765-6.594-.182-15.521-4.022-20.6l.227-.172a22.819,22.819,0,0,1,3.8,9.974,40.132,40.132,0,0,1,.276,10.828Z" transform="translate(-1427.372 -1440.411)" fill="#09a98e"/>
                <path id="Trazado_833307" data-name="Trazado 833307" d="M1599.151,1581.447l-.251-.134c3.135-5.852,5.536-14.5,3.83-20.634l.274-.076a22.816,22.816,0,0,1-.13,10.673,40.125,40.125,0,0,1-3.724,10.171" transform="translate(-1475.705 -1440.358)" fill="#09a98e"/>
                <path id="Trazado_833308" data-name="Trazado 833308" d="M1737.3,1572.092a4.008,4.008,0,0,1-.808-1.615c-.091-.709.344-1.646.786-1.625.391-.031.9.891.808,1.614a3.916,3.916,0,0,1-.786,1.626" transform="translate(-1602.686 -1447.971)" fill="#16b79e" fill-rule="evenodd"/>
                <path id="Trazado_833309" data-name="Trazado 833309" d="M1707.6,1623.112a3.618,3.618,0,0,1-1.625-.188c-.583-.283-1.077-1.078-.842-1.4.171-.312,1.122-.241,1.625.188a3.544,3.544,0,0,1,.842,1.4" transform="translate(-1573.696 -1496.406)" fill="#16b79e" fill-rule="evenodd"/>
                <path id="Trazado_833310" data-name="Trazado 833310" d="M1738.2,1640.562c.425.422.625.839,1.226,1.083s1.522.08,1.607-.312c.117-.336-.572-1-1.226-1.082a3.524,3.524,0,0,0-1.606.311" transform="translate(-1604.273 -1513.852)" fill="#16b79e" fill-rule="evenodd"/>
                <path id="Trazado_833311" data-name="Trazado 833311" d="M1693.261,1657.382a3.647,3.647,0,0,1-1.625-.188c-.583-.283-1.077-1.078-.842-1.4.172-.312,1.123-.24,1.625.188a3.535,3.535,0,0,1,.842,1.4" transform="translate(-1560.463 -1528.035)" fill="#16b79e" fill-rule="evenodd"/>
                <path id="Trazado_833312" data-name="Trazado 833312" d="M1723.868,1674.828c.425.421.627.839,1.226,1.083s1.523.081,1.606-.311c.118-.336-.572-1-1.226-1.083a3.561,3.561,0,0,0-1.606.311" transform="translate(-1591.044 -1545.478)" fill="#16b79e" fill-rule="evenodd"/>
                <path id="Trazado_833313" data-name="Trazado 833313" d="M1676.265,1688.252a3.625,3.625,0,0,1-1.612-.283c-.565-.318-1.012-1.141-.757-1.45.189-.3,1.135-.174,1.611.284a3.547,3.547,0,0,1,.758,1.449" transform="translate(-1544.854 -1556.421)" fill="#16b79e" fill-rule="evenodd"/>
                <path id="Trazado_833314" data-name="Trazado 833314" d="M1705.85,1708c.4.445.575.875,1.159,1.154s1.515.17,1.623-.216c.137-.328-.512-1.028-1.161-1.153a3.531,3.531,0,0,0-1.621.215" transform="translate(-1574.414 -1576.165)" fill="#16b79e" fill-rule="evenodd"/>
                <path id="Trazado_833315" data-name="Trazado 833315" d="M1655.5,1718.345a3.617,3.617,0,0,1-1.586-.4c-.542-.357-.929-1.209-.652-1.5.21-.288,1.144-.093,1.586.4a3.552,3.552,0,0,1,.652,1.5" transform="translate(-1525.792 -1584.071)" fill="#16b79e" fill-rule="evenodd"/>
                <path id="Trazado_833316" data-name="Trazado 833316" d="M1683.738,1740.751c.366.473.511.913,1.075,1.233s1.5.278,1.632-.1c.161-.318-.436-1.062-1.074-1.233a3.542,3.542,0,0,0-1.633.1" transform="translate(-1554.006 -1606.47)" fill="#16b79e" fill-rule="evenodd"/>
                <path id="Trazado_833317" data-name="Trazado 833317" d="M1636.569,1742.811a3.64,3.64,0,0,1-1.515-.616c-.486-.429-.749-1.327-.436-1.577.249-.255,1.146.069,1.515.616a3.531,3.531,0,0,1,.436,1.577" transform="translate(-1508.545 -1606.421)" fill="#16b79e" fill-rule="evenodd"/>
                <path id="Trazado_833318" data-name="Trazado 833318" d="M1661.875,1769.914c.3.52.379.976.891,1.372s1.445.485,1.63.13c.2-.292-.284-1.112-.89-1.372a3.542,3.542,0,0,0-1.632-.13" transform="translate(-1533.827 -1633.514)" fill="#16b79e" fill-rule="evenodd"/>
                <path id="Trazado_833319" data-name="Trazado 833319" d="M1525.661,1541.563a4.006,4.006,0,0,1-1.7-.6c-.557-.449-.893-1.427-.56-1.717.261-.293,1.268.018,1.7.6a3.914,3.914,0,0,1,.56,1.717" transform="translate(-1405.899 -1420.54)" fill="#16b79e" fill-rule="evenodd"/>
                <path id="Trazado_833320" data-name="Trazado 833320" d="M1536.29,1596.148c-.454.388-.686.791-1.3.99s-1.524-.031-1.579-.428c-.092-.343.643-.951,1.3-.99a3.532,3.532,0,0,1,1.579.428" transform="translate(-1415.252 -1472.766)" fill="#16b79e" fill-rule="evenodd"/>
                <path id="Trazado_833321" data-name="Trazado 833321" d="M1571.172,1581.477a3.636,3.636,0,0,0,1.634-.069c.6-.239,1.154-1,.942-1.337-.147-.324-1.1-.322-1.634.068s-.614.791-.943,1.338" transform="translate(-1450.113 -1458.11)" fill="#16b79e" fill-rule="evenodd"/>
                <path id="Trazado_833322" data-name="Trazado 833322" d="M1549.7,1630.789c-.454.389-.686.791-1.3.991s-1.524-.031-1.579-.428c-.093-.343.642-.951,1.3-.99a3.544,3.544,0,0,1,1.579.427" transform="translate(-1427.631 -1504.739)" fill="#16b79e" fill-rule="evenodd"/>
                <path id="Trazado_833323" data-name="Trazado 833323" d="M1584.577,1616.117a3.629,3.629,0,0,0,1.635-.068c.6-.24,1.153-1,.942-1.337-.147-.324-1.1-.322-1.634.068s-.612.791-.943,1.337" transform="translate(-1462.485 -1490.082)" fill="#16b79e" fill-rule="evenodd"/>
                <path id="Trazado_833324" data-name="Trazado 833324" d="M1558.739,1665.465c-.476.362-.731.748-1.359.911s-1.519-.121-1.551-.521c-.073-.348.7-.912,1.359-.911a3.539,3.539,0,0,1,1.551.521" transform="translate(-1435.949 -1536.661)" fill="#16b79e" fill-rule="evenodd"/>
                <path id="Trazado_833325" data-name="Trazado 833325" d="M1593.936,1653.248a3.623,3.623,0,0,0,1.635.029c.616-.2,1.211-.927,1.02-1.279-.128-.332-1.081-.387-1.635-.028s-.658.753-1.019,1.278" transform="translate(-1471.123 -1524.458)" fill="#16b79e" fill-rule="evenodd"/>
                <path id="Trazado_833326" data-name="Trazado 833326" d="M1564.555,1702.294a3.633,3.633,0,0,1-1.419.813c-.638.117-1.507-.229-1.51-.631-.048-.353.761-.859,1.42-.812a3.54,3.54,0,0,1,1.509.629" transform="translate(-1441.301 -1570.548)" fill="#16b79e" fill-rule="evenodd"/>
                <path id="Trazado_833327" data-name="Trazado 833327" d="M1599.971,1693.1a3.643,3.643,0,0,0,1.629.145c.628-.16,1.273-.838,1.108-1.2-.1-.34-1.051-.462-1.63-.145s-.71.7-1.108,1.2" transform="translate(-1476.693 -1561.364)" fill="#16b79e" fill-rule="evenodd"/>
                <path id="Trazado_833328" data-name="Trazado 833328" d="M1567.86,1734.452a3.634,3.634,0,0,1-1.519.606c-.648.026-1.46-.439-1.406-.835,0-.356.874-.745,1.519-.606a3.534,3.534,0,0,1,1.406.835" transform="translate(-1444.354 -1600.015)" fill="#16b79e" fill-rule="evenodd"/>
                <path id="Trazado_833329" data-name="Trazado 833329" d="M1603.258,1731.2a3.636,3.636,0,0,0,1.593.372c.645-.07,1.379-.65,1.266-1.036-.056-.352-.975-.6-1.593-.371s-.8.6-1.266,1.036" transform="translate(-1479.727 -1596.768)" fill="#16b79e" fill-rule="evenodd"/>
                <path id="Trazado_833330" data-name="Trazado 833330" d="M1633.87,1535.582c-.522-.4-1.007-.565-1.361-1.186s-.306-1.655.11-1.8c.351-.177,1.172.483,1.361,1.187a3.912,3.912,0,0,1-.11,1.8" transform="translate(-1506.506 -1414.48)" fill="#4fbd9d" fill-rule="evenodd"/>
                <path id="Trazado_833331" data-name="Trazado 833331" d="M1622.482,1593.76a3.625,3.625,0,0,1-1.575.442c-.646-.041-1.406-.589-1.311-.978.04-.354.947-.649,1.575-.443s.828.561,1.312.979" transform="translate(-1494.799 -1469.994)" fill="#4fbd9d" fill-rule="evenodd"/>
                <path id="Trazado_833332" data-name="Trazado 833332" d="M1657.484,1594.944a3.609,3.609,0,0,0,1.545.537c.647,0,1.438-.5,1.368-.9-.019-.356-.907-.706-1.545-.538s-.86.511-1.368.9" transform="translate(-1529.774 -1471.185)" fill="#4fbd9d" fill-rule="evenodd"/>
                <path id="Trazado_833333" data-name="Trazado 833333" d="M1622.209,1630.9a3.621,3.621,0,0,1-1.575.443c-.647-.041-1.406-.589-1.312-.978.041-.354.948-.649,1.576-.443s.828.561,1.311.978" transform="translate(-1494.547 -1504.277)" fill="#4fbd9d" fill-rule="evenodd"/>
                <path id="Trazado_833334" data-name="Trazado 833334" d="M1657.21,1632.088a3.611,3.611,0,0,0,1.545.537c.648,0,1.439-.5,1.368-.9-.019-.355-.906-.7-1.545-.537s-.861.511-1.368.9" transform="translate(-1529.522 -1505.468)" fill="#4fbd9d" fill-rule="evenodd"/>
                <path id="Trazado_833335" data-name="Trazado 833335" d="M1618.152,1666.3a3.617,3.617,0,0,1-1.6.348c-.643-.079-1.369-.671-1.25-1.054.062-.351.984-.591,1.6-.349s.794.609,1.251,1.054" transform="translate(-1490.832 -1536.849)" fill="#4fbd9d" fill-rule="evenodd"/>
                <path id="Trazado_833336" data-name="Trazado 833336" d="M1652.76,1669.989a3.629,3.629,0,0,0,1.511.627c.647.037,1.466-.416,1.419-.814,0-.356-.863-.758-1.511-.627a3.547,3.547,0,0,0-1.419.814" transform="translate(-1525.415 -1540.541)" fill="#4fbd9d" fill-rule="evenodd"/>
                <path id="Trazado_833337" data-name="Trazado 833337" d="M1610.332,1702.443a3.631,3.631,0,0,1-1.62.234c-.635-.125-1.317-.767-1.172-1.141.085-.345,1.023-.52,1.619-.234s.748.664,1.173,1.141" transform="translate(-1483.661 -1570.084)" fill="#4fbd9d" fill-rule="evenodd"/>
                <path id="Trazado_833338" data-name="Trazado 833338" d="M1644.341,1709.149a3.619,3.619,0,0,0,1.462.733c.643.083,1.492-.31,1.473-.711.028-.354-.807-.817-1.462-.734a3.554,3.554,0,0,0-1.473.712" transform="translate(-1517.644 -1576.793)" fill="#4fbd9d" fill-rule="evenodd"/>
                <path id="Trazado_833339" data-name="Trazado 833339" d="M1602.16,1732.911a3.621,3.621,0,0,1-1.635,0c-.612-.213-1.2-.944-1-1.294.133-.329,1.086-.371,1.635,0s.648.763,1,1.294" transform="translate(-1476.244 -1597.956)" fill="#4fbd9d" fill-rule="evenodd"/>
                <path id="Trazado_833340" data-name="Trazado 833340" d="M1634.54,1745.563c.472.369.721.759,1.344.931s1.522-.1,1.559-.5c.077-.348-.685-.922-1.344-.931a3.524,3.524,0,0,0-1.559.5" transform="translate(-1508.598 -1610.608)" fill="#4fbd9d" fill-rule="evenodd"/>
                <path id="Trazado_833341" data-name="Trazado 833341" d="M930.962,1755.44l-2.479,2.033c-1.968,1.446-6.262.13-4.49,3.392,3.142-.13,5.273,0,8.415-.13-.207-1.022.4-2.588-.674-3.262Z" transform="translate(-852.412 -1620.183)" fill="#011b3f" fill-rule="evenodd"/>
                <path id="Trazado_833342" data-name="Trazado 833342" d="M962.428,1755.44l-2.479,2.033c-1.968,1.446-6.262.13-4.49,3.392,3.142-.13,5.273,0,8.415-.13-.207-1.022.4-2.588-.685-3.262Z" transform="translate(-881.453 -1620.183)" fill="#153663" fill-rule="evenodd"/>
                <path id="Trazado_833343" data-name="Trazado 833343" d="M969.692,1368.387l3.316,3.055-.739,14.047.272,14.525h-3.392l-2.033-14.938.13-14.786Z" transform="translate(-892.599 -1262.953)" fill="#011b3f" fill-rule="evenodd"/>
                <path id="Trazado_833344" data-name="Trazado 833344" d="M841.291,1257.478l-3.9,1.913-.076,1.946-7.545-1.555-.652,1.783,8.361,2.349a1.992,1.992,0,0,0,2.555-1.066Z" transform="translate(-765.231 -1160.589)" fill="#fcbd9a"/>
                <path id="Trazado_833345" data-name="Trazado 833345" d="M992.974,1371.351l3.327,3.055-.739,14.047.261,14.525h-3.392L990.4,1388.05l.141-14.8Z" transform="translate(-914.088 -1265.688)" fill="#153663" fill-rule="evenodd"/>
                <path id="Trazado_833346" data-name="Trazado 833346" d="M784.1,1272.222l-1.044-.913-1.131.011c-.239-.391-.468-.783-.707-1.185-.217-.435-3.24.065-3.1.446l.663,1.522.9.587,3.262.587Z" transform="translate(-718.159 -1172.115)" fill="#fcbd9a" fill-rule="evenodd"/>
                <path id="Trazado_833347" data-name="Trazado 833347" d="M937.142,1205.187c-.511-.729-1.033-1.457-1.555-2.175-1.283,1.153-1.848,5.121-2.2,7.415.87.892,2.794.25,4.186.381Z" transform="translate(-861.473 -1110.32)" fill="#0ebaa0" fill-rule="evenodd"/>
                <path id="Trazado_833348" data-name="Trazado 833348" d="M963.191,1171.122l-2.772.087a5.29,5.29,0,0,0-2.685,2.664c-.533,1.272.533,9.9.794,14.873,2.4.837,5.425,1.4,7.491.859-.174-7.132,2.5-13.927,1.718-16.189-.587-1.424-3.62-2.142-4.545-2.294" transform="translate(-883.804 -1080.887)" fill="#0ebaa0" fill-rule="evenodd"/>
                <path id="Trazado_833349" data-name="Trazado 833349" d="M995.222,1104.8l-2.566,3.512c.043.565.087,1.12.13,1.685.163,1.859,1.979.3,2.772-.087Z" transform="translate(-916.172 -1019.677)" fill="#fcbd9a" fill-rule="evenodd"/>
                <path id="Trazado_833350" data-name="Trazado 833350" d="M967.273,1084.907l-5.675-.283c.174,2.022-1.326,6.871,2.577,5.98,2.87-.609,2.892-3.458,3.1-5.7" transform="translate(-887.375 -1001.054)" fill="#ffcdad" fill-rule="evenodd"/>
                <path id="Trazado_833351" data-name="Trazado 833351" d="M930.387,1056.769c-1.424-.891-3.827.881-4.555.359-.7-.707-3.447.174-3.055-.848.391-.7,1.044-.826,1.566-1.229a1.933,1.933,0,0,0-1.272-.641c1.272-1.229,2.4-.739,3.588-.2,2.109-1.131,3.631-.935,4.958.044,1.229.891.239,2.838.1,4.131.2.293.641-.054.935.076a.929.929,0,0,1-.446.609c.054.315.261.152.446.381a2.531,2.531,0,0,1-1.772.457c.043-1.25.141-2.544-.489-3.142" transform="translate(-851.642 -972.274)" fill="#060352" fill-rule="evenodd"/>
                <g id="Grupo_1076011" data-name="Grupo 1076011" transform="translate(22.456 66.788)" opacity="0.5">
                  <g id="Grupo_1076010" data-name="Grupo 1076010">
                    <g id="Grupo_1076009" data-name="Grupo 1076009" clip-path="url(#clip-path-11)">
                      <path id="Trazado_833352" data-name="Trazado 833352" d="M316.421,869.25a16.388,16.388,0,0,1,5.953,21.5l10.993,6.77.148-.242a.957.957,0,0,1,1.309-.3l.909.56a23.26,23.26,0,0,1-3.324,3.673l-.147-.09a.949.949,0,0,1-.3-1.3l.149-.243-11-6.773a16.387,16.387,0,1,1-4.689-23.551" transform="translate(-291.439 -866.817)" fill="#c7e9f4" fill-rule="evenodd"/>
                    </g>
                  </g>
                </g>
                <path id="Trazado_833353" data-name="Trazado 833353" d="M671.8,1173.726l.463.285,10.993,6.77.822.506-1.262,2.051-.818-.5-11-6.773-.462-.284Z" transform="translate(-618.874 -1083.291)" fill="#154a9a" fill-rule="evenodd"/>
                <path id="Trazado_833354" data-name="Trazado 833354" d="M293.873,874.615A16.387,16.387,0,0,0,321.111,892.8q.35-.484.668-1t.6-1.05a16.387,16.387,0,0,0-28.5-16.134m21.2-3.178a13.817,13.817,0,1,1-19.014,4.525,13.828,13.828,0,0,1,19.014-4.525" transform="translate(-268.984 -800.029)" fill="#4b76ba" fill-rule="evenodd"/>
                <path id="Trazado_833355" data-name="Trazado 833355" d="M818.509,1256.511l.909.56,12.6,7.758a.952.952,0,0,1,.313,1.308l-1.557,2.53a.952.952,0,0,1-1.308.313l-13.371-8.235-.147-.091a.949.949,0,0,1-.3-1.3l.149-.242,1.259-2.054.148-.242a.958.958,0,0,1,1.31-.3" transform="translate(-752.668 -1159.567)" fill="#4b76ba" fill-rule="evenodd"/>
                <path id="Trazado_833356" data-name="Trazado 833356" d="M1009.239,1257.957l3.088-.479,1.055,2.685c.435,1.566.794,2.685-.924,3.033l-8.317,1.8-.478-1.914,6.773-2.066Z" transform="translate(-926.33 -1160.589)" fill="#fcbd9a" fill-rule="evenodd"/>
                <path id="Trazado_833357" data-name="Trazado 833357" d="M957.15,1330.486l-.913,1.033-1.131.141c-.185.413-.37.837-.544,1.25-.174.467-3.218.359-3.131-.043l.457-1.588.837-.707,3.153-.989Z" transform="translate(-878.121 -1227.139)" fill="#fcbd9a" fill-rule="evenodd"/>
                <path id="Trazado_833358" data-name="Trazado 833358" d="M1064.2,1190.424l.913-2.511c1.544.772,3.153,4.447,4.1,6.556-.6,1.1-2.62.989-3.925,1.49Z" transform="translate(-982.2 -1096.384)" fill="#0ebaa0" fill-rule="evenodd"/>
                <path id="Trazado_833359" data-name="Trazado 833359" d="M79.565,1739.931a3.976,3.976,0,0,1,.226-.686,8.892,8.892,0,0,1,.194,1.506,6.671,6.671,0,0,0-.42-.821m-67.761,0c.065-.234.14-.46.226-.686a10.173,10.173,0,0,1,.2,1.506,5.528,5.528,0,0,0-.43-.821m34.886,0c.065-.234.14-.46.226-.686a10.172,10.172,0,0,1,.2,1.506,5.526,5.526,0,0,0-.43-.821m16.744,0a3.976,3.976,0,0,0-.226-.686,8.893,8.893,0,0,0-.194,1.506,4.6,4.6,0,0,1,.42-.821m-1.012-2.075a7.555,7.555,0,0,0-.85-.956,9.8,9.8,0,0,0-.506,1.687,6.039,6.039,0,0,1,.506.866,11.612,11.612,0,0,1,.85-1.6m-.818-1.028a8.645,8.645,0,0,1,1,.749,10.342,10.342,0,0,1,1.1-1.353c-.172-.171-.344-.343-.538-.505.226.126.441.262.635.4a11.99,11.99,0,0,1,2.184-1.75c.194-.28.4-.559.624-.839-.108.217-.2.424-.29.631a.452.452,0,0,0,.075-.045c-.032.027-.054.054-.086.081a8.557,8.557,0,0,0-.721,3.5,8.738,8.738,0,0,1,.829,1.128,9.861,9.861,0,0,1,1-2.544c-.183-.18-.377-.37-.592-.559.237.135.463.28.678.424a9.338,9.338,0,0,1,.958-1.353c-.226-.225-.452-.451-.71-.677.291.172.57.352.839.532a11.275,11.275,0,0,1,1-1.01,10.413,10.413,0,0,0-.753,1.182c.387.289.753.586,1.087.884a13.892,13.892,0,0,1,1.205-1.3,14.942,14.942,0,0,0-1.636-1.786,14.744,14.744,0,0,1,2,1.461,14.875,14.875,0,0,1,2.012-1.461,16.063,16.063,0,0,0-1.646,1.786,12.715,12.715,0,0,1,1.216,1.3c.334-.3.7-.6,1.087-.884a12.156,12.156,0,0,0-.753-1.182,12.931,12.931,0,0,1,1,1.01c.269-.18.549-.361.839-.532q-.387.338-.71.677a9.338,9.338,0,0,1,.958,1.353c.215-.144.441-.289.678-.424-.215.189-.409.379-.592.559a9.858,9.858,0,0,1,1,2.544,8.745,8.745,0,0,1,.829-1.128,8.557,8.557,0,0,0-.721-3.5.63.63,0,0,1-.086-.081.452.452,0,0,0,.075.045c-.1-.207-.194-.415-.291-.631.226.28.43.559.624.839a11.545,11.545,0,0,1,2.174,1.75c.2-.135.42-.271.646-.4a6.352,6.352,0,0,0-.538.505,9.438,9.438,0,0,1,1.087,1.353,7.949,7.949,0,0,1,1.012-.749,12.1,12.1,0,0,0-3.045-4.212,13.371,13.371,0,0,1,4.659,4.645c.237-.234.484-.46.753-.686a9.794,9.794,0,0,0-1.5-2.94,10.807,10.807,0,0,1,2.088,2.507c.215-.144.43-.289.667-.424-.2.189-.409.379-.592.559a9.489,9.489,0,0,1,1,2.544,9.868,9.868,0,0,1,.829-1.128v-.063a10.086,10.086,0,0,0-.958-1.01,9.914,9.914,0,0,1,.958.649,9.024,9.024,0,0,0-1.022-3.743,9.812,9.812,0,0,1,1.84,3.346c.226-.2.463-.388.71-.577-.183-.189-.387-.388-.6-.577a8.144,8.144,0,0,1,.753.478,7.962,7.962,0,0,1,.743-.478c-.215.189-.42.388-.6.577a8.174,8.174,0,0,1,.71.577,10,10,0,0,1,1.84-3.346,9.19,9.19,0,0,0-1.022,3.743,10.109,10.109,0,0,1,.969-.649,9.14,9.14,0,0,0-.969,1.01v.063a8.73,8.73,0,0,1,.829,1.128,9.489,9.489,0,0,1,1-2.544c-.183-.18-.377-.37-.592-.559.237.135.463.28.667.424a10.6,10.6,0,0,1,2.1-2.507,9.6,9.6,0,0,0-1.507,2.94,9.724,9.724,0,0,1,.753.686,13.318,13.318,0,0,1,4.67-4.645,11.963,11.963,0,0,0-3.045,4.212,8.646,8.646,0,0,1,1,.749,10.238,10.238,0,0,1,1.087-1.353c-.161-.171-.344-.343-.527-.505.215.126.43.262.635.4a11.294,11.294,0,0,1,2.184-1.75c.183-.28.4-.559.624-.839-.108.217-.2.424-.291.631a.472.472,0,0,1,.075-.045l-.1.081a8.534,8.534,0,0,0-.71,3.5,9.875,9.875,0,0,1,.829,1.128,9.449,9.449,0,0,1,.99-2.544c-.183-.18-.377-.37-.581-.559.226.135.452.28.667.424a10.542,10.542,0,0,1,2.088-2.507,9.549,9.549,0,0,0-1.5,2.94c.269.226.517.451.753.686a12.454,12.454,0,0,1,1.765-2.336q-.387-.406-.839-.812.533.311,1,.65a13.424,13.424,0,0,1,1.55-1.344c-.248-.271-.517-.532-.807-.8.355.216.678.433,1,.658.312-.225.646-.442.99-.658-.291.271-.549.532-.8.8a13.308,13.308,0,0,1,1.539,1.344q.468-.338,1-.65-.452.406-.839.812a12.525,12.525,0,0,1,1.775,2.336,8.085,8.085,0,0,1,.753-.686,9.844,9.844,0,0,0-1.506-2.94,10.291,10.291,0,0,1,2.088,2.507c.215-.144.441-.289.678-.424-.215.189-.409.379-.592.559a9.858,9.858,0,0,1,1,2.544,8.736,8.736,0,0,1,.829-1.128,8.556,8.556,0,0,0-.721-3.5.631.631,0,0,1-.086-.081.455.455,0,0,0,.075.045c-.1-.207-.194-.415-.291-.631.226.28.43.559.624.839a11.545,11.545,0,0,1,2.174,1.75c.2-.135.42-.271.646-.4-.194.162-.366.334-.538.505a10.333,10.333,0,0,1,1.1,1.353,7.125,7.125,0,0,1,1-.749,12.1,12.1,0,0,0-3.045-4.212,13.372,13.372,0,0,1,4.659,4.645c.237-.234.484-.46.753-.686a9.8,9.8,0,0,0-1.5-2.94,10.8,10.8,0,0,1,2.088,2.507c.215-.144.43-.289.667-.424-.2.189-.409.379-.592.559a9.491,9.491,0,0,1,1,2.544,9.877,9.877,0,0,1,.829-1.128v-.063a10.084,10.084,0,0,0-.958-1.01,9.913,9.913,0,0,1,.958.649,9.022,9.022,0,0,0-1.022-3.743,9.81,9.81,0,0,1,1.84,3.346c.226-.2.463-.388.71-.577-.183-.189-.387-.388-.6-.577a8.156,8.156,0,0,1,.753.478c.237-.171.484-.325.742-.478-.215.189-.42.388-.6.577a8.175,8.175,0,0,1,.71.577,10,10,0,0,1,1.84-3.346,9.189,9.189,0,0,0-1.022,3.743,10.1,10.1,0,0,1,.968-.649,9.13,9.13,0,0,0-.968,1.01v.063a8.739,8.739,0,0,1,.829,1.128,9.858,9.858,0,0,1,1-2.544c-.183-.18-.377-.37-.592-.559.237.135.463.28.667.424a10.6,10.6,0,0,1,2.1-2.507,9.6,9.6,0,0,0-1.506,2.94,9.739,9.739,0,0,1,.753.686,13.319,13.319,0,0,1,4.67-4.645,11.961,11.961,0,0,0-3.045,4.212,8.654,8.654,0,0,1,1,.749,10.245,10.245,0,0,1,1.087-1.353c-.161-.171-.344-.343-.527-.505.215.126.43.262.635.4a11.293,11.293,0,0,1,2.184-1.75c.183-.28.4-.559.624-.839-.108.217-.2.424-.291.631a.476.476,0,0,1,.075-.045l-.1.081a8.533,8.533,0,0,0-.71,3.5,9.884,9.884,0,0,1,.829,1.128,9.447,9.447,0,0,1,.99-2.544c-.183-.18-.377-.37-.581-.559.226.135.452.28.667.424a10.541,10.541,0,0,1,2.088-2.507,9.55,9.55,0,0,0-1.5,2.94c.269.226.516.451.753.686a13.281,13.281,0,0,1,4.659-4.645,11.06,11.06,0,0,0-3.583,5.971,7.24,7.24,0,0,1,.506.866,11.225,11.225,0,0,1,4.821-5.34,9.1,9.1,0,0,0-3.39,6.639,5.892,5.892,0,0,1,2.54-2.832,4.849,4.849,0,0,0-1.7,2.859H2.55a4.849,4.849,0,0,0-1.7-2.859,5.864,5.864,0,0,1,2.529,2.832A9.126,9.126,0,0,0,0,1734.113a11.281,11.281,0,0,1,4.821,5.34,6.031,6.031,0,0,1,.506-.866,11.06,11.06,0,0,0-3.583-5.971,13.281,13.281,0,0,1,4.659,4.645c.237-.234.484-.46.753-.686a9.793,9.793,0,0,0-1.5-2.94,10.8,10.8,0,0,1,2.088,2.507c.215-.144.43-.289.667-.424-.2.189-.409.379-.592.559a9.491,9.491,0,0,1,1,2.544,9.876,9.876,0,0,1,.829-1.128,8.535,8.535,0,0,0-.71-3.5l-.1-.081a.471.471,0,0,1,.075.045c-.086-.207-.183-.415-.291-.631.226.28.441.559.624.839a11.987,11.987,0,0,1,2.184,1.75c.2-.135.42-.271.635-.4-.183.162-.366.334-.527.505a10.238,10.238,0,0,1,1.087,1.353,8.646,8.646,0,0,1,1-.749,11.963,11.963,0,0,0-3.045-4.212,13.319,13.319,0,0,1,4.67,4.645,8.064,8.064,0,0,1,.753-.686,9.6,9.6,0,0,0-1.507-2.94,10.291,10.291,0,0,1,2.088,2.507c.215-.144.441-.289.678-.424-.215.189-.409.379-.592.559a9.861,9.861,0,0,1,1,2.544,8.73,8.73,0,0,1,.829-1.128v-.063a9.141,9.141,0,0,0-.969-1.01,8.739,8.739,0,0,1,.958.649,9.161,9.161,0,0,0-1.012-3.743,10,10,0,0,1,1.84,3.346,8.184,8.184,0,0,1,.71-.577c-.183-.189-.387-.388-.6-.577.258.153.506.307.743.478a8.154,8.154,0,0,1,.753-.478c-.215.189-.42.388-.6.577.247.189.484.379.71.577a9.81,9.81,0,0,1,1.84-3.346,9.024,9.024,0,0,0-1.022,3.743,9.914,9.914,0,0,1,.958-.649,8.987,8.987,0,0,0-.958,1.01v.063a9.877,9.877,0,0,1,.829,1.128,9.446,9.446,0,0,1,.99-2.544c-.172-.18-.377-.37-.581-.559.237.135.452.28.667.424a10.805,10.805,0,0,1,2.088-2.507,9.548,9.548,0,0,0-1.5,2.94c.269.226.517.451.753.686a13.28,13.28,0,0,1,4.659-4.645,11.962,11.962,0,0,0-3.045,4.212,8.645,8.645,0,0,1,1,.749,10.341,10.341,0,0,1,1.1-1.353c-.172-.171-.344-.343-.538-.505.226.126.441.262.635.4a11.99,11.99,0,0,1,2.184-1.75c.194-.28.4-.559.624-.839-.108.217-.2.424-.29.631a.456.456,0,0,0,.075-.045c-.032.027-.054.054-.086.081a8.557,8.557,0,0,0-.721,3.5,8.729,8.729,0,0,1,.829,1.128,9.861,9.861,0,0,1,1-2.544c-.183-.18-.377-.37-.592-.559.237.135.463.28.678.424a10.292,10.292,0,0,1,2.088-2.507,9.6,9.6,0,0,0-1.506,2.94,9.736,9.736,0,0,1,.753.686,12.932,12.932,0,0,1,1.765-2.336c-.247-.271-.527-.541-.829-.812q.533.311,1,.65a12.464,12.464,0,0,1,1.539-1.344c-.247-.271-.517-.532-.8-.8.344.216.678.433.99.658.312-.225.646-.442,1-.658-.291.271-.56.532-.807.8a13.428,13.428,0,0,1,1.549,1.344q.468-.338,1-.65-.452.406-.839.812a12.936,12.936,0,0,1,1.765,2.336c.237-.234.484-.46.753-.686a9.55,9.55,0,0,0-1.5-2.94,10.805,10.805,0,0,1,2.088,2.507c.215-.144.43-.289.667-.424-.2.189-.409.379-.592.559a9.488,9.488,0,0,1,1,2.544,9.874,9.874,0,0,1,.829-1.128,8.534,8.534,0,0,0-.71-3.5l-.1-.081a.47.47,0,0,1,.075.045c-.086-.207-.183-.415-.291-.631.226.28.441.559.624.839a11.987,11.987,0,0,1,2.184,1.75c.2-.135.42-.271.635-.4-.183.162-.366.334-.527.505a10.239,10.239,0,0,1,1.087,1.353,8.653,8.653,0,0,1,1-.749,11.963,11.963,0,0,0-3.045-4.212,13.318,13.318,0,0,1,4.67,4.645,9.723,9.723,0,0,1,.753-.686,9.6,9.6,0,0,0-1.507-2.94,10.292,10.292,0,0,1,2.088,2.507c.215-.144.441-.289.678-.424-.215.189-.409.379-.592.559a9.861,9.861,0,0,1,1,2.544,8.731,8.731,0,0,1,.829-1.128v-.063a9.14,9.14,0,0,0-.969-1.01,8.739,8.739,0,0,1,.958.649,9.161,9.161,0,0,0-1.012-3.743,10,10,0,0,1,1.84,3.346,8.172,8.172,0,0,1,.71-.577c-.183-.189-.387-.388-.6-.577.258.153.506.307.742.478a8.156,8.156,0,0,1,.753-.478c-.215.189-.42.388-.6.577.247.189.484.379.71.577a9.812,9.812,0,0,1,1.84-3.346,9.022,9.022,0,0,0-1.022,3.743,9.9,9.9,0,0,1,.958-.649,8.979,8.979,0,0,0-.958,1.01v.063a9.884,9.884,0,0,1,.829,1.128,9.486,9.486,0,0,1,1-2.544c-.183-.18-.387-.37-.592-.559.237.135.452.28.667.424a10.8,10.8,0,0,1,2.088-2.507,9.55,9.55,0,0,0-1.5,2.94c.269.226.517.451.753.686a13.281,13.281,0,0,1,4.659-4.645,11.962,11.962,0,0,0-3.045,4.212m7.1-1.777a9.119,9.119,0,0,0-.624,1.524,9.736,9.736,0,0,1,.753.686c.226-.379.473-.749.742-1.119a12.2,12.2,0,0,0-.872-1.091m2.787-.144a10.831,10.831,0,0,0-.861,1.515,11.463,11.463,0,0,1,.861,1.091,11.616,11.616,0,0,1,.872-1.091,9.937,9.937,0,0,0-.872-1.515m-1.227,2.408a11.156,11.156,0,0,0-.344,1.272,7.251,7.251,0,0,1,.506.866c.108-.262.237-.523.366-.776a7.89,7.89,0,0,0-.527-1.362m4.025-2.264a10.544,10.544,0,0,0-.872,1.091c.269.37.516.74.742,1.119a8.084,8.084,0,0,1,.753-.686,9.119,9.119,0,0,0-.624-1.524m-1.571,2.264a8.8,8.8,0,0,0-.517,1.362c.129.253.258.514.366.776a7.259,7.259,0,0,1,.506-.866,9.356,9.356,0,0,0-.355-1.272m-35.446,2.823a4.106,4.106,0,0,0-.183-.46c-.054.352-.1.713-.118,1.074a5.344,5.344,0,0,1,.3-.613m-1.151-1.849a4.465,4.465,0,0,0-.387-.37c.151.09.3.18.441.28a11.625,11.625,0,0,1,.958-1.38,9.011,9.011,0,0,0-.9-1.308,9.751,9.751,0,0,0-1.194,3.076,7.259,7.259,0,0,1,.506.866,9.74,9.74,0,0,1,.581-1.164m1.087.8a4.582,4.582,0,0,1,.409.505,6.467,6.467,0,0,1,.42-.505,8.681,8.681,0,0,0-.42-1.3,8.627,8.627,0,0,0-.409,1.3m.764,1.046c.108.207.2.406.291.613-.021-.361-.054-.722-.108-1.074a2.734,2.734,0,0,0-.183.46m-1.539-4.961a11.051,11.051,0,0,1,1.184,1.091,12.179,12.179,0,0,1,1.184-1.091,12.015,12.015,0,0,0-1.184-1.551,13.075,13.075,0,0,0-1.184,1.551m1.668,1.642a11.729,11.729,0,0,1,.969,1.38,4.744,4.744,0,0,1,.441-.28,4.465,4.465,0,0,0-.387.37q.323.582.581,1.164a6.03,6.03,0,0,1,.506-.866,10.021,10.021,0,0,0-1.194-3.076,8.328,8.328,0,0,0-.915,1.308m16.443,1.542a6,6,0,0,1,.516.667,7.817,7.817,0,0,1,.527-.667,8.344,8.344,0,0,1,.194-1.01,6.907,6.907,0,0,0-.721-.9,9.347,9.347,0,0,0-.721.9c.086.334.151.677.2,1.01m8.888.045a6.649,6.649,0,0,1,.57.758c.118-.135.247-.262.377-.388a9.665,9.665,0,0,1,.258-1.425,7.54,7.54,0,0,0-.463-.6,8.406,8.406,0,0,0-.742,1.66m.807,1.155c.032.054.065.108.1.153,0-.108,0-.225.011-.343a1.7,1.7,0,0,0-.108.189m.086-3.058a5.32,5.32,0,0,1,.441.37,9.561,9.561,0,0,1,.99-2.147,10.36,10.36,0,0,0-1.431,1.777m-5.187.433a7.442,7.442,0,0,0-.183,2.517,12.46,12.46,0,0,1,.753-1.7,9.454,9.454,0,0,0-.57-.821m8.845,0a8.034,8.034,0,0,0-.183,2.517,12.448,12.448,0,0,1,.753-1.7,7.556,7.556,0,0,0-.57-.821m-20.273.92a8.357,8.357,0,0,1,.839-.956,9.808,9.808,0,0,1,.506,1.687,7.238,7.238,0,0,0-.506.866,10.476,10.476,0,0,0-.839-1.6m-1.022.55a6.526,6.526,0,0,0-.56.758,4.663,4.663,0,0,0-.387-.388,9.609,9.609,0,0,0-.247-1.425c.14-.2.29-.406.452-.6a7.827,7.827,0,0,1,.743,1.66m-.807,1.155c-.032.054-.065.108-.086.153,0-.108-.011-.225-.011-.343l.1.189M45.8,1736.5c-.151.117-.3.243-.441.37a9.508,9.508,0,0,0-.979-2.147,10.269,10.269,0,0,1,1.42,1.777m5.2.433a8.031,8.031,0,0,1,.183,2.517,12.457,12.457,0,0,0-.753-1.7,7.545,7.545,0,0,1,.57-.821m-8.856,0a7.441,7.441,0,0,1,.183,2.517,12.468,12.468,0,0,0-.753-1.7,9.421,9.421,0,0,1,.57-.821m-13.591,2.995a3.976,3.976,0,0,0-.226-.686,8.894,8.894,0,0,0-.194,1.506,4.6,4.6,0,0,1,.42-.821m-1.012-2.075a7.556,7.556,0,0,0-.85-.956,9.8,9.8,0,0,0-.506,1.687,6.031,6.031,0,0,1,.506.866,11.611,11.611,0,0,1,.85-1.6m-7.877.505a6,6,0,0,1,.517.667,7.8,7.8,0,0,1,.527-.667,8.361,8.361,0,0,1,.194-1.01,6.912,6.912,0,0,0-.721-.9,9.336,9.336,0,0,0-.721.9c.086.334.151.677.2,1.01m8.888.045a6.649,6.649,0,0,1,.57.758c.118-.135.247-.262.377-.388a9.656,9.656,0,0,1,.258-1.425,7.56,7.56,0,0,0-.463-.6,8.406,8.406,0,0,0-.742,1.66m.807,1.155c.032.054.065.108.1.153,0-.108,0-.225.011-.343a1.7,1.7,0,0,0-.108.189m.086-3.058a5.308,5.308,0,0,1,.441.37,9.561,9.561,0,0,1,.99-2.147,10.364,10.364,0,0,0-1.431,1.777m-5.187.433a7.44,7.44,0,0,0-.183,2.517,12.448,12.448,0,0,1,.753-1.7,9.454,9.454,0,0,0-.57-.821m8.845,0a8.031,8.031,0,0,0-.183,2.517,12.449,12.449,0,0,1,.753-1.7,7.557,7.557,0,0,0-.57-.821m-20.273.92a8.356,8.356,0,0,1,.839-.956,9.808,9.808,0,0,1,.506,1.687,7.239,7.239,0,0,0-.506.866,10.478,10.478,0,0,0-.839-1.6m-1.022.55a8.187,8.187,0,0,0-.57.758,3.328,3.328,0,0,0-.377-.388,9.621,9.621,0,0,0-.247-1.425c.14-.2.29-.406.452-.6a7.828,7.828,0,0,1,.743,1.66M11,1739.561c-.032.054-.064.108-.086.153,0-.108-.011-.225-.011-.343l.1.189m-.086-3.058c-.151.117-.3.243-.441.37a9.507,9.507,0,0,0-.979-2.147,10.269,10.269,0,0,1,1.42,1.777m5.2.433a8.038,8.038,0,0,1,.183,2.517,12.459,12.459,0,0,0-.753-1.7,7.547,7.547,0,0,1,.57-.821m-8.856,0a7.443,7.443,0,0,1,.183,2.517,12.467,12.467,0,0,0-.753-1.7,7.557,7.557,0,0,1,.57-.821m107.2,2.995a3.983,3.983,0,0,1,.226-.686,8.893,8.893,0,0,1,.194,1.506,6.669,6.669,0,0,0-.42-.821m16.733,0a3.974,3.974,0,0,0-.226-.686,10.144,10.144,0,0,0-.194,1.506,6.682,6.682,0,0,1,.42-.821m-1.012-2.075a8.363,8.363,0,0,0-.839-.956,9.8,9.8,0,0,0-.506,1.687,9.07,9.07,0,0,1,.506.866,10.483,10.483,0,0,1,.839-1.6m-25.148,2.282a2.734,2.734,0,0,0-.183-.46c-.054.352-.1.713-.118,1.074.086-.208.194-.406.3-.613m-1.151-1.849a4.463,4.463,0,0,0-.387-.37,4.755,4.755,0,0,1,.441.28,11.728,11.728,0,0,1,.968-1.38,8.328,8.328,0,0,0-.915-1.308,10.019,10.019,0,0,0-1.195,3.076,7.24,7.24,0,0,1,.506.866q.258-.582.581-1.164m1.087.8a6.453,6.453,0,0,1,.42.505,4.59,4.59,0,0,1,.409-.505,8.628,8.628,0,0,0-.409-1.3,8.681,8.681,0,0,0-.42,1.3m.764,1.046a5.357,5.357,0,0,1,.3.613c-.021-.361-.065-.722-.118-1.074a4.09,4.09,0,0,0-.183.46m-1.539-4.961a11.181,11.181,0,0,1,1.194,1.091,11.052,11.052,0,0,1,1.184-1.091,13.068,13.068,0,0,0-1.184-1.551,13.212,13.212,0,0,0-1.194,1.551m1.668,1.642a10.584,10.584,0,0,1,.968,1.38c.14-.1.291-.189.441-.28a4.467,4.467,0,0,0-.387.37q.323.582.581,1.164a7.237,7.237,0,0,1,.506-.866,9.753,9.753,0,0,0-1.194-3.076,10.052,10.052,0,0,0-.915,1.308m16.442,1.542a7.8,7.8,0,0,1,.527.667,6,6,0,0,1,.516-.667,8.412,8.412,0,0,1,.2-1.01,9.36,9.36,0,0,0-.721-.9,6.905,6.905,0,0,0-.721.9,8.346,8.346,0,0,1,.194,1.01m8.888.045a5.583,5.583,0,0,1,.57.758,4.652,4.652,0,0,1,.387-.388,9.6,9.6,0,0,1,.247-1.425c-.14-.2-.291-.406-.452-.6a8.468,8.468,0,0,0-.753,1.66m.818,1.155c.032.054.054.108.086.153,0-.108,0-.225.011-.343l-.1.189m.086-3.058c.151.117.3.243.441.37a9.5,9.5,0,0,1,.979-2.147,10.264,10.264,0,0,0-1.42,1.777m-5.2.433a8.039,8.039,0,0,0-.183,2.517,12.46,12.46,0,0,1,.753-1.7,7.554,7.554,0,0,0-.57-.821m8.856,0a7.736,7.736,0,0,0-.194,2.517,14.023,14.023,0,0,1,.764-1.7,9.454,9.454,0,0,0-.57-.821m-20.284.92a7.556,7.556,0,0,1,.85-.956,9.756,9.756,0,0,1,.5,1.687,7.164,7.164,0,0,0-.5.866,11.61,11.61,0,0,0-.85-1.6m-1.012.55a6.638,6.638,0,0,0-.57.758,4.673,4.673,0,0,0-.387-.388,8.394,8.394,0,0,0-.247-1.425,7.542,7.542,0,0,1,.463-.6,8.406,8.406,0,0,1,.742,1.66m-.807,1.155c-.032.054-.065.108-.1.153,0-.108,0-.225-.011-.343a1.694,1.694,0,0,1,.108.189m-.086-3.058a5.308,5.308,0,0,0-.441.37,9.558,9.558,0,0,0-.99-2.147,10.911,10.911,0,0,1,1.431,1.777m5.187.433a7.441,7.441,0,0,1,.183,2.517,12.458,12.458,0,0,0-.753-1.7,7.559,7.559,0,0,1,.57-.821m-8.845,0a8.036,8.036,0,0,1,.183,2.517,13.945,13.945,0,0,0-.753-1.7,6.3,6.3,0,0,1,.57-.821m-13.6,2.995a3.975,3.975,0,0,0-.226-.686,10.144,10.144,0,0,0-.194,1.506,6.673,6.673,0,0,1,.42-.821m-1.011-2.075a8.356,8.356,0,0,0-.839-.956,9.8,9.8,0,0,0-.506,1.687,9.052,9.052,0,0,1,.506.866,10.477,10.477,0,0,1,.839-1.6m-7.877.505a7.8,7.8,0,0,1,.527.667,6,6,0,0,1,.517-.667,8.412,8.412,0,0,1,.2-1.01,9.335,9.335,0,0,0-.721-.9,6.912,6.912,0,0,0-.721.9,8.364,8.364,0,0,1,.194,1.01m8.888.045a5.585,5.585,0,0,1,.57.758,4.651,4.651,0,0,1,.387-.388,9.6,9.6,0,0,1,.247-1.425c-.14-.2-.291-.406-.452-.6a8.465,8.465,0,0,0-.753,1.66m.818,1.155c.032.054.054.108.086.153,0-.108,0-.225.011-.343l-.1.189m.086-3.058c.151.117.3.243.441.37a9.057,9.057,0,0,1,.979-2.147,10.273,10.273,0,0,0-1.42,1.777m-5.2.433a8.034,8.034,0,0,0-.183,2.517,12.461,12.461,0,0,1,.753-1.7,7.554,7.554,0,0,0-.57-.821m8.856,0a7.738,7.738,0,0,0-.194,2.517,14.034,14.034,0,0,1,.764-1.7,9.42,9.42,0,0,0-.57-.821m-20.284.92a7.557,7.557,0,0,1,.85-.956,9.749,9.749,0,0,1,.495,1.687,7.162,7.162,0,0,0-.495.866,11.609,11.609,0,0,0-.85-1.6m-1.012.55a6.648,6.648,0,0,0-.57.758,4.65,4.65,0,0,0-.387-.388,8.386,8.386,0,0,0-.247-1.425,7.56,7.56,0,0,1,.463-.6,8.411,8.411,0,0,1,.742,1.66m-.807,1.155c-.032.054-.065.108-.1.153,0-.108,0-.225-.011-.343a1.7,1.7,0,0,1,.108.189m-.086-3.058a5.321,5.321,0,0,0-.441.37,9.564,9.564,0,0,0-.99-2.147,10.905,10.905,0,0,1,1.431,1.777m5.187.433a7.727,7.727,0,0,1,.183,2.517,12.457,12.457,0,0,0-.753-1.7,7.559,7.559,0,0,1,.57-.821m-8.845,0a8.033,8.033,0,0,1,.183,2.517,13.933,13.933,0,0,0-.753-1.7,6.294,6.294,0,0,1,.57-.821" transform="translate(0 -1599.118)" fill="#0ebaa0" fill-rule="evenodd"/>
              </g>
            </g>
          </g>
        </g>
      </g>
    </g>
    <g id="Grupo_1076133" data-name="Grupo 1076133" transform="translate(7427 11498)">
      <circle id="Elipse_10079" data-name="Elipse 10079" cx="30" cy="30" r="30" transform="translate(-6525 3068)" fill="#273a89"/>
      <circle id="Elipse_10080" data-name="Elipse 10080" cx="20" cy="20" r="20" transform="translate(-6515 3078)" fill="#1682fb"/>
      <path id="Trazado_835480" data-name="Trazado 835480" d="M-2.3-10.184H-.434a1.937,1.937,0,0,0,2.215-2.168,1.875,1.875,0,0,0-.527-1.377,2,2,0,0,0-1.488-.533A2.141,2.141,0,0,0-1.6-13.8a1.394,1.394,0,0,0-.58,1.137H-6.129a4.043,4.043,0,0,1,.75-2.4A4.953,4.953,0,0,1-3.3-16.717a7.112,7.112,0,0,1,2.924-.592,6.988,6.988,0,0,1,4.477,1.3A4.324,4.324,0,0,1,5.73-12.434a3.6,3.6,0,0,1-.674,2.08A4.8,4.8,0,0,1,3.094-8.766,4.587,4.587,0,0,1,5.227-7.271,3.935,3.935,0,0,1,6-4.793,4.4,4.4,0,0,1,4.242-1.137,7.3,7.3,0,0,1-.375.234,7.567,7.567,0,0,1-3.486-.4,4.875,4.875,0,0,1-5.66-2.174,4.6,4.6,0,0,1-6.4-4.746h3.973a1.778,1.778,0,0,0,.633,1.359,2.234,2.234,0,0,0,1.559.574,2.34,2.34,0,0,0,1.664-.58,1.939,1.939,0,0,0,.621-1.482A2.267,2.267,0,0,0,1.406-6.7,2.694,2.694,0,0,0-.375-7.242H-2.3Z" transform="translate(-6495 3107)" fill="#fff"/>
    </g>
  </g>
</svg>
