<svg xmlns="http://www.w3.org/2000/svg" width="86" height="86" viewBox="0 0 86 86">
  <g id="Grupo_1075264" data-name="Grupo 1075264" transform="translate(-228 -2134)">
    <g id="Grupo_1073140" data-name="Grupo 1073140" transform="translate(-105 1206)">
      <circle id="Elipse_9665" data-name="Elipse 9665" cx="43" cy="43" r="43" transform="translate(333 928)" fill="#ffce00"/>
    </g>
    <g id="timing" transform="translate(244.994 2150.994)">
      <ellipse id="Elipse_10083" data-name="Elipse 10083" cx="18.613" cy="18.613" rx="18.613" ry="18.613" transform="translate(7.392 0.762)" fill="#738b95"/>
      <path id="Trazado_833560" data-name="Trazado 833560" d="M243.839,7.5q-.694,0-1.375.051a18.613,18.613,0,0,1,0,37.125q.681.05,1.375.051a18.613,18.613,0,1,0,0-37.227Z" transform="translate(-217.833 -6.738)" fill="#617881"/>
      <ellipse id="Elipse_10084" data-name="Elipse 10084" cx="14.653" cy="14.653" rx="14.653" ry="14.653" transform="translate(11.352 4.722)" fill="#f6f9f9"/>
      <path id="Trazado_833561" data-name="Trazado 833561" d="M244.114,46.483c-.453,0-.9.022-1.344.062a14.653,14.653,0,0,1,0,29.183c.443.04.891.062,1.344.062a14.653,14.653,0,0,0,0-29.306Z" transform="translate(-218.108 -41.761)" fill="#dae4ea"/>
      <path id="Trazado_833562" data-name="Trazado 833562" d="M14.147,439.7H8.182a.681.681,0,0,1-.681-.681v-5.966a.681.681,0,0,1,.681-.681h5.966a.681.681,0,0,1,.681.681v5.966A.681.681,0,0,1,14.147,439.7Z" transform="translate(-6.739 -388.449)" fill="#b3e59f"/>
      <path id="Trazado_833563" data-name="Trazado 833563" d="M54.077,432.37H51.945a.681.681,0,0,1,.681.681v5.966a.681.681,0,0,1-.681.681h2.132a.681.681,0,0,0,.681-.681v-5.966A.681.681,0,0,0,54.077,432.37Z" transform="translate(-46.668 -388.448)" fill="#95d6a4"/>
      <path id="Trazado_833564" data-name="Trazado 833564" d="M226.583,439.7h-5.966a.681.681,0,0,1-.681-.681v-5.966a.681.681,0,0,1,.681-.681h5.966a.681.681,0,0,1,.681.681v5.966A.681.681,0,0,1,226.583,439.7Z" transform="translate(-197.594 -388.449)" fill="#f9ef63"/>
      <path id="Trazado_833565" data-name="Trazado 833565" d="M266.512,432.37H264.38a.681.681,0,0,1,.681.681v5.966a.681.681,0,0,1-.681.681h2.132a.681.681,0,0,0,.681-.681v-5.966A.68.68,0,0,0,266.512,432.37Z" transform="translate(-237.523 -388.448)" fill="#f6e738"/>
      <path id="Trazado_833566" data-name="Trazado 833566" d="M439.018,439.7h-5.966a.681.681,0,0,1-.681-.681v-5.966a.681.681,0,0,1,.681-.681h5.966a.681.681,0,0,1,.681.681v5.966A.681.681,0,0,1,439.018,439.7Z" transform="translate(-388.449 -388.449)" fill="#dd636e"/>
      <path id="Trazado_833567" data-name="Trazado 833567" d="M478.948,432.37h-2.132a.681.681,0,0,1,.681.681v5.966a.681.681,0,0,1-.681.681h2.132a.681.681,0,0,0,.681-.681v-5.966A.681.681,0,0,0,478.948,432.37Z" transform="translate(-428.379 -388.448)" fill="#da4a54"/>
      <g id="Grupo_1076185" data-name="Grupo 1076185" transform="translate(0 0)">
        <path id="Trazado_833568" data-name="Trazado 833568" d="M249.262,71.692a.762.762,0,0,0,.762-.762v-1.5a.762.762,0,1,0-1.524,0v1.5A.762.762,0,0,0,249.262,71.692Z" transform="translate(-223.256 -61.691)"/>
        <path id="Trazado_833569" data-name="Trazado 833569" d="M350.542,184.753a.762.762,0,0,0,0-1.524h-1.5a.762.762,0,0,0,0,1.524Z" transform="translate(-312.898 -164.616)"/>
        <path id="Trazado_833570" data-name="Trazado 833570" d="M248.5,285.272a.762.762,0,1,0,1.524,0v-1.5a.762.762,0,1,0-1.524,0Z" transform="translate(-223.256 -254.259)"/>
        <path id="Trazado_833571" data-name="Trazado 833571" d="M136.2,184.753a.762.762,0,0,0,0-1.524h-1.5a.762.762,0,0,0,0,1.524Z" transform="translate(-120.33 -164.616)"/>
        <path id="Trazado_833572" data-name="Trazado 833572" d="M248.5,124.915a.762.762,0,0,0,.762.762h3.922a.762.762,0,1,0,0-1.524h-3.16v-5.918a.762.762,0,1,0-1.524,0v6.68Z" transform="translate(-223.256 -105.54)"/>
        <path id="Trazado_833573" data-name="Trazado 833573" d="M50.569,424.87H44.6a1.444,1.444,0,0,0-1.443,1.442v2.221H38.525l-2.141-1.753a.762.762,0,0,0-.965,1.179l.7.573H30.431v-2.221a1.444,1.444,0,0,0-1.442-1.442H23.023a1.444,1.444,0,0,0-1.443,1.442v2.221h-5.2l-2.141-1.753a.762.762,0,0,0-.965,1.179l.7.573H8.851v-2.221a1.444,1.444,0,0,0-1.442-1.443H1.442A1.444,1.444,0,0,0,0,426.312v5.966a1.444,1.444,0,0,0,1.442,1.443H7.408a1.444,1.444,0,0,0,1.442-1.443v-2.221h5.126l-.7.574a.762.762,0,0,0,.965,1.179l2.141-1.753h5.2v2.221a1.444,1.444,0,0,0,1.443,1.443h5.966a1.444,1.444,0,0,0,1.442-1.443v-2.221h5.688l-.7.574a.762.762,0,0,0,.965,1.179l2.141-1.753H43.16v2.221a1.444,1.444,0,0,0,1.442,1.443h1.46a.762.762,0,1,0,0-1.524H44.684v-5.8h5.8v5.8H49.109a.762.762,0,1,0,0,1.524h1.46a1.444,1.444,0,0,0,1.442-1.443v-5.966a1.444,1.444,0,0,0-1.442-1.443ZM7.327,432.2h-5.8v-5.8h5.8Zm21.58,0H23.1v-5.8h5.8Z" transform="translate(0 -381.71)"/>
        <path id="Trazado_833574" data-name="Trazado 833574" d="M106.629,61.131a.762.762,0,0,0-.273,1.042,15.35,15.35,0,1,0-1.322-2.921.762.762,0,0,0,1.446-.48,13.919,13.919,0,1,1,1.191,2.63.762.762,0,0,0-1.042-.273Z" transform="translate(-93.663 -35.022)"/>
        <path id="Trazado_833575" data-name="Trazado 833575" d="M84.645,38.75A19.376,19.376,0,0,0,100.815,8.7a.762.762,0,1,0-1.271.841,17.938,17.938,0,1,1-1.826-2.32.762.762,0,0,0,1.116-1.038A19.375,19.375,0,1,0,84.645,38.75Z" transform="translate(-58.64 0)"/>
      </g>
    </g>
  </g>
</svg>
