<svg xmlns="http://www.w3.org/2000/svg" width="86" height="86" viewBox="0 0 86 86">
  <g id="Grupo_1074838" data-name="Grupo 1074838" transform="translate(-228 -2134)">
    <g id="Grupo_1073140" data-name="Grupo 1073140" transform="translate(-105 1206)">
      <circle id="Elipse_9665" data-name="Elipse 9665" cx="43" cy="43" r="43" transform="translate(333 928)" fill="#ffce00"/>
    </g>
    <g id="project-plan" transform="translate(244.995 2155.061)">
      <path id="Trazado_833496" data-name="Trazado 833496" d="M66.473,50.45,63.625,53.6l-43.682-.7L18.149,50.45l1.762-2.5a1,1,0,0,1,.816-.423H63.894a1,1,0,0,1,.816.423Z" transform="translate(-16.305 -46.765)" fill="#b3e59f"/>
      <path id="Trazado_833497" data-name="Trazado 833497" d="M448.484,47.95a1,1,0,0,0-.816-.423h-2.352a1,1,0,0,1,.816.423l1.762,2.5.829,1.989,1.523-1.989Z" transform="translate(-400.079 -46.765)" fill="#95d6a4"/>
      <path id="Trazado_833498" data-name="Trazado 833498" d="M57.657,115.735H7.829a.33.33,0,0,1-.33-.33V76.633a.33.33,0,0,1,.33-.33H57.657a.33.33,0,0,1,.33.33v38.773A.33.33,0,0,1,57.657,115.735Z" transform="translate(-6.737 -72.618)" fill="#f6f9f9"/>
      <path id="Trazado_833499" data-name="Trazado 833499" d="M483.323,76.3H481.3a.33.33,0,0,1,.33.33v38.773a.33.33,0,0,1-.33.33h2.027a.33.33,0,0,0,.33-.33V76.634A.33.33,0,0,0,483.323,76.3Z" transform="translate(-432.404 -72.619)" fill="#dae4ea"/>
      <path id="Trazado_833500" data-name="Trazado 833500" d="M50.424,210.948H46.708a.523.523,0,0,1-.523-.523v-3.716a.523.523,0,0,1,.523-.523h3.716a.523.523,0,0,1,.523.523v3.716A.523.523,0,0,1,50.424,210.948Z" transform="translate(-41.493 -189.307)" fill="#b3e59f"/>
      <path id="Trazado_833501" data-name="Trazado 833501" d="M50.424,289.365H46.708a.523.523,0,0,1-.523-.523v-3.716a.523.523,0,0,1,.523-.523h3.716a.523.523,0,0,1,.523.523v3.716A.523.523,0,0,1,50.424,289.365Z" transform="translate(-41.493 -259.758)" fill="#b3e59f"/>
      <path id="Trazado_833502" data-name="Trazado 833502" d="M50.424,367.782H46.708a.523.523,0,0,1-.523-.523v-3.716a.523.523,0,0,1,.523-.523h3.716a.523.523,0,0,1,.523.523v3.716A.523.523,0,0,1,50.424,367.782Z" transform="translate(-41.493 -330.209)" fill="#f9ef63"/>
      <g id="Grupo_1076182" data-name="Grupo 1076182" transform="translate(17.314 16.879)">
        <path id="Trazado_833503" data-name="Trazado 833503" d="M174.674,210.948h-3.716a.523.523,0,0,1-.523-.523v-3.716a.523.523,0,0,1,.523-.523h3.716a.523.523,0,0,1,.523.523v3.716A.523.523,0,0,1,174.674,210.948Z" transform="translate(-170.435 -206.186)" fill="#b3e59f"/>
        <path id="Trazado_833504" data-name="Trazado 833504" d="M174.674,367.782h-3.716a.523.523,0,0,1-.523-.523v-3.716a.523.523,0,0,1,.523-.523h3.716a.523.523,0,0,1,.523.523v3.716A.523.523,0,0,1,174.674,367.782Z" transform="translate(-170.435 -347.088)" fill="#b3e59f"/>
        <path id="Trazado_833505" data-name="Trazado 833505" d="M298.924,210.948h-3.716a.523.523,0,0,1-.523-.523v-3.716a.523.523,0,0,1,.523-.523h3.716a.523.523,0,0,1,.523.523v3.716A.523.523,0,0,1,298.924,210.948Z" transform="translate(-282.063 -206.186)" fill="#b3e59f"/>
      </g>
      <path id="Trazado_833506" data-name="Trazado 833506" d="M298.924,289.365h-3.716a.523.523,0,0,1-.523-.523v-3.716a.523.523,0,0,1,.523-.523h3.716a.523.523,0,0,1,.523.523v3.716A.523.523,0,0,1,298.924,289.365Z" transform="translate(-264.75 -259.758)" fill="#f9ef63"/>
      <path id="Trazado_833507" data-name="Trazado 833507" d="M423.174,210.948h-3.716a.523.523,0,0,1-.523-.523v-3.716a.523.523,0,0,1,.523-.523h3.716a.523.523,0,0,1,.523.523v3.716A.523.523,0,0,1,423.174,210.948Z" transform="translate(-376.378 -189.307)" fill="#b3e59f"/>
      <path id="Trazado_833508" data-name="Trazado 833508" d="M423.174,289.365h-3.716a.523.523,0,0,1-.523-.523v-3.716a.523.523,0,0,1,.523-.523h3.716a.523.523,0,0,1,.523.523v3.716A.523.523,0,0,1,423.174,289.365Z" transform="translate(-376.378 -259.758)" fill="#b3e59f"/>
      <path id="Trazado_833509" data-name="Trazado 833509" d="M423.174,367.782h-3.716a.523.523,0,0,1-.523-.523v-3.716a.523.523,0,0,1,.523-.523h3.716a.523.523,0,0,1,.523.523v3.716A.523.523,0,0,1,423.174,367.782Z" transform="translate(-376.378 -330.209)" fill="#b3e59f"/>
      <path id="Trazado_833510" data-name="Trazado 833510" d="M72.754,206.185H71.039a.523.523,0,0,1,.523.523v3.716a.523.523,0,0,1-.523.523h1.715a.523.523,0,0,0,.523-.523v-3.716A.523.523,0,0,0,72.754,206.185Z" transform="translate(-63.823 -189.306)" fill="#95d6a4"/>
      <path id="Trazado_833511" data-name="Trazado 833511" d="M72.754,284.6H71.039a.523.523,0,0,1,.523.523v3.716a.523.523,0,0,1-.523.523h1.715a.523.523,0,0,0,.523-.523v-3.716A.523.523,0,0,0,72.754,284.6Z" transform="translate(-63.823 -259.757)" fill="#95d6a4"/>
      <path id="Trazado_833512" data-name="Trazado 833512" d="M72.754,363.019H71.039a.523.523,0,0,1,.523.523v3.716a.523.523,0,0,1-.523.523h1.715a.523.523,0,0,0,.523-.523v-3.716A.523.523,0,0,0,72.754,363.019Z" transform="translate(-63.823 -330.208)" fill="#f6e738"/>
      <path id="Trazado_833513" data-name="Trazado 833513" d="M197,206.185h-1.715a.523.523,0,0,1,.523.523v3.716a.523.523,0,0,1-.523.523H197a.523.523,0,0,0,.523-.523v-3.716A.523.523,0,0,0,197,206.185Z" transform="translate(-175.451 -189.306)" fill="#95d6a4"/>
      <path id="Trazado_833514" data-name="Trazado 833514" d="M197,363.019h-1.715a.523.523,0,0,1,.523.523v3.716a.523.523,0,0,1-.523.523H197a.523.523,0,0,0,.523-.523v-3.716A.523.523,0,0,0,197,363.019Z" transform="translate(-175.451 -330.208)" fill="#95d6a4"/>
      <path id="Trazado_833515" data-name="Trazado 833515" d="M321.254,206.185h-1.715a.523.523,0,0,1,.523.523v3.716a.523.523,0,0,1-.523.523h1.715a.523.523,0,0,0,.523-.523v-3.716A.523.523,0,0,0,321.254,206.185Z" transform="translate(-287.079 -189.306)" fill="#95d6a4"/>
      <path id="Trazado_833516" data-name="Trazado 833516" d="M321.254,284.6h-1.715a.523.523,0,0,1,.523.523v3.716a.523.523,0,0,1-.523.523h1.715a.523.523,0,0,0,.523-.523v-3.716A.523.523,0,0,0,321.254,284.6Z" transform="translate(-287.079 -259.757)" fill="#f6e738"/>
      <path id="Trazado_833517" data-name="Trazado 833517" d="M445.5,206.185h-1.715a.523.523,0,0,1,.523.523v3.716a.523.523,0,0,1-.523.523H445.5a.523.523,0,0,0,.523-.523v-3.716A.523.523,0,0,0,445.5,206.185Z" transform="translate(-398.707 -189.306)" fill="#95d6a4"/>
      <path id="Trazado_833518" data-name="Trazado 833518" d="M445.5,284.6h-1.715a.523.523,0,0,1,.523.523v3.716a.523.523,0,0,1-.523.523H445.5a.523.523,0,0,0,.523-.523v-3.716A.523.523,0,0,0,445.5,284.6Z" transform="translate(-398.707 -259.757)" fill="#95d6a4"/>
      <path id="Trazado_833519" data-name="Trazado 833519" d="M445.5,363.019h-1.715a.523.523,0,0,1,.523.523v3.716a.523.523,0,0,1-.523.523H445.5a.523.523,0,0,0,.523-.523v-3.716A.523.523,0,0,0,445.5,363.019Z" transform="translate(-398.707 -330.208)" fill="#95d6a4"/>
      <g id="Grupo_1076183" data-name="Grupo 1076183" transform="translate(0 0)">
        <path id="Trazado_833520" data-name="Trazado 833520" d="M38.815,135.314a.762.762,0,0,0,.762-.762V107.377h11.1v27.175a.762.762,0,1,0,1.524,0V107.377H63.3v27.175a.762.762,0,1,0,1.524,0V107.377h8.984a.762.762,0,1,0,0-1.524H64.821v-5.292a.762.762,0,1,0-1.524,0v5.291H52.2v-5.291a.762.762,0,1,0-1.524,0v5.291h-11.1v-5.291a.762.762,0,1,0-1.524,0v5.291H29.069a.762.762,0,1,0,0,1.524h8.984v27.175A.762.762,0,0,0,38.815,135.314Z" transform="translate(-25.431 -93.728)"/>
        <path id="Trazado_833521" data-name="Trazado 833521" d="M57.658,126.084a.762.762,0,0,0,0-1.524H56.325a.762.762,0,0,0,0,1.524Z" transform="translate(-49.919 -115.973)"/>
        <path id="Trazado_833522" data-name="Trazado 833522" d="M181.909,126.084a.762.762,0,0,0,0-1.524h-1.333a.762.762,0,0,0,0,1.524Z" transform="translate(-161.548 -115.973)"/>
        <path id="Trazado_833523" data-name="Trazado 833523" d="M306.158,126.084a.762.762,0,1,0,0-1.524h-1.333a.762.762,0,1,0,0,1.524Z" transform="translate(-273.175 -115.973)"/>
        <path id="Trazado_833524" data-name="Trazado 833524" d="M430.408,126.084a.762.762,0,0,0,0-1.524h-1.333a.762.762,0,1,0,0,1.524Z" transform="translate(-384.803 -115.973)"/>
        <path id="Trazado_833525" data-name="Trazado 833525" d="M44.972,199.971a1.286,1.286,0,0,0-1.285-1.285H39.971a1.286,1.286,0,0,0-1.285,1.285v3.716a1.286,1.286,0,0,0,1.285,1.285h3.716a1.286,1.286,0,0,0,1.285-1.285Zm-1.524,3.477H40.21V200.21h3.239Z" transform="translate(-34.756 -182.569)"/>
        <path id="Trazado_833526" data-name="Trazado 833526" d="M44.972,278.388a1.286,1.286,0,0,0-1.285-1.285H39.971a1.286,1.286,0,0,0-1.285,1.285V282.1a1.286,1.286,0,0,0,1.285,1.285h3.716a1.286,1.286,0,0,0,1.285-1.285Zm-1.524,3.478H40.21v-3.239h3.239Z" transform="translate(-34.756 -253.02)"/>
        <path id="Trazado_833527" data-name="Trazado 833527" d="M43.687,355.52H39.971a1.286,1.286,0,0,0-1.285,1.285v3.717a1.286,1.286,0,0,0,1.285,1.285h3.716a1.286,1.286,0,0,0,1.285-1.285V356.8A1.286,1.286,0,0,0,43.687,355.52Zm-.239,4.762H40.21v-3.239h3.239Z" transform="translate(-34.756 -323.471)"/>
        <path id="Trazado_833528" data-name="Trazado 833528" d="M169.222,203.686V199.97a1.286,1.286,0,0,0-1.285-1.285h-3.716a1.286,1.286,0,0,0-1.285,1.285v3.716a1.286,1.286,0,0,0,1.285,1.285h3.716A1.286,1.286,0,0,0,169.222,203.686Zm-1.524-.239H164.46v-3.238H167.7Z" transform="translate(-146.384 -182.568)"/>
        <path id="Trazado_833529" data-name="Trazado 833529" d="M164.221,361.806h3.716a1.286,1.286,0,0,0,1.285-1.285V356.8a1.286,1.286,0,0,0-1.285-1.285h-3.716a1.286,1.286,0,0,0-1.285,1.285v3.717a1.286,1.286,0,0,0,1.285,1.285Zm.239-4.762H167.7v3.238H164.46Z" transform="translate(-146.384 -323.471)"/>
        <path id="Trazado_833530" data-name="Trazado 833530" d="M293.472,199.971a1.286,1.286,0,0,0-1.285-1.285h-3.716a1.286,1.286,0,0,0-1.285,1.285v3.716a1.286,1.286,0,0,0,1.285,1.285h3.716a1.286,1.286,0,0,0,1.285-1.285Zm-1.524,3.477H288.71V200.21h3.239Z" transform="translate(-258.012 -182.569)"/>
        <path id="Trazado_833531" data-name="Trazado 833531" d="M417.722,199.971a1.286,1.286,0,0,0-1.285-1.285h-3.716a1.286,1.286,0,0,0-1.285,1.285v3.716a1.286,1.286,0,0,0,1.285,1.285h3.716a1.286,1.286,0,0,0,1.285-1.285Zm-1.524,3.477H412.96V200.21H416.2Z" transform="translate(-369.641 -182.569)"/>
        <path id="Trazado_833532" data-name="Trazado 833532" d="M417.722,278.388a1.286,1.286,0,0,0-1.285-1.285h-3.716a1.286,1.286,0,0,0-1.285,1.285V282.1a1.286,1.286,0,0,0,1.285,1.285h3.716a1.286,1.286,0,0,0,1.285-1.285Zm-1.524,3.478H412.96v-3.239H416.2Z" transform="translate(-369.641 -253.02)"/>
        <path id="Trazado_833533" data-name="Trazado 833533" d="M416.436,355.52H412.72a1.286,1.286,0,0,0-1.285,1.285v3.717a1.286,1.286,0,0,0,1.285,1.285h3.716a1.286,1.286,0,0,0,1.285-1.285V356.8A1.286,1.286,0,0,0,416.436,355.52Zm-.239,4.762h-3.238v-3.239H416.2Z" transform="translate(-369.64 -323.471)"/>
        <path id="Trazado_833534" data-name="Trazado 833534" d="M177.174,300.542a.762.762,0,0,0,0,1.524H179.2a.762.762,0,1,0,0-1.524Z" transform="translate(-158.491 -274.078)"/>
        <path id="Trazado_833535" data-name="Trazado 833535" d="M301.424,378.959a.762.762,0,1,0,0,1.524h2.024a.762.762,0,0,0,0-1.524Z" transform="translate(-270.119 -344.529)"/>
        <path id="Trazado_833536" data-name="Trazado 833536" d="M51.249,42.95h-.687l-1.535-2.177a1.762,1.762,0,0,0-1.439-.746H9.858a.762.762,0,0,0,0,1.524H47.589a.237.237,0,0,1,.193.1l.916,1.3H3.313l.916-1.3a.237.237,0,0,1,.193-.1h2.39a.762.762,0,0,0,0-1.524H4.422a1.762,1.762,0,0,0-1.439.746L1.448,42.95H.762A.762.762,0,0,0,0,43.712V83.144a.762.762,0,0,0,.762.762H19.434a.762.762,0,1,0,0-1.524H1.524V44.474H50.487V82.382H22.48a.762.762,0,1,0,0,1.524H51.249a.762.762,0,0,0,.762-.762V43.712A.762.762,0,0,0,51.249,42.95Z" transform="translate(0 -40.027)"/>
        <path id="Trazado_833537" data-name="Trazado 833537" d="M292.71,279.484a.762.762,0,0,0,.762-.762v-.335a1.286,1.286,0,0,0-1.285-1.285h-3.716a1.286,1.286,0,0,0-1.285,1.285V282.1a1.286,1.286,0,0,0,1.285,1.285h3.716a1.286,1.286,0,0,0,1.285-1.285v-.335a.762.762,0,1,0-1.524,0v.1H288.71v-3.238h3.239v.1A.762.762,0,0,0,292.71,279.484Z" transform="translate(-258.012 -253.019)"/>
      </g>
    </g>
  </g>
</svg>
