<svg xmlns="http://www.w3.org/2000/svg" width="86" height="86" viewBox="0 0 86 86">
  <g id="Grupo_1075265" data-name="Grupo 1075265" transform="translate(-228 -2134)">
    <g id="Grupo_1073140" data-name="Grupo 1073140" transform="translate(-105 1206)">
      <circle id="Elipse_9665" data-name="Elipse 9665" cx="43" cy="43" r="43" transform="translate(333 928)" fill="#ffce00"/>
    </g>
    <g id="task" transform="translate(244.994 2155.061)">
      <path id="Trazado_833538" data-name="Trazado 833538" d="M66.473,50.45,63.625,53.6l-43.682-.7L18.149,50.45l1.762-2.5a1,1,0,0,1,.816-.423H63.894a1,1,0,0,1,.816.423Z" transform="translate(-16.305 -46.765)" fill="#738b95"/>
      <path id="Trazado_833539" data-name="Trazado 833539" d="M448.484,47.95a1,1,0,0,0-.816-.423h-2.352a1,1,0,0,1,.816.423l1.762,2.5.829,1.989,1.523-1.989Z" transform="translate(-400.079 -46.765)" fill="#617881"/>
      <path id="Trazado_833540" data-name="Trazado 833540" d="M57.658,115.736H7.83a.33.33,0,0,1-.33-.33V76.634a.33.33,0,0,1,.33-.33H57.658a.33.33,0,0,1,.33.33v38.773A.33.33,0,0,1,57.658,115.736Z" transform="translate(-6.738 -72.619)" fill="#f6f9f9"/>
      <path id="Trazado_833541" data-name="Trazado 833541" d="M483.324,76.3H481.3a.33.33,0,0,1,.33.33v38.773a.33.33,0,0,1-.33.33h2.027a.33.33,0,0,0,.33-.33V76.634A.33.33,0,0,0,483.324,76.3Z" transform="translate(-432.405 -72.619)" fill="#dae4ea"/>
      <g id="Grupo_1076184" data-name="Grupo 1076184" transform="translate(0 0)">
        <path id="Trazado_833542" data-name="Trazado 833542" d="M28.307,106.616a.762.762,0,0,0,.762.762h8.984v27.175a.762.762,0,0,0,1.524,0V107.378h11.1v27.175a.762.762,0,0,0,1.524,0V107.378H63.3v27.175a.762.762,0,0,0,1.524,0V107.378h8.984a.762.762,0,1,0,0-1.524H64.821v-5.291a.762.762,0,1,0-1.524,0v5.291H52.2v-5.291a.762.762,0,1,0-1.524,0v5.291h-11.1v-5.291a.762.762,0,1,0-1.524,0v5.291H29.069A.762.762,0,0,0,28.307,106.616Z" transform="translate(-25.431 -93.729)"/>
        <path id="Trazado_833543" data-name="Trazado 833543" d="M57.658,126.084a.762.762,0,0,0,0-1.524H56.325a.762.762,0,0,0,0,1.524Z" transform="translate(-49.919 -115.973)"/>
        <path id="Trazado_833544" data-name="Trazado 833544" d="M181.909,126.084a.762.762,0,0,0,0-1.524h-1.333a.762.762,0,0,0,0,1.524Z" transform="translate(-161.548 -115.973)"/>
        <path id="Trazado_833545" data-name="Trazado 833545" d="M306.159,126.084a.762.762,0,1,0,0-1.524h-1.333a.762.762,0,0,0,0,1.524Z" transform="translate(-273.176 -115.973)"/>
        <path id="Trazado_833546" data-name="Trazado 833546" d="M430.409,126.084a.762.762,0,1,0,0-1.524h-1.333a.762.762,0,1,0,0,1.524Z" transform="translate(-384.804 -115.973)"/>
        <path id="Trazado_833547" data-name="Trazado 833547" d="M51.249,42.95h-.687l-1.535-2.177a1.762,1.762,0,0,0-1.439-.746H40.151a.762.762,0,0,0,0,1.524h7.439a.237.237,0,0,1,.193.1l.916,1.3H3.313l.916-1.3a.237.237,0,0,1,.193-.1H37.1a.762.762,0,0,0,0-1.524H4.422a1.763,1.763,0,0,0-1.439.746L1.449,42.95H.762A.762.762,0,0,0,0,43.712V83.144a.762.762,0,0,0,.762.762H6.216a.762.762,0,0,0,0-1.524H1.524V44.474H50.487V82.382H9.263a.762.762,0,1,0,0,1.524H51.249a.762.762,0,0,0,.762-.762V43.712A.762.762,0,0,0,51.249,42.95Z" transform="translate(0 -40.027)"/>
        <path id="Trazado_833548" data-name="Trazado 833548" d="M46.893,194.828a.762.762,0,0,0-1.078,0l-2.257,2.257-.881-.881a.762.762,0,0,0-1.078,1.077l1.42,1.42a.762.762,0,0,0,1.078,0l2.8-2.8A.762.762,0,0,0,46.893,194.828Z" transform="translate(-37.173 -178.902)"/>
        <path id="Trazado_833549" data-name="Trazado 833549" d="M45.814,259.39l-2.257,2.257-.881-.881a.762.762,0,1,0-1.078,1.077l1.42,1.42a.762.762,0,0,0,1.078,0l2.8-2.8a.762.762,0,1,0-1.078-1.077Z" transform="translate(-37.172 -236.906)"/>
        <path id="Trazado_833550" data-name="Trazado 833550" d="M43.02,327.825a.762.762,0,0,0,1.078,0l2.8-2.8a.762.762,0,0,0-1.077-1.078l-2.257,2.257-.881-.881A.762.762,0,0,0,41.6,326.4Z" transform="translate(-37.174 -294.909)"/>
        <path id="Trazado_833551" data-name="Trazado 833551" d="M171.143,194.828a.762.762,0,0,0-1.078,0l-2.257,2.257-.881-.881a.762.762,0,0,0-1.077,1.077l1.42,1.42a.762.762,0,0,0,1.078,0l2.8-2.8A.762.762,0,0,0,171.143,194.828Z" transform="translate(-148.801 -178.902)"/>
        <path id="Trazado_833552" data-name="Trazado 833552" d="M171.143,323.952a.762.762,0,0,0-1.077,0l-2.257,2.257-.881-.881a.762.762,0,0,0-1.077,1.078l1.42,1.42a.762.762,0,0,0,1.077,0l2.8-2.8A.762.762,0,0,0,171.143,323.952Z" transform="translate(-148.801 -294.909)"/>
        <path id="Trazado_833553" data-name="Trazado 833553" d="M170.064,388.514l-2.257,2.257-.881-.881a.762.762,0,1,0-1.077,1.078l1.42,1.42a.762.762,0,0,0,1.078,0l2.8-2.8a.762.762,0,1,0-1.077-1.078Z" transform="translate(-148.8 -352.913)"/>
        <path id="Trazado_833554" data-name="Trazado 833554" d="M295.393,194.828a.762.762,0,0,0-1.078,0l-2.257,2.257-.881-.881a.762.762,0,0,0-1.077,1.077l1.42,1.42a.762.762,0,0,0,1.078,0l2.8-2.8a.762.762,0,0,0,0-1.077Z" transform="translate(-260.429 -178.902)"/>
        <path id="Trazado_833555" data-name="Trazado 833555" d="M295.393,323.952a.762.762,0,0,0-1.077,0l-2.257,2.257-.881-.881A.762.762,0,0,0,290.1,326.4l1.42,1.42a.762.762,0,0,0,1.077,0l2.8-2.8a.762.762,0,0,0,0-1.077Z" transform="translate(-260.429 -294.909)"/>
        <path id="Trazado_833556" data-name="Trazado 833556" d="M294.314,388.514l-2.257,2.257-.881-.881a.762.762,0,0,0-1.078,1.078l1.42,1.42a.762.762,0,0,0,1.077,0l2.8-2.8a.762.762,0,0,0-1.077-1.078Z" transform="translate(-260.429 -352.913)"/>
        <path id="Trazado_833557" data-name="Trazado 833557" d="M419.643,194.828a.762.762,0,0,0-1.077,0l-2.257,2.257-.881-.881a.762.762,0,0,0-1.078,1.077l1.42,1.42a.762.762,0,0,0,1.078,0l2.8-2.8A.762.762,0,0,0,419.643,194.828Z" transform="translate(-372.057 -178.902)"/>
        <path id="Trazado_833558" data-name="Trazado 833558" d="M419.643,259.39a.762.762,0,0,0-1.077,0l-2.257,2.257-.881-.881a.762.762,0,0,0-1.078,1.077l1.42,1.42a.762.762,0,0,0,1.078,0l2.8-2.8A.762.762,0,0,0,419.643,259.39Z" transform="translate(-372.057 -236.906)"/>
        <path id="Trazado_833559" data-name="Trazado 833559" d="M418.564,323.952l-2.257,2.257-.881-.881a.762.762,0,0,0-1.077,1.077l1.42,1.42a.762.762,0,0,0,1.078,0l2.8-2.8a.762.762,0,0,0-1.078-1.078Z" transform="translate(-372.057 -294.909)"/>
      </g>
    </g>
  </g>
</svg>
