<svg id="losses" xmlns="http://www.w3.org/2000/svg" width="50" height="49.996" viewBox="0 0 50 49.996">
  <path id="Trazado_833629" data-name="Trazado 833629" d="M116.55,78.919h-3.168V72.208A3.209,3.209,0,0,0,110.174,69h-5.481a3.112,3.112,0,0,0-.709.08,3.207,3.207,0,0,0-2.513,3.142v2.1a20.089,20.089,0,0,0-1.978-.642A21.071,21.071,0,0,0,73.679,88.558a20.9,20.9,0,0,0,.949,13.635v2.767H71.446a2.448,2.448,0,0,0-1.724,4.184l9.13,9.13a2.437,2.437,0,0,0,3.462,0l4.505-4.492a21.036,21.036,0,0,0,27.164-26.389l4.3-4.3a2.461,2.461,0,0,0,0-3.462,2.54,2.54,0,0,0-1.738-.709ZM77.342,84.507a19.2,19.2,0,0,1,24.116-8.181v2.593h-2.3q-.5-.18-1-.321A15.944,15.944,0,0,0,78.1,95.041a3.3,3.3,0,0,0-3.088,1.671,19.07,19.07,0,0,1,2.326-12.205ZM92.154,107.5a2.476,2.476,0,0,0-.388-1.4,2.391,2.391,0,0,0-2.059-1.123H86.526V98.263a3.209,3.209,0,0,0-3.208-3.208H79.962q-.04-.521-.04-1.043A14.063,14.063,0,0,1,96.191,80.122a2.447,2.447,0,0,0,.361,2.994l9.13,9.13a2.414,2.414,0,0,0,1.738.722h.027l.374-.04c.053-.013.094-.013.147-.027a.121.121,0,0,0,.067-.013q.04.561.04,1.123A14.075,14.075,0,0,1,94,108.075a12.768,12.768,0,0,1-1.885-.134c.013-.147.04-.294.04-.441Zm-11.176,9.465a.544.544,0,0,1-.4.16.715.715,0,0,1-.414-.174l-9.13-9.13a.573.573,0,0,1,0-.815.586.586,0,0,1,.414-.174h4.1a.93.93,0,0,0,.936-.936V98.249a1.344,1.344,0,0,1,1.056-1.31,1.049,1.049,0,0,1,.294-.027h5.481a1.341,1.341,0,0,1,1.337,1.337V105.9a.93.93,0,0,0,.936.936h4.131a.537.537,0,0,1,.481.254.6.6,0,0,1,.04.561.672.672,0,0,1-.107.16l-.134.134ZM110.655,103.5a19.187,19.187,0,0,1-22.378,8.81l2.674-2.674a15.5,15.5,0,0,0,3.048.294,15.915,15.915,0,0,0,15.935-15.895,14.641,14.641,0,0,0-.187-2.42l2.727-2.727A19.111,19.111,0,0,1,110.655,103.5Zm6.417-21.9a.365.365,0,0,1-.12.16l-4.706,4.706a.013.013,0,0,0-.013.013l-4.425,4.425a.544.544,0,0,1-.4.16.58.58,0,0,1-.4-.174l-9.13-9.117a.573.573,0,0,1,0-.815.586.586,0,0,1,.414-.174h4.1a.93.93,0,0,0,.936-.936V72.208a1.344,1.344,0,0,1,1.056-1.31,1.049,1.049,0,0,1,.294-.027h5.481a1.341,1.341,0,0,1,1.337,1.337v7.647a.93.93,0,0,0,.936.936h4.117a.537.537,0,0,1,.481.254.6.6,0,0,1,.04.561Z" transform="translate(-69 -69)" fill="#3ee2a8"/>
  <path id="Trazado_833630" data-name="Trazado 833630" d="M228.734,211.4a.936.936,0,0,0,1.872,0v-1.163a3.408,3.408,0,0,0-.281-6.8h-1.31a1.538,1.538,0,0,1,0-3.075h3.128a.936.936,0,1,0,0-1.872h-1.537v-1.15a.936.936,0,1,0-1.872,0V198.5a3.408,3.408,0,0,0,.281,6.8h1.31a1.537,1.537,0,0,1,0,3.075H227.2a.936.936,0,0,0,0,1.872h1.537Z" transform="translate(-204.671 -179.369)" fill="#3ee2a8"/>
</svg>
