<svg id="Grupo_1076454" data-name="Grupo 1076454" xmlns="http://www.w3.org/2000/svg" xmlns:xlink="http://www.w3.org/1999/xlink" width="260" height="194.054" viewBox="0 0 260 194.054">
  <defs>
    <clipPath id="clip-path">
      <rect id="Rectángulo_384886" data-name="Rectángulo 384886" width="260" height="194.054" fill="none"/>
    </clipPath>
    <clipPath id="clip-path-2">
      <rect id="Rectángulo_384887" data-name="Rectángulo 384887" width="150.065" height="97.113" fill="none"/>
    </clipPath>
  </defs>
  <g id="Grupo_1076451" data-name="Grupo 1076451">
    <g id="Grupo_1076450" data-name="Grupo 1076450" clip-path="url(#clip-path)">
      <path id="Trazado_834451" data-name="Trazado 834451" d="M437.76,83.91a25.891,25.891,0,1,1-25.891-25.891A25.891,25.891,0,0,1,437.76,83.91" transform="translate(-224.868 -33.801)" fill="#f0efff"/>
      <path id="Trazado_834452" data-name="Trazado 834452" d="M229.8,179.466a55.7,55.7,0,0,0,13.928-14.983c7.326-11.957,8.184-28.8-1.22-39.2-10.446-11.554-28.389-11.242-43.889-9.7s-33.148,2.744-44.554-7.863c-9.3-8.648-11.284-22.439-12.236-35.1s-1.76-26.282-9.66-36.226c-10.633-13.385-32.029-15-46.432-5.793S63.82,57.461,63.65,74.554c-.073,7.315.369,16.11-5.673,20.235-4.815,3.288-11.429,1.673-16.6-1.016s-10.052-6.4-15.831-7.176c-7.692-1.037-15.357,3.629-19.626,10.11S.273,111.17.037,118.928c-.668,22.02,7.717,44,22.206,60.537Z" transform="translate(0 -14.442)" fill="#f0efff"/>
      <line id="Línea_433" data-name="Línea 433" x2="243.171" transform="translate(1.653 164.754)" fill="none" stroke="#d3c6fc" stroke-miterlimit="10" stroke-width="1.048"/>
      <path id="Trazado_834453" data-name="Trazado 834453" d="M342.073,388.588H270.831a4.762,4.762,0,0,0-4.762,4.763h76Z" transform="translate(-155.01 -226.389)" fill="#8f9af8"/>
      <path id="Trazado_834454" data-name="Trazado 834454" d="M411.08,312.086H361.769a3.416,3.416,0,0,0-3.142,2.075l-13.6,31.862a1.981,1.981,0,0,0,1.821,2.758h50.936a3.416,3.416,0,0,0,3.142-2.075l12.962-30.367a3.054,3.054,0,0,0-2.809-4.253" transform="translate(-200.917 -181.819)" fill="#b8c3ff"/>
      <path id="Trazado_834455" data-name="Trazado 834455" d="M426.632,349.982a7.531,7.531,0,0,1-6.9,5.54c-3.06,0-4.931-2.48-4.18-5.54a7.531,7.531,0,0,1,6.9-5.54c3.06,0,4.931,2.48,4.18,5.54" transform="translate(-242.001 -200.669)" fill="#fff"/>
      <line id="Línea_434" data-name="Línea 434" x2="86.542" transform="translate(110.925 169.39)" fill="none" stroke="#d3c6fc" stroke-miterlimit="10" stroke-width="1.048"/>
      <line id="Línea_435" data-name="Línea 435" x2="45.889" transform="translate(147.883 171.854)" fill="none" stroke="#d3c6fc" stroke-miterlimit="10" stroke-width="1.048"/>
      <path id="Trazado_834456" data-name="Trazado 834456" d="M378.752,126.662H265.829a9.239,9.239,0,0,0-9.239,9.239v48.044a9.239,9.239,0,0,0,9.239,9.239h43.44l7.78,7.78,7.78-7.78h53.922a9.239,9.239,0,0,0,9.239-9.239V135.9a9.239,9.239,0,0,0-9.239-9.239" transform="translate(-149.487 -73.792)" fill="#fff"/>
      <path id="Trazado_834457" data-name="Trazado 834457" d="M378.752,126.662H265.829a9.239,9.239,0,0,0-9.239,9.239v48.044a9.239,9.239,0,0,0,9.239,9.239h43.44l7.78,7.78,7.78-7.78h53.922a9.239,9.239,0,0,0,9.239-9.239V135.9A9.239,9.239,0,0,0,378.752,126.662Z" transform="translate(-149.487 -73.792)" fill="none" stroke="#bbabf8" stroke-miterlimit="10" stroke-width="1.048"/>
      <path id="Trazado_834458" data-name="Trazado 834458" d="M303.373,159.521a9.65,9.65,0,1,1-9.65-9.65,9.649,9.649,0,0,1,9.65,9.65" transform="translate(-165.499 -87.314)" fill="#dae0ff"/>
      <path id="Trazado_834459" data-name="Trazado 834459" d="M345.2,151.989l1.771,5.311,5.6-.043-4.5,3.325,1.771,5.311-4.554-3.256-4.5,3.326,1.689-5.338-4.554-3.256,5.6-.043Z" transform="translate(-196.868 -88.548)" fill="#faaf3b"/>
      <path id="Trazado_834460" data-name="Trazado 834460" d="M387.923,151.989l1.771,5.311,5.6-.043-4.5,3.325,1.771,5.311-4.554-3.256-4.5,3.326,1.689-5.338-4.554-3.256,5.6-.043Z" transform="translate(-221.756 -88.548)" fill="#faaf3b"/>
      <path id="Trazado_834461" data-name="Trazado 834461" d="M430.643,151.989l1.771,5.311,5.6-.043-4.5,3.325,1.771,5.311-4.554-3.256-4.5,3.326,1.689-5.338-4.554-3.256,5.6-.043Z" transform="translate(-246.644 -88.548)" fill="#faaf3b"/>
      <path id="Trazado_834462" data-name="Trazado 834462" d="M473.363,151.989l1.771,5.311,5.6-.043-4.5,3.325L478,165.893l-4.554-3.256-4.5,3.326,1.689-5.338-4.554-3.256,5.6-.043Z" transform="translate(-271.532 -88.548)" fill="#e8ecff"/>
      <path id="Trazado_834463" data-name="Trazado 834463" d="M516.083,151.989l1.771,5.311,5.6-.043-4.5,3.325,1.771,5.311-4.554-3.256-4.5,3.326,1.689-5.338L508.8,157.37l5.6-.043Z" transform="translate(-296.421 -88.548)" fill="#e8ecff"/>
      <rect id="Rectángulo_384871" data-name="Rectángulo 384871" width="8.523" height="2.277" transform="translate(118.064 86.163)" fill="#bbabf8"/>
      <rect id="Rectángulo_384872" data-name="Rectángulo 384872" width="12.779" height="2.277" transform="translate(128.691 86.163)" fill="#bbabf8"/>
      <rect id="Rectángulo_384873" data-name="Rectángulo 384873" width="18.383" height="2.277" transform="translate(118.064 92.929)" fill="#e6dffc"/>
      <rect id="Rectángulo_384874" data-name="Rectángulo 384874" width="43.011" height="2.277" transform="translate(143.937 92.929)" fill="#e6dffc"/>
      <rect id="Rectángulo_384875" data-name="Rectángulo 384875" width="33.104" height="2.277" transform="translate(194.438 92.929)" fill="#e6dffc"/>
      <rect id="Rectángulo_384876" data-name="Rectángulo 384876" width="41.096" height="2.277" transform="translate(118.064 100.178)" fill="#e6dffc"/>
      <rect id="Rectángulo_384877" data-name="Rectángulo 384877" width="20.539" height="2.277" transform="translate(207.003 100.178)" fill="#e6dffc"/>
      <rect id="Rectángulo_384878" data-name="Rectángulo 384878" width="36.003" height="2.277" transform="translate(166.167 100.178)" fill="#e6dffc"/>
      <rect id="Rectángulo_384879" data-name="Rectángulo 384879" width="52.453" height="2.277" transform="translate(118.064 107.427)" fill="#e6dffc"/>
      <path id="Trazado_834464" data-name="Trazado 834464" d="M492.343,39.131H418.636a6.03,6.03,0,0,0-6.03,6.031V59.91a6.03,6.03,0,0,0,6.03,6.03h73.707a6.031,6.031,0,0,0,6.031-6.03V45.162a6.031,6.031,0,0,0-6.031-6.031" transform="translate(-240.381 -22.797)" fill="#fff"/>
      <path id="Rectángulo_384880" data-name="Rectángulo 384880" d="M13.4,0H72.364a13.4,13.4,0,0,1,13.4,13.4v0a13.4,13.4,0,0,1-13.4,13.4H13.4A13.4,13.4,0,0,1,0,13.4v0A13.4,13.4,0,0,1,13.4,0Z" transform="translate(172.225 16.334)" fill="none" stroke="#bbabf8" stroke-miterlimit="10" stroke-width="1.048"/>
      <path id="Trazado_834465" data-name="Trazado 834465" d="M473.881,60.32l1.156,3.467,3.654-.028-2.94,2.171,1.156,3.467-2.973-2.125L471,69.441l1.1-3.484-2.973-2.125,3.654-.028Z" transform="translate(-273.309 -35.142)" fill="#faaf3b"/>
      <path id="Trazado_834466" data-name="Trazado 834466" d="M501.765,60.32l1.156,3.467,3.654-.028-2.94,2.171,1.156,3.467-2.973-2.125-2.939,2.171,1.1-3.484-2.973-2.125,3.654-.028Z" transform="translate(-289.554 -35.142)" fill="#faaf3b"/>
      <path id="Trazado_834467" data-name="Trazado 834467" d="M529.649,60.32l1.156,3.467,3.654-.028-2.94,2.171,1.156,3.467L529.7,67.27l-2.94,2.171,1.1-3.484-2.973-2.125,3.654-.028Z" transform="translate(-305.799 -35.142)" fill="#faaf3b"/>
      <path id="Trazado_834468" data-name="Trazado 834468" d="M557.533,60.32l1.156,3.467,3.654-.028-2.94,2.171L560.56,69.4l-2.973-2.125-2.939,2.171,1.1-3.484-2.973-2.125,3.654-.028Z" transform="translate(-322.044 -35.142)" fill="#faaf3b"/>
      <path id="Trazado_834469" data-name="Trazado 834469" d="M585.417,60.32l1.156,3.467,3.654-.028-2.94,2.171,1.156,3.467L585.47,67.27l-2.939,2.171,1.1-3.484-2.973-2.125,3.654-.028Z" transform="translate(-338.289 -35.142)" fill="#e8ecff"/>
      <path id="Trazado_834470" data-name="Trazado 834470" d="M442.378,60.893A5.378,5.378,0,1,1,437,55.515a5.378,5.378,0,0,1,5.378,5.378" transform="translate(-251.46 -32.343)" fill="#dae0ff"/>
      <rect id="Rectángulo_384881" data-name="Rectángulo 384881" width="4.75" height="1.269" transform="translate(179.061 35.035)" fill="#bbabf8"/>
      <rect id="Rectángulo_384882" data-name="Rectángulo 384882" width="7.122" height="1.269" transform="translate(184.984 35.036)" fill="#bbabf8"/>
      <path id="Trazado_834471" data-name="Trazado 834471" d="M73.318,97.888H22.709a4.14,4.14,0,0,0-4.141,4.141v10.127a4.141,4.141,0,0,0,4.141,4.141h50.61a4.141,4.141,0,0,0,4.141-4.141V102.029a4.14,4.14,0,0,0-4.141-4.141" transform="translate(-10.818 -57.029)" fill="#fff"/>
      <rect id="Rectángulo_384883" data-name="Rectángulo 384883" width="58.891" height="18.408" rx="9.204" transform="translate(7.75 40.859)" fill="none" stroke="#bbabf8" stroke-miterlimit="10" stroke-width="1.048"/>
      <path id="Trazado_834472" data-name="Trazado 834472" d="M60.642,112.437l.794,2.38,2.509-.019-2.019,1.491.794,2.38-2.042-1.459L58.66,118.7l.757-2.393-2.041-1.459,2.509-.02Z" transform="translate(-33.427 -65.505)" fill="#faaf3b"/>
      <path id="Trazado_834473" data-name="Trazado 834473" d="M79.788,112.437l.794,2.38,2.509-.019-2.019,1.491.794,2.38-2.042-1.459L77.807,118.7l.757-2.393-2.041-1.459,2.509-.02Z" transform="translate(-44.581 -65.505)" fill="#faaf3b"/>
      <path id="Trazado_834474" data-name="Trazado 834474" d="M98.934,112.437l.794,2.38,2.509-.019-2.019,1.491.794,2.38-2.042-1.459L96.952,118.7l.757-2.393-2.042-1.459,2.509-.02Z" transform="translate(-55.735 -65.505)" fill="#faaf3b"/>
      <path id="Trazado_834475" data-name="Trazado 834475" d="M118.08,112.437l.794,2.38,2.509-.019-2.019,1.491.794,2.38-2.042-1.459L116.1,118.7l.757-2.393-2.042-1.459,2.509-.02Z" transform="translate(-66.89 -65.505)" fill="#faaf3b"/>
      <path id="Trazado_834476" data-name="Trazado 834476" d="M137.226,112.437l.794,2.38,2.509-.019-2.019,1.491.794,2.38-2.042-1.459-2.019,1.491.757-2.393-2.042-1.459,2.509-.02Z" transform="translate(-78.044 -65.505)" fill="#e8ecff"/>
      <path id="Trazado_834477" data-name="Trazado 834477" d="M39.011,112.831a3.693,3.693,0,1,1-3.693-3.693,3.693,3.693,0,0,1,3.693,3.693" transform="translate(-18.424 -63.583)" fill="#dae0ff"/>
      <rect id="Rectángulo_384884" data-name="Rectángulo 384884" width="3.262" height="0.872" transform="translate(12.445 53.701)" fill="#bbabf8"/>
      <rect id="Rectángulo_384885" data-name="Rectángulo 384885" width="4.89" height="0.872" transform="translate(16.511 53.701)" fill="#bbabf8"/>
      <path id="Trazado_834478" data-name="Trazado 834478" d="M555.111,317.2a11.237,11.237,0,1,1-11.237-11.237A11.237,11.237,0,0,1,555.111,317.2" transform="translate(-310.31 -178.251)" fill="#ff7aa9"/>
      <path id="Trazado_834479" data-name="Trazado 834479" d="M553.5,322.729a3.372,3.372,0,0,0-3.371,3.381,3.376,3.376,0,1,0-6.752,0c0,4.213,6.752,7.745,6.752,7.745s6.752-3.531,6.752-7.745a3.381,3.381,0,0,0-3.381-3.381" transform="translate(-316.57 -188.02)" fill="#fff"/>
      <path id="Trazado_834480" data-name="Trazado 834480" d="M50.77,208.786a11.237,11.237,0,1,1-11.237-11.237A11.237,11.237,0,0,1,50.77,208.786" transform="translate(-16.484 -115.091)" fill="#ff7aa9"/>
      <path id="Trazado_834481" data-name="Trazado 834481" d="M49.163,214.317a3.372,3.372,0,0,0-3.371,3.381,3.376,3.376,0,1,0-6.752,0c0,4.213,6.752,7.745,6.752,7.745s6.752-3.531,6.752-7.745a3.381,3.381,0,0,0-3.381-3.381" transform="translate(-22.744 -124.86)" fill="#fff"/>
      <path id="Trazado_834482" data-name="Trazado 834482" d="M185.98,35.25l2.727,8.394h8.826l-7.14,5.188,2.727,8.394-7.14-5.188-7.14,5.188,2.727-8.394-7.14-5.188h8.826Z" transform="translate(-101.62 -20.536)" fill="#bbabf8"/>
      <path id="Trazado_834483" data-name="Trazado 834483" d="M222.059,83.444l2.083,6.41h6.74l-5.453,3.962,2.082,6.41-5.453-3.962-5.453,3.962,2.082-6.41-5.453-3.962h6.74Z" transform="translate(-124.23 -48.614)" fill="#bbabf8"/>
      <path id="Trazado_834484" data-name="Trazado 834484" d="M206.118,130.026l1.211,3.727h3.919l-3.17,2.3,1.211,3.727-3.171-2.3-3.171,2.3,1.211-3.727-3.17-2.3h3.919Z" transform="translate(-117.094 -75.752)" fill="#bbabf8"/>
      <path id="Trazado_834485" data-name="Trazado 834485" d="M582.358,190.83a14.521,14.521,0,1,1-14.521-14.521,14.521,14.521,0,0,1,14.521,14.521" transform="translate(-322.358 -102.716)" fill="#bbabf8"/>
      <path id="Trazado_834486" data-name="Trazado 834486" d="M570.451,193.962v5.027l10.186,2.342-10.186,2.342V208.7l18.856-7.369Z" transform="translate(-332.34 -113.001)" fill="#fff"/>
      <path id="Trazado_834487" data-name="Trazado 834487" d="M322.874,21.331a21.248,21.248,0,0,1-42.333,2.638A20.791,20.791,0,0,1,285.659,7.26a20.426,20.426,0,0,1,16-7.259,21.241,21.241,0,0,1,21.219,21.33" transform="translate(-163.344 -0.001)" fill="#bbabf8"/>
      <path id="Trazado_834488" data-name="Trazado 834488" d="M329.251,39.975q-2.812,0-5.623,0c-.674,0-.921-.218-.916-.892.024-2.924-.134-5.852.082-8.77a9.243,9.243,0,0,1,2.04-5.046,27.73,27.73,0,0,1,2.522-2.874,1.334,1.334,0,0,0,.439-1.032c-.008-.5.041-1,.029-1.5a1.3,1.3,0,0,1,.777-1.381,1.539,1.539,0,0,1,1.706.343,3.179,3.179,0,0,1,.82,1.67,6.855,6.855,0,0,1-.562,4.524c-.217.486-.415.981-.658,1.454-.159.309-.036.418.239.462a2.749,2.749,0,0,0,.435.012q2.521-.005,5.042-.011a1.656,1.656,0,0,1,1.756,1.221,2.014,2.014,0,0,1-.847,2.28c-.332.177-.322.253-.032.456a1.764,1.764,0,0,1,.9,1.794,1.4,1.4,0,0,1-1.006,1.236c-.114.036-.291.026-.313.177s.16.182.256.253a1.6,1.6,0,0,1-.27,2.7c-.228.094-.329.15-.088.381a1.5,1.5,0,0,1,.283,1.751,1.321,1.321,0,0,1-1.385.774c-1.875-.006-3.749,0-5.623,0Z" transform="translate(-187.99 -10.693)" fill="#fdfdfe"/>
      <path id="Trazado_834489" data-name="Trazado 834489" d="M309.808,57.305c-1.55,0-3.1.007-4.649.016a.665.665,0,0,1-.724-.677,5.813,5.813,0,0,1-.012-.677q0-4.869.005-9.736c0-.8.2-1,1.009-1,1.389,0,2.777,0,4.166,0,.557,0,.842.245.843.775,0,3.406-.008,6.813-.015,10.219a.18.18,0,0,1-.014.046c-.087.028-.077.059,0,.092.027.367.016.716-.407.874-.013-.1-.048-.215-.167-.179-.137.041-.013.161-.032.243" transform="translate(-177.352 -26.351)" fill="#fdfdfe"/>
    </g>
  </g>
  <g id="Grupo_1076453" data-name="Grupo 1076453" transform="translate(1.486 67.938)">
    <g id="Grupo_1076452" data-name="Grupo 1076452" clip-path="url(#clip-path-2)">
      <path id="Trazado_834490" data-name="Trazado 834490" d="M162.806,186.6c.593,2.987.43,6.065.658,9.1s.922,6.189,2.918,8.488c1.692,1.95,4.227,3.177,5.434,5.459a7.086,7.086,0,0,1,.218,5.71,11.411,11.411,0,0,1-3.487,4.661c-5.184,4.332-12.946,5.029-19.084,2.205a22.313,22.313,0,0,1-12-15.44,28.483,28.483,0,0,1,3.164-19.579,19.161,19.161,0,0,1,7.775-8.164c2.818-1.418,7.054-1.953,9.9-.238,2.441,1.471,3.98,5.171,4.5,7.8" transform="translate(-81.235 -171.481)" fill="#452828"/>
      <path id="Trazado_834491" data-name="Trazado 834491" d="M308.015,353.7s-1.1,2.371-3.906.956l-1.835,3.467,4.575,2.421,3.322-6.276-1.314-6.182a1.975,1.975,0,0,0-1.208,1.817c.034,1.328.365,3.8.365,3.8" transform="translate(-177.589 -270.729)" fill="#915046"/>
      <path id="Trazado_834492" data-name="Trazado 834492" d="M315.115,372.558a3.861,3.861,0,0,0-2.049-3.478l-4.791-2.536-.99,1.87Z" transform="translate(-180.508 -281.484)" fill="#994f39"/>
      <path id="Trazado_834493" data-name="Trazado 834493" d="M317.344,377.178A3.861,3.861,0,0,0,315.3,373.7l-5.5-2.911-.99,1.87Z" transform="translate(-181.395 -283.957)" fill="#ab6955"/>
      <path id="Trazado_834494" data-name="Trazado 834494" d="M304.655,333.972l1.6,4.79,5.049-.039-4.062,3,1.6,4.791-4.108-2.936-4.063,3,1.524-4.814-4.108-2.937,5.049-.039Z" transform="translate(-175.147 -262.507)" fill="#faaf3b"/>
      <path id="Trazado_834495" data-name="Trazado 834495" d="M296.6,356.3l.233-1.678,1.939-1.529a2.457,2.457,0,0,0,.935-1.918v-.19l-5.915,2.11-2.578,3.051-1.663,3.142,8.94,4.733.607-1.147a4.64,4.64,0,0,0-1.93-6.272Z" transform="translate(-170.176 -272.417)" fill="#b57a68"/>
      <path id="Trazado_834496" data-name="Trazado 834496" d="M314.093,381.256a3.861,3.861,0,0,0-2.049-3.478l-5.5-2.911-.99,1.87Z" transform="translate(-179.501 -286.332)" fill="#b57a68"/>
      <path id="Trazado_834497" data-name="Trazado 834497" d="M303.308,363.313a8.643,8.643,0,0,1-2.107,2.236" transform="translate(-176.964 -279.601)" fill="none" stroke="#a15545" stroke-linecap="round" stroke-linejoin="round" stroke-width="1.865"/>
      <path id="Trazado_834498" data-name="Trazado 834498" d="M222.28,363.237l27.223.442-.106,3.735L217,372.361Z" transform="translate(-127.911 -279.557)" fill="#b57a68"/>
      <path id="Trazado_834499" data-name="Trazado 834499" d="M169.266,279.469h7.986a8.811,8.811,0,0,1,8.338,5.961l11.6,33.936s-.807,6.279-5.717,6.855a4.526,4.526,0,0,1-4.483-2.436l-17.727-33.633Z" transform="translate(-100.1 -230.754)" fill="#383757"/>
      <path id="Trazado_834500" data-name="Trazado 834500" d="M214.387,361.906l26.267.885-8.648,10.921-16.6.992a3.232,3.232,0,0,1-3.319-4.046l1.086-4.139Z" transform="translate(-124.986 -278.781)" fill="#383757"/>
      <path id="Trazado_834501" data-name="Trazado 834501" d="M221.719,363.237a15.244,15.244,0,0,0-5.68,5.542" transform="translate(-127.349 -279.557)" fill="none" stroke="#474463" stroke-linecap="round" stroke-miterlimit="10" stroke-width="1.865"/>
      <path id="Trazado_834502" data-name="Trazado 834502" d="M218.134,363.237c-2.783.11-6.216.482-8.249,2.386" transform="translate(-123.764 -279.557)" fill="none" stroke="#474463" stroke-linecap="round" stroke-miterlimit="10" stroke-width="1.865"/>
      <path id="Trazado_834503" data-name="Trazado 834503" d="M135.637,425.411a66.606,66.606,0,0,1-13-.084c-6.826-.654-12.854-3.883-18.744-7.155q-1.276-.709-2.565-1.451c3.1-4.914,7.057-9.984,11.6-13.2h22.69l7.353,20.106a23.107,23.107,0,0,1-7.333,1.784" transform="translate(-60.518 -303.027)" fill="#fff"/>
      <path id="Trazado_834504" data-name="Trazado 834504" d="M104.557,330.107,97.968,284.68l3.308-5.356h30.182l8.3,22.348s-6.936,21.5-6.936,29.475l7.636,22.171-9.016,3.468-6.943-21.3-7.629,21.153-23.754-9.883Z" transform="translate(-55.733 -230.67)" fill="#474463"/>
      <path id="Trazado_834505" data-name="Trazado 834505" d="M104.744,284.585l3.35-5.424h4.321l1.273,10.81-4.167,27.55Z" transform="translate(-62.51 -230.575)" fill="#383757"/>
      <path id="Trazado_834506" data-name="Trazado 834506" d="M151.724,279.684v25.565L130.31,279.684Z" transform="translate(-77.404 -230.879)" fill="#fff"/>
      <path id="Trazado_834507" data-name="Trazado 834507" d="M138.343,285.529a25.708,25.708,0,0,1-4.381-1.484l-4.09-4.882h21.6v3.752c-3.026,3.57-8.748,3.657-13.126,2.615" transform="translate(-77.149 -230.575)" fill="#b57a68"/>
      <path id="Trazado_834508" data-name="Trazado 834508" d="M129.873,279.161V295.13h9.158l-5.087,10.737,18.185-.131Z" transform="translate(-77.149 -230.575)" fill="#615f7f"/>
      <path id="Trazado_834509" data-name="Trazado 834509" d="M181.612,279.161h1.38l10.7,15.969h-8.454l9.124,10.737h-12.63Z" transform="translate(-107.292 -230.575)" fill="#615f7f"/>
      <path id="Trazado_834510" data-name="Trazado 834510" d="M173.984,343.082c-2.062,9.74-3.574,19.6-5.636,29.342" transform="translate(-99.565 -267.815)" fill="none" stroke="#383757" stroke-miterlimit="10" stroke-width="1.865"/>
      <path id="Trazado_834511" data-name="Trazado 834511" d="M87.19,279.149H79.2a8.811,8.811,0,0,0-8.338,5.961l-11.6,33.936a12.443,12.443,0,0,0,1.3,4.66c1.852,3.409,6.441,4.28,8.268.856L87.19,289.831Z" transform="translate(-36.013 -230.568)" fill="#474463"/>
      <path id="Trazado_834512" data-name="Trazado 834512" d="M151.53,358.81l2.192,1.9,5.245,1.2-.026-.188a2.455,2.455,0,0,0-1.184-1.775l-1.315-1.055.378-1.453,2.209-1.833-2.677-2.315-5.715,3.762Z" transform="translate(-89.246 -273.761)" fill="#915046"/>
      <path id="Trazado_834513" data-name="Trazado 834513" d="M160.075,357.58l3.653,3.487,4.445-2.4-2.187,4.552,3.653,3.486-5-.673-2.187,4.551-.906-4.968-5-.673,4.445-2.4Z" transform="translate(-92.683 -276.261)" fill="#faaf3b"/>
      <path id="Trazado_834514" data-name="Trazado 834514" d="M165.9,354.348s-1.126-1.758-3.193-.337l-1.824-2.546,3.73-2.607,3.3,4.609-.739,4.233a1.577,1.577,0,0,1-1.15-1.309c-.116-1.055-.126-2.044-.126-2.044" transform="translate(-95.219 -271.18)" fill="#915046"/>
      <path id="Trazado_834515" data-name="Trazado 834515" d="M150.3,354.658l-2.177-2.919,8.1-6.258.755,1.055c1.493,2.083,1.419,3.959.134,4.971l-1.754,1.382Z" transform="translate(-87.782 -269.212)" fill="#b57a68"/>
      <path id="Trazado_834516" data-name="Trazado 834516" d="M171.846,351.932a.292.292,0,0,1,.335.4,3.15,3.15,0,0,1-2.143,1.822l-4.94,1.214-.413-1.68Z" transform="translate(-97.431 -272.965)" fill="#b57a68"/>
      <path id="Trazado_834517" data-name="Trazado 834517" d="M170.347,335.1a.361.361,0,0,1,.585.275,3.883,3.883,0,0,1-1.443,3.153l-4.885,3.932-1.337-1.66Z" transform="translate(-96.605 -263.117)" fill="#b57a68"/>
      <path id="Trazado_834518" data-name="Trazado 834518" d="M172.368,343.4a.361.361,0,0,1,.512.394,3.884,3.884,0,0,1-2.085,2.77L165.9,349l-.95-1.908Z" transform="translate(-97.587 -267.98)" fill="#b57a68"/>
      <path id="Trazado_834519" data-name="Trazado 834519" d="M70.2,358.058,96.99,357.9l-8.339,11.627-20.762,3.124A3.962,3.962,0,0,1,63.4,368.03c.763-4.285,2.561-9.623,6.8-9.972" transform="translate(-38.387 -276.449)" fill="#474463"/>
      <line id="Línea_436" data-name="Línea 436" x1="8.772" y2="0.179" transform="translate(30.314 81.59)" fill="none" stroke="#383757" stroke-linecap="round" stroke-miterlimit="10" stroke-width="1.865"/>
      <line id="Línea_437" data-name="Línea 437" x1="9.154" y2="2.438" transform="translate(29.933 81.571)" fill="none" stroke="#383757" stroke-linecap="round" stroke-miterlimit="10" stroke-width="1.865"/>
      <path id="Trazado_834520" data-name="Trazado 834520" d="M142.494,227.966l.945,23.566a1.768,1.768,0,0,0,1.767,1.7h11.6a1.6,1.6,0,0,0,1.109-2.758c-2.224-2.175-4.479-5.907-4.479-12.1v-9.929Z" transform="translate(-84.502 -200.749)" fill="#b57a68"/>
      <path id="Trazado_834521" data-name="Trazado 834521" d="M154.4,228.52l5.589.242v9.929a19.668,19.668,0,0,0,1.115,6.818c-6.423-2.184-8.59-10.791-6.7-16.989" transform="translate(-91.059 -201.072)" fill="#915046"/>
      <path id="Trazado_834522" data-name="Trazado 834522" d="M136.973,205.575a16.851,16.851,0,0,1-2.285-1.885,22.139,22.139,0,0,1-6.469-13.684c-.485-4.8.479-9.585,4.467-12.756,4.27-3.4,10.926-3.692,15.735-1.337,4.6,2.253,7.128,6.538,8.069,11.446a42.254,42.254,0,0,1,.632,7.4c.062,4.633-.657,13.534-5.983,14.644-5.751,1.185-9.948-.975-14.166-3.824" transform="translate(-76.119 -169.531)" fill="#b57a68"/>
      <path id="Trazado_834523" data-name="Trazado 834523" d="M180.676,187.619c1.529,2.185,1.966,4.927,2.363,7.565a19.328,19.328,0,0,0,0-10.409,10.847,10.847,0,0,0-2.209-4.361,5.839,5.839,0,0,0-4.315-2.06c-2.57.043-5.66,3.583-3.007,5.722.811.653,2.189.519,3.15.777a7.091,7.091,0,0,1,4.014,2.766" transform="translate(-101.981 -171.845)" fill="#452828"/>
      <path id="Trazado_834524" data-name="Trazado 834524" d="M133.493,181.42a13.225,13.225,0,0,1-6.173,3.1c-2.348.5-5.193.359-6.959,2.238-5.363,5.711-.843,12.571,1.89,18.332,1.376,2.9,2.8,6.268,2.054,9.536-.956,4.182-5.034,6.17-9.042,6.186-6.523.027-11.579-4.819-12.882-11.05a15.961,15.961,0,0,1,1.041-9.465c1.152-2.779,3.008-5.233,3.932-8.112,1.478-4.607-.615-9.463.879-14.145,2.97-9.305,17.276-18.441,26-10.856,5.032,4.376,3.4,10.482-.74,14.233" transform="translate(-60.953 -163.699)" fill="#452828"/>
      <path id="Trazado_834525" data-name="Trazado 834525" d="M143.715,209.128a7,7,0,0,0-2.106,4.29,8.968,8.968,0,0,0,1.221,5.3l1.194-.21a24.038,24.038,0,0,1,1.313-6.144,20.528,20.528,0,0,1,1.1-2.658c-.356-1.652-1.657-1.585-2.718-.577" transform="translate(-83.963 -189.355)" fill="#452828"/>
      <path id="Trazado_834526" data-name="Trazado 834526" d="M184.524,221.344a13.12,13.12,0,0,0,1.849,4.354,2.069,2.069,0,0,1,.528,1.525c-.122.508-.623.816-1.081,1.067" transform="translate(-108.989 -196.891)" fill="none" stroke="#915046" stroke-linecap="round" stroke-miterlimit="10" stroke-width="1.216"/>
      <path id="Trazado_834527" data-name="Trazado 834527" d="M180.2,243.271a1.32,1.32,0,1,0,1.072-1.529,1.32,1.32,0,0,0-1.072,1.529" transform="translate(-106.456 -208.763)" fill="#ff7a7a"/>
      <path id="Trazado_834528" data-name="Trazado 834528" d="M181.722,243.1a5.177,5.177,0,0,1-4.609.3" transform="translate(-104.671 -209.565)" fill="none" stroke="#915046" stroke-linecap="round" stroke-miterlimit="10" stroke-width="1.216"/>
      <path id="Trazado_834529" data-name="Trazado 834529" d="M190.97,210.62a2.646,2.646,0,0,0-3.346.438" transform="translate(-110.795 -190.409)" fill="none" stroke="#452828" stroke-linecap="round" stroke-miterlimit="10" stroke-width="1.823"/>
      <path id="Trazado_834530" data-name="Trazado 834530" d="M166.78,213.7a5.321,5.321,0,0,0-4.817.791" transform="translate(-95.845 -192.287)" fill="none" stroke="#452828" stroke-linecap="round" stroke-miterlimit="10" stroke-width="1.823"/>
      <path id="Trazado_834531" data-name="Trazado 834531" d="M169.528,221.486a1.179,1.179,0,1,1-1.365-.957,1.178,1.178,0,0,1,1.365.957" transform="translate(-98.889 -196.406)" fill="#452828"/>
      <path id="Trazado_834532" data-name="Trazado 834532" d="M191.015,219.012a1.179,1.179,0,1,1-1.365-.957,1.178,1.178,0,0,1,1.365.957" transform="translate(-111.407 -194.964)" fill="#452828"/>
      <path id="Trazado_834533" data-name="Trazado 834533" d="M137.576,225.187a2.979,2.979,0,0,0-2.941-.661,2.7,2.7,0,0,0-1.531,1.915,4.516,4.516,0,0,0,.228,2.5,7.037,7.037,0,0,0,6.156,4.556c.56.025.253-4.455.169-4.883a6.413,6.413,0,0,0-2.082-3.433" transform="translate(-78.98 -198.651)" fill="#b57a68"/>
      <path id="Trazado_834534" data-name="Trazado 834534" d="M143.411,242.042a1.165,1.165,0,1,1-1.349-.946,1.165,1.165,0,0,1,1.349.946" transform="translate(-83.689 -208.388)" fill="#fff"/>
      <path id="Trazado_834535" data-name="Trazado 834535" d="M137.382,228.608a1.677,1.677,0,0,1,1.713-.2,2.54,2.54,0,0,1,1.24,1.272,5.4,5.4,0,0,1,.434,1.754.885.885,0,1,0-.383,1.5" transform="translate(-81.524 -200.922)" fill="none" stroke="#915046" stroke-linecap="round" stroke-miterlimit="10" stroke-width="1.216"/>
    </g>
  </g>
</svg>
