<svg id="Grupo_1076410" data-name="Grupo 1076410" xmlns="http://www.w3.org/2000/svg" xmlns:xlink="http://www.w3.org/1999/xlink" width="260" height="250.152" viewBox="0 0 260 250.152">
  <defs>
    <clipPath id="clip-path">
      <rect id="Rectángulo_384803" data-name="Rectángulo 384803" width="260" height="250.152" fill="none"/>
    </clipPath>
    <clipPath id="clip-path-4">
      <rect id="Rectángulo_384790" data-name="Rectángulo 384790" width="41.57" height="36.048" fill="none"/>
    </clipPath>
    <clipPath id="clip-path-5">
      <rect id="Rectángulo_384791" data-name="Rectángulo 384791" width="3.292" height="35.484" fill="none"/>
    </clipPath>
    <clipPath id="clip-path-8">
      <rect id="Rectángulo_384796" data-name="Rectángulo 384796" width="8.86" height="23.327" fill="none"/>
    </clipPath>
    <clipPath id="clip-path-10">
      <rect id="Rectángulo_384799" data-name="Rectángulo 384799" width="31.562" height="42.873" fill="none"/>
    </clipPath>
  </defs>
  <g id="Grupo_1076409" data-name="Grupo 1076409" clip-path="url(#clip-path)">
    <rect id="Rectángulo_384780" data-name="Rectángulo 384780" width="12.865" height="4.787" transform="matrix(0.474, -0.88, 0.88, 0.474, 206.274, 83.475)" fill="#e0e0e0"/>
    <rect id="Rectángulo_384781" data-name="Rectángulo 384781" width="12.865" height="4.787" transform="matrix(0.474, -0.88, 0.88, 0.474, 207.412, 84.089)" fill="#ebebeb"/>
    <g id="Grupo_1076388" data-name="Grupo 1076388">
      <g id="Grupo_1076387" data-name="Grupo 1076387" clip-path="url(#clip-path)">
        <path id="Trazado_833820" data-name="Trazado 833820" d="M366.473,130.52a1.08,1.08,0,1,0,1.463-.439,1.08,1.08,0,0,0-1.463.439" transform="translate(-153.172 -54.334)" fill="#fff"/>
        <path id="Trazado_833821" data-name="Trazado 833821" d="M363.385,126.925a6.651,6.651,0,0,1,.255,2.245,6.655,6.655,0,0,1-.255-2.245" transform="translate(-151.921 -53.068)" fill="#ebebeb"/>
        <path id="Trazado_833822" data-name="Trazado 833822" d="M362.225,129.078a6.651,6.651,0,0,1,.255,2.245,6.655,6.655,0,0,1-.255-2.245" transform="translate(-151.436 -53.969)" fill="#ebebeb"/>
        <path id="Trazado_833823" data-name="Trazado 833823" d="M361.065,131.232a6.651,6.651,0,0,1,.255,2.245,6.655,6.655,0,0,1-.255-2.245" transform="translate(-150.951 -54.869)" fill="#ebebeb"/>
        <path id="Trazado_833824" data-name="Trazado 833824" d="M359.9,133.385a6.65,6.65,0,0,1,.255,2.244,6.648,6.648,0,0,1-.255-2.244" transform="translate(-150.466 -55.769)" fill="#ebebeb"/>
        <path id="Trazado_833825" data-name="Trazado 833825" d="M358.745,135.539a6.691,6.691,0,0,1,.255,2.244,6.65,6.65,0,0,1-.255-2.244" transform="translate(-149.981 -56.67)" fill="#ebebeb"/>
        <path id="Trazado_833826" data-name="Trazado 833826" d="M357.586,137.692a6.65,6.65,0,0,1,.255,2.245,6.656,6.656,0,0,1-.255-2.245" transform="translate(-149.497 -57.57)" fill="#ebebeb"/>
        <path id="Trazado_833827" data-name="Trazado 833827" d="M356.426,139.845a6.65,6.65,0,0,1,.255,2.245,6.65,6.65,0,0,1-.255-2.245" transform="translate(-149.012 -58.47)" fill="#ebebeb"/>
        <path id="Trazado_833828" data-name="Trazado 833828" d="M364.428,125.036a6.651,6.651,0,0,1,.255,2.244,6.688,6.688,0,0,1-.255-2.244" transform="translate(-152.357 -52.279)" fill="#ebebeb"/>
        <path id="Trazado_833829" data-name="Trazado 833829" d="M365.71,124.4c.053-.006.13.286.171.653s.033.669-.02.675-.129-.286-.171-.653-.033-.669.02-.675" transform="translate(-152.887 -52.015)" fill="#ebebeb"/>
        <path id="Trazado_833830" data-name="Trazado 833830" d="M342.171,123.367l5.163-10.132s-2-1.633-2.35-5.732c-.234-2.713,1.394-4.575,1.615-5.591.136-.621-1.191-1.2-1.782-1.431a2.477,2.477,0,0,0-2.4.238c-1.51,1.179-2.552,5.386-2.552,5.386s.009.975-1.045.408l-3.758-2.024a2.327,2.327,0,0,0-1.594-.242,1.728,1.728,0,0,0-1.266,1.032,7.738,7.738,0,0,0-.411,2.837c-.162.3-.86.6-1.025,1.632s.063,1.054-.159,1.468a7.689,7.689,0,0,0-.8,2.29,3.483,3.483,0,0,0,.058,1.245,5.088,5.088,0,0,0-.892,2.287c.011,1.3,2.133,3.307,3.409,3.39.6.038,3.121.71,4.316,1.014s4.719.89,5.471,1.927" transform="translate(-137.547 -41.927)" fill="#e0e0e0"/>
        <path id="Trazado_833831" data-name="Trazado 833831" d="M344.585,124.726l5.452-10.122s-2-1.633-2.35-5.732a19.191,19.191,0,0,1,.267-5.667,1.3,1.3,0,0,0-.774-1.5,1.989,1.989,0,0,0-2.119.279c-1.509,1.179-2.494,5.486-2.494,5.486s.009.975-1.045.408l-3.758-2.024a2.323,2.323,0,0,0-1.594-.242,1.725,1.725,0,0,0-1.266,1.032,7.739,7.739,0,0,0-.411,2.837c-.162.3-.86.6-1.025,1.633s.063,1.054-.159,1.468a7.657,7.657,0,0,0-.8,2.289,3.5,3.5,0,0,0,.058,1.245,5.917,5.917,0,0,0-.891,2.286c-.049.993,1.308,2.258,1.835,2.542s4.7,1.558,5.89,1.862,4.429.88,5.182,1.916" transform="translate(-138.677 -42.448)" fill="#ebebeb"/>
        <path id="Trazado_833832" data-name="Trazado 833832" d="M348.945,106.494a20.449,20.449,0,0,1,.854,2.848,8.05,8.05,0,0,1-.854-2.848" transform="translate(-145.892 -44.526)" fill="#ebebeb"/>
        <path id="Trazado_833833" data-name="Trazado 833833" d="M349.849,103.981a8.978,8.978,0,0,1,.5,1.256,4.509,4.509,0,0,1,.4,1.3,5.2,5.2,0,0,1-.577-1.229,3.332,3.332,0,0,1-.316-1.324" transform="translate(-146.269 -43.475)" fill="#ebebeb"/>
        <path id="Trazado_833834" data-name="Trazado 833834" d="M351.155,101.978a7.891,7.891,0,0,1,.445,1,2.486,2.486,0,0,1,.349,1.051,4.669,4.669,0,0,1-.524-.971,2.048,2.048,0,0,1-.271-1.08" transform="translate(-146.814 -42.638)" fill="#ebebeb"/>
        <path id="Trazado_833835" data-name="Trazado 833835" d="M352.81,100.611c.049-.019.221.3.382.719a1.781,1.781,0,0,1,.2.788c-.049.019-.221-.3-.382-.719a1.78,1.78,0,0,1-.2-.788" transform="translate(-147.507 -42.066)" fill="#ebebeb"/>
        <path id="Trazado_833836" data-name="Trazado 833836" d="M354.676,100.284c.046-.027.185.14.31.374s.189.442.141.466-.187-.144-.311-.374-.186-.438-.14-.465" transform="translate(-148.287 -41.928)" fill="#ebebeb"/>
        <path id="Trazado_833837" data-name="Trazado 833837" d="M347.8,109.831a3.84,3.84,0,0,1,.616,1.6,3.861,3.861,0,0,1-.616-1.6" transform="translate(-145.412 -45.921)" fill="#ebebeb"/>
        <path id="Trazado_833838" data-name="Trazado 833838" d="M334.025,110.234a13.072,13.072,0,0,1,1.453,2.817,13.072,13.072,0,0,1-1.453-2.817" transform="translate(-139.657 -46.09)" fill="#ebebeb"/>
        <path id="Trazado_833839" data-name="Trazado 833839" d="M335.713,107.34a4.686,4.686,0,0,1,.863,1.682,4.674,4.674,0,0,1-.863-1.682" transform="translate(-140.361 -44.879)" fill="#ebebeb"/>
        <path id="Trazado_833840" data-name="Trazado 833840" d="M332.739,114.988a4.7,4.7,0,0,1,1.075,2.075,15.1,15.1,0,0,1-1.075-2.075" transform="translate(-139.119 -48.077)" fill="#ebebeb"/>
        <path id="Trazado_833841" data-name="Trazado 833841" d="M331.875,118.847a7.04,7.04,0,0,1,.973,2.1,7.022,7.022,0,0,1-.973-2.1" transform="translate(-138.757 -49.691)" fill="#ebebeb"/>
        <path id="Trazado_833842" data-name="Trazado 833842" d="M330.493,123.219a22.567,22.567,0,0,1,1.184,2.424,6.032,6.032,0,0,1-1.184-2.424" transform="translate(-138.179 -51.519)" fill="#ebebeb"/>
        <path id="Trazado_833843" data-name="Trazado 833843" d="M329.527,127a30.585,30.585,0,0,1,1.381,2.827A8.186,8.186,0,0,1,329.527,127" transform="translate(-137.775 -53.1)" fill="#ebebeb"/>
        <rect id="Rectángulo_384782" data-name="Rectángulo 384782" width="6.567" height="17.648" transform="translate(51.354 11.694) rotate(-22.577)" fill="#e0e0e0"/>
        <rect id="Rectángulo_384783" data-name="Rectángulo 384783" width="6.567" height="17.648" transform="translate(49.716 12.375) rotate(-22.577)" fill="#ebebeb"/>
        <path id="Trazado_833844" data-name="Trazado 833844" d="M99.508,38.8a1.482,1.482,0,1,0-.8,1.937,1.483,1.483,0,0,0,.8-1.937" transform="translate(-40.414 -15.842)" fill="#fff"/>
        <path id="Trazado_833845" data-name="Trazado 833845" d="M106.673,38.357a4.649,4.649,0,0,1-1.376-.724,4.653,4.653,0,0,1-1.234-.947,4.632,4.632,0,0,1,1.376.724,4.654,4.654,0,0,1,1.234.947" transform="translate(-43.509 -15.335)" fill="#ebebeb"/>
        <path id="Trazado_833846" data-name="Trazado 833846" d="M105.384,35.258a4.649,4.649,0,0,1-1.376-.724,4.666,4.666,0,0,1-1.234-.947,4.632,4.632,0,0,1,1.376.724,4.641,4.641,0,0,1,1.234.947" transform="translate(-42.97 -14.04)" fill="#ebebeb"/>
        <path id="Trazado_833847" data-name="Trazado 833847" d="M104.1,32.16a4.648,4.648,0,0,1-1.376-.724,4.666,4.666,0,0,1-1.234-.947,4.632,4.632,0,0,1,1.376.724,4.641,4.641,0,0,1,1.234.947" transform="translate(-42.432 -12.744)" fill="#ebebeb"/>
        <path id="Trazado_833848" data-name="Trazado 833848" d="M102.808,29.062a4.648,4.648,0,0,1-1.376-.724,4.666,4.666,0,0,1-1.234-.947,4.632,4.632,0,0,1,1.376.724,4.654,4.654,0,0,1,1.234.947" transform="translate(-41.893 -11.449)" fill="#ebebeb"/>
        <path id="Trazado_833849" data-name="Trazado 833849" d="M101.52,25.964a4.656,4.656,0,0,1-1.376-.724,4.679,4.679,0,0,1-1.234-.947,4.632,4.632,0,0,1,1.376.724,4.654,4.654,0,0,1,1.234.947" transform="translate(-41.355 -10.154)" fill="#ebebeb"/>
        <path id="Trazado_833850" data-name="Trazado 833850" d="M100.232,22.866a4.648,4.648,0,0,1-1.376-.724,4.654,4.654,0,0,1-1.234-.947A4.632,4.632,0,0,1,99,21.919a4.654,4.654,0,0,1,1.234.947" transform="translate(-40.816 -8.858)" fill="#ebebeb"/>
        <path id="Trazado_833851" data-name="Trazado 833851" d="M98.943,19.768a4.649,4.649,0,0,1-1.376-.724,4.642,4.642,0,0,1-1.234-.947,4.632,4.632,0,0,1,1.376.724,4.654,4.654,0,0,1,1.234.947" transform="translate(-40.277 -7.563)" fill="#ebebeb"/>
        <path id="Trazado_833852" data-name="Trazado 833852" d="M107.78,41.1a4.649,4.649,0,0,1-1.376-.724,4.666,4.666,0,0,1-1.234-.947,9.158,9.158,0,0,1,2.61,1.671" transform="translate(-43.972 -16.483)" fill="#ebebeb"/>
        <path id="Trazado_833853" data-name="Trazado 833853" d="M108.1,43.509c-.04.062-.417-.11-.844-.383s-.74-.544-.7-.606.417.11.843.383.741.544.7.606" transform="translate(-44.55 -17.773)" fill="#ebebeb"/>
        <path id="Trazado_833854" data-name="Trazado 833854" d="M104.852,9.178l6.315,14.263s3.465-.71,8.134,2.46c3.09,2.1,3.664,5.443,4.553,6.558.544.682,2.3-.233,3.065-.658a3.4,3.4,0,0,0,1.826-2.763c.051-2.628-3.524-7.377-3.524-7.377s-1.046-.835.47-1.466l5.407-2.248a3.187,3.187,0,0,0,1.637-1.487,2.368,2.368,0,0,0,0-2.24c-1.018-1.989-2.484-2.46-2.664-2.893a4.278,4.278,0,0,0-.85-2.5c-.951-1.065-1.177-.844-1.424-1.44a10.5,10.5,0,0,0-1.748-2.829,4.781,4.781,0,0,0-1.374-1.016A6.983,6.983,0,0,0,123.009.61c-1.4-1.117-5.366-.593-6.558.695-.557.6-3.456,2.707-4.815,3.717s-5.03,4.252-6.784,4.156" transform="translate(-43.84 0)" fill="#e0e0e0"/>
        <path id="Trazado_833855" data-name="Trazado 833855" d="M101.408,10.515l6.055,14.563s3.465-.71,8.134,2.46a26.308,26.308,0,0,1,5.8,5.188,1.791,1.791,0,0,0,2.264.471,2.728,2.728,0,0,0,1.537-2.5c.051-2.627-3.68-7.4-3.68-7.4s-1.046-.835.47-1.465l5.406-2.248a3.187,3.187,0,0,0,1.637-1.487,2.368,2.368,0,0,0,0-2.24c-1.018-1.99-2.483-2.46-2.663-2.893a4.278,4.278,0,0,0-.85-2.5c-.951-1.065-1.177-.844-1.424-1.44a10.523,10.523,0,0,0-1.748-2.829,4.785,4.785,0,0,0-1.374-1.015,8.126,8.126,0,0,0-1.662-2.929c-1.014-.912-3.536-.562-4.294-.247s-5.721,3.649-7.08,4.659-4.77,3.952-6.524,3.856" transform="translate(-42.4 -0.695)" fill="#ebebeb"/>
        <path id="Trazado_833856" data-name="Trazado 833856" d="M140.093,40.736a10.145,10.145,0,0,1-1.913-.709,10.188,10.188,0,0,1-1.857-.846,11.028,11.028,0,0,1,3.771,1.555" transform="translate(-56.998 -16.377)" fill="#ebebeb"/>
        <path id="Trazado_833857" data-name="Trazado 833857" d="M142.188,44.086a12.331,12.331,0,0,1-1.766-.558,6.17,6.17,0,0,1-1.723-.7,7.162,7.162,0,0,1,1.806.45,4.562,4.562,0,0,1,1.683.809" transform="translate(-57.991 -17.901)" fill="#ebebeb"/>
        <path id="Trazado_833858" data-name="Trazado 833858" d="M143.632,47.444a10.869,10.869,0,0,1-1.449-.391,3.406,3.406,0,0,1-1.421-.538,6.392,6.392,0,0,1,1.486.282,2.817,2.817,0,0,1,1.384.647" transform="translate(-58.854 -19.442)" fill="#ebebeb"/>
        <path id="Trazado_833859" data-name="Trazado 833859" d="M144.2,50.559a2.445,2.445,0,0,1-1.1-.216c-.582-.189-1.036-.4-1.014-.468a2.445,2.445,0,0,1,1.1.216c.582.189,1.037.4,1.014.468" transform="translate(-59.41 -20.844)" fill="#ebebeb"/>
        <path id="Trazado_833860" data-name="Trazado 833860" d="M143.527,53.118c-.01.072-.309.076-.666.007s-.634-.182-.617-.253.315-.074.666-.007.627.181.617.253" transform="translate(-59.473 -22.083)" fill="#ebebeb"/>
        <path id="Trazado_833861" data-name="Trazado 833861" d="M138.638,37.214a5.268,5.268,0,0,1-2.233-.727,5.289,5.289,0,0,1,2.233.727" transform="translate(-57.032 -15.247)" fill="#ebebeb"/>
        <path id="Trazado_833862" data-name="Trazado 833862" d="M148.68,22.083a9.052,9.052,0,0,1-2.155-.317,9.1,9.1,0,0,1-2.1-.575,17.965,17.965,0,0,1,4.256.891" transform="translate(-60.385 -8.853)" fill="#ebebeb"/>
        <path id="Trazado_833863" data-name="Trazado 833863" d="M151.533,26.634A6.419,6.419,0,0,1,149,26.1a6.419,6.419,0,0,1,2.537.537" transform="translate(-62.296 -10.899)" fill="#ebebeb"/>
        <path id="Trazado_833864" data-name="Trazado 833864" d="M145.535,16.775a3.969,3.969,0,0,1-1.611-.127,3.98,3.98,0,0,1-1.528-.524,20.7,20.7,0,0,1,3.139.651" transform="translate(-59.537 -6.734)" fill="#ebebeb"/>
        <path id="Trazado_833865" data-name="Trazado 833865" d="M142.215,12.418a4.885,4.885,0,0,1-1.573-.265,4.891,4.891,0,0,1-1.508-.521,4.887,4.887,0,0,1,1.573.265,4.9,4.9,0,0,1,1.508.521" transform="translate(-58.173 -4.855)" fill="#ebebeb"/>
        <path id="Trazado_833866" data-name="Trazado 833866" d="M138.383,7.121a9.214,9.214,0,0,1-1.814-.365,9.235,9.235,0,0,1-1.79-.472,5.14,5.14,0,0,1,1.849.215,5.157,5.157,0,0,1,1.755.623" transform="translate(-56.352 -2.615)" fill="#ebebeb"/>
        <path id="Trazado_833867" data-name="Trazado 833867" d="M134.764,2.721a13.139,13.139,0,0,1-2.115-.435,13.261,13.261,0,0,1-2.09-.542,6.738,6.738,0,0,1,2.15.285,6.768,6.768,0,0,1,2.055.692" transform="translate(-54.588 -0.718)" fill="#ebebeb"/>
        <path id="Trazado_833868" data-name="Trazado 833868" d="M36.139,312.741a18.884,18.884,0,0,0-11.716-1.424c-2.126.352-4.341.987-5.787,2.584s-1.721,4.406-.06,5.778a5.547,5.547,0,0,0,3.65.926c3.1-.036,6.533-.581,9.008,1.282,1.412,1.063,2.351,2.831,4.039,3.353a3.99,3.99,0,0,0,4.39-1.953,6.823,6.823,0,0,0,.5-5.033,7.684,7.684,0,0,0-4.02-5.513" transform="translate(-7.29 -130.027)" fill="#ebebeb"/>
        <path id="Trazado_833869" data-name="Trazado 833869" d="M53.15,263.69c-2.179,3.112-6.414,2.082-8.378.182s-2.794-4.653-3.55-7.279c-1.726-6-3.466-12.292-2.183-18.4a10.226,10.226,0,0,1,2.35-5,5.342,5.342,0,0,1,5.061-1.685c2.136.564,3.463,2.656,4.422,4.646a43.861,43.861,0,0,1,4.335,18.824c.01,3.032-.347,6.212-2.058,8.716" transform="translate(-16.137 -96.737)" fill="#ebebeb"/>
        <path id="Trazado_833870" data-name="Trazado 833870" d="M72.24,275.352a11.326,11.326,0,0,1-1.763-10.422,20.1,20.1,0,0,1,6.173-8.954A33.239,33.239,0,0,1,87.7,249.455a11.8,11.8,0,0,1,4.971-.844,5.218,5.218,0,0,1,4.172,2.524c1.163,2.218.048,4.909-1.158,7.1a84.288,84.288,0,0,1-7.26,11.055c-2.176,2.805-4.669,5.573-7.985,6.841s-6.761,1.118-8.519-1.181" transform="translate(-29.243 -103.933)" fill="#ebebeb"/>
        <path id="Trazado_833871" data-name="Trazado 833871" d="M52.174,347.035a6.783,6.783,0,0,1-.2-1.414l-.375-3.86a55.656,55.656,0,0,0-.869-5.661,43.609,43.609,0,0,0-2.058-6.682,24.619,24.619,0,0,0-3.412-6.046,12.735,12.735,0,0,0-4.314-3.586,12.051,12.051,0,0,0-3.633-1.131,6.789,6.789,0,0,1-1.408-.2,6.664,6.664,0,0,1,1.433-.022,11.015,11.015,0,0,1,3.788.986,12.724,12.724,0,0,1,4.55,3.618,24.059,24.059,0,0,1,3.537,6.167,40.86,40.86,0,0,1,2.043,6.791,47.815,47.815,0,0,1,.752,5.733c.123,1.639.169,2.966.191,3.884a6.657,6.657,0,0,1-.03,1.428" transform="translate(-15.014 -133.132)" fill="#e0e0e0"/>
        <path id="Trazado_833872" data-name="Trazado 833872" d="M58.209,316.655a2.779,2.779,0,0,1-.038-.656c0-.493,0-1.114,0-1.877,0-1.629,0-3.985-.083-6.9-.144-5.821-.645-12.085-1.614-20.915-.916-8.3-2.147-17.969-3.445-24.252-.279-1.429-.559-2.715-.823-3.841s-.467-2.1-.674-2.889l-.438-1.824a2.81,2.81,0,0,1-.115-.648,2.732,2.732,0,0,1,.228.616l.545,1.8c.241.78.489,1.747.772,2.87s.6,2.4.909,3.831a212.857,212.857,0,0,1,3.622,22.5c.97,8.849,1.406,16.907,1.445,22.743.034,2.918-.027,5.279-.1,6.909-.047.762-.084,1.383-.115,1.875a2.753,2.753,0,0,1-.08.652" transform="translate(-21.315 -105.722)" fill="#e0e0e0"/>
        <path id="Trazado_833873" data-name="Trazado 833873" d="M63.319,304.529a12.241,12.241,0,0,1,.013-1.96c.073-1.26.246-3.081.6-5.311a70.142,70.142,0,0,1,1.728-7.738,63.4,63.4,0,0,1,3.236-9.155,48.783,48.783,0,0,1,9.5-14.8,24.152,24.152,0,0,1,2.236-2.078c.344-.29.646-.579.955-.808l.868-.6a12.327,12.327,0,0,1,1.651-1.056,58.2,58.2,0,0,0-5.41,4.826A51.4,51.4,0,0,0,69.431,280.6a72.412,72.412,0,0,0-3.254,9.072c-.849,2.843-1.412,5.458-1.838,7.661-.4,2.208-.639,4.01-.78,5.259a12.757,12.757,0,0,1-.24,1.942" transform="translate(-26.463 -109.137)" fill="#e0e0e0"/>
        <path id="Trazado_833874" data-name="Trazado 833874" d="M67.221,382.9l-1.557,21.335H38.255L36.7,382.9Z" transform="translate(-15.344 -160.094)" fill="#e0e0e0"/>
        <rect id="Rectángulo_384784" data-name="Rectángulo 384784" width="36.441" height="8.409" transform="translate(18.083 214.397)" fill="#e0e0e0"/>
        <path id="Trazado_833875" data-name="Trazado 833875" d="M67.951,418.163v2.331H32.112v-2.331Z" transform="translate(-13.426 -174.838)" fill="#ebebeb"/>
        <path id="Trazado_833876" data-name="Trazado 833876" d="M65.5,426.272l1.678-4.1H34.355l1.958,4.1Z" transform="translate(-14.364 -176.513)" fill="#e0e0e0"/>
        <path id="Trazado_833877" data-name="Trazado 833877" d="M37.572,392.731a.866.866,0,0,0,.128.2l.409.543,1.6,2.044.071.091.069-.095,3.923-5.426h-.226l3.862,5.469.121.172.136-.161,4.58-5.45-.264,0,.252.317,4.1,5.134.136.171.126-.178,3.864-5.467-.225.01,4.759,5.421.084.1.065-.108,1.49-2.5.382-.667a1.038,1.038,0,0,0,.117-.237,1.05,1.05,0,0,0-.159.211l-.423.641-1.564,2.458.149-.012-4.682-5.488-.118-.139-.107.15-3.9,5.442.262-.007L52.5,390.214l-.252-.317-.13-.163-.134.16-4.568,5.46.257.01-3.9-5.441-.115-.159-.111.159-3.84,5.484.14,0-1.661-1.991-.445-.515a.914.914,0,0,0-.165-.166" transform="translate(-15.709 -162.951)" fill="#f5f5f5"/>
        <path id="Trazado_833878" data-name="Trazado 833878" d="M36.042,382.536c0,.094,6.867.17,15.337.17s15.339-.076,15.339-.17-6.866-.171-15.339-.171-15.337.076-15.337.171" transform="translate(-15.069 -159.871)" fill="#f5f5f5"/>
        <path id="Trazado_833879" data-name="Trazado 833879" d="M33.662,422.441c0,.094,7.464.171,16.669.171S67,422.536,67,422.441s-7.462-.171-16.671-.171-16.669.076-16.669.171" transform="translate(-14.074 -176.555)" fill="#f5f5f5"/>
        <path id="Trazado_833880" data-name="Trazado 833880" d="M317.793,197.852a18.568,18.568,0,1,1-18.568-18.568,18.567,18.567,0,0,1,18.568,18.568" transform="translate(-117.346 -74.96)" fill="#ebebeb"/>
        <path id="Trazado_833881" data-name="Trazado 833881" d="M324.4,205.739c.317-.017.663.47.921,1.43a11.055,11.055,0,0,1,.148,4.15,16.513,16.513,0,0,1-2,5.911,17.39,17.39,0,0,1-12.392,8.728,16.529,16.529,0,0,1-6.242-.1,11.071,11.071,0,0,1-3.857-1.537c-.816-.566-1.159-1.056-1.036-1.348.269-.641,2.249-.282,5.2-.437a18.5,18.5,0,0,0,17.1-12.046c1.139-2.723,1.468-4.708,2.162-4.746" transform="translate(-125.397 -86.021)" fill="#e0e0e0"/>
        <path id="Trazado_833882" data-name="Trazado 833882" d="M308.16,213.381a7.953,7.953,0,0,0,5.119-2.293,4.6,4.6,0,0,0,1.34-3.136,2.459,2.459,0,0,0-2.009-2.282,3.506,3.506,0,0,0-2.182.71,6.814,6.814,0,0,1-2.065,1.074,5.443,5.443,0,0,1-3.236-.62,5.847,5.847,0,0,0-3.229-.691,2.119,2.119,0,0,0-1.768,1.207,2.994,2.994,0,0,0,.561,2.828,8.287,8.287,0,0,0,7.469,3.2" transform="translate(-125.43 -85.988)" fill="#fff"/>
        <path id="Trazado_833883" data-name="Trazado 833883" d="M297.391,200.132a1.682,1.682,0,0,0-1.687-.887,1.1,1.1,0,0,0-.574.194l-.017.009.007,0a1.82,1.82,0,0,0-.678,1.743,1.627,1.627,0,0,0,2.069,1.172,1.676,1.676,0,0,0,.882-2.229" transform="translate(-123.097 -83.301)" fill="#fff"/>
        <path id="Trazado_833884" data-name="Trazado 833884" d="M327.75,200.231a1.682,1.682,0,0,0-1.687-.887,1.1,1.1,0,0,0-.574.194l-.017.009.007,0a1.819,1.819,0,0,0-.678,1.743,1.627,1.627,0,0,0,2.069,1.172,1.676,1.676,0,0,0,.882-2.229" transform="translate(-135.791 -83.342)" fill="#fff"/>
        <path id="Trazado_833885" data-name="Trazado 833885" d="M321.653,26.71A13.873,13.873,0,1,1,307.78,12.837,13.873,13.873,0,0,1,321.653,26.71" transform="translate(-122.886 -5.367)" fill="#ebebeb"/>
        <path id="Trazado_833886" data-name="Trazado 833886" d="M326.591,32.6c.236-.013.5.351.688,1.068a8.255,8.255,0,0,1,.111,3.1,12.337,12.337,0,0,1-1.5,4.417,12.991,12.991,0,0,1-9.258,6.521,12.331,12.331,0,0,1-4.663-.077,8.26,8.26,0,0,1-2.882-1.149c-.61-.422-.865-.789-.773-1.007.2-.478,1.68-.21,3.882-.326a14.9,14.9,0,0,0,7.785-2.521,14.907,14.907,0,0,0,5-6.48c.851-2.034,1.1-3.517,1.615-3.545" transform="translate(-128.901 -13.631)" fill="#e0e0e0"/>
        <path id="Trazado_833887" data-name="Trazado 833887" d="M313.185,32.571a5.94,5.94,0,0,0-3.825,1.714,3.432,3.432,0,0,0-1,2.343,1.837,1.837,0,0,0,1.5,1.7,2.623,2.623,0,0,0,1.63-.531,5.11,5.11,0,0,1,1.543-.8,4.066,4.066,0,0,1,2.418.463,4.372,4.372,0,0,0,2.413.516,1.583,1.583,0,0,0,1.321-.9,2.238,2.238,0,0,0-.42-2.113,6.192,6.192,0,0,0-5.58-2.393" transform="translate(-128.925 -13.607)" fill="#fff"/>
        <path id="Trazado_833888" data-name="Trazado 833888" d="M306.41,28.414a1.257,1.257,0,0,0-1.261-.662.8.8,0,0,0-.429.145l-.013.006h.005a1.357,1.357,0,0,0-.507,1.3,1.216,1.216,0,0,0,1.546.876,1.253,1.253,0,0,0,.659-1.666" transform="translate(-127.183 -11.599)" fill="#fff"/>
        <path id="Trazado_833889" data-name="Trazado 833889" d="M329.092,28.488a1.257,1.257,0,0,0-1.261-.663.814.814,0,0,0-.429.145l-.013.007.005,0a1.358,1.358,0,0,0-.507,1.3,1.216,1.216,0,0,0,1.546.876,1.252,1.252,0,0,0,.659-1.665" transform="translate(-136.666 -11.63)" fill="#fff"/>
        <path id="Trazado_833890" data-name="Trazado 833890" d="M29.286,183.859A12.361,12.361,0,1,1,16.925,171.5a12.361,12.361,0,0,1,12.361,12.361" transform="translate(-1.908 -71.705)" fill="#ebebeb"/>
        <path id="Trazado_833891" data-name="Trazado 833891" d="M33.685,189.111c.211-.012.442.313.613.951a7.357,7.357,0,0,1,.1,2.763,11,11,0,0,1-1.335,3.935,11.574,11.574,0,0,1-8.249,5.81,11,11,0,0,1-4.155-.069,7.375,7.375,0,0,1-2.568-1.023c-.543-.376-.771-.7-.689-.9.179-.426,1.5-.187,3.459-.29a13.276,13.276,0,0,0,6.936-2.247,13.279,13.279,0,0,0,4.451-5.774c.759-1.813.978-3.134,1.439-3.159" transform="translate(-7.268 -79.069)" fill="#e0e0e0"/>
        <path id="Trazado_833892" data-name="Trazado 833892" d="M22.873,194.2a5.293,5.293,0,0,0,3.408-1.527,3.059,3.059,0,0,0,.891-2.087,1.638,1.638,0,0,0-1.337-1.519,2.335,2.335,0,0,0-1.452.473,4.556,4.556,0,0,1-1.375.715,3.622,3.622,0,0,1-2.154-.413,3.892,3.892,0,0,0-2.15-.46,1.409,1.409,0,0,0-1.177.8,1.993,1.993,0,0,0,.374,1.882,5.517,5.517,0,0,0,4.972,2.132" transform="translate(-7.29 -79.046)" fill="#fff"/>
        <path id="Trazado_833893" data-name="Trazado 833893" d="M15.7,185.378a1.119,1.119,0,0,0-1.124-.591.726.726,0,0,0-.382.129l-.011.006h0a1.21,1.21,0,0,0-.452,1.16,1.084,1.084,0,0,0,1.377.78,1.117,1.117,0,0,0,.587-1.484" transform="translate(-5.737 -77.258)" fill="#fff"/>
        <path id="Trazado_833894" data-name="Trazado 833894" d="M35.914,185.444a1.118,1.118,0,0,0-1.124-.591.732.732,0,0,0-.382.129l-.011.006h0a1.211,1.211,0,0,0-.452,1.16,1.084,1.084,0,0,0,1.378.78,1.116,1.116,0,0,0,.587-1.484" transform="translate(-14.187 -77.285)" fill="#fff"/>
        <rect id="Rectángulo_384785" data-name="Rectángulo 384785" width="20.719" height="21.978" transform="translate(194.954 210.086) rotate(-0.306)" fill="#ebebeb"/>
        <rect id="Rectángulo_384786" data-name="Rectángulo 384786" width="20.719" height="21.978" transform="translate(215.574 209.976) rotate(-0.307)" fill="#f5f5f5"/>
        <path id="Trazado_833895" data-name="Trazado 833895" d="M334.959,371c13.769.113,27.572.033,41.339-.19a.22.22,0,0,0,0-.44c-13.769-.076-27.572-.009-41.338.253a.189.189,0,0,0,0,.378" transform="translate(-139.973 -154.841)" fill="#e0e0e0"/>
        <rect id="Rectángulo_384787" data-name="Rectángulo 384787" width="37.643" height="17.911" transform="translate(182.037 231.788) rotate(-0.307)" fill="#ebebeb"/>
        <rect id="Rectángulo_384788" data-name="Rectángulo 384788" width="37.643" height="17.911" transform="translate(219.501 231.587) rotate(-0.306)" fill="#f5f5f5"/>
        <path id="Trazado_833896" data-name="Trazado 833896" d="M312.75,406.264c25.007.283,50.1.029,75.106-.371a.22.22,0,0,0,0-.44c-25.008-.132-50.1-.118-75.106.433a.189.189,0,0,0,0,.378" transform="translate(-130.687 -169.494)" fill="#e0e0e0"/>
      </g>
    </g>
    <g id="Grupo_1076396" data-name="Grupo 1076396">
      <g id="Grupo_1076395" data-name="Grupo 1076395" clip-path="url(#clip-path)">
        <path id="Trazado_833897" data-name="Trazado 833897" d="M238.182,223.327l-29.556-9.481-35.372-.131s-27.3,8.512-30.612,10.272l-1.525,73.57-1.185,41.952,96.407-.515V288.18Z" transform="translate(-58.507 -89.356)" fill="#ff725e"/>
        <path id="Trazado_833898" data-name="Trazado 833898" d="M123.307,231.367a63.155,63.155,0,0,0-16.751,24.227c-3.931,10.394-12.869,33.453-12.869,33.453l28,9.929,6.334-44.719Z" transform="translate(-39.171 -96.737)" fill="#ff725e"/>
        <path id="Trazado_833899" data-name="Trazado 833899" d="M296.876,228.343s7.295.62,14.444,12.082c5.043,8.084,17.326,43.47,17.326,43.47l-32.326,11.3-7.8-6.009Z" transform="translate(-120.631 -95.472)" fill="#ff725e"/>
        <path id="Trazado_833900" data-name="Trazado 833900" d="M141.861,262.634c.084,0,.151,12.4.151,27.686s-.068,27.689-.151,27.689-.151-12.395-.151-27.689.067-27.686.151-27.686" transform="translate(-59.25 -109.81)" fill="#263238"/>
        <path id="Trazado_833901" data-name="Trazado 833901" d="M134.158,262.321a5.07,5.07,0,0,1-1.444-.508,12.67,12.67,0,0,1-5.444-4.892,5.055,5.055,0,0,1-.659-1.382,16.032,16.032,0,0,0,7.547,6.782" transform="translate(-52.936 -106.843)" fill="#fff"/>
        <path id="Trazado_833902" data-name="Trazado 833902" d="M237.24,271.4a1.5,1.5,0,0,1-.216.119l-.647.321-2.5,1.21-1.813.868c-.67.3-1.418.581-2.211.906-1.6.625-3.383,1.427-5.45,2.058l-3.217,1.069c-1.121.364-2.318.637-3.541.978l-1.871.5c-.318.081-.635.176-.96.249l-.987.2-4.088.836a103.028,103.028,0,0,1-36.972-.006l-4.089-.837-.986-.2c-.325-.073-.642-.168-.96-.25l-1.872-.5c-1.223-.341-2.42-.614-3.541-.979l-3.217-1.07c-2.067-.631-3.853-1.434-5.449-2.059-.793-.326-1.54-.608-2.211-.907l-1.812-.869-2.5-1.21-.647-.322a1.5,1.5,0,0,1-.216-.119,1.444,1.444,0,0,1,.23.091l.66.294,2.524,1.157,1.821.843c.673.291,1.422.564,2.216.883,1.6.609,3.387,1.4,5.455,2.013l3.215,1.049c1.12.358,2.317.625,3.537.96l1.869.491c.317.08.634.173.958.246l.985.2,4.08.823a104.231,104.231,0,0,0,36.873.006l4.08-.821.985-.2c.324-.072.641-.165.958-.245l1.868-.49c1.221-.335,2.418-.6,3.538-.959l3.216-1.048c2.067-.616,3.855-1.4,5.455-2.011.795-.318,1.544-.592,2.218-.882l1.821-.842,2.525-1.157.66-.294a1.5,1.5,0,0,1,.23-.091" transform="translate(-60.735 -113.469)" fill="#fff"/>
        <path id="Trazado_833903" data-name="Trazado 833903" d="M319.275,253.9c.014.016-.119.16-.371.408s-.63.595-1.109,1.009a39.115,39.115,0,0,1-8.248,5.425c-.57.276-1.037.486-1.366.619a1.96,1.96,0,0,1-.521.18,18.357,18.357,0,0,1,1.789-.989c1.109-.6,2.621-1.459,4.227-2.514s2.995-2.1,3.982-2.885a18.474,18.474,0,0,1,1.616-1.252" transform="translate(-128.635 -106.157)" fill="#fff"/>
        <path id="Trazado_833904" data-name="Trazado 833904" d="M133.337,272.7a1.9,1.9,0,0,1-.54-.1,12.454,12.454,0,0,1-1.426-.439,17.5,17.5,0,0,1-7.835-5.79,12.239,12.239,0,0,1-.838-1.234,1.927,1.927,0,0,1-.25-.488c.045-.028.464.626,1.256,1.589a19.768,19.768,0,0,0,7.745,5.723c1.153.475,1.9.684,1.888.734" transform="translate(-51.196 -110.655)" fill="#fff"/>
        <path id="Trazado_833905" data-name="Trazado 833905" d="M235.446,286.612a1.436,1.436,0,0,1-.215.113l-.644.306-2.49,1.149-1.8.825c-.667.282-1.411.545-2.2.85-1.588.584-3.366,1.342-5.42,1.917l-3.2.983c-1.114.334-2.3.573-3.518.88l-1.859.447c-.315.073-.631.159-.953.222l-.979.173-4.055.717a98.523,98.523,0,0,1-36.454-1.217l-4-.986-.965-.239c-.318-.084-.627-.191-.936-.285l-1.825-.57c-1.192-.387-2.361-.7-3.451-1.113l-3.125-1.194c-2.012-.71-3.734-1.586-5.279-2.274-.767-.357-1.491-.669-2.138-.995l-1.745-.942-2.408-1.313-.623-.348a1.4,1.4,0,0,1-.207-.127,1.453,1.453,0,0,1,.222.1l.637.321,2.433,1.262,1.754.918c.649.318,1.376.621,2.145.971,1.55.673,3.274,1.532,5.286,2.228l3.124,1.173c1.089.4,2.258.712,3.448,1.093l1.822.561c.309.093.617.2.935.281l.964.234,3.991.971a99.614,99.614,0,0,0,36.351,1.213l4.046-.7.976-.169c.322-.062.637-.147.951-.218l1.856-.438c1.213-.3,2.4-.533,3.513-.861l3.2-.962c2.054-.56,3.832-1.3,5.423-1.871.791-.3,1.536-.552,2.205-.826l1.811-.8,2.512-1.1.657-.278a1.453,1.453,0,0,1,.228-.086" transform="translate(-60.609 -118.572)" fill="#fff"/>
        <path id="Trazado_833906" data-name="Trazado 833906" d="M322.581,260.575a3.506,3.506,0,0,1-.505.541c-.337.335-.84.805-1.47,1.376-1.26,1.141-3.052,2.664-5.112,4.242s-4,2.907-5.433,3.825c-.716.46-1.3.82-1.712,1.059a3.471,3.471,0,0,1-.654.346,3.459,3.459,0,0,1,.591-.445l1.657-1.138c1.4-.961,3.311-2.315,5.367-3.887s3.862-3.065,5.156-4.163l1.532-1.3a3.505,3.505,0,0,1,.584-.454" transform="translate(-128.649 -108.948)" fill="#fff"/>
        <path id="Trazado_833907" data-name="Trazado 833907" d="M185.666,367.661a2.282,2.282,0,0,1-.425.047l-1.223.077c-.531.035-1.182.059-1.938.074s-1.617.042-2.568.031c-1.9.015-4.17-.07-6.684-.2-2.511-.16-5.27-.4-8.153-.752s-5.616-.805-8.092-1.264c-2.47-.486-4.688-.957-6.531-1.437-.925-.222-1.755-.454-2.483-.659s-1.354-.381-1.86-.545l-1.167-.373a2.286,2.286,0,0,1-.4-.15,2.26,2.26,0,0,1,.418.091l1.182.318c.511.147,1.139.312,1.872.495s1.562.4,2.489.614c1.845.452,4.064.9,6.531,1.37,2.472.443,5.2.875,8.078,1.238s5.628.6,8.134.773c2.507.148,4.767.255,6.667.267.95.024,1.809.017,2.564.013s1.405,0,1.937-.022l1.224-.02a2.248,2.248,0,0,1,.428.014" transform="translate(-60.267 -151.567)" fill="#fff"/>
        <path id="Trazado_833908" data-name="Trazado 833908" d="M177.418,379.119a1.658,1.658,0,0,1-.363.033l-1.044.037c-.454.017-1.008.023-1.653.012s-1.378-.009-2.188-.049c-1.622-.047-3.549-.2-5.684-.4-2.134-.221-4.474-.517-6.919-.9-4.891-.77-9.279-1.685-12.444-2.385-1.583-.35-2.86-.646-3.741-.859l-1.013-.253a.183.183,0,1,1,.013-.06l1.025.2,3.761.765c3.174.645,7.563,1.526,12.445,2.295,2.441.378,4.774.682,6.9.918,2.129.214,4.049.385,5.666.459.808.054,1.54.072,2.182.094s1.2.04,1.649.04l1.043.02a1.658,1.658,0,0,1,.364.028" transform="translate(-59.38 -156.478)" fill="#fff"/>
        <path id="Trazado_833909" data-name="Trazado 833909" d="M268.82,360.408a.433.433,0,0,1-.127.043l-.379.1-1.464.342c-1.272.3-3.121.684-5.414,1.128-4.584.89-10.959,1.925-18.049,2.662s-13.545,1.02-18.214,1.088c-2.335.035-4.225.033-5.53,0l-1.5-.035-.39-.017a.459.459,0,0,1-.133-.016.431.431,0,0,1,.134-.015l.39-.013,1.5-.022c1.3-.007,3.193-.038,5.525-.1,4.664-.122,11.1-.446,18.188-1.175s13.45-1.736,18.04-2.571c2.3-.416,4.15-.772,5.429-1.032l1.476-.286.385-.067a.448.448,0,0,1,.134-.013" transform="translate(-90.987 -150.689)" fill="#fff"/>
        <path id="Trazado_833910" data-name="Trazado 833910" d="M264.159,374.256a.534.534,0,0,1-.145.041l-.431.09-1.662.318c-1.444.268-3.537.641-6.131,1.056s-5.689.872-9.133,1.325c-3.447.428-7.245.844-11.243,1.153-4,.293-7.821.443-11.3.474-3.476-.019-6.608-.1-9.227-.336-.655-.055-1.28-.093-1.868-.155l-1.661-.2-1.444-.175c-.443-.062-.845-.138-1.207-.2l-1.667-.292-.432-.083a.548.548,0,0,1-.145-.038.558.558,0,0,1,.151.008l.437.054,1.674.235c.364.05.766.118,1.209.171l1.445.15,1.66.175c.588.054,1.213.086,1.867.133,2.615.213,5.741.266,9.209.271,3.469-.046,7.281-.2,11.275-.5,3.992-.309,7.785-.715,11.231-1.128,3.442-.438,6.539-.859,9.134-1.26s4.694-.727,6.144-.96l1.671-.261.436-.061a.545.545,0,0,1,.15-.01" transform="translate(-86.326 -156.479)" fill="#fff"/>
        <path id="Trazado_833911" data-name="Trazado 833911" d="M234.929,321.433a.861.861,0,0,1-.137.131l-.421.361-1.64,1.367-6.045,5.008c-5.1,4.235-12.106,10.128-19.749,16.75s-14.472,12.728-19.388,17.174l-5.815,5.272-1.585,1.429-.418.366a.906.906,0,0,1-.149.118.86.86,0,0,1,.128-.14l.4-.388,1.547-1.47c1.346-1.274,3.31-3.1,5.75-5.345,4.88-4.487,11.689-10.615,19.334-17.244s14.676-12.493,19.811-16.687c2.567-2.1,4.654-3.782,6.107-4.934l1.676-1.323.44-.338a.843.843,0,0,1,.157-.107" transform="translate(-75.085 -134.394)" fill="#263238"/>
        <g id="Grupo_1076391" data-name="Grupo 1076391" transform="translate(111.043 192.931)" opacity="0.3">
          <g id="Grupo_1076390" data-name="Grupo 1076390">
            <g id="Grupo_1076389" data-name="Grupo 1076389" clip-path="url(#clip-path-4)">
              <path id="Trazado_833912" data-name="Trazado 833912" d="M210.862,349.937l-20.03,17.669c17.251-7.817,31.985-19.712,41.569-36.048Z" transform="translate(-190.831 -331.559)"/>
            </g>
          </g>
        </g>
        <g id="Grupo_1076394" data-name="Grupo 1076394" transform="translate(177.833 163.34)" opacity="0.3">
          <g id="Grupo_1076393" data-name="Grupo 1076393">
            <g id="Grupo_1076392" data-name="Grupo 1076392" clip-path="url(#clip-path-5)">
              <path id="Trazado_833913" data-name="Trazado 833913" d="M305.612,316.19c4.331-8.78,4.429-25.993.056-35.484.26,10.672.237,24.836-.056,35.484" transform="translate(-305.612 -280.706)"/>
            </g>
          </g>
        </g>
        <path id="Trazado_833914" data-name="Trazado 833914" d="M305.5,266.1c.084,0,.151,21.222.151,47.394s-.068,47.4-.151,47.4-.151-21.218-.151-47.4.068-47.394.151-47.394" transform="translate(-127.67 -111.26)" fill="#263238"/>
        <path id="Trazado_833915" data-name="Trazado 833915" d="M228.575,106.475c1.433-3.146,2.89-6.387,3.1-9.853s-1.131-7.254-4.09-8.9c-2.734-1.517-6.15-.911-9.064-2.022-3.594-1.37-5.8-5.075-7.327-8.7s.738-4.883-1.917-7.73c-3.522-3.777-5.856-4.362-10.471-2.206-3.232-2.4-14.543-6.872-17.832-7.047-4.878-.26-10.443,0-13.929,3.426-2.705,2.655-4.461,6.069-7.751,7.95-4.525,2.589-10.163.174-15.376.247-1.063.015-2.307.258-2.766,1.217a3.227,3.227,0,0,0,.36,2.642l3.835,8.492a8,8,0,0,1-6.966-.326A23.683,23.683,0,0,0,144.23,98.7a2.011,2.011,0,0,0-2.8.993,5.039,5.039,0,0,0-.029,3.33,24.378,24.378,0,0,0,32.742,16.8l28.658,2.809a7.332,7.332,0,0,0,4.846,4.709c3.269-2.307,3.813-3.632,3.813-3.632,1.945,1.516.408.74,1.945,1.516,3.521,1.778,8.831-.118,9.722-4.065a8.4,8.4,0,0,1,2.008-4.334c1.164-1.128,2.8-1.536,4.245-2.226a11.806,11.806,0,0,0,5.379-5.266,8.521,8.521,0,0,1-6.186-2.859" transform="translate(-57.857 -25.064)" fill="#263238"/>
        <path id="Trazado_833916" data-name="Trazado 833916" d="M197.89,68.06l-1.443.073a27.892,27.892,0,0,0-26.484,27c-.407,13.524-.684,28.475-.23,35.7.939,14.945,16.014,16.516,16.014,16.516.009.156-.049,2.4-.131,5.467a17.545,17.545,0,1,0,35.082.736l.853-56.45c.556-15.6-8.056-28.918-23.661-29.042" transform="translate(-70.869 -28.456)" fill="#ffbe9d"/>
        <path id="Trazado_833917" data-name="Trazado 833917" d="M197.416,199.48a36.177,36.177,0,0,0,19.181-6.738s-4.2,11.162-19.189,10.568Z" transform="translate(-82.538 -80.587)" fill="#eb996e"/>
        <path id="Trazado_833918" data-name="Trazado 833918" d="M213.86,124.258c.29.309,2.043-1.039,4.544-1.05,2.5-.048,4.339,1.257,4.609.941.132-.14-.164-.7-.965-1.289a6.262,6.262,0,0,0-3.692-1.138,6.04,6.04,0,0,0-3.615,1.224c-.766.61-1.024,1.174-.881,1.312" transform="translate(-89.401 -50.893)" fill="#263238"/>
        <path id="Trazado_833919" data-name="Trazado 833919" d="M217.724,132.7a2.023,2.023,0,0,0,2.051,1.94,1.935,1.935,0,0,0,1.99-1.927,2.024,2.024,0,0,0-2.049-1.941,1.936,1.936,0,0,0-1.992,1.928" transform="translate(-91.032 -54.679)" fill="#263238"/>
        <path id="Trazado_833920" data-name="Trazado 833920" d="M198.187,141.917a15.235,15.235,0,0,0-3.767-.485c-.589-.031-1.151-.119-1.27-.515a2.986,2.986,0,0,1,.3-1.759q.72-2.172,1.51-4.556c2.09-6.483,3.57-11.8,3.308-11.885s-2.168,5.107-4.257,11.591q-.752,2.4-1.436,4.579a3.4,3.4,0,0,0-.188,2.319,1.474,1.474,0,0,0,1.008.809,3.989,3.989,0,0,0,1,.088,15,15,0,0,0,3.783-.186" transform="translate(-80.379 -51.309)" fill="#263238"/>
        <path id="Trazado_833921" data-name="Trazado 833921" d="M214.871,107.934c.229.56,2.239.187,4.632.364,2.4.126,4.351.75,4.64.223.129-.252-.233-.771-1.036-1.284a7.843,7.843,0,0,0-7.064-.447c-.855.407-1.271.877-1.172,1.143" transform="translate(-89.833 -44.385)" fill="#263238"/>
        <path id="Trazado_833922" data-name="Trazado 833922" d="M175.1,115.7c.252.458,2.214,0,4.578-.02,2.366-.062,4.319.327,4.58-.14.114-.223-.267-.637-1.082-1.014a8.263,8.263,0,0,0-3.483-.656,8.543,8.543,0,0,0-3.495.778c-.822.406-1.21.833-1.1,1.052" transform="translate(-73.201 -47.609)" fill="#263238"/>
        <path id="Trazado_833923" data-name="Trazado 833923" d="M257.813,136.636c.25-.123,10.122-3.557,10.311,6.683s-10.131,8.318-10.154,8.024-.157-14.707-.157-14.707" transform="translate(-107.794 -56.857)" fill="#ffbe9d"/>
        <path id="Trazado_833924" data-name="Trazado 833924" d="M263.329,149.766c.045-.034.181.122.485.254a1.785,1.785,0,0,0,1.334,0c1.074-.417,1.953-2.152,1.969-4a5.892,5.892,0,0,0-.546-2.545,2.06,2.06,0,0,0-1.367-1.345.908.908,0,0,0-1.043.508c-.132.289-.063.492-.118.511-.028.026-.223-.167-.148-.592a1.139,1.139,0,0,1,.391-.649,1.352,1.352,0,0,1,.982-.279,2.507,2.507,0,0,1,1.892,1.553,6.055,6.055,0,0,1,.672,2.843c-.027,2.065-1.049,4.015-2.521,4.471a1.911,1.911,0,0,1-1.636-.241c-.322-.247-.38-.475-.345-.494" transform="translate(-110.096 -59.216)" fill="#eb996e"/>
        <path id="Trazado_833925" data-name="Trazado 833925" d="M228.095,85.5c-2.051-3.657-2.451-7.973-3.525-12.025s-3.223-8.274-7.14-9.77l-.09.037c-3.513-1.505-7.882-1.625-10.848.771-.6-5.334-5.168-9.65-10.328-11.128s-13.5-.854-18.525,1.039c-3.883,1.462-7.675,4.552-12.3,9.112a50.294,50.294,0,0,0-5.363,6.209L155.148,83.58a5.914,5.914,0,0,0-1.3,1.247,2.624,2.624,0,0,0,3.755,3.6l.041-.035a26.272,26.272,0,0,1,1.128,2.416v.019l.076.152c.22.5.448,1,.727,1.5l0-.034,3.14,15.48c.315-4.2.338-18.812.653-23.007a23.43,23.43,0,0,0,16.866-7.334c2.351-2.489,4.226-5.632,7.328-7.081,4-1.868,8.683-.338,12.819,1.2l-.173-.163a18.7,18.7,0,0,1,5.684,4.3,58.234,58.234,0,0,0,1.967,24.7c.365,1.2,1.377,3.678,2.536,4.156,2.278.939,2.948-1.386,4.36-2.6,1.038-.893,2.551-.976,4.2-.935a91.566,91.566,0,0,0,3.047-10.554A9.336,9.336,0,0,0,226.3,91l-1.25-3.193a4.88,4.88,0,0,0,1.819.873,1.667,1.667,0,0,0,1.76-.72c.407-.777-.1-1.693-.531-2.457" transform="translate(-64.099 -21.978)" fill="#263238"/>
        <path id="Trazado_833926" data-name="Trazado 833926" d="M236.569,75.861a12.817,12.817,0,0,1,1.466,1.4,10.7,10.7,0,0,1,2.179,5.006,18.812,18.812,0,0,1,.3,3.8c-.025,1.374-.168,2.843-.308,4.392a39.358,39.358,0,0,0-.222,4.891,17.175,17.175,0,0,0,.279,2.589,5.385,5.385,0,0,0,1,2.528,2.254,2.254,0,0,0,2.09.755,3.355,3.355,0,0,0,1.919-1.028,7.746,7.746,0,0,0,1.523-3.762l-.314.031a12.5,12.5,0,0,0,1.745,3.167,4.444,4.444,0,0,0,2.867,1.646,2.872,2.872,0,0,0,1.545-.234,2.486,2.486,0,0,0,1.068-1.006,2.557,2.557,0,0,0,.346-1.316,1.855,1.855,0,0,0-.453-1.171l-.162.137a9.625,9.625,0,0,0,3.152,2.477,8.647,8.647,0,0,0,.985.408,1.622,1.622,0,0,0,.354.1,1.809,1.809,0,0,0-.333-.151c-.22-.1-.547-.237-.954-.455a9.935,9.935,0,0,1-3.039-2.51l-.162.137a1.913,1.913,0,0,1,.049,2.219,2.233,2.233,0,0,1-.965.89,2.6,2.6,0,0,1-1.4.2,4.164,4.164,0,0,1-2.66-1.563,12.327,12.327,0,0,1-1.679-3.1l-.2-.484-.111.514a7.483,7.483,0,0,1-1.451,3.594,3.016,3.016,0,0,1-1.718.919,1.9,1.9,0,0,1-1.776-.64,5.084,5.084,0,0,1-.919-2.365,16.979,16.979,0,0,1-.278-2.536,39.953,39.953,0,0,1,.2-4.85c.131-1.548.265-3.024.278-4.416a18.749,18.749,0,0,0-.343-3.852,10.558,10.558,0,0,0-2.318-5.047,6.053,6.053,0,0,0-1.569-1.314" transform="translate(-98.911 -31.718)" fill="#455a64"/>
        <path id="Trazado_833927" data-name="Trazado 833927" d="M156.68,83.182c0,.005.036.04.118.105l.367.28a5.094,5.094,0,0,0,.623.42,8.208,8.208,0,0,0,.9.5,13.252,13.252,0,0,0,6.361,1.293,16.916,16.916,0,0,0,9.08-3.124,29.3,29.3,0,0,0,7.937-8.743c1.126-1.783,2.052-3.615,3.066-5.3a19.8,19.8,0,0,1,3.437-4.468,10.2,10.2,0,0,1,4.358-2.513,7.291,7.291,0,0,1,2.273-.209,8.023,8.023,0,0,1,2.067.445,8.644,8.644,0,0,1,4.7,4.166,10.327,10.327,0,0,1,.72,2.254.536.536,0,0,0-.009-.157c-.016-.124-.036-.274-.06-.458a7.485,7.485,0,0,0-.529-1.7,8.488,8.488,0,0,0-1.619-2.3,8.726,8.726,0,0,0-3.121-2.036,8.194,8.194,0,0,0-2.132-.483,7.559,7.559,0,0,0-2.364.2,10.444,10.444,0,0,0-4.506,2.558,19.945,19.945,0,0,0-3.511,4.528c-1.026,1.7-1.953,3.529-3.069,5.294a29.289,29.289,0,0,1-7.825,8.664,16.81,16.81,0,0,1-8.908,3.142,13.44,13.44,0,0,1-6.292-1.169,20.959,20.959,0,0,1-2.063-1.181" transform="translate(-65.509 -25.56)" fill="#455a64"/>
        <path id="Trazado_833928" data-name="Trazado 833928" d="M154.6,87.7a2.336,2.336,0,0,0,.527.385,11.561,11.561,0,0,0,1.566.84,15.349,15.349,0,0,0,2.491.88,16.261,16.261,0,0,0,6.433.351,15.389,15.389,0,0,0,2.571-.6,11.539,11.539,0,0,0,1.649-.665,2.334,2.334,0,0,0,.566-.325c-.027-.059-.861.346-2.286.754a17.56,17.56,0,0,1-2.543.521,17.391,17.391,0,0,1-6.312-.344,17.649,17.649,0,0,1-2.471-.795c-1.372-.561-2.156-1.054-2.19-1" transform="translate(-64.639 -36.668)" fill="#455a64"/>
        <path id="Trazado_833929" data-name="Trazado 833929" d="M174.669,125c.29.308,2.044-1.039,4.545-1.05,2.5-.048,4.339,1.257,4.609.941.133-.14-.164-.7-.965-1.289a6.258,6.258,0,0,0-3.692-1.138,6.036,6.036,0,0,0-3.615,1.224c-.766.61-1.023,1.174-.881,1.312" transform="translate(-73.015 -51.201)" fill="#263238"/>
        <path id="Trazado_833930" data-name="Trazado 833930" d="M180.766,133.376a2.023,2.023,0,0,0,2.051,1.94,1.935,1.935,0,0,0,1.99-1.927,2.024,2.024,0,0,0-2.049-1.941,1.936,1.936,0,0,0-1.992,1.928" transform="translate(-75.58 -54.96)" fill="#263238"/>
        <path id="Trazado_833931" data-name="Trazado 833931" d="M199.582,163.117A42.052,42.052,0,0,1,205.616,162l1.488-.367a5.15,5.15,0,0,1,.045,4.365,4.186,4.186,0,0,1-2.971,1.763,3.039,3.039,0,0,1-2.4-.552s-1.841-.873-2.194-4.093" transform="translate(-83.447 -67.581)" fill="#eb996e"/>
        <path id="Trazado_833932" data-name="Trazado 833932" d="M203.17,167.532a4.873,4.873,0,0,0,2.216-.717,4.1,4.1,0,0,0,1.515-1.948,5.11,5.11,0,0,0,.184-3.021c-.014-.056-.03-.112-.042-.165l.264.168c-2.218.343-4.221.626-5.672.808a11.875,11.875,0,0,1-2.36.2,11.83,11.83,0,0,1,2.308-.527c1.438-.266,3.434-.6,5.65-.948l.213-.033.052.2.048.181a5.368,5.368,0,0,1-.239,3.3,4.269,4.269,0,0,1-1.741,2.069,3.564,3.564,0,0,1-1.739.528c-.432.006-.661-.067-.657-.094" transform="translate(-83.319 -67.461)" fill="#263238"/>
        <path id="Trazado_833933" data-name="Trazado 833933" d="M203.722,167.639a1.279,1.279,0,0,1-.658-.112l-.022-.025,0-.023,0-.025.022-.035c.033-.042.09-.047.24-.058a3.928,3.928,0,0,0,1.991-.666,3.992,3.992,0,0,0,1.487-1.913,5.01,5.01,0,0,0,.207-2.877c-2.041.313-3.948.584-5.395.765-2.416.3-2.427.23-2.442.137s-.026-.165,2.368-.609c1.5-.278,3.508-.614,5.653-.948l.276-.043.117.446a5.422,5.422,0,0,1-.242,3.345,4.344,4.344,0,0,1-1.771,2.1,3.6,3.6,0,0,1-1.775.538h-.053m-.2-.151c.072,0,.154.008.248.006a3.464,3.464,0,0,0,1.7-.518,4.2,4.2,0,0,0,1.711-2.033,5.28,5.28,0,0,0,.236-3.255l-.083-.318-.147.023c-2.143.334-4.149.67-5.648.948-1.065.2-1.632.32-1.934.4.31-.02.887-.075,1.962-.21,1.443-.18,3.344-.45,5.378-.762l-.078-.3.583.37-.191.03-.136.021a5.158,5.158,0,0,1-.214,2.951,4.156,4.156,0,0,1-1.542,1.982,4.042,4.042,0,0,1-1.849.672" transform="translate(-83.265 -67.402)" fill="#263238"/>
        <path id="Trazado_833934" data-name="Trazado 833934" d="M57.461,130.366s-17.747,6.395-26.438,3.882-14.8-6.031-19.154-16.327a31.879,31.879,0,0,1,1.4-26.567c3.694-7,10.292-10.95,17.237-14.75,8.625-4.72,20.334-8.6,30.158-8.981s16.129,2.51,23.39,9.14,11.129,17.211,8.568,26.7c-2.715,10.06-11.768,17.2-21.254,21.515,0,0-2.673,9.332,4.854,14.492a17.073,17.073,0,0,1-18.763-9.107" transform="translate(-4.018 -28.26)" fill="#fafafa"/>
        <path id="Trazado_833935" data-name="Trazado 833935" d="M57.372,130.259s.07.1.2.317l.6.958.442.715c.17.258.4.51.617.8l.734.928c.269.325.612.623.944.966a15.662,15.662,0,0,0,5.9,3.69,16.654,16.654,0,0,0,4.322.918,17.5,17.5,0,0,0,4.98-.268l-.027.152a12.059,12.059,0,0,1-4.613-6.029,13.75,13.75,0,0,1-.742-4.143,16.2,16.2,0,0,1,.446-4.42l.012-.047.048-.022a54.316,54.316,0,0,0,8.013-4.5,38.668,38.668,0,0,0,7.459-6.554c.3-.314.555-.658.823-1s.549-.673.8-1.032c.492-.721,1.014-1.432,1.443-2.209a26.421,26.421,0,0,0,1.254-2.368c.2-.4.345-.833.521-1.25l.255-.632c.079-.214.139-.434.21-.651a22.016,22.016,0,0,0,1.09-5.433,23.651,23.651,0,0,0-.229-5.69,28.471,28.471,0,0,0-4.2-10.981,30.291,30.291,0,0,0-3.825-4.757,45.945,45.945,0,0,0-4.721-4.081,27.874,27.874,0,0,0-11.473-5.4,38.907,38.907,0,0,0-13.12-.1,71.186,71.186,0,0,0-12.9,3.181,79.174,79.174,0,0,0-11.84,5.14,68.918,68.918,0,0,0-10.527,6.648,26,26,0,0,0-7.441,9.172,32.611,32.611,0,0,0-2.015,5.377,34.424,34.424,0,0,0-1,5.5,31.055,31.055,0,0,0-.065,5.43c.047.892.181,1.768.294,2.638.166.862.305,1.723.537,2.556,1.813,6.625,5.375,12.461,10.259,15.784a30.044,30.044,0,0,0,7.516,3.653c.627.216,1.248.42,1.866.6a15.483,15.483,0,0,0,1.839.462,11.853,11.853,0,0,0,1.817.252,14.215,14.215,0,0,0,1.777.081,39.294,39.294,0,0,0,6.488-.528c1.983-.293,3.775-.681,5.384-1.039,3.21-.751,5.666-1.481,7.325-1.991l2.522-.8s-.209.087-.631.235-1.046.363-1.874.628c-1.654.528-4.106,1.277-7.317,2.047-1.608.368-3.4.766-5.388,1.067a39.232,39.232,0,0,1-6.511.555,14.215,14.215,0,0,1-1.791-.076,11.956,11.956,0,0,1-1.838-.248,15.655,15.655,0,0,1-1.857-.461c-.62-.179-1.244-.382-1.874-.6a30.206,30.206,0,0,1-7.577-3.66,23.135,23.135,0,0,1-3.447-2.958,26.869,26.869,0,0,1-2.911-3.748,34.887,34.887,0,0,1-2.317-4.36c-.365-.756-.654-1.555-.965-2.352-.258-.815-.548-1.631-.74-2.481-.235-.839-.376-1.707-.545-2.576-.115-.878-.251-1.761-.3-2.66a31.332,31.332,0,0,1,.058-5.474,34.676,34.676,0,0,1,1-5.548,32.78,32.78,0,0,1,2.027-5.426,26.273,26.273,0,0,1,7.51-9.276A69.126,69.126,0,0,1,30.652,76.2,79.375,79.375,0,0,1,42.535,71.04a71.449,71.449,0,0,1,12.953-3.2,39.173,39.173,0,0,1,13.223.1A28.168,28.168,0,0,1,80.3,73.4a46.28,46.28,0,0,1,4.751,4.11,30.574,30.574,0,0,1,3.86,4.808,28.746,28.746,0,0,1,4.234,11.1,23.9,23.9,0,0,1,.226,5.753,22.259,22.259,0,0,1-1.11,5.5c-.072.219-.133.442-.213.658l-.258.638c-.178.422-.331.854-.528,1.263a26.637,26.637,0,0,1-1.27,2.39c-.435.784-.961,1.5-1.459,2.228-.251.362-.539.694-.805,1.04s-.535.69-.832,1a38.893,38.893,0,0,1-7.517,6.583,54.4,54.4,0,0,1-8.056,4.5l.059-.069a16.025,16.025,0,0,0-.449,4.354,13.548,13.548,0,0,0,.722,4.087,11.884,11.884,0,0,0,4.526,5.952l.164.113-.191.04a17.588,17.588,0,0,1-5.034.254,16.734,16.734,0,0,1-4.353-.945,15.68,15.68,0,0,1-5.92-3.749c-.332-.347-.673-.649-.941-.978l-.729-.939c-.219-.294-.443-.551-.609-.809l-.427-.714-.577-.972c-.13-.22-.194-.337-.194-.337" transform="translate(-3.929 -28.153)" fill="#263238"/>
        <path id="Trazado_833936" data-name="Trazado 833936" d="M78.214,92.71c.037.075-9.534,4.842-21.375,10.646s-21.474,10.45-21.51,10.375,9.532-4.841,21.376-10.647S78.177,92.635,78.214,92.71" transform="translate(-14.771 -38.763)" fill="#263238"/>
        <path id="Trazado_833937" data-name="Trazado 833937" d="M85.071,107.091c.037.076-9.534,4.842-21.375,10.646s-21.474,10.45-21.51,10.375,9.532-4.841,21.377-10.647,21.471-10.448,21.508-10.374" transform="translate(-17.638 -44.775)" fill="#263238"/>
        <path id="Trazado_833938" data-name="Trazado 833938" d="M93.342,120.975a2.649,2.649,0,0,1-.4.23l-1.163.605-4.29,2.2c-3.622,1.854-8.609,4.45-14.112,7.324s-10.51,5.442-14.159,7.248c-1.824.9-3.3,1.625-4.334,2.11l-1.188.555a2.554,2.554,0,0,1-.423.175,2.622,2.622,0,0,1,.4-.229l1.162-.606,4.29-2.2c3.622-1.854,8.608-4.45,14.114-7.325s10.507-5.441,14.156-7.246c1.824-.9,3.3-1.625,4.334-2.111l1.188-.555a2.62,2.62,0,0,1,.423-.175" transform="translate(-22.276 -50.58)" fill="#263238"/>
        <path id="Trazado_833939" data-name="Trazado 833939" d="M101.659,230.64l2.542,54.689,4.471,4.81,5.691,6.911s-5.691,22.97-14.026,25-17.361-1.045-20-8.363-1.294-20.122-.481-28.326,4.67-53.027,4.67-53.027l9.717-3.994Z" transform="translate(-32.938 -95.472)" fill="#ffbe9d"/>
        <path id="Trazado_833940" data-name="Trazado 833940" d="M97.335,205.564a29.071,29.071,0,0,0,0-7.924c-.661-3.136-4.953-9.74-4.953-9.74s.66-6.273,0-7.264-2.146-4.623-4.952-.99c0,0-1.981-4.293-3.3-4.623a3.073,3.073,0,0,0-1.982,0l3.467-4.623a5.326,5.326,0,0,0,.012-1.889,1.97,1.97,0,0,0-3.424-.891L73.727,177.5s-5.283,9.575-5.117,10.731,3.136,4.952,3.136,4.952,7.593,10.4,8.254,12.381a10.8,10.8,0,0,1,.331,4.292Z" transform="translate(-28.685 -69.797)" fill="#ffbe9d"/>
        <path id="Trazado_833941" data-name="Trazado 833941" d="M81.591,191.993a10.646,10.646,0,0,1,.292-1.884,19.976,19.976,0,0,1,1.363-4.4,10.071,10.071,0,0,1,2.791-3.67,6.525,6.525,0,0,1,1.185-.755,1.476,1.476,0,0,1,.482-.182c.027.051-.65.342-1.53,1.1a10.838,10.838,0,0,0-2.653,3.632,24.458,24.458,0,0,0-1.429,4.323,13.322,13.322,0,0,1-.5,1.836" transform="translate(-34.111 -75.717)" fill="#eb996e"/>
        <path id="Trazado_833942" data-name="Trazado 833942" d="M94.431,195.642a3.294,3.294,0,0,1,.193-1.1,12.447,12.447,0,0,1,2.519-4.715,3.271,3.271,0,0,1,.8-.77c.071.063-1.086,1.305-2.053,3.134s-1.372,3.473-1.463,3.449" transform="translate(-39.478 -79.046)" fill="#eb996e"/>
        <path id="Trazado_833943" data-name="Trazado 833943" d="M108.882,202.3a.137.137,0,1,1,.07-.191.144.144,0,0,1-.07.191" transform="translate(-45.436 -84.473)" fill="#eb996e"/>
        <path id="Trazado_833944" data-name="Trazado 833944" d="M108.851,204.139a8.248,8.248,0,0,1,.117-2.222c.068-.559.144-1.067.214-1.446l.2.081c-.3.358-.507.568-.543.542s.1-.285.36-.677l.23-.353-.026.434c-.023.385-.071.9-.138,1.455a8.264,8.264,0,0,1-.418,2.186" transform="translate(-45.495 -83.649)" fill="#eb996e"/>
        <path id="Trazado_833945" data-name="Trazado 833945" d="M119.4,263.162a.482.482,0,0,1,.026.138c.012.109.027.243.046.407q.054.576.147,1.568c.1,1.364.236,3.338.37,5.779.269,4.882.563,11.63.841,19.084s.492,14.207.627,19.094c.059,2.424.108,4.394.141,5.787q.014,1,.022,1.574c0,.165,0,.3,0,.41a.5.5,0,0,1-.011.14.474.474,0,0,1-.02-.139c-.008-.11-.017-.244-.028-.409q-.029-.577-.079-1.572c-.057-1.393-.138-3.362-.237-5.785-.184-4.908-.437-11.645-.716-19.09-.294-7.441-.559-14.177-.753-19.084-.115-2.421-.208-4.39-.273-5.782-.038-.662-.068-1.187-.09-1.571-.006-.165-.012-.3-.016-.41a.476.476,0,0,1,0-.14" transform="translate(-49.921 -110.03)" fill="#eb996e"/>
        <path id="Trazado_833946" data-name="Trazado 833946" d="M358.2,258.106s-13.033,50.057-15.214,55.85c-4.312,11.456-7.256,16.905-12.136,19.764-5.335,3.125-14.876,1.345-17.129-3.756-2.062-4.669-7.527-24.109-7.527-24.109l16.737-6.036,19.964-41.832Z" transform="translate(-128.021 -107.867)" fill="#ffbe9d"/>
        <path id="Trazado_833947" data-name="Trazado 833947" d="M412.495,217.136c.819.592-16.767,15.985-16.767,15.985L382.7,240.646,378.4,256.635l-13.614-8.405s4.929-15.945,7.218-17.043c3.995-1.916,4.763-8.336,6.192-8.1s2.052.211,1.575,2.593-.666,3.435-.666,3.435l15.047-4.361s8.336-8.1,10.955-7.621c1.512.275,1.69.477,1.69.477a4.255,4.255,0,0,1,5.693-.477" transform="translate(-152.522 -90.407)" fill="#ffbe9d"/>
        <path id="Trazado_833948" data-name="Trazado 833948" d="M402.055,230.881a3.687,3.687,0,0,1-.708.273l-1.963.641-6.5,2.031-6.5,2.015-1.97.614a3.655,3.655,0,0,1-.732.2,3.724,3.724,0,0,1,.693-.31c.454-.177,1.117-.422,1.942-.706,1.647-.571,3.939-1.314,6.48-2.1s4.85-1.469,6.526-1.946c.838-.239,1.519-.426,1.991-.549a3.592,3.592,0,0,1,.742-.161" transform="translate(-160.42 -96.532)" fill="#eb996e"/>
        <path id="Trazado_833949" data-name="Trazado 833949" d="M419.66,229.736a2.4,2.4,0,0,1,.382-.483c.26-.3.644-.72,1.123-1.238.958-1.037,2.3-2.454,3.788-4.007l3.835-3.952a2.793,2.793,0,0,0,.755-1.41,2.76,2.76,0,0,0-.029-.6c.01,0,.036.044.079.143a1.2,1.2,0,0,1,.068.463,2.733,2.733,0,0,1-.708,1.538c-.942,1.071-2.292,2.464-3.781,4.025s-2.854,2.947-3.852,3.945c-.5.5-.906.9-1.192,1.172a2.43,2.43,0,0,1-.467.4" transform="translate(-175.463 -91.168)" fill="#eb996e"/>
        <path id="Trazado_833950" data-name="Trazado 833950" d="M333.477,317.842c.077.034-2.11,5.181-4.883,11.494s-5.085,11.407-5.161,11.374,2.109-5.179,4.884-11.5,5.084-11.406,5.161-11.372" transform="translate(-135.229 -132.892)" fill="#eb996e"/>
      </g>
    </g>
    <g id="Grupo_1076398" data-name="Grupo 1076398">
      <g id="Grupo_1076397" data-name="Grupo 1076397" clip-path="url(#clip-path)">
        <path id="Trazado_833951" data-name="Trazado 833951" d="M256.157,428.9c0,.084-57.347.151-128.072.151C57.335,429.053,0,428.985,0,428.9s57.335-.151,128.085-.151c70.725,0,128.072.068,128.072.151" transform="translate(0 -179.264)" fill="#263238"/>
      </g>
    </g>
    <rect id="Rectángulo_384794" data-name="Rectángulo 384794" width="23.25" height="8.651" transform="translate(210.857 120.395) rotate(-89.484)" fill="#ff725e"/>
    <g id="Grupo_1076403" data-name="Grupo 1076403">
      <g id="Grupo_1076402" data-name="Grupo 1076402" clip-path="url(#clip-path)">
        <g id="Grupo_1076401" data-name="Grupo 1076401" transform="translate(210.857 97.146)" opacity="0.3">
          <g id="Grupo_1076400" data-name="Grupo 1076400">
            <g id="Grupo_1076399" data-name="Grupo 1076399" clip-path="url(#clip-path-8)">
              <rect id="Rectángulo_384795" data-name="Rectángulo 384795" width="23.25" height="8.651" transform="translate(0 23.249) rotate(-89.484)"/>
            </g>
          </g>
        </g>
      </g>
    </g>
    <rect id="Rectángulo_384798" data-name="Rectángulo 384798" width="23.25" height="8.651" transform="translate(208.52 120.374) rotate(-89.484)" fill="#ff725e"/>
    <g id="Grupo_1076408" data-name="Grupo 1076408">
      <g id="Grupo_1076407" data-name="Grupo 1076407" clip-path="url(#clip-path)">
        <path id="Trazado_833952" data-name="Trazado 833952" d="M366.22,175.264a1.952,1.952,0,1,1-1.934-1.97,1.952,1.952,0,0,1,1.934,1.97" transform="translate(-151.488 -72.456)" fill="#fff"/>
        <path id="Trazado_833953" data-name="Trazado 833953" d="M375.813,173.09a14.538,14.538,0,0,1-2.359,3.332,14.49,14.49,0,0,1,2.359-3.332" transform="translate(-156.142 -72.37)" fill="#ff725e"/>
        <path id="Trazado_833954" data-name="Trazado 833954" d="M375.772,177.511a14.516,14.516,0,0,1-2.36,3.332,14.484,14.484,0,0,1,2.36-3.332" transform="translate(-156.125 -74.218)" fill="#ff725e"/>
        <path id="Trazado_833955" data-name="Trazado 833955" d="M375.732,181.931a14.518,14.518,0,0,1-2.36,3.332,14.53,14.53,0,0,1,2.36-3.332" transform="translate(-156.108 -76.066)" fill="#ff725e"/>
        <path id="Trazado_833956" data-name="Trazado 833956" d="M375.693,186.351a14.517,14.517,0,0,1-2.36,3.332,14.562,14.562,0,0,1,2.36-3.332" transform="translate(-156.092 -77.914)" fill="#ff725e"/>
        <path id="Trazado_833957" data-name="Trazado 833957" d="M375.654,190.771a14.536,14.536,0,0,1-2.359,3.332,14.505,14.505,0,0,1,2.359-3.332" transform="translate(-156.075 -79.762)" fill="#ff725e"/>
        <path id="Trazado_833958" data-name="Trazado 833958" d="M375.614,195.191a14.539,14.539,0,0,1-2.359,3.332,14.491,14.491,0,0,1,2.359-3.332" transform="translate(-156.059 -81.61)" fill="#ff725e"/>
        <path id="Trazado_833959" data-name="Trazado 833959" d="M375.573,199.612a14.517,14.517,0,0,1-2.36,3.332,14.483,14.483,0,0,1,2.36-3.332" transform="translate(-156.042 -83.459)" fill="#ff725e"/>
        <path id="Trazado_833960" data-name="Trazado 833960" d="M375.807,169.192a14.515,14.515,0,0,1-2.36,3.332,14.485,14.485,0,0,1,2.36-3.332" transform="translate(-156.139 -70.74)" fill="#ff725e"/>
        <path id="Trazado_833961" data-name="Trazado 833961" d="M375,167.065c.065.046-.195.525-.58,1.07s-.751.948-.816.9.195-.525.581-1.07.751-.948.816-.9" transform="translate(-156.203 -69.85)" fill="#ff725e"/>
        <path id="Trazado_833962" data-name="Trazado 833962" d="M384.769,176.185l.654-20.54s4.583-.847,8.715-7.028c2.734-4.091,1.779-8.459,2.314-10.26.326-1.1,2.928-.856,4.068-.713a4.474,4.474,0,0,1,3.6,2.47c1.363,3.183-.652,10.75-.652,10.75s-.864,1.537,1.3,1.557l7.714.07a4.2,4.2,0,0,1,2.734,1,3.122,3.122,0,0,1,1.1,2.737c-.258,2.933-1.815,4.232-1.821,4.85s.834,1.707.2,3.478-1.019,1.613-1.026,2.463a13.855,13.855,0,0,1-.734,4.319,6.283,6.283,0,0,1-1.176,1.921s.3,2.831-.58,4.4c-1.153,2.054-6.259,3.378-8.351,2.4-.979-.459-5.56-1.595-7.718-2.155s-8.246-2.7-10.341-1.717" transform="translate(-160.875 -57.496)" fill="#ff725e"/>
        <g id="Grupo_1076406" data-name="Grupo 1076406" transform="translate(223.894 80.019)" opacity="0.3">
          <g id="Grupo_1076405" data-name="Grupo 1076405">
            <g id="Grupo_1076404" data-name="Grupo 1076404" clip-path="url(#clip-path-10)">
              <path id="Trazado_833963" data-name="Trazado 833963" d="M384.769,176.185l.654-20.54s4.583-.847,8.715-7.028c2.734-4.091,1.779-8.459,2.314-10.26.326-1.1,2.928-.856,4.068-.713a4.474,4.474,0,0,1,3.6,2.47c1.363,3.183-.652,10.75-.652,10.75s-.864,1.537,1.3,1.557l7.714.07a4.2,4.2,0,0,1,2.734,1,3.122,3.122,0,0,1,1.1,2.737c-.258,2.933-1.815,4.232-1.821,4.85s.834,1.707.2,3.478-1.019,1.613-1.026,2.463a13.855,13.855,0,0,1-.734,4.319,6.283,6.283,0,0,1-1.176,1.921s.3,2.831-.58,4.4c-1.153,2.054-6.259,3.378-8.351,2.4-.979-.459-5.56-1.595-7.718-2.155s-8.246-2.7-10.341-1.717" transform="translate(-384.769 -137.515)"/>
            </g>
          </g>
        </g>
        <path id="Trazado_833964" data-name="Trazado 833964" d="M380.019,176.5l.187-20.778s4.582-.847,8.715-7.028a34.661,34.661,0,0,0,4.515-9.2,2.359,2.359,0,0,1,2.531-1.7,3.6,3.6,0,0,1,3.112,2.288c1.363,3.183-.831,10.859-.831,10.859s-.864,1.537,1.3,1.557l7.714.07a4.2,4.2,0,0,1,2.734,1,3.12,3.12,0,0,1,1.105,2.737c-.258,2.933-1.815,4.232-1.821,4.85s.834,1.707.2,3.478-1.018,1.613-1.026,2.463a13.889,13.889,0,0,1-.734,4.319,6.3,6.3,0,0,1-1.176,1.921,10.7,10.7,0,0,1-.58,4.4c-.787,1.615-4.039,2.435-5.12,2.425s-8.792-1.624-10.949-2.184-7.779-2.464-9.874-1.479" transform="translate(-158.889 -57.607)" fill="#ff725e"/>
        <path id="Trazado_833965" data-name="Trazado 833965" d="M415.441,153.335a16.473,16.473,0,0,1-3.834,3.764,53.187,53.187,0,0,1,3.834-3.764" transform="translate(-172.096 -64.11)" fill="#ff725e"/>
        <path id="Trazado_833966" data-name="Trazado 833966" d="M416.339,148.567a6.767,6.767,0,0,1-1.673,1.8,11.492,11.492,0,0,1-1.964,1.466,9.669,9.669,0,0,1,1.776-1.686,23.684,23.684,0,0,1,1.861-1.578" transform="translate(-172.553 -62.116)" fill="#ff725e"/>
        <path id="Trazado_833967" data-name="Trazado 833967" d="M416.441,144.257a4.108,4.108,0,0,1-1.387,1.451,11.043,11.043,0,0,1-1.657,1.1,5.124,5.124,0,0,1,1.486-1.337c.88-.632,1.491-1.277,1.558-1.218" transform="translate(-172.844 -60.314)" fill="#ff725e"/>
        <path id="Trazado_833968" data-name="Trazado 833968" d="M415.593,140.65c.051.061-.408.531-1.026,1.05a3.823,3.823,0,0,1-1.211.829c-.052-.061.408-.531,1.026-1.05a3.827,3.827,0,0,1,1.211-.829" transform="translate(-172.826 -58.804)" fill="#ff725e"/>
        <path id="Trazado_833969" data-name="Trazado 833969" d="M413.488,138.5c.04.069-.248.333-.644.589s-.755.411-.8.347.242-.329.644-.589.76-.415.8-.347" transform="translate(-172.277 -57.902)" fill="#ff725e"/>
        <path id="Trazado_833970" data-name="Trazado 833970" d="M415.4,159.617c.051.061-.437.556-1.09,1.106a4.259,4.259,0,0,1-1.276.886c-.051-.061.436-.556,1.09-1.106a4.273,4.273,0,0,1,1.276-.886" transform="translate(-172.693 -66.735)" fill="#ff725e"/>
        <path id="Trazado_833971" data-name="Trazado 833971" d="M435.152,172.262a28.439,28.439,0,0,1-4.755,3.195,28.5,28.5,0,0,1,4.755-3.195" transform="translate(-179.952 -72.022)" fill="#ff725e"/>
        <path id="Trazado_833972" data-name="Trazado 833972" d="M436.379,166.2a10.173,10.173,0,0,1-2.832,1.911,10.173,10.173,0,0,1,2.832-1.911" transform="translate(-181.269 -69.488)" fill="#ff725e"/>
        <path id="Trazado_833973" data-name="Trazado 833973" d="M433.941,180.906a42.8,42.8,0,0,1-3.511,2.349,9.549,9.549,0,0,1,3.511-2.349" transform="translate(-179.966 -75.635)" fill="#ff725e"/>
        <path id="Trazado_833974" data-name="Trazado 833974" d="M432.041,187.77a15.288,15.288,0,0,1-3.374,2.484,15.288,15.288,0,0,1,3.374-2.484" transform="translate(-179.229 -78.506)" fill="#ff725e"/>
        <path id="Trazado_833975" data-name="Trazado 833975" d="M429.981,195.9A12.209,12.209,0,0,1,426,198.7a70.1,70.1,0,0,1,3.986-2.806" transform="translate(-178.112 -81.904)" fill="#ff725e"/>
        <path id="Trazado_833976" data-name="Trazado 833976" d="M427.74,202.727A16.56,16.56,0,0,1,423.09,206a93.982,93.982,0,0,1,4.65-3.274" transform="translate(-176.897 -84.76)" fill="#ff725e"/>
        <rect id="Rectángulo_384800" data-name="Rectángulo 384800" width="15.233" height="5.668" transform="translate(241.738 60.42) rotate(-78.733)" fill="#263238"/>
        <rect id="Rectángulo_384801" data-name="Rectángulo 384801" width="15.233" height="5.668" transform="translate(243.24 60.719) rotate(-78.733)" fill="#455a64"/>
        <path id="Trazado_833977" data-name="Trazado 833977" d="M422.105,97.963a1.279,1.279,0,1,1,1,1.5,1.279,1.279,0,0,1-1-1.5" transform="translate(-176.476 -40.529)" fill="#fff"/>
        <path id="Trazado_833978" data-name="Trazado 833978" d="M416.219,98.639a9.5,9.5,0,0,1,1.926-1.856,9.536,9.536,0,0,1-1.926,1.856" transform="translate(-174.024 -40.465)" fill="#455a64"/>
        <path id="Trazado_833979" data-name="Trazado 833979" d="M416.785,95.8a9.5,9.5,0,0,1,1.926-1.856,9.5,9.5,0,0,1-1.926,1.856" transform="translate(-174.261 -39.277)" fill="#455a64"/>
        <path id="Trazado_833980" data-name="Trazado 833980" d="M417.351,92.958a9.5,9.5,0,0,1,1.926-1.856,9.537,9.537,0,0,1-1.926,1.856" transform="translate(-174.497 -38.09)" fill="#455a64"/>
        <path id="Trazado_833981" data-name="Trazado 833981" d="M417.917,90.118a9.5,9.5,0,0,1,1.926-1.856,9.5,9.5,0,0,1-1.926,1.856" transform="translate(-174.734 -36.902)" fill="#455a64"/>
        <path id="Trazado_833982" data-name="Trazado 833982" d="M418.483,87.277a9.5,9.5,0,0,1,1.926-1.856,9.5,9.5,0,0,1-1.926,1.856" transform="translate(-174.971 -35.714)" fill="#455a64"/>
        <path id="Trazado_833983" data-name="Trazado 833983" d="M419.049,84.437a9.5,9.5,0,0,1,1.926-1.856,9.5,9.5,0,0,1-1.926,1.856" transform="translate(-175.207 -34.527)" fill="#455a64"/>
        <path id="Trazado_833984" data-name="Trazado 833984" d="M419.615,81.6a9.515,9.515,0,0,1,1.926-1.856,9.515,9.515,0,0,1-1.926,1.856" transform="translate(-175.444 -33.339)" fill="#455a64"/>
        <path id="Trazado_833985" data-name="Trazado 833985" d="M415.746,101.149a9.5,9.5,0,0,1,1.926-1.856,9.5,9.5,0,0,1-1.926,1.856" transform="translate(-173.826 -41.514)" fill="#455a64"/>
        <path id="Trazado_833986" data-name="Trazado 833986" d="M416.448,103.244c-.036-.038.19-.314.5-.617s.6-.519.635-.481-.19.314-.5.617-.6.519-.635.481" transform="translate(-174.119 -42.706)" fill="#455a64"/>
        <path id="Trazado_833987" data-name="Trazado 833987" d="M398.917,75.447l-2.932,13.141s-3.053-.015-6.469,3.459c-2.26,2.3-2.179,5.227-2.744,6.322-.344.669-1.989.193-2.706-.038a2.932,2.932,0,0,1-2.013-2.03c-.488-2.215,1.734-6.84,1.734-6.84s.744-.884-.646-1.161l-4.957-.987a2.754,2.754,0,0,1-1.637-.981,2.045,2.045,0,0,1-.376-1.9c.525-1.856,1.686-2.5,1.765-2.9a3.7,3.7,0,0,1,.3-2.263c.624-1.063.852-.914.961-1.46a9.088,9.088,0,0,1,1-2.69,4.132,4.132,0,0,1,.992-1.093,6.029,6.029,0,0,1,.911-2.76c.993-1.181,4.442-1.409,5.668-.522.574.415,3.384,1.707,4.7,2.331s4.978,2.747,6.447,2.369" transform="translate(-157.244 -29.354)" fill="#263238"/>
        <path id="Trazado_833988" data-name="Trazado 833988" d="M402.214,76.005l-2.66,13.352s-3.053-.015-6.468,3.458a22.713,22.713,0,0,0-4.031,5.373,1.547,1.547,0,0,1-1.836.783,2.355,2.355,0,0,1-1.723-1.853c-.488-2.215,1.862-6.888,1.862-6.888s.744-.884-.646-1.161l-4.957-.987a2.751,2.751,0,0,1-1.637-.982,2.044,2.044,0,0,1-.377-1.9c.525-1.857,1.686-2.5,1.765-2.9a3.691,3.691,0,0,1,.3-2.263c.625-1.063.853-.914.962-1.46a9.092,9.092,0,0,1,1-2.691,4.116,4.116,0,0,1,.992-1.092,7.013,7.013,0,0,1,.911-2.76c.7-.943,2.9-1.074,3.593-.936s5.461,2.12,6.781,2.744,4.706,2.538,6.175,2.159" transform="translate(-158.736 -29.709)" fill="#455a64"/>
        <path id="Trazado_833989" data-name="Trazado 833989" d="M387.617,106.311a10.793,10.793,0,0,1,2.928-1.955,34.615,34.615,0,0,1-2.928,1.955" transform="translate(-162.066 -43.631)" fill="#455a64"/>
        <path id="Trazado_833990" data-name="Trazado 833990" d="M386.547,109.5a4.423,4.423,0,0,1,1.3-.953,7.54,7.54,0,0,1,1.443-.7,6.306,6.306,0,0,1-1.349.868,15.706,15.706,0,0,1-1.391.788" transform="translate(-161.618 -45.09)" fill="#455a64"/>
        <path id="Trazado_833991" data-name="Trazado 833991" d="M386.228,112.591a2.7,2.7,0,0,1,1.07-.764,7.233,7.233,0,0,1,1.2-.508,3.367,3.367,0,0,1-1.12.678c-.644.3-1.115.64-1.152.594" transform="translate(-161.485 -46.541)" fill="#455a64"/>
        <path id="Trazado_833992" data-name="Trazado 833992" d="M386.707,115.325a4.877,4.877,0,0,1,1.67-.936,4.892,4.892,0,0,1-1.67.936" transform="translate(-161.685 -47.824)" fill="#455a64"/>
        <path id="Trazado_833993" data-name="Trazado 833993" d="M388.166,117.391c-.017-.049.2-.184.486-.3s.536-.173.558-.126-.2.182-.486.3-.541.174-.558.125" transform="translate(-162.295 -48.897)" fill="#455a64"/>
        <path id="Trazado_833994" data-name="Trazado 833994" d="M389.087,103.088a5.476,5.476,0,0,1,1.767-.993,5.46,5.46,0,0,1-1.767.993" transform="translate(-162.68 -42.684)" fill="#455a64"/>
        <path id="Trazado_833995" data-name="Trazado 833995" d="M376.818,91.98a18.632,18.632,0,0,1,3.451-1.475,18.677,18.677,0,0,1-3.451,1.475" transform="translate(-157.551 -37.839)" fill="#455a64"/>
        <path id="Trazado_833996" data-name="Trazado 833996" d="M376.177,96.32a6.665,6.665,0,0,1,2.056-.884,6.666,6.666,0,0,1-2.056.884" transform="translate(-157.282 -39.899)" fill="#455a64"/>
        <path id="Trazado_833997" data-name="Trazado 833997" d="M379.23,86.954a28.253,28.253,0,0,1,2.546-1.083,6.246,6.246,0,0,1-2.546,1.083" transform="translate(-158.559 -35.901)" fill="#455a64"/>
        <path id="Trazado_833998" data-name="Trazado 833998" d="M381.354,82.706a10.018,10.018,0,0,1,2.475-1.186,10.016,10.016,0,0,1-2.475,1.186" transform="translate(-159.447 -34.081)" fill="#455a64"/>
        <path id="Trazado_833999" data-name="Trazado 833999" d="M383.39,77.578a8,8,0,0,1,2.909-1.32,45.547,45.547,0,0,1-2.909,1.32" transform="translate(-160.299 -31.881)" fill="#455a64"/>
        <path id="Trazado_834000" data-name="Trazado 834000" d="M385.36,73.239a10.836,10.836,0,0,1,3.393-1.539,62.022,62.022,0,0,1-3.393,1.539" transform="translate(-161.122 -29.976)" fill="#455a64"/>
      </g>
    </g>
  </g>
</svg>
