<svg id="flexibility" xmlns="http://www.w3.org/2000/svg" width="50" height="47.09" viewBox="0 0 50 47.09">
  <g id="Grupo_1076339" data-name="Grupo 1076339" transform="translate(13.017 11.562)">
    <path id="Trazado_833627" data-name="Trazado 833627" d="M150.715,161.573H148.46a1.451,1.451,0,0,1-1.449-1.449,1.787,1.787,0,0,0-3.05-1.264,1.449,1.449,0,0,1-2.049,0l-1.595-1.594a1.451,1.451,0,0,1,0-2.049,1.788,1.788,0,0,0-1.263-3.05,1.451,1.451,0,0,1-1.449-1.449v-2.255a1.451,1.451,0,0,1,1.449-1.449,1.788,1.788,0,0,0,1.263-3.05,1.449,1.449,0,0,1,0-2.049l1.594-1.595a1.449,1.449,0,0,1,2.049,0,1.788,1.788,0,0,0,3.05-1.263,1.451,1.451,0,0,1,1.449-1.449h2.255a1.451,1.451,0,0,1,1.449,1.449,1.788,1.788,0,0,0,3.05,1.263,1.451,1.451,0,0,1,2.049,0l1.595,1.595a1.449,1.449,0,0,1,0,2.049,1.788,1.788,0,0,0,1.263,3.05,1.451,1.451,0,0,1,1.449,1.449v2.255a1.451,1.451,0,0,1-1.449,1.449,1.788,1.788,0,0,0-1.263,3.05,1.451,1.451,0,0,1,0,2.049l-1.595,1.595a1.451,1.451,0,0,1-2.049,0,1.788,1.788,0,0,0-3.05,1.263A1.451,1.451,0,0,1,150.715,161.573Zm-5.511-4.661a3.25,3.25,0,0,1,1.246.252,3.154,3.154,0,0,1,1.978,2.96.032.032,0,0,0,.032.032h2.255a.032.032,0,0,0,.032-.032,3.205,3.205,0,0,1,5.469-2.266.032.032,0,0,0,.045,0l1.595-1.595a.032.032,0,0,0,0-.045,3.205,3.205,0,0,1,2.265-5.469.032.032,0,0,0,.032-.032v-2.255a.032.032,0,0,0-.032-.032,3.205,3.205,0,0,1-2.265-5.469.032.032,0,0,0,0-.045l-1.595-1.595a.032.032,0,0,0-.045,0,3.205,3.205,0,0,1-5.469-2.265.032.032,0,0,0-.032-.032H148.46a.032.032,0,0,0-.032.032,3.205,3.205,0,0,1-5.469,2.265.032.032,0,0,0-.045,0l-1.595,1.595a.032.032,0,0,0,0,.045,3.205,3.205,0,0,1-2.266,5.469.032.032,0,0,0-.032.032v2.255a.032.032,0,0,0,.032.032,3.205,3.205,0,0,1,2.266,5.469.032.032,0,0,0,0,.045l1.595,1.595a.032.032,0,0,0,.045,0A3.16,3.16,0,0,1,145.2,156.912Zm4.384-1.1a6.218,6.218,0,1,1,6.218-6.218A6.226,6.226,0,0,1,149.587,155.808Zm0-11.02a4.8,4.8,0,1,0,4.8,4.8A4.807,4.807,0,0,0,149.587,144.788Z" transform="translate(-137.604 -137.606)" fill="#3ee2a8"/>
  </g>
  <g id="Grupo_1076340" data-name="Grupo 1076340" transform="translate(0 0)">
    <path id="Trazado_833628" data-name="Trazado 833628" d="M53.811,70.463a.708.708,0,0,1-.708-.708V67.579H34a20.66,20.66,0,0,1-15.768-34.01.709.709,0,0,1,.54-.251h6.221a.709.709,0,0,1,.406,1.289A15.017,15.017,0,0,0,34,61.935H53.1V59.759a.709.709,0,0,1,1.236-.473l4.479,5a.709.709,0,0,1,0,.946l-4.479,5a.709.709,0,0,1-.528.236ZM19.1,34.735A19.243,19.243,0,0,0,34,66.162H53.812a.709.709,0,0,1,.709.708V67.9l2.819-3.146L54.52,61.611v1.032a.708.708,0,0,1-.709.708H34A16.433,16.433,0,0,1,22.972,34.735ZM14.188,70.463a.709.709,0,0,1-.528-.236l-4.479-5a.709.709,0,0,1,0-.946l4.479-5a.709.709,0,0,1,1.236.473v2.176H17.51a.708.708,0,0,1,.513.219,22.139,22.139,0,0,0,5.31,4.1.709.709,0,0,1-.343,1.329H14.9v2.176a.708.708,0,0,1-.708.708ZM10.66,64.757,13.479,67.9V66.87a.708.708,0,0,1,.708-.708h6.332a23.567,23.567,0,0,1-3.31-2.81H14.188a.709.709,0,0,1-.708-.708V61.611Zm38.568-4.239H43.006a.709.709,0,0,1-.406-1.289A15.017,15.017,0,0,0,34,31.9H14.9v2.176a.709.709,0,0,1-1.236.473l-4.479-5a.709.709,0,0,1,0-.946l4.479-5a.709.709,0,0,1,1.236.473v2.176H34a20.66,20.66,0,0,1,15.768,34.01.708.708,0,0,1-.54.25Zm-4.2-1.417H48.9A19.243,19.243,0,0,0,34,27.674H14.188a.708.708,0,0,1-.708-.708V25.933L10.66,29.079l2.819,3.146V31.193a.708.708,0,0,1,.708-.708H34A16.433,16.433,0,0,1,45.027,59.1Zm8.784-24.316a.708.708,0,0,1-.708-.708V31.9H50.489a.708.708,0,0,1-.513-.22,22.135,22.135,0,0,0-5.309-4.1.708.708,0,0,1,.343-1.328H53.1V24.081a.709.709,0,0,1,1.236-.473l4.479,5a.709.709,0,0,1,0,.946l-4.479,5a.709.709,0,0,1-.528.236Zm-3.021-4.3h3.022a.708.708,0,0,1,.709.708v1.032l2.819-3.146L54.52,25.933v1.032a.708.708,0,0,1-.709.708H47.48A23.542,23.542,0,0,1,50.79,30.484Z" transform="translate(-9 -23.373)" fill="#3ee2a8"/>
  </g>
</svg>
