<svg xmlns="http://www.w3.org/2000/svg" width="80" height="80" viewBox="0 0 80 80">
  <g id="Grupo_1074165" data-name="Grupo 1074165" transform="translate(-295 -6725)">
    <circle id="Elipse_9914" data-name="Elipse 9914" cx="40" cy="40" r="40" transform="translate(295 6725)" fill="#f6f6f6"/>
    <g id="megaphone_1_" data-name="megaphone(1)" transform="translate(309.531 6700.53)">
      <path id="Trazado_828858" data-name="Trazado 828858" d="M113.795,274.963s5.114.048,5.114-4.315-.368-5.43-.368-5.43h-7.685l-.783,4.872Z" transform="translate(-99.122 -199.831)" fill="#ef5350"/>
      <path id="Trazado_828859" data-name="Trazado 828859" d="M72.669,297.181a1.453,1.453,0,0,1-1.451-1.361c-.141-2.239-.583-6.708-1.93-9.3a6.642,6.642,0,0,0-5.835-3.423l-1.279,2.483c3.038,2.888,3.838,7.778,4.049,11.633a3.807,3.807,0,0,0,3.8,3.6h2.644a1.815,1.815,0,0,0,0-3.629Z" transform="translate(-55.989 -215.926)" fill="#409fff"/>
      <path id="Trazado_828860" data-name="Trazado 828860" d="M111.761,91.155s-6.233,6.8-18.114,6.8h-.352l-7.763,7.889,7.763,7.889h.352c11.88,0,18.114,6.8,18.114,6.8l2.47-14.693Z" transform="translate(-77.022 -43.086)" fill="#f5f5f5"/>
      <path id="Trazado_828861" data-name="Trazado 828861" d="M351.643,66.323h0a2.47,2.47,0,0,0-2.47,2.47V98.179a2.47,2.47,0,0,0,2.47,2.47h0a2.47,2.47,0,0,0,2.47-2.47V68.793A2.47,2.47,0,0,0,351.643,66.323Z" transform="translate(-314.434 -20.724)" fill="#ef5350"/>
      <path id="Trazado_828862" data-name="Trazado 828862" d="M351.643,358.99h0a2.47,2.47,0,0,1-2.47-2.47V359.5a2.47,2.47,0,0,0,2.47,2.47h0a2.47,2.47,0,0,0,2.47-2.47V356.52A2.47,2.47,0,0,1,351.643,358.99Z" transform="translate(-314.434 -282.05)" fill="#d44a47"/>
      <path id="Trazado_828863" data-name="Trazado 828863" d="M136.771,287.561h-.352q-1.6-.005-3-.063l3,3.047h.352c11.88,0,18.114,6.8,18.114,6.8v-2.985S148.651,287.561,136.771,287.561Z" transform="translate(-120.145 -219.894)" fill="#e0e0e0"/>
      <path id="Trazado_828864" data-name="Trazado 828864" d="M69.288,286.515a6.642,6.642,0,0,0-5.835-3.423l-1.279,2.483a10.742,10.742,0,0,1,2.39,3.527,50.37,50.37,0,0,0,5.779.433A13.68,13.68,0,0,0,69.288,286.515Z" transform="translate(-55.989 -215.926)" fill="#3a8fe6"/>
      <path id="Trazado_828865" data-name="Trazado 828865" d="M23.027,159.543v15.778C11.421,175.281,7.5,173.245,7.5,167.432S11.421,159.582,23.027,159.543Z" transform="translate(-6.754 -104.67)" fill="#ef5350"/>
      <path id="Trazado_828866" data-name="Trazado 828866" d="M7.6,223.835c-.016.11-.03.222-.042.335l0,.036c-.012.116-.022.232-.03.351v0c-.007.11-.013.222-.017.336q0,.04,0,.08c0,.116-.006.232-.006.351,0,5.813,3.921,7.85,15.527,7.889v-2.985C12.474,230.2,8.276,228.509,7.6,223.835Z" transform="translate(-6.753 -162.565)" fill="#d44a47"/>
      <path id="Trazado_828867" data-name="Trazado 828867" d="M427.892,232.828h6.95a.746.746,0,1,0,0-1.492h-6.95a.746.746,0,1,0,0,1.492Z" transform="translate(-384.649 -169.32)"/>
      <path id="Trazado_828868" data-name="Trazado 828868" d="M431.408,49.716a.744.744,0,0,0,.528-.219l4.914-4.914a.746.746,0,1,0-1.055-1.055l-4.914,4.914a.746.746,0,0,0,.528,1.274Z" transform="translate(-387.816 0)"/>
      <path id="Trazado_828869" data-name="Trazado 828869" d="M436.85,376.155a.746.746,0,0,0,0-1.055l-4.914-4.914a.746.746,0,1,0-1.055,1.055l4.914,4.914A.755.755,0,0,0,436.85,376.155Z" transform="translate(-387.816 -294.159)"/>
      <path id="Trazado_828870" data-name="Trazado 828870" d="M5.8,84.283C8,86.462,9.2,90.066,9.49,95.293A4.555,4.555,0,0,0,14.036,99.6h2.644a2.561,2.561,0,0,0,0-5.121.708.708,0,0,1-.706-.662c-.067-1.061-.193-2.512-.429-4.033a7.751,7.751,0,0,0,2.067-.554,4.519,4.519,0,0,0,2.863-3.6,26.3,26.3,0,0,1,9.242,3.018,20.556,20.556,0,0,1,4.293,3.1,3.216,3.216,0,0,0,6.416-.322V62.039a3.216,3.216,0,0,0-6.416-.322C32.925,62.776,26.961,68.1,16.625,68.1H16.27c-6.131.021-9.971.595-12.452,1.861C1.213,71.288,0,73.44,0,76.732s1.213,5.445,3.818,6.774A11.8,11.8,0,0,0,5.8,84.283ZM16.679,95.971a1.068,1.068,0,0,1,0,2.137H14.036a3.062,3.062,0,0,1-3.055-2.9c-.247-4.521-1.173-7.947-2.815-10.389a39.458,39.458,0,0,0,4.624.461l.031,0c.5,1.125,1.355,3.7,1.664,8.626A2.2,2.2,0,0,0,16.679,95.971Zm.335-8.11a6.285,6.285,0,0,1-1.733.452l-.013-.061a20.139,20.139,0,0,0-.709-2.63,2.032,2.032,0,0,0-.1-.28q.775.019,1.606.023c.976.005,1.952.02,2.925.1A3.047,3.047,0,0,1,17.014,87.861ZM37.209,60.315a1.726,1.726,0,0,1,1.724,1.724V91.425a1.724,1.724,0,1,1-3.448,0h0V62.041h0A1.726,1.726,0,0,1,37.209,60.315ZM1.492,76.732c0-2.742.9-4.37,3-5.445,2.134-1.089,5.65-1.63,11.03-1.692v2.988a.746.746,0,0,0,1.492,0v-3A28.31,28.31,0,0,0,30.5,66.093a23.856,23.856,0,0,0,3.492-2.363V89.735A23.855,23.855,0,0,0,30.5,87.372a28.465,28.465,0,0,0-13.482-3.494v-8.31a.746.746,0,0,0-1.492,0v8.3c-.815-.014-1.767-.039-2.052-.048-4.24-.166-7.129-.7-8.978-1.641C2.391,81.1,1.492,79.474,1.492,76.732Z" transform="translate(0 -13.97)"/>
    </g>
  </g>
</svg>
