<svg xmlns="http://www.w3.org/2000/svg" width="86" height="86" viewBox="0 0 86 86">
  <g id="Grupo_1075587" data-name="Grupo 1075587" transform="translate(-210 -2102)">
    <circle id="Elipse_9897" data-name="Elipse 9897" cx="43" cy="43" r="43" transform="translate(210 2102)" fill="#1682fb"/>
    <path id="satisfaction" d="M41.86,42.187a5.488,5.488,0,1,0,0,7.761A5.488,5.488,0,0,0,41.86,42.187ZM36.516,85.08V77.568a.667.667,0,0,1,1.333,0V85.08h5.562l-.05-27.049a.665.665,0,0,1,.664-.727h8.389a.958.958,0,0,0,.953-.953v-2.51a.958.958,0,0,0-.953-.953H36.858a5.921,5.921,0,0,0-5.9,5.9V71.652a.957.957,0,0,0,.953.953h2.51a.957.957,0,0,0,.953-.953v-11a.667.667,0,1,1,1.333,0v11a2.291,2.291,0,0,1-2.286,2.286h-2.51a2.268,2.268,0,0,1-.953-.209V85.08h5.56ZM66.383,58.852a5.626,5.626,0,1,0,0,7.956A5.626,5.626,0,0,0,66.383,58.852Zm-6.436,1.283a.667.667,0,0,1,1.333,0V61.67a.667.667,0,0,1-1.333,0Zm3.583,0a.667.667,0,1,1,1.333,0V61.67a.667.667,0,0,1-1.333,0ZM60.4,65.708a.667.667,0,0,1,0-1.333h4.015a.667.667,0,0,1,0,1.333Zm19.216-5.954H73.46v6.153h6.153ZM66.383,40.337a5.626,5.626,0,1,0,0,7.956A5.626,5.626,0,0,0,66.383,40.337ZM59.947,41.62a.667.667,0,0,1,1.333,0v1.535a.667.667,0,0,1-1.333,0Zm3.583,0a.667.667,0,0,1,1.333,0v1.535a.667.667,0,0,1-1.333,0Zm1.583,4.271a.665.665,0,0,1,1.13.7,4.526,4.526,0,0,1-7.675,0,.665.665,0,1,1,1.13-.7A3.192,3.192,0,0,0,65.112,45.891Zm14.5-.184a.667.667,0,1,1,1.333,0v2.351a.666.666,0,0,1-.667.667H72.794a.666.666,0,0,1-.667-.667V40.572a.666.666,0,0,1,.667-.667h5.563a.667.667,0,1,1,0,1.333h-4.9v6.153h6.153Zm.2-4.07-2.67,2.67-1.37-1.37a.666.666,0,0,0-.942.942l1.841,1.841a.666.666,0,0,0,.942,0l3.141-3.141a.667.667,0,0,0-.943-.943ZM66.383,77.367a5.626,5.626,0,1,0,0,7.956A5.626,5.626,0,0,0,66.383,77.367ZM66.242,83.5a.665.665,0,0,1-1.13.7,3.193,3.193,0,0,0-5.415,0,.665.665,0,0,1-1.13-.7A4.524,4.524,0,0,1,66.242,83.5Zm-6.3-5.179a.667.667,0,0,1,1.333,0v1.535a.667.667,0,0,1-1.333,0Zm3.583,0a.667.667,0,0,1,1.333,0v1.535a.667.667,0,0,1-1.333,0Zm16.084-.05H73.46v6.153h6.153Z" transform="translate(197.044 2082.311)" fill="#fff" fill-rule="evenodd"/>
  </g>
</svg>
