<svg xmlns="http://www.w3.org/2000/svg" width="86" height="86" viewBox="0 0 86 86">
  <g id="Grupo_1075586" data-name="Grupo 1075586" transform="translate(-630 -2102)">
    <circle id="Elipse_10038" data-name="Elipse 10038" cx="43" cy="43" r="43" transform="translate(630 2102)" fill="#1682fb"/>
    <path id="interaction" d="M57.275,55.034a4.343,4.343,0,1,0,0,6.142,4.344,4.344,0,0,0,0-6.142Zm-4.407,34.8v-6a.685.685,0,1,1,1.37,0v6H58.5L58.46,67.892a.683.683,0,0,1,.682-.747H66a.642.642,0,0,0,.638-.638V64.456A.642.642,0,0,0,66,63.818H53.287A4.7,4.7,0,0,0,48.606,68.5V79.008a.642.642,0,0,0,.638.638h2.051a.642.642,0,0,0,.638-.638V70.023a.685.685,0,0,1,1.37,0v8.984a2.012,2.012,0,0,1-2.008,2.008H49.244a2,2,0,0,1-.638-.1v8.926h4.262Zm16.895,0H65.5l.019-21.322H66A2.012,2.012,0,0,0,68,66.507V64.456a1.992,1.992,0,0,0-.1-.638h2.813A4.7,4.7,0,0,1,75.394,68.5V79.008a.642.642,0,0,1-.638.638H72.705a.642.642,0,0,1-.638-.638V70.024a.685.685,0,0,0-1.37,0v8.984a2.012,2.012,0,0,0,2.008,2.008h2.051a2,2,0,0,0,.638-.1v8.926H71.132v-6a.685.685,0,1,0-1.37,0v6Zm16.289-49.16H72.115a.953.953,0,0,0-.949.949V49.3a.953.953,0,0,0,.949.949h5.994a.685.685,0,0,1,.685.685v3.755l4.233-4.233a.683.683,0,0,1,.49-.207h2.534A.953.953,0,0,0,87,49.3V41.626A.953.953,0,0,0,86.051,40.677Zm-34.167,0a.953.953,0,0,1,.949.949V49.3a.953.953,0,0,1-.949.949H46a.685.685,0,0,0-.685.685v3.755L41.079,50.45a.683.683,0,0,0-.484-.2H37.949A.953.953,0,0,1,37,49.3V41.626a.953.953,0,0,1,.949-.949H51.885Zm23.64,5.131a.685.685,0,0,1-.685-.685.748.748,0,0,1,1.491,0,.685.685,0,0,1-.685.685Zm3.5,0a.685.685,0,0,1-.685-.685.748.748,0,0,1,1.491,0,.685.685,0,0,1-.685.685Zm3.5,0a.685.685,0,0,1-.685-.685.748.748,0,0,1,1.491,0,.685.685,0,0,1-.685.685Zm-41.163,0h.121a.685.685,0,0,0,.685-.685.748.748,0,0,0-1.491,0A.685.685,0,0,0,41.358,45.808Zm3.5,0h.121a.685.685,0,0,0,.685-.685.748.748,0,0,0-1.491,0A.685.685,0,0,0,44.856,45.808Zm3.5,0h.121a.685.685,0,0,0,.685-.685.748.748,0,0,0-1.491,0A.685.685,0,0,0,48.354,45.808ZM69.8,53.762A4.343,4.343,0,1,1,65.453,58.1,4.343,4.343,0,0,1,69.8,53.762Z" transform="translate(611 2079.743)" fill="#fff" fill-rule="evenodd"/>
  </g>
</svg>
