<svg xmlns="http://www.w3.org/2000/svg" width="60" height="60" viewBox="0 0 60 60">
  <g id="Grupo_1078852" data-name="Grupo 1078852" transform="translate(-180 -3491)">
    <circle id="Elipse_10107" data-name="Elipse 10107" cx="30" cy="30" r="30" transform="translate(180 3491)" fill="#1682fb"/>
    <path id="intuitive" d="M57.064,47.934a3.2,3.2,0,1,0,0,4.521A3.2,3.2,0,0,0,57.064,47.934ZM54.8,63.565,50.53,61.1V58.09a.537.537,0,0,0-.446-.529c-.911-.182-1.742-.371-2.574-.56-1.153-.262-2.306-.524-3.483-.735a2.518,2.518,0,0,1-1.382-.691c-1.243-1.3-.157-3.23,1.189-2.989,3.637.652,7.241,1.851,10.97,1.882s7.341-1.195,10.97-1.878a1.24,1.24,0,0,1,.613.041c1.537.494,1.687,3.179-.772,3.64-2.068.388-4.029.924-6.1,1.337a.537.537,0,0,0-.432.526h0V61.1Zm5.273,3.1,3.042-1.756a2.136,2.136,0,0,0,.777-2.9h0a2.135,2.135,0,0,0-2.9-.779h0l-5.119,2.956,3.761,2.172ZM49.755,68.027a2.07,2.07,0,0,0-.266.818,2.462,2.462,0,0,0,.249,1.352,2.137,2.137,0,0,0,2.9.764l1.1-.636ZM69.2,38.68h1.959l1.1-3.638a2.261,2.261,0,1,0-4.242.142.542.542,0,0,1,.021.062Zm2.252,2.983H68.776a1.154,1.154,0,0,0,1.1.837c.5,0,.891.052,1.281-.338A1.154,1.154,0,0,0,71.456,41.663ZM68.733,40.59H71.5v-.837H68.733Zm1.925-4.9v2.049a.537.537,0,1,1-1.073,0V35.687A1.3,1.3,0,0,1,68.82,34.5a.537.537,0,1,1,1.073,0,.228.228,0,0,0,.457,0,.537.537,0,1,1,1.073,0A1.3,1.3,0,0,1,70.658,35.687ZM58.324,46.311a.535.535,0,1,1,.73-.784,6.241,6.241,0,0,1,2,4.579.537.537,0,1,1-1.073,0,5.151,5.151,0,0,0-1.655-3.795Zm-8.695,3.795a.537.537,0,0,1-1.073,0,6.241,6.241,0,0,1,2-4.579.535.535,0,0,1,.729.784A5.15,5.15,0,0,0,49.629,50.105Zm3.648-4.948a.535.535,0,1,1-.314-1.023,6.241,6.241,0,0,1,3.683,0,.535.535,0,0,1-.314,1.023A5.237,5.237,0,0,0,53.277,45.158Zm6.295-1.027a7.561,7.561,0,0,1,2.805,5.885.537.537,0,1,0,1.073,0,8.623,8.623,0,0,0-3.2-6.715.535.535,0,0,0-.675.83Zm-12.34,5.885a7.56,7.56,0,0,1,2.805-5.885.535.535,0,0,0-.675-.83,8.623,8.623,0,0,0-3.2,6.715.537.537,0,1,0,1.073,0Zm4.858-7.074a.534.534,0,1,1-.382-1,8.634,8.634,0,0,1,6.191,0,.534.534,0,1,1-.382,1A7.623,7.623,0,0,0,52.09,42.942ZM41.046,37.427a2.3,2.3,0,1,0,0,3.247A2.3,2.3,0,0,0,41.046,37.427Zm-4.51,3.364a3.371,3.371,0,0,1,0-3.48,7.225,7.225,0,0,0-2.43,1.74A7.223,7.223,0,0,0,36.537,40.79Zm5.772-3.48a3.371,3.371,0,0,1,0,3.48,7.225,7.225,0,0,0,2.43-1.74A7.227,7.227,0,0,0,42.309,37.311Zm-3.423,6.345a.537.537,0,1,1,1.073,0v4.892h5.106a.537.537,0,1,1,0,1.073H39.423a.537.537,0,0,1-.537-.537V43.655Zm0-12.124a.537.537,0,1,1,1.073,0v2.914a.537.537,0,1,1-1.073,0Zm-2.438,11.6a.534.534,0,0,1,.926.532l-1.248,2.161A.534.534,0,1,1,35.2,45.3Zm6.271-10.862a.534.534,0,1,1,.926.532L42.4,34.967a.534.534,0,1,1-.926-.532Zm-9.2,9.567a.534.534,0,1,1,.532.926l-.877.507a.534.534,0,0,1-.532-.926Zm12.143-7.012a.535.535,0,1,1,.537.927l-.877.507a.535.535,0,0,1-.537-.927Zm-11.611.507a.534.534,0,1,1-.532.926l-.878-.507a.534.534,0,0,1,.532-.926ZM46.2,42.347a.534.534,0,0,1-.532.926l-.877-.507a.534.534,0,0,1,.532-.926Zm-8.826-7.912a.534.534,0,0,1-.926.532L35.2,32.805a.534.534,0,1,1,.926-.532ZM43.645,45.3,42.4,43.134a.534.534,0,0,0-.926.532l1.248,2.161a.534.534,0,0,0,.926-.532Zm26.021-.575a.537.537,0,0,1,1.073,0v4.363a.537.537,0,0,1-.537.537H64.56a.537.537,0,1,1,0-1.073h5.106ZM49.759,61.888l-1.145-.661h0a2.124,2.124,0,0,0-2.123,3.68l3.367,1.944.037.021,7.082,4.089h0a2.124,2.124,0,0,0,2.123-3.68Z" transform="translate(157.623 3470.005)" fill="#fff" fill-rule="evenodd"/>
  </g>
</svg>
