<svg xmlns="http://www.w3.org/2000/svg" width="32" height="32" viewBox="0 0 32 32">
  <g id="Grupo_1075590" data-name="Grupo 1075590" transform="translate(-675.37 -3200.095)">
    <g id="g13260" transform="translate(676.37 3201.095)">
      <g id="g13262" transform="translate(0 0)">
        <g id="Grupo_1075588" data-name="Grupo 1075588">
          <g id="g13270" transform="translate(0)">
            <path id="path13272" d="M-211.27-105.636a15,15,0,0,1-15,15,15,15,0,0,1-15-15,15,15,0,0,1,15-15,15,15,0,0,1,15,15" transform="translate(241.27 120.636)" fill="#fe646f"/>
          </g>
          <g id="g13274">
            <path id="path13276" d="M-49.061-105.636a15.005,15.005,0,0,1,11.517-14.593,15.037,15.037,0,0,0-3.483-.408,15,15,0,0,0-15,15,15,15,0,0,0,15,15,15.046,15.046,0,0,0,3.483-.408,15.006,15.006,0,0,1-11.517-14.593" transform="translate(56.028 120.636)" fill="#fb2b3a"/>
          </g>
          <g id="g13278" transform="translate(0 0)">
            <path id="path13280" d="M-162.378-16.521a14.929,14.929,0,0,0-8.057-2.346,15,15,0,0,0-15,15,15,15,0,0,0,15,15,15,15,0,0,0,15-15,14.93,14.93,0,0,0-2.743-8.648" transform="translate(185.436 18.867)" fill="none" stroke="#000" stroke-linecap="round" stroke-linejoin="round" stroke-miterlimit="10" stroke-width="2"/>
          </g>
          <g id="g13282" transform="translate(9.095 9.095)">
            <path id="path13284" d="M-83.166,0-94.976,11.809" transform="translate(94.976)" fill="none" stroke="#000" stroke-linecap="round" stroke-linejoin="round" stroke-miterlimit="10" stroke-width="2"/>
          </g>
          <g id="g13286" transform="translate(9.095 9.095)">
            <path id="path13288" d="M0,0,11.809,11.809" fill="none" stroke="#000" stroke-linecap="round" stroke-linejoin="round" stroke-miterlimit="10" stroke-width="2"/>
          </g>
        </g>
      </g>
    </g>
  </g>
</svg>
