<svg xmlns="http://www.w3.org/2000/svg" width="60" height="60" viewBox="0 0 60 60">
  <g id="Grupo_1078851" data-name="Grupo 1078851" transform="translate(-180 -3571)">
    <circle id="Elipse_10108" data-name="Elipse 10108" cx="30" cy="30" r="30" transform="translate(180 3571)" fill="#1682fb"/>
    <path id="gamification" d="M57.526,52.642a5.483,5.483,0,1,0-5.481-5.483A5.483,5.483,0,0,0,57.526,52.642ZM52.364,72.634a6.15,6.15,0,0,1-5.112.217l.564,1.742c.379,1.17,1.351,3.212,2.555,2.236a4.118,4.118,0,0,0,1.1-1.777Zm15.439.217a6.15,6.15,0,0,1-5.112-.217l.9,2.418c.338.912.98,2.07,1.763,2.037.849-.036,1.545-1.435,1.889-2.5ZM51.962,66.467a.549.549,0,1,1,0,1.1H49.772v2.189a.549.549,0,1,1-1.1,0V67.565H46.484a.549.549,0,1,1,0-1.1h2.189V64.278a.549.549,0,0,1,1.1,0v2.189Zm14.808-.514a1.289,1.289,0,1,0,0,1.823A1.291,1.291,0,0,0,66.769,65.953Zm-.362-1.413a2.392,2.392,0,0,1,1.775,1.775H68.6a.549.549,0,0,1,0,1.1h-.414a2.391,2.391,0,0,1-1.775,1.775V69.6a.549.549,0,1,1-1.1,0v-.415a2.391,2.391,0,0,1-1.775-1.775h-.414a.549.549,0,1,1,0-1.1h.414a2.391,2.391,0,0,1,1.775-1.775v-.414a.549.549,0,1,1,1.1,0Zm-8.194,1.927a.549.549,0,1,1,0,1.1H56.843a.549.549,0,1,1,0-1.1ZM76.968,36.991h-9.48a.565.565,0,0,0-.562.562V45.4a.565.565,0,0,0,.562.562h1.8v0a.547.547,0,0,1,.547.545l.012,2.361,2.7-2.716a.548.548,0,0,1,.417-.192h4a.565.565,0,0,0,.562-.562V37.553A.564.564,0,0,0,76.968,36.991Zm-29.4,0h-9.48a.565.565,0,0,0-.562.562V45.4a.565.565,0,0,0,.562.562h4a.548.548,0,0,1,.417.192l2.7,2.716.012-2.361a.547.547,0,0,1,.547-.545v0h1.8a.565.565,0,0,0,.562-.562V37.553A.565.565,0,0,0,47.572,36.991ZM62.783,62.884A5.052,5.052,0,1,1,61.062,69.6a.547.547,0,0,0-.479-.281v0H54.472a.549.549,0,0,0-.5.321,5.083,5.083,0,0,1-.832,1.091,5,5,0,0,1-1.006.778,5.052,5.052,0,1,1,1.859-6.805.547.547,0,0,0,.479.281v0h6.112a.549.549,0,0,0,.5-.321,5.081,5.081,0,0,1,1.622-1.735A.56.56,0,0,0,62.783,62.884ZM52.178,60.165a.549.549,0,1,1,1.1,0v2.084a6.18,6.18,0,0,1,1.507,1.642h5.49a6.178,6.178,0,0,1,1.625-1.73v-2a.549.549,0,1,1,1.1,0v1.367a6.122,6.122,0,0,1,2.757-.519V59.894A6.173,6.173,0,0,0,59.6,53.741H55.456A6.173,6.173,0,0,0,49.3,59.894v1.119a6.12,6.12,0,0,1,2.875.573ZM72.5,40.5a.766.766,0,0,0,.737.536l.889,0-.72.521a.773.773,0,0,0-.282.867l.277.846-.719-.524a.76.76,0,0,0-.91,0l-.719.524.277-.846a.771.771,0,0,0-.282-.867l-.72-.521.889,0a.765.765,0,0,0,.737-.536l.273-.845Zm.464-2.129.507,1.57,1.652,0a.774.774,0,0,1,.455,1.4l-1.337.968.513,1.569a.774.774,0,0,1-1.191.864l-1.334-.973-1.334.973a.774.774,0,0,1-1.191-.864l.513-1.569-1.337-.968a.774.774,0,0,1,.455-1.4l1.652,0,.507-1.57a.774.774,0,0,1,1.473,0Zm-29.13.362v2.686a1,1,0,0,1-2,.139l-.01-2.825h2.005Zm-3.1,2.357h-.416V39.974h.416Zm4.2-1.115h.416v1.115h-.416ZM43.692,44.14a.549.549,0,0,1,0,1.1h-1.72a.549.549,0,1,1,0-1.1h.311v-.695a2.115,2.115,0,0,1-1.405-1.258h-.665a1,1,0,0,1-1-1v-1.32a1,1,0,0,1,1-1h.518v-.692a.549.549,0,0,1,.549-.549h3.1a.549.549,0,0,1,.549.549v.692c.482,0,.869-.061,1.222.292a.993.993,0,0,1,.292.7v1.32a1,1,0,0,1-1,1h-.665a2.115,2.115,0,0,1-1.405,1.258v.695Zm.159,8.839a.549.549,0,1,1,0-1.1h3.982a.549.549,0,1,1,0,1.1Zm23.124,0a.549.549,0,0,1,0-1.1h3.982a.549.549,0,0,1,0,1.1Z" transform="translate(152.47 3545.911)" fill="#fff" fill-rule="evenodd"/>
  </g>
</svg>
