<svg xmlns="http://www.w3.org/2000/svg" width="295" height="206.497" viewBox="0 0 295 206.497">
  <g id="g1350" transform="translate(-0.7 0.02)">
    <rect id="rect149" width="295" height="206.497" transform="translate(295.7 206.477) rotate(180)" fill="#69f"/>
    <g id="g1288" transform="translate(76.031 38.543)">
      <g id="g867" transform="translate(13.993)">
        <g id="g728" transform="translate(5.622)">
          <rect id="rect582" width="1.617" height="40.606" transform="translate(52.113 65.459)" fill="#fff"/>
          <rect id="rect589" width="1.617" height="40.606" transform="translate(44.111 61.47) rotate(45.044)" fill="#fff"/>
          <rect id="rect590" width="1.617" height="40.606" transform="translate(41.473 52.849) rotate(90)" fill="#fff"/>
          <rect id="rect591" width="1.617" height="40.606" transform="translate(45.217 45.187) rotate(135.01)" fill="#fff"/>
          <rect id="rect592" width="1.617" height="40.606" transform="translate(53.867 41.839) rotate(-179.95)" fill="#fff"/>
          <rect id="rect593" width="1.617" height="40.606" transform="translate(62.62 45.718) rotate(-134.923)" fill="#fff"/>
          <rect id="rect594" width="1.617" height="40.606" transform="translate(65.637 54.961) rotate(-90)" fill="#fff"/>
          <rect id="rect595" width="1.617" height="40.606" transform="translate(61.067 63.021) rotate(-45.048)" fill="#fff"/>
          <path id="path598" d="M415.325,142.345a53.69,53.69,0,1,1-69.091,31.493,53.712,53.712,0,0,1,69.091-31.493Zm-.683,1.826a51.741,51.741,0,1,1-66.582,30.349,51.762,51.762,0,0,1,66.582-30.349Z" transform="translate(-342.826 -138.936)" fill="#fff" fill-rule="evenodd"/>
          <path id="path603" d="M438.849,179.3a43.253,43.253,0,1,1-55.659,25.371A43.27,43.27,0,0,1,438.849,179.3Zm-.655,1.754a41.38,41.38,0,1,1-53.25,24.272A41.395,41.395,0,0,1,438.194,181.054Z" transform="translate(-370.004 -166.114)" fill="#fff" fill-rule="evenodd"/>
          <path id="path606" d="M461.185,214.388a33.343,33.343,0,1,1-42.907,19.557A33.356,33.356,0,0,1,461.185,214.388Zm-.66,1.765a31.459,31.459,0,1,1-40.484,18.452A31.471,31.471,0,0,1,460.525,216.153Z" transform="translate(-395.809 -191.919)" fill="#fff" fill-rule="evenodd"/>
          <path id="path609" d="M482.847,248.42a23.731,23.731,0,1,1-30.538,13.92A23.743,23.743,0,0,1,482.847,248.42Zm-.6,1.615a22.007,22.007,0,1,1-28.321,12.91,22.015,22.015,0,0,1,28.321-12.91Z" transform="translate(-420.838 -216.948)" fill="#fff" fill-rule="evenodd"/>
          <path id="path612" d="M507.216,286.7a12.918,12.918,0,1,1-16.623,7.576A12.921,12.921,0,0,1,507.216,286.7Zm-.652,1.746a11.054,11.054,0,1,1-14.226,6.486A11.059,11.059,0,0,1,506.564,288.449Z" transform="translate(-448.992 -245.102)" fill="#fff" fill-rule="evenodd"/>
        </g>
        <path id="path727" d="M79.333,70.854c0,.279-.168.949-.057,1.117.111.226.616.226.838.168a3.411,3.411,0,0,0,1.626-1.454,1.617,1.617,0,0,0,.39-1.006l-.279-1.289c-.057-.448-.111-1.232-.559-1.454.054-.111.222-.279.222-.448-.054-.5-.9-.448-1.232-.111-.168.168-.168.559-.222.781a6.138,6.138,0,0,1-.5,1.737c-.222.39-.781.9-.838,1.343,0,.337.337.559.616.616ZM52.2,64.925l.111.333c0,.057.054.168.111.168.337.394.952-.39.337-.559-.057,0-.168-.057-.226,0A.684.684,0,0,0,52.2,64.925Zm.5-.784c-.279.222-.39.39,0,.616Zm-6.151-5.482c-.451.333-.394.111-.616.222-.168.111-.057.279-.226.5-.054.111-.222.168-.222.279-.057.168.111.279.279.333a2.512,2.512,0,0,0,1.117-.054c.226-.168.168-.39.279-.559l.226-.226c.057-.279-.5-.67-.838-.5Zm16.224-.283v.562l-.111.448a7.208,7.208,0,0,0,1.565-.394c.168-.054.5-.168.616-.054.168.111.054.279,0,.39a4.422,4.422,0,0,1-.673.784c-.5.448-1.174.448-1.79.9-.333.279-.448.559-.781.838a4.383,4.383,0,0,1-.727.448c-.168.168-.057.279-.394.448l.226-.39c-.168-.057-.394-.057-.5-.226a.752.752,0,0,1,0-.5,5.5,5.5,0,0,1,.5-1.457,4.545,4.545,0,0,1,.67-.222l-.111.337a1.677,1.677,0,0,0,.559-.057c.279-.057.616-.616.784-.838l-.784.222a4.057,4.057,0,0,1,.952-1.232Zm-15.049.337c-.168.5.165.337.333.559a.6.6,0,0,1,.115.448l-.448.057-.226.279-.279.279.727.279c-.39.115-.616.057-.9.394H48a2.877,2.877,0,0,0,1.676-.057l-.111-.111.226-.5-.394-.279-.111-.337-.616-.9-.222-.111c.222-.222.67-.616.111-.784l-.279-.054.279-.279a1,1,0,0,0-.9.111c-.337.337-.39.784.057,1.006Zm.448-7.215-.057.39L48,51.719l-.057.673c.057.39.5.279.616.165.111-.054.168-.279.168-.39a.434.434,0,0,0-.111-.279.5.5,0,0,0-.279-.057V51.5h-.168ZM2.125,50.935c-.112.841.112.841.224,1.568a3.961,3.961,0,0,0,.112,1.285c.112.337.168.673.5.838a8.578,8.578,0,0,0-.281-2.4,6.961,6.961,0,0,1-.448-1.289H2.125Zm77.544-2.349a.536.536,0,0,0-.394.559.37.37,0,0,0,.448.448C80.113,49.482,80.282,48.529,79.669,48.586ZM27.3,43.774c-.165.279-.222.562.057.784C27.357,44.279,27.468,44,27.3,43.774Zm16.338,1.737.168.165a6.6,6.6,0,0,0,.9-.9,2.082,2.082,0,0,1,.616-.39c.111-.111.111-.222.168-.39.111-.226.279-.279.279-.673.054-.337-.111-.838-.5-.781l-.057-.283a1.285,1.285,0,0,0-.612.168c-.168.115-.115.337-.337.5a2.477,2.477,0,0,1-.841.448c-.165.057-.111.222-.39.39-.39.226-.616.057-.838.111a3.615,3.615,0,0,0-.952.616,2.545,2.545,0,0,0-.616.952c-.054.111-.168.279-.111.39s.222.115.337.057c.222-.057.727-.279.9-.226.168,0,.222.115.337.168a3.613,3.613,0,0,1,.39.115c.111.054.222.222.337.333.279.168.612-.165.727-.39a.836.836,0,0,0,.111-.39Zm.784-4.254v.057l-.057-.057Zm.448.448c.111.337.616.727.9,1.006a.421.421,0,0,0,.222-.222c.168-.279.168-.838-.111-1.006a.637.637,0,0,0-.559,0A.593.593,0,0,0,45.2,41.2c-.39-.444-1.06.673-.333.5Zm-2.238-.949c.337.39.337.444.838.444-.111.337-.616.841-.952.562-.222-.168-.222-.394-.333-.448-.168-.115-.226.279-.337.39-.279.39-.67.337-.784,1.006l.226-.111c.168.448.616,0,.9-.111a1.27,1.27,0,0,0-.226.279.224.224,0,0,0,.279.279c.168-.057.394-.337.562-.448a1.228,1.228,0,0,1,.39-.168c.168-.111.39-.279.559-.39.5-.337.5-.111.727-.673,0-.111.057-.168.057-.279-.168-.5-1.006-.168-1.063-.222l-.337-.111c-.111-.057-.333,0-.5,0Zm2.571.111h-.279l.057.168c.337-.057.559-.057.616-.448C45.317,40.587,45.26,40.587,45.2,40.867Zm-17.566-.5-.39,1.232.054.559.115,1.121a4.969,4.969,0,0,0,.559-1.232l.111-.448a1.249,1.249,0,0,0,0-.784l-.39.279.057-.727h-.115Zm18.182.168c0-.337.057-.279.337-.226l.057-.559a2.172,2.172,0,0,0-.559.168c-.283.279-.283.559.165.616Zm-1.565-.9.168.226a1.417,1.417,0,0,1,.838.165l-.111-.222.168-.226c.337,0,.39-.279.279-.559-.057-.054-.168-.111-.226-.168-.559-.39-.67.115-.838.337l-.279.448Zm1.454-.057a.74.74,0,0,0,.337-.054.677.677,0,0,0,0-.841.227.227,0,0,0-.279.226l-.057.168v.5Zm-17.957-.222a1.875,1.875,0,0,0,.39-.9C27.751,38.629,27.751,38.965,27.751,39.356ZM30.1,35.943a3.054,3.054,0,0,1-.337,1.4A14.054,14.054,0,0,0,28.7,39.019l-.111-.168a2.056,2.056,0,0,0-.279,1.511,3.853,3.853,0,0,0,.67-1.006,10.824,10.824,0,0,0,1.289-2.181,2.282,2.282,0,0,0,.054-1.063c-.054-.115-.111-.115-.222-.168ZM80.4,41.93a6,6,0,0,0,.67-1.737c.394-1.174,1.006-1.679,1.006-3.187,0-.337-.054-1.01-.448-1.121-.616-.111-.448.727-.5.9a.811.811,0,0,1-.115.394,4.16,4.16,0,0,0-.333,1.844l-.337,2.016.057.9ZM72.451,31.579c0,.111.057.168.111.279l.168.168c.337.222.559-.111.448-.337-.057-.111-.279-.168-.39-.168a.691.691,0,0,0-.337.057Zm8.393-.226a6.262,6.262,0,0,0,.279,1.79l.39.952.39,1.79c.337-.337.226-.784.168-1.174-.168-.784-.448-1.568-.67-2.3a3.27,3.27,0,0,0-.559-1.063Zm-2.965-1.174-.115.616-.727-.337a1.968,1.968,0,0,0,.337,1.346l.559.5a16,16,0,0,1,1.285,1.454,4.409,4.409,0,0,1,.451.9c.111.115.222.226.39.168.111-.054.168-.333.222-.448l.226-.337a1.624,1.624,0,0,0-.168-1.006l-.279-.838a3.509,3.509,0,0,0-.39-1.063,2.209,2.209,0,0,0-1.178-.616l-.612-.337Zm-15.5-.616c-.054.226-.111.562-.39.616a.779.779,0,0,1-.337-.111l-.279.616a2.4,2.4,0,0,0-.337.784c-.054.279.337.279.562.054.222-.168.279-.448.448-.67.279-.448.727-.616.838-1.174ZM79.78,29a3.238,3.238,0,0,0,.448,1.01c.111.279.054.444.39.39A8.618,8.618,0,0,0,79.78,29Zm-23.553.9c-.616-.111-.283.616-.394.9-.168.279-.838.673-1.117.448a.763.763,0,0,1-.5,0c-.168-.054-.279-.168-.448-.168l-.949.562a1.188,1.188,0,0,1-.616.222.759.759,0,0,0-.5.111c-.168.115-.057.448,0,.616l.226.394c-.562.111-.562.5-.562,1.006a12.859,12.859,0,0,0,.057,1.511,1.124,1.124,0,0,0,.67.67,1.248,1.248,0,0,0,.616.168l.115-.67h.165l.115.559h.222l.673.222c.054.057.054.057.111.115.054.165-.111.448-.111.616.054.39.448.5.781.5-.054.448,0,.337-.054.616,0,.279-.168.279.111.9.057.111.168.39.337.39s.559-.39.949-.559c.057.279.057.337.283.5l-.115.279.673-.337c-.279.838-.616.616-1.063,1.121-.168.279-.111.559-.226.838l.057.057.222-.115.168-.054c.5-.057.057.5.057.616,0,.165.111.222.226.279l-.283.168.115.39h-1.01a3.577,3.577,0,0,0-1.4.673v.111l.168.054L52.98,44a2.745,2.745,0,0,0,.952,0c.279-.057.222,0,.559-.057l.168.111-.054.226,1.174.5c.279.115.5,0,.67.115.226.168.111.448.5.559.448.168.838-.057,1.232-.111l-.5.448.168.39.559-.111c-.448.39-.39.057-1.174.057.168.111.67.39.784.444.279.115.448,0,.838.168.337.115.727.394.9-.111a1.19,1.19,0,0,0,.168.279,1.347,1.347,0,0,0,.448.168c.222.057.727.448.67.727-.054.057-.111.115-.165.168a2.086,2.086,0,0,0-.226-.5c-.279-.39-.784-.279-1.174-.39l-.784-.279-.616-.111c-.337-.057-.5-.279-.838-.279-.111,0-.279.054-.279.165a.474.474,0,0,0,.168.283,4.144,4.144,0,0,1,.727.448c.279.222.39.165.67.279l.279.168c.226.054.283-.057.5,0a1.285,1.285,0,0,1,.448.111l-1.006.337-.727-.168c.111.333.168.39-.115.67l-.111-.222c-.168.168-.168.279-.337.448l-.279.279c-.054.111-.222.279-.337.279-.165,0-.333-.226-.444-.337a.607.607,0,0,0-.616-.111c.165.337.279.279.559.448a7.721,7.721,0,0,1,.952.952c-.057,0-.115,0-.168.111-.115.111-.057.616.054.784a.52.52,0,0,0,.394.168l-.73.559c.283.111.394.054.616.279H56.9l-.67-.616-.727-.39a2.08,2.08,0,0,0,1.006,0c.5-.226.333-.784,0-1.121a1.356,1.356,0,0,0-.673-.222,3.97,3.97,0,0,0-.784-.226l-.612.057.054-.168c-.168-.057-.222-.111-.39,0-.168-.168-.168-.226-.39-.279v.279l-.226-.279-.057.279c-.111-.226-.111-.279-.333-.394l.111.73-.111.165a1.394,1.394,0,0,0-.394,1.121,4.41,4.41,0,0,1-.279,1.343,4.432,4.432,0,0,1-.111,1.117,5.633,5.633,0,0,1-.448,1.01l-.279.279-.226.337c-.111.165-.279.279-.39.448-.111.222,0,.333.057.448.054.333-.168.222.165.727l-.222.222h.222c-.165.394.057.673.448.616a1.206,1.206,0,0,0,.727-.67h.115l.616,1.285c.111.168.111.448.333.5s.337-.168.448-.337c.115-.111.226-.168.337-.279.168-.279-.057-.727,0-1.01.057-.222.226-.333.279-.612,0-.394-.279-.5-.448-.727a1.1,1.1,0,0,1-.168-.73c0-.616.337-.781.448-1.285.057-.337-.111-.559-.111-.784,0-.168.057-.337.226-.337.39-.054.39.394.39.673l-.111.559a2.348,2.348,0,0,0-.168.673c.057.222.168.39.222.559.115.168.115.337.226.448a.574.574,0,0,0,.279.111.786.786,0,0,0,.337.115c.279-.057.616-.562.9-.73a.971.971,0,0,1,.559-.054,4.6,4.6,0,0,1-.5.559c-.222.111-.616.168-.67.5-.168.448.448.448.39.838-.054.279-.448-.111-.616.222-.222.337,0,.562.057.841a1.746,1.746,0,0,1-.168.5c-.279.39-.448.111-.784.279-.279.111-.616.5-.9.559-.222.057-.39-.111-.559-.111-.222,0-.448.333-.784,0-.333-.394.115-.562.057-.9l-.168-.562c-.337.168-.67.394-.616.841.115.39.448.727.226,1.006-.168.111-.5.111-.784.279-.337.168-.727.727-.838.784-.168.111-.337.111-.5.222l-.616.5c-.054.057-.054.057-.111.111L48.5,61.4v.39a1.427,1.427,0,0,1-.5-.054c-.168-.057-.5-.111-.616.111-.111.168.337.337.448.394a.961.961,0,0,1,.39,1.454c-.222.168-.559,0-.781-.057-.5-.111-1.289-.39-1.79-.448-.673,0-.5.448-.673.784-.057.222-.279.337-.337.5a.216.216,0,0,0-.054.168c0-.054.111.673.111.616.057.226.448.226.67.279.283.115.337.283.562.448.222.115.333.057.559,0a3.105,3.105,0,0,0,1.733-.054.734.734,0,0,0,.394-.279c.165-.168.111-.337.333-.5a9.228,9.228,0,0,1,1.063-.448c.226-.168.115-.5.5-.616.279-.054.559.168.949.057.337-.057.73-.394,1.063-.448.337,0,.5.39.952.559l1.79.559a.425.425,0,0,1,.226.115c.444.444-.283.559-.562.612a1.5,1.5,0,0,1-.5.057c.054.057.054.111.111.168a1.281,1.281,0,0,0,1.006.057.482.482,0,0,0,.111-.394.552.552,0,0,0,.448-.337c0-.165-.054-.333.115-.448a.749.749,0,0,1,.5-.111c-.222-.337-.448-.222-.784-.279-.165-.057-.222-.168-.39-.222-.168,0-.337.111-.559,0-.168-.057-.337-.226-.5-.283-.168-.111-.616-.222-.559-.5.057-.111.111-.168.222-.168a.207.207,0,0,1,.168-.057l.057.226c.616-.168.39.111.9.222.448.168,1.006.057,1.454.279.279.115.168.283.394.562.279.279.727.222,1.117.222-.054.057-.111.057-.111.111a.215.215,0,0,0,.111.337c.39.279,1.063-.168.559-.448l.9-.337c-.39-.222-.612-.054-1.117-.448a.672.672,0,0,0,.559-.168l.057-.222.949-.39c-.333.448,0,.333.057.838.279,0,.616.111.9.111a5.03,5.03,0,0,0,1.006-.337c.168-.111.226-.279.394-.39l.67-.222a3.893,3.893,0,0,0,.727-.616c.111-.111.226-.226.394-.168.222.111.222.67.222.9a1.934,1.934,0,0,1,.111.559c-.111.727-.9.784-1.4,1.121-.337.222-.616.612-.952.727a9.53,9.53,0,0,1-2.238.727l-1.174.111a1.5,1.5,0,0,0-.727.559c-.111.226,0,.5-.279.616a5.656,5.656,0,0,1-1.679.115c-.448-.115-.279-.226-.952-.226a7.237,7.237,0,0,1-1.9-.111,1.827,1.827,0,0,0,.394-.5c.054-.111,0-.168,0-.279a.335.335,0,0,0-.057-.226c-.111-.165-.559-.165-.727-.165a3.358,3.358,0,0,1-.952.165l-2.07.057a17.9,17.9,0,0,0-2.238.337,4.257,4.257,0,0,1-1.174-.226c-.226-.111-.448-.333-.727-.222-.279.054-.394.279-.727.39a7.013,7.013,0,0,0-1.343.337c-.394.222-.226.448-.673.616a8.826,8.826,0,0,1-1.232,0,3.473,3.473,0,0,0-1.507.337l-.616.165c-.226.057-.673.115-.784.283s0,.39,0,.559a1.707,1.707,0,0,1-.111.5c-.337.39-1.121.67-1.063,1.285.054.39.279.448.67.838a17.527,17.527,0,0,0,1.4,1.959,8.615,8.615,0,0,0,2.739,1.679l1.679.222a18.423,18.423,0,0,0,2.517.5l2.127-.168a5.046,5.046,0,0,1,1.568.111c.448.168.5.5,1.343.5l1.174-.057a.973.973,0,0,1,.784.057c.67.448-.616,1.063-.115,1.565a7.172,7.172,0,0,0,1.679.616,3.9,3.9,0,0,1,1.285.841c.115.111.115.222.226.39s.39.279.39.448-.39.448-.5.559c-.337.283-1.01,1.01-.73,1.511a2.563,2.563,0,0,0,.616.448l1.568.616c.67.337.67.9,1.063,1.232a2.643,2.643,0,0,0,1.174.279l1.622.559c.559.226.279.559.727.673a6.674,6.674,0,0,0,3.359-1.01l1.676-.67a19.678,19.678,0,0,0,1.9-.952,8.367,8.367,0,0,0,2.854-2.907,11.738,11.738,0,0,0,.9-1.343c.111-.337-.226-.559-.057-.838.222-.394,1.006-.9,1.232-1.346a.6.6,0,0,0-.057-.781c-.222-.115-.39,0-.838-.168a15.663,15.663,0,0,1,1.79-2.517,3.631,3.631,0,0,0,.838-1.4c.057-.5-.39-.559-.559-.784-.168-.165-.115-.279-.226-.333-.222-.115-.616.054-.838,0a.847.847,0,0,1-.39-.168c-.168-.115-.394-.057-.562-.057-.168-.784.5-2.127.841-2.854.67-1.565,1.511-3.133,1.454-4.866l-.111-1.343c-.057-.168-.168-.39-.394-.337-.333.057-.727,1.006-.9,1.285l-.9,1.289a5.351,5.351,0,0,1-.67.9,3.782,3.782,0,0,1-.841.39c-.054-.279-.222-.222-.448-.168l-1.06.448a2.825,2.825,0,0,1-.952.394c-.226,0-.337-.168-.673-.111a3.831,3.831,0,0,1-.781.054c-.226-.054-.448-.279-.673-.337a1.382,1.382,0,0,0-.67.057,8.351,8.351,0,0,1-1.959-.5c.111-.054.222-.054.222-.165.115-.283-.279-.784.279-.9h.226l.949.054.562-.054c.279.054.333.222.727.222l1.4-.222c.562,0,.73.559,1.346.222A4.821,4.821,0,0,0,72,62.4l.616-1.174.279-.838a3.266,3.266,0,0,0,.5-1.622V57.706c0-.448-.057-.784-.562-.394-.39.337-.559.73-1.117.616-.226.673-.226,1.568-.952,1.9-.279.165-.559.054-.838.111-.168.054-.394.168-.5.111a.263.263,0,0,1-.279-.279c.057-.222.448-.337.616-.39a2.4,2.4,0,0,0,1.285-.673c.279-.337.337-.616.562-.9.222-.222.39-.168.612-.39.168-.168.5-.727.673-.952l.9-1.959c.39-.559.949-.616,1.174-1.343l.057.279c.612-.222.67-.781.612-1.343a10.146,10.146,0,0,0,1.289.057l1.343-.67c.337-.168.9-.5,1.006-.841A2.17,2.17,0,0,0,79,49.482a.454.454,0,0,0-.222-.226c-.283-.111-.673-.054-.841-.444a15.867,15.867,0,0,1-.559-1.9,5.763,5.763,0,0,0-.559-1.4,2.1,2.1,0,0,1-.057-.841,4.76,4.76,0,0,1-.168-.5c0-.226.168-.337.337-.5.279-.39.279-.727.559-.952.226-.165.394-.054.5-.222.39-.448-.394-.9-.057-1.4.168-.222.616-.616.9-.616.226-.054.39.057.616,0,.226-.111.279-.5.39-.727.279-.559.616-.5.784-1.285a1.615,1.615,0,0,0,0-.9c-.222-.337-.616-.111-.727.111a1.592,1.592,0,0,0-.222,1.006,2.445,2.445,0,0,1-.394,1.063c-.279.394-.727.057-.838-.168-.057-.111,0-.222,0-.333a3.913,3.913,0,0,1,.111-1.121c.057-.222.337-.838.279-.949a4.256,4.256,0,0,0-.559-.952c-.226-.279-.616-.9-1.063-.673-.39.168-.39.9-.5,1.289-.054.168-.168.5-.333.5-.115.057-.279-.111-.394-.222a1.434,1.434,0,0,1-.448-1.063c.168.057.616.226.673,0,0-.226-.226-.616-.448-.616-.226-.054-.279.168-.559-.054-.226-.226-.673-1.178-.9-1.511a3.787,3.787,0,0,0-1.178-1.121c-.279-.111-1.174-.559-1.454-.39-.111.054-.111.222-.168.337a.283.283,0,0,0-.222-.115c-.394-.111-.559.337-.616.616,0,.111,0,.337-.168.394s-.279-.057-.39-.168a1.924,1.924,0,0,0-.673-.448,3.075,3.075,0,0,0,.226.67c.279.448.5.448.39,1.006a3.291,3.291,0,0,1-1.232-.9l.448-.111v-.111c-.168-.111-.727-.616-.727-.838,0-.168.226-.168.226-.337.054-.168-.115-.279,0-.5.168-.168.5-.279.5-.5a.374.374,0,0,0-.222-.279c-.226-.165-.616-.5-.9-.279-.226.168-.111.559-.279,1.063-.168-.054-.448-.222-.616-.279-.226-.057-.5.057-.784-.111-.39-.168-.5-.5-.838-.673a2.846,2.846,0,0,0-1.79-.168,3.045,3.045,0,0,0-1.01.115,1.167,1.167,0,0,0-.448.448c-.279.279-.781.39-.781.838.054.39.39.448.5.559l.279.727a4.442,4.442,0,0,1-.9-.054l-1.343.168c-.67-.057-.838-.448-1.228-.673a5.765,5.765,0,0,1-.562-.222c-.165-.168-.165-.337-.222-.394-.111-.168-.673-.279-.838-.279a.3.3,0,0,1-.115.279,1.469,1.469,0,0,1-.838.394.5.5,0,0,1-.394-.057L56,32.248c.057-.279-.111-.279-.337-.222a2.464,2.464,0,0,0-.838.448,3.3,3.3,0,0,1,.39-.559A3.3,3.3,0,0,1,56,31.579l.9-.448a7.815,7.815,0,0,0,.727-.337,2.8,2.8,0,0,0,.673-2.127,5.726,5.726,0,0,0-1.289.616,2.28,2.28,0,0,1-.5.168.751.751,0,0,0-.279.448Zm6.1-1.51.5.446.337.784c.337-.111.394-.222.616-.279.111-.057.784.168.673-.279-.057-.057-.115-.111-.168-.168l-.057.168a2.637,2.637,0,0,0-.616-.5A4.788,4.788,0,0,0,62.325,28.39Zm1.844.446c.784,0,.673-.222,1.121-.222a1.872,1.872,0,0,1,.784.111l-.057.226c.448.222.448-.057.784.054.337.168.5.616,1.063.841.222.111.333.168.559.054.111.226.168.226.39.226.057-.279.226-.337.168-.5s-.616-.448-.727.111c-.168-.279-.057-.333-.111-.5a.806.806,0,0,0-.841-.279c-.054-.561,0-.394-.727-.841a3.384,3.384,0,0,0-1.006-.5c-.337-.056-.448.168-.727.28-.168.168-.337.112-.5.223a1.084,1.084,0,0,0-.168.726Zm11.973-1.4.616.839a8.036,8.036,0,0,0,.727,1.12,1.068,1.068,0,0,0,.9.333c.226-.054.952-.67.448-1.006-.168-.111-.448,0-.616,0a2.969,2.969,0,0,0,0-1.006c0-.112,0-.336-.222-.28-.279.112-.057.951-.448.671L77.374,28l-.168-.168c-.222.224,0,.336.168.56a1.071,1.071,0,0,1,.39.783c-.559-.448-.559-.783-.9-1.286-.222-.28-.39-.448-.727-.448Zm2.463-.336a2.957,2.957,0,0,0,1.006,1.454C79.387,28.054,79.107,27.327,78.606,27.1Zm-41.459.392h.5l1.4.559c.39.112.781.168,1.006.56-.727,0-.559-.111-1.121-.28a7.485,7.485,0,0,0-1.06-.056,5.1,5.1,0,0,1-.5-.168l-1.511.112c-.39-.056-.448-.335-.67-.448a.592.592,0,0,0-.673,0,5.591,5.591,0,0,0-1.174.56,7.939,7.939,0,0,0-2.127,1.454c-.39.448-.337.727-.727,1.174a19.393,19.393,0,0,0-1.844,1.4c-.451.5-.451.838-.616,1.006a5.907,5.907,0,0,1-1.01.5,4.536,4.536,0,0,0-.448.111,1.469,1.469,0,0,0-.39.448l-.616.559a9.013,9.013,0,0,0-.9,1.289c-.057.39.559.612.168,1.117l-.168.168c-.39.222-.448-.168-.727-.226-.337-.111-.9.279-1.174,0-.168-.222-.057-.5-.057-.727-.054-.279-.168-.39-.222-.616-.111-.279.054-.781-.279-1.343-.168-.333-.394-.448-.616-.054l-.168.333c-.168-.5,0-.9-.394-1.006-.5-.111-.727.5-1.06.841a5.177,5.177,0,0,1-1.568,1.117l-.838.727-.5.279a3.4,3.4,0,0,0-.67,1.063l-.784,2.184c-.168.448-.448,1.174-.952,1.285a2.078,2.078,0,0,1-.838-.057c-.168-.111-.279-.279-.448-.333a2.023,2.023,0,0,1-1.006-.226c-.226-.222-.5-.67-.727-.784a1.444,1.444,0,0,0-.673-.111,4.7,4.7,0,0,1-.9-.054c-.559-.226-.838-1.121-1.006-1.626a1.281,1.281,0,0,0-.337-.67c-.226-.226-.559.111-.838,0-.226-.057-.673-.616-.952-.784-.057-.057-.226-.222-.337-.168-.111,0-.168.226-.222.337a1.024,1.024,0,0,0,.279.9c.054.057.222.279.054.39-.279.168-.559-.727-.9-.333-.054.111-.054.168-.111.222H5.595l-.168-.949v-.394l-.279-.9-.5.394-.054-.5-.111-.39c-.057-.283-.283-.283-.5-.168-.448.279-.784.727-1.063.9-.336.168-.559,0-.783.054a1.331,1.331,0,0,0-.615.727L.839,39.13A9.814,9.814,0,0,0,0,43.158l.112,1.063.056,1.454.112.73H.392a9.079,9.079,0,0,1,.448-2.743c.28-.727.616-.838.727-1.733l.056.727c.336-.279.336-.5.783-.673a2.37,2.37,0,0,1,.224.673,3.963,3.963,0,0,0,.168.784A5.23,5.23,0,0,0,3.131,44a2.34,2.34,0,0,1,.226.67c.111.394.168,1.006.616,1.174A3.658,3.658,0,0,0,4.252,44.5c.057-.111.111-.448.226-.5.279-.057.333.448.333.616a5.6,5.6,0,0,0,.394,1.4c.222.5.448.448.727,1.232l.111-.279c.111.39-.111.67.279.952a5.253,5.253,0,0,1,.168-1.346c.057-.111.222-.111.337-.111l.054,1.9a1.342,1.342,0,0,0,.168.673c.279.337.673.111.784.39l.111,1.01a15.224,15.224,0,0,0,.5,2.292,5.032,5.032,0,0,0,.727,1.568c.111.168.279.39.5.333s.168-.333.222-.5c.057-.226.168-.279.226-.448.054-.279,0-.616.165-.841-.111.337,0,.394,0,.73a6,6,0,0,0,.168,1.4,7.7,7.7,0,0,0,.616,1.9A7.661,7.661,0,0,0,12.2,58.1a12.687,12.687,0,0,0,1.454,1.568l.673.559.559.448c.5.337.616-.168.949-.168a5.149,5.149,0,0,1,.9.727,7.373,7.373,0,0,1,1.121,1.511l1.285,1.679c.337.39.727,1.117,1.232,1.232l.5.111a3.934,3.934,0,0,0,1.79.337.71.71,0,0,0,.5-.226c.168-.168.279-.39.5-.39a7.088,7.088,0,0,1,.949.448,9.846,9.846,0,0,0,1.959,1.063.786.786,0,0,0,1.063-.73c-.111-.444-.727-.949-1.006-1.676a17.887,17.887,0,0,0-.784-1.848l-.781-1.174-.451-.9-.222-.39a2.384,2.384,0,0,1-.111-.673l-.448-1.622c-.226-.559-.784-.559-1.063-1.343a3.22,3.22,0,0,0,1.006.952,7.44,7.44,0,0,0-.616-1.568l-.5-.616a1.971,1.971,0,0,0,.9.616l.165-.448c.226-.448.394-.5.451-1.063.054-.949-.673-2.406-.673-3.581a7.273,7.273,0,0,1,.279-1.511l.111-.9c0-.168.115-.279.168-.5l.057-.616a2,2,0,0,0,.168-.784l-.168-.952.057-.67v-.9c0-.67.39-.952.5-1.4a1.724,1.724,0,0,0-.279-.949c-.168-.111-.559-.057-.39-.337s.612.279.727.448a1.716,1.716,0,0,0,.054-1.174l-.054-1.454c-.057-.394-.279-.616-.279-.784.054-.168.222-.168.448-.39a1.524,1.524,0,0,0,.39-.784l.111-.952a1.637,1.637,0,0,1,1.063-1.117c.5-.057.952.5,1.232.5s.448-.279.559-.448.838-1.79.838-1.79H29.2c.222.5.5.616.838,1.01l.279.39c.057.054.168,0,.279-.057a2.162,2.162,0,0,0,.448-1.4c-.054-.226-.279-.448-.333-.727a1.013,1.013,0,0,1,.222-.5,2.7,2.7,0,0,1,.559-.952,1.692,1.692,0,0,1,2.127,0c.279.279.226.448.337.616.168.226.448.226.5.559a2.382,2.382,0,0,1-.111.562,1.274,1.274,0,0,1-.111.781,6.371,6.371,0,0,0-.727.952c-.226.448.054.5-.057.9-.168.39-.5.673-.67,1.063-.168.222-.168.448-.448.616a1.884,1.884,0,0,1-.784.054,4.338,4.338,0,0,0-.9.337.7.7,0,0,0,.057.337c.054.337.333.337.616.279.444-.057,1.06-.337,1.454.057.337.39.337,1.454.616,1.844a1.68,1.68,0,0,0,.838.394,2.006,2.006,0,0,1,.559.39c.394.39.226.673.394.952.165.165.333.111.5.333l.673,1.4.616-.448c.165.226.39.226.448-.057a2.734,2.734,0,0,0-.115-.67,1.273,1.273,0,0,1,.283,1.174c0,.111-.057.222,0,.337a1.658,1.658,0,0,0,.39.838c.222.168.39.111.616,0a8.849,8.849,0,0,1,.727-1.117c.279-.279.784-.337,1.285-.841-.111-.054-.448-.222-.39-.39.111-.226.448-.226.67-.337a1.878,1.878,0,0,0,.727-1.006l-.67-.111-.39-.115H40l-.5-.448-.784-.111c.168-.279.279-.448.616-.448.168,0,.39.111.5.057.226-.057.226-.279.394-.394.337-.333.784-.39.9-.838.448.111.559,0,.784.057.448.222.5,1.063.67,1.507-.559-.222-.5.283-.559.673a5.108,5.108,0,0,1,.727-.448l.727.057a1.029,1.029,0,0,0,.394-.115c.39-.054.612.226.781.562.226-.115.226-.226.115-.448h.279l-.115-.448c-.279,0-.333-.057-.448.222a.807.807,0,0,0-.5-.222l.222-.168v-.111c-.448-.283.111-.394.226-.673a.459.459,0,0,0-.057-.39l.727-.226c.337-.337.562-.057.727-.448.562.168.448-.559.9-.67.115-.057.279,0,.394,0,.168-.057.337-.115.5-.168a1.878,1.878,0,0,0,.562-.057,2.844,2.844,0,0,0,.612-.559,2.541,2.541,0,0,0,.394-.39,2.178,2.178,0,0,0,0-.616.518.518,0,0,0,.559-.115c.168-.111.168-.333-.057-.448H49.4l.841-.612.222-.673-.222.057.111-.337h-.616l.559-.559c.279-.168.562-.115.73-.448a3.239,3.239,0,0,0-1.679.9l-.616.67.054-.222c-.559.111-.559.448-.781.559l-.115.057c.168,0-.949-.057-.781,0a1.875,1.875,0,0,1-.784-.562c-.168-.168-.279-.333-.5-.222l-.949-.9c.111-.111.168-.168.054-.279s-.39-.226-.616-.394c-.39-.39-.333-.727-.333-1.228a2.053,2.053,0,0,0-.168-.841,1.525,1.525,0,0,0-.168-.448,5.135,5.135,0,0,0-.559-.559A1.834,1.834,0,0,0,42.3,28.5c-.39-.113-.727.111-1.063,0-.279-.113-.616-.5-.949-.673a3.222,3.222,0,0,0-.73-.056c0-.112,0-.335-.111-.392-.168-.112-.5,0-.727,0s-.279-.168-.448-.224a2.277,2.277,0,0,0-1.063,0c-.111.056-.057.224-.057.336Zm40.228-2.238a3.827,3.827,0,0,0,1.79,1.622c-.168-.335-.337-.392-.559-.616A9.729,9.729,0,0,0,77.374,25.257Zm-4.2-2.63-.111-.28a1.118,1.118,0,0,1,.559.448,1.2,1.2,0,0,1,.057.448c0,.335.5,1.119.838,1.175.111.056.111,0,.222,0L74.578,23.3c-.115-.168-.279-.112-.448-.335l-1.01-1.455c-.054-.112-.279-.448-.222-.616a.831.831,0,0,1,.5-.112l-.952-1.063c-.111-.112-.279-.335-.5-.28s-.333.335-.448.5-.279.336-.279.5a2.614,2.614,0,0,0,.394.671l.9.9a1.755,1.755,0,0,0,.67.616ZM87.557,23.8a4.314,4.314,0,0,0-1.063-2.35l-.9-.9a19.809,19.809,0,0,0-1.174-1.734c-.562-.56-1.01-.727-1.511-1.175l-.841-.9-1.507-1.511a9.026,9.026,0,0,1-1.121-1.455c-.279-.5-.168-.671-.337-.9a1.8,1.8,0,0,0-.784-.448l.115-.223L78.044,12c.279-.448-.054-.335-.333-.783-.115-.168-.115-.392-.283-.727a4.548,4.548,0,0,0-1.06-1.007l-1.9-1.286A6.588,6.588,0,0,0,72.283,7.13c-.559-.056-.952.224-1.511.28-.5.056-1.565-.056-1.959.392-.39.392.394,1.231.673,1.566l.781.951a8.693,8.693,0,0,1,.5.783,5.919,5.919,0,0,1,.841.839c.165.28-.168.336.054.728a12.355,12.355,0,0,1,.727,1.119c.057.224.057.56.226.728.168.112.39,0,.559,0,.279-.056,1.121-.392,1.343-.224a12.164,12.164,0,0,1,1.117,1.286c.115.112.337.392.283.56,0,.28-.841-.112-.673.28.057.112.559.448.727.615l.616.671.727.671c.168.168.337.5.5.615.337.168.559-.224.838,0,.559.335.9,1.175,1.454,1.734a3.712,3.712,0,0,0,.841.391,7.1,7.1,0,0,1,.727.616c.448.28.5.112,1.006.615a20.285,20.285,0,0,1,1.79,2.07,4.523,4.523,0,0,0,1.063,1.007h.168l.67-.28a.056.056,0,0,0,.057-.056c.057-.168.057-.392.111-.56s.168-.223.226-.448c.057-.168.057-.5.222-.559s.448.224.562.28ZM75.584,8.193a1.7,1.7,0,0,0-.111-.5,2.289,2.289,0,0,0-1.121-1.063c-.168-.056-.67-.223-.784-.056-.165.224.394.671.562.783.168.168.39.28.559.448A2.592,2.592,0,0,0,75.584,8.193Zm-21.2-6.6a4.412,4.412,0,0,1,1.679.448,5.773,5.773,0,0,0,1.676.783l-.727-.951.5-.28a3.4,3.4,0,0,0-.559-.392c-.115-.112-.115-.224-.226-.335h-.5a8.38,8.38,0,0,0-1.01.224C54.885,1.144,54.437,1.2,54.38,1.591ZM57.9.36c-.111.28-.39.336-.67.5.057.056.057.112.111.168a8.722,8.722,0,0,0,1.285.391c.562.056.616-.28,1.289-.335l.838-.056A7.893,7.893,0,0,0,63.331.808c-.226-.391-.39-.391-.784-.559A3.333,3.333,0,0,0,60.589.081c-.612.112-.612.336-1.4.336L57.9.36ZM35.918,94.128C23.275,90.211,38.493,94.909,35.918,94.128Z" transform="translate(0 23.806) rotate(-13.683)" fill="#fff"/>
      </g>
      <g id="g1243" transform="translate(0 5.11)">
        <g id="g903" transform="translate(0 0)">
          <g id="g847" transform="translate(0)">
            <path id="path664" d="M345.072,157.35a15.891,15.891,0,0,0-7.533,7.809,17.24,17.24,0,0,0-1.457,4.209,24.448,24.448,0,0,1-2.132,6.2A23.692,23.692,0,0,1,338.179,171a19.024,19.024,0,0,0,3.426-3.443C343.16,165.2,345.044,162.456,345.072,157.35Z" transform="translate(-316.93 -157.35)" fill="#fff" fill-rule="evenodd"/>
            <g id="g718" transform="translate(19.295 88.906)">
              <path id="path705" d="M342.146,519.315c7.48-.207,14.679,1.427,18.528,2.278,2.277.68,3.865,1.033,6.651,1.927a116.714,116.714,0,0,0,11.663,2.955c-2.4-.11-8.813-.491-11.187-.377-2.37.052-4.2.117-6.576.229C355.707,526.463,347.52,524.188,342.146,519.315Z" transform="translate(-342.146 -507.757)" fill="#fff" fill-rule="evenodd"/>
              <path id="path704" d="M383.64,477.712c1.724,6.825,4.664,10.086,7.517,13.168a15.4,15.4,0,0,0,6.023,3.985c2.95,1.1,8.388,1.517,11.715,1.547-2.822-.719-6.556-1.745-8.563-3.18-1.958-1.357-3.44-3.545-4.728-5.227A32.394,32.394,0,0,0,383.64,477.712Z" transform="translate(-372.125 -477.712)" fill="#fff" fill-rule="evenodd"/>
            </g>
            <g id="g721" transform="translate(7.145 73.92)">
              <path id="path702" d="M298.367,452.225c6.058.693,11.544,4.814,14.856,6.864a24.238,24.238,0,0,1,4.89,4.354c1.782,2.023,5.677,5.557,7.917,7.64-2.652-1.134-6.476-3.666-8.372-4.691-1.917-1.1-4.274-1.9-6.037-2.766C308.059,461.814,301.956,458.412,298.367,452.225Z" transform="translate(-298.367 -444.312)" fill="#fff" fill-rule="evenodd"/>
              <path id="path701" d="M351.04,423.711c-.5,6.917.144,9.94,1.585,13.521.836,2.109,1.25,3.885,2.9,6.11a26.2,26.2,0,0,0,8.305,7.018,17.263,17.263,0,0,1-5.114-6.924,66.7,66.7,0,0,1-1.664-6.639A28.49,28.49,0,0,0,351.04,423.711Z" transform="translate(-336.302 -423.711)" fill="#fff" fill-rule="evenodd"/>
            </g>
            <g id="g724" transform="translate(1.428 56.411)">
              <path id="path699" d="M277.766,379.936c5.3,2.488,9.467,7.341,12.129,10.187a36.05,36.05,0,0,1,3.642,5.344c1.475,2.305,2.646,6.3,3.945,9.409a21.173,21.173,0,0,0-5.439-6.216c-1.672-1.442-3.748-3.087-5.222-4.383A29.436,29.436,0,0,1,277.766,379.936Z" transform="translate(-277.766 -374.576)" fill="#fff" fill-rule="evenodd"/>
              <path id="path698" d="M327.835,360.622c-2.93,6.142-2.307,10.49-2.091,14.475a20.559,20.559,0,0,0,2,7.194c1.164,2.8,2.6,5.567,4.123,8.432a27.853,27.853,0,0,1-1.715-7.609,42.878,42.878,0,0,1,.046-6.837C330.339,372.166,330.568,367.328,327.835,360.622Z" transform="translate(-312.279 -360.622)" fill="#fff" fill-rule="evenodd"/>
            </g>
            <g id="g727" transform="translate(0 41.168)">
              <path id="path696" d="M272.62,313.249c5.5,3.371,7.254,6.883,8.968,10.152a27.962,27.962,0,0,1,2.263,7.125c.623,2.849,1.228,6.276,2.005,9.39-1.433-2.477-2.508-5.431-3.871-7.385-1.148-1.77-2.617-4.272-3.69-5.811C276.159,323.56,273.59,319.873,272.62,313.249Z" transform="translate(-272.62 -311.152)" fill="#fff" fill-rule="evenodd"/>
              <path id="path695" d="M317.472,305.694c-4.392,4.608-5.146,9.168-6.008,12.723a22.839,22.839,0,0,0,.029,7.39c.51,2.547,1.441,5.579,2.151,8.51a33.933,33.933,0,0,1,.066-7.99,37.168,37.168,0,0,1,1.792-6.337C316.7,316.413,318.343,312.331,317.472,305.694Z" transform="translate(-300.475 -305.694)" fill="#fff" fill-rule="evenodd"/>
            </g>
            <g id="g733" transform="translate(7.368 6.159)">
              <path id="path676" d="M2.125,26.858C-.653,21.268,0,18.045.237,14.621a36.419,36.419,0,0,1,1.29-6.436C2.159,5.912,4.4,2.682,5.563,0A31.138,31.138,0,0,0,4.5,7.58a32.659,32.659,0,0,0,.152,6.006A23.549,23.549,0,0,1,2.125,26.858Z" transform="translate(9.729 26.767) rotate(175.291)" fill="#fff" fill-rule="evenodd"/>
              <path id="path674" d="M2.234,0C-.544,5.589-.041,9.859.191,13.281a17.235,17.235,0,0,0,1.72,6.072c1.094,2.157,3.039,4.488,4.563,6.809a21.909,21.909,0,0,1-2.113-6.879c-.166-1.683.187-4.552.141-6.3C4.372,9.238,4.709,5.339,2.234,0Z" transform="translate(19.885 5.067) rotate(49.472)" fill="#fff" fill-rule="evenodd"/>
            </g>
            <g id="g844" transform="translate(5.575 22.329)">
              <path id="path687" d="M293.457,237.809a31.18,31.18,0,0,1,4.328,13.539,42.762,42.762,0,0,1-.022,7.628c-.315,2.761-.556,5.724-.783,8.8-.373-2.73-.93-5.11-1.337-7.269-.254-1.4-1.21-4.518-1.57-6.613C293.295,250.156,291.807,244.614,293.457,237.809Z" transform="translate(-292.71 -237.809)" fill="#fff" fill-rule="evenodd"/>
              <path id="path684" d="M318.216,250.187c-5.247,3.605-7.469,8.874-8.73,12.307a26.989,26.989,0,0,0-1.309,5.838,56.064,56.064,0,0,0-.262,8.365c.252-2.72,1.283-4.469,1.988-6.447.756-1.944,2.886-4.8,4.163-7.312A36.585,36.585,0,0,0,318.216,250.187Z" transform="translate(-303.664 -246.752)" fill="#fff" fill-rule="evenodd"/>
            </g>
          </g>
          <g id="g883" transform="translate(146.629 107.624) rotate(180)">
            <path id="path884" d="M11.122,18.221a15.891,15.891,0,0,1-7.533-7.809A17.239,17.239,0,0,1,2.132,6.2,24.447,24.447,0,0,0,0,0,23.693,23.693,0,0,0,4.229,4.576,19.022,19.022,0,0,1,7.655,8.019C9.209,10.372,11.094,13.114,11.122,18.221Z" transform="translate(17.02 89.403)" fill="#fff" fill-rule="evenodd"/>
            <g id="g885" transform="translate(19.295)">
              <path id="path886" d="M0,7.16c7.48.207,14.679-1.427,18.528-2.278,2.277-.68,3.865-1.033,6.651-1.927A116.712,116.712,0,0,1,36.842,0c-2.4.11-8.813.491-11.187.377-2.37-.052-4.2-.117-6.576-.229C13.561.011,5.375,2.286,0,7.16Z" fill="#fff" fill-rule="evenodd"/>
              <path id="path887" d="M0,18.7C1.724,11.875,4.664,8.614,7.517,5.532A15.4,15.4,0,0,1,13.54,1.547C16.49.444,21.928.03,25.255,0,22.432.719,18.7,1.745,16.692,3.18c-1.958,1.357-3.44,3.545-4.728,5.227A32.394,32.394,0,0,1,0,18.7Z" transform="translate(11.515 0.018)" fill="#fff" fill-rule="evenodd"/>
            </g>
            <g id="g888" transform="translate(7.145 6.934)">
              <path id="path889" d="M0,18.857c6.058-.693,11.544-4.814,14.856-6.864a24.239,24.239,0,0,0,4.89-4.354C21.528,5.617,25.423,2.083,27.663,0c-2.652,1.134-6.476,3.666-8.372,4.691-1.917,1.1-4.274,1.9-6.037,2.766C9.691,9.269,3.588,12.67,0,18.857Z" fill="#fff" fill-rule="evenodd"/>
              <path id="path890" d="M.168,26.649c-.5-6.917.144-9.94,1.585-13.521.836-2.109,1.25-3.885,2.9-6.11A26.2,26.2,0,0,1,12.959,0,17.263,17.263,0,0,0,7.845,6.924a66.708,66.708,0,0,0-1.664,6.639A28.49,28.49,0,0,1,.168,26.649Z" transform="translate(14.571 0.122)" fill="#fff" fill-rule="evenodd"/>
            </g>
            <g id="g891" transform="translate(1.428 20.912)">
              <path id="path892" d="M0,24.94C5.3,22.452,9.467,17.6,12.129,14.753a36.05,36.05,0,0,0,3.642-5.344C17.246,7.1,18.418,3.107,19.716,0a21.172,21.172,0,0,1-5.439,6.216C12.6,7.659,10.529,9.3,9.054,10.6A29.436,29.436,0,0,0,0,24.94Z" fill="#fff" fill-rule="evenodd"/>
              <path id="path893" d="M2.3,30.1C-.632,23.959-.009,19.611.207,15.625a20.559,20.559,0,0,1,2-7.194C3.373,5.635,4.813,2.864,6.332,0A27.853,27.853,0,0,0,4.617,7.609a42.878,42.878,0,0,0,.046,6.837c.14,4.11.369,8.949-2.365,15.655Z" transform="translate(13.257 0.199)" fill="#fff" fill-rule="evenodd"/>
            </g>
            <g id="g894" transform="translate(0 37.692)">
              <path id="path895" d="M0,26.667C5.5,23.3,7.254,19.784,8.968,16.515A27.963,27.963,0,0,0,11.23,9.39c.623-2.849,1.228-6.276,2.005-9.39C11.8,2.477,10.727,5.431,9.365,7.385c-1.148,1.77-2.617,4.272-3.69,5.811C3.539,16.356.97,20.043,0,26.667Z" fill="#fff" fill-rule="evenodd"/>
              <path id="path896" d="M6.3,28.623C1.905,24.015,1.151,19.455.29,15.9A22.838,22.838,0,0,1,.318,8.51C.829,5.963,1.759,2.931,2.469,0a33.932,33.932,0,0,0,.066,7.99,37.17,37.17,0,0,0,1.792,6.337C5.528,17.9,7.169,21.986,6.3,28.623Z" transform="translate(10.7 0.141)" fill="#fff" fill-rule="evenodd"/>
            </g>
            <g id="g897" transform="translate(7.368 74.241)">
              <path id="path898" d="M2.125,0C-.653,5.589,0,8.813.237,12.237a36.419,36.419,0,0,0,1.29,6.436c.632,2.273,2.871,5.5,4.036,8.185A31.138,31.138,0,0,1,4.5,19.278a32.659,32.659,0,0,1,.152-6.006A23.549,23.549,0,0,0,2.125,0Z" transform="translate(7.524 27.224) rotate(-175.291)" fill="#fff" fill-rule="evenodd"/>
              <path id="path899" d="M2.234,26.161C-.544,20.572-.041,16.3.191,12.88a17.235,17.235,0,0,1,1.72-6.072C3.005,4.652,4.95,2.32,6.474,0A21.909,21.909,0,0,0,4.361,6.879c-.166,1.683.187,4.552.141,6.3-.13,3.74.207,7.639-2.268,12.978Z" transform="translate(0 5.156) rotate(-49.472)" fill="#fff" fill-rule="evenodd"/>
            </g>
            <g id="g900" transform="translate(5.575 55.33)">
              <path id="path901" d="M.747,29.966A31.18,31.18,0,0,0,5.075,16.426,42.762,42.762,0,0,0,5.053,8.8C4.738,6.037,4.5,3.075,4.27,0,3.9,2.73,3.34,5.11,2.933,7.269c-.254,1.4-1.21,4.518-1.57,6.613C.585,17.619-.9,23.161.747,29.966Z" fill="#fff" fill-rule="evenodd"/>
              <path id="path902" d="M10.345,26.51C5.1,22.9,2.876,17.635,1.615,14.2A26.988,26.988,0,0,1,.305,8.365,56.065,56.065,0,0,1,.043,0C.3,2.72,1.326,4.469,2.031,6.447c.756,1.944,2.886,4.8,4.163,7.312A36.586,36.586,0,0,1,10.345,26.51Z" transform="translate(4.207 0.021)" fill="#fff" fill-rule="evenodd"/>
            </g>
          </g>
        </g>
        <g id="g1240" transform="translate(34.805 109.482)">
          <path id="path679" d="M435.261,554.542c-4.193.142-3.916-2.47-11.892-2.684-3.069-.078-17.234,5.842-25.809,4.44.555,2.22,8.8,5.661,16.1,5.273,3.766-.2,14.764-7.332,19.149-4.163a41.432,41.432,0,0,0-11.1,6.66,25.448,25.448,0,0,0-6.938,9.713c2.22,0,4.44.833,6.66-.555,1.943-1.11,5.462-12.186,13.87-14.245" transform="translate(-397.56 -551.857)" fill="#fff"/>
          <path id="path680" d="M37.7,19.488c-4.193-.142-3.916,2.47-11.892,2.684C22.74,22.249,8.575,16.33,0,17.731c.555-2.22,8.8-5.661,16.1-5.273,3.766.2,14.764,7.332,19.149,4.163a41.433,41.433,0,0,1-11.1-6.66A25.448,25.448,0,0,1,17.206.248c2.22,0,4.44-.833,6.66.555,1.943,1.11,5.462,12.186,13.87,14.245" transform="translate(75.313 22.172) rotate(180)" fill="#fff"/>
        </g>
      </g>
    </g>
  </g>
</svg>
