<svg xmlns="http://www.w3.org/2000/svg" xmlns:xlink="http://www.w3.org/1999/xlink" width="79" height="74" viewBox="0 0 79 74">
  <defs>
    <clipPath id="clip-path">
      <rect id="Rectángulo_383640" data-name="Rectángulo 383640" width="79" height="74" rx="10" transform="translate(921 3310)" fill="#add3fd"/>
    </clipPath>
    <clipPath id="clip-path-2">
      <path id="Trazado_832392" data-name="Trazado 832392" d="M17.313,52.138a41.2,41.2,0,1,0,41.2-41.2,41.2,41.2,0,0,0-41.2,41.2" transform="translate(-17.313 -10.939)" fill="none"/>
    </clipPath>
  </defs>
  <g id="Enmascarar_grupo_242" data-name="Enmascarar grupo 242" transform="translate(-921 -3310)" clip-path="url(#clip-path)">
    <g id="Grupo_1075658" data-name="Grupo 1075658" transform="translate(927.601 3316.63)">
      <g id="Grupo_1075657" data-name="Grupo 1075657" transform="translate(0 0)" clip-path="url(#clip-path-2)">
        <path id="Trazado_832386" data-name="Trazado 832386" d="M91.132,20.1,75.652,4.62,61.078,19.195,46.421,4.538,31.106,19.853,15.956,4.7,2.269,18.389,0,16.12,15.956.165l15.15,15.149L46.421,0,61.078,14.656,75.652.082l15.48,15.48,14.51-14.51,2.27,2.268Z" transform="translate(-16.127 -10.189)" fill="#fff"/>
        <path id="Trazado_832387" data-name="Trazado 832387" d="M91.132,36.9,75.652,21.416,61.078,35.989,46.421,21.333,31.106,36.649,15.956,21.5,2.269,35.185,0,32.915,15.956,16.96l15.15,15.15L46.421,16.8,61.078,31.452,75.652,16.878l15.48,15.479,14.51-14.51,2.27,2.268Z" transform="translate(-16.127 -11.34)" fill="#fff"/>
        <path id="Trazado_832388" data-name="Trazado 832388" d="M91.132,53.691,75.652,38.211,61.078,52.785,46.421,38.129,31.106,53.444l-15.15-15.15L2.269,51.981,0,49.71,15.956,33.755l15.15,15.15L46.421,33.59,61.078,48.247,75.652,33.673l15.48,15.479,14.51-14.51,2.27,2.269Z" transform="translate(-16.127 -12.491)" fill="#fff"/>
        <path id="Trazado_832389" data-name="Trazado 832389" d="M91.132,70.487l-15.48-15.48L61.078,69.58,46.421,54.925,31.106,70.24,15.956,55.089,2.269,68.776,0,66.507,15.956,50.551,31.106,65.7,46.421,50.387,61.078,65.043,75.652,50.468l15.48,15.48,14.51-14.511,2.27,2.269Z" transform="translate(-16.127 -13.642)" fill="#fff"/>
        <path id="Trazado_832390" data-name="Trazado 832390" d="M91.132,87.282,75.652,71.8,61.078,86.376,46.421,71.72,31.106,87.035l-15.15-15.15L2.269,85.572,0,83.3,15.956,67.347,31.106,82.5,46.421,67.182,61.078,81.838,75.652,67.265l15.48,15.48,14.51-14.51,2.27,2.269Z" transform="translate(-16.127 -14.793)" fill="#fff"/>
        <path id="Trazado_832391" data-name="Trazado 832391" d="M91.132,104.077,75.652,88.6,61.078,103.172,46.421,88.516,31.106,103.83,15.956,88.68,2.269,102.367,0,100.1,15.956,84.142l15.15,15.15L46.421,83.977,61.078,98.634,75.652,84.06l15.48,15.479,14.51-14.51,2.27,2.269Z" transform="translate(-16.127 -15.944)" fill="#fff"/>
      </g>
    </g>
  </g>
</svg>
