<svg xmlns="http://www.w3.org/2000/svg" width="50" height="50" viewBox="0 0 50 50">
  <g id="_x30_3" transform="translate(-2 -2)">
    <path id="Trazado_832376" data-name="Trazado 832376" d="M48.429,23.758v-.329a21.429,21.429,0,1,0-42.857,0v.329A5.348,5.348,0,0,0,2,28.786v3.571a5.363,5.363,0,0,0,5.357,5.357H9.143a1.786,1.786,0,0,0,1.786-1.786V25.214a1.786,1.786,0,0,0-1.786-1.786,17.857,17.857,0,1,1,35.714,0,1.786,1.786,0,0,0-1.786,1.786V35.929a1.786,1.786,0,0,0,1.786,1.786h1.786A5.363,5.363,0,0,0,52,32.357V28.786A5.348,5.348,0,0,0,48.429,23.758Z" fill="#fff"/>
    <path id="Trazado_832377" data-name="Trazado 832377" d="M34.429,23A8.939,8.939,0,0,1,25.5,31.929H23.714a3.575,3.575,0,0,0-3.571-3.571H16.571a3.571,3.571,0,0,0,0,7.143H25.5A12.514,12.514,0,0,0,38,23Z" transform="translate(8.643 16.5)" fill="#fff"/>
    <path id="Trazado_832378" data-name="Trazado 832378" d="M22.286,9A14.286,14.286,0,1,0,36.571,23.286,14.3,14.3,0,0,0,22.286,9Zm0,25a1.786,1.786,0,1,1,1.786-1.786A1.786,1.786,0,0,1,22.286,34Zm2.248-11.21a2.52,2.52,0,0,0-1.355,2.33v2.628a.893.893,0,1,1-1.786,0V25.12a4.305,4.305,0,0,1,2.391-3.95,3.575,3.575,0,0,0,1.948-4.21,3.5,3.5,0,0,0-2.48-2.481A3.625,3.625,0,0,0,20.1,15.1a3.552,3.552,0,0,0-1.386,2.825.893.893,0,1,1-1.786,0,5.326,5.326,0,0,1,2.079-4.238,5.4,5.4,0,0,1,4.691-.937,5.359,5.359,0,0,1,.835,10.039Z" transform="translate(4.714 5.5)" fill="#fff"/>
  </g>
</svg>
