<svg xmlns="http://www.w3.org/2000/svg" width="60" height="60" viewBox="0 0 60 60">
  <g id="Grupo_1078849" data-name="Grupo 1078849" transform="translate(-180 -12320)">
    <circle id="Elipse_10110" data-name="Elipse 10110" cx="30" cy="30" r="30" transform="translate(180 12320)" fill="#1682fb"/>
    <g id="file" transform="translate(195 12335)">
      <path id="Trazado_832428" data-name="Trazado 832428" d="M8.941,242a7.941,7.941,0,1,0,7.941,7.941A7.95,7.95,0,0,0,8.941,242Zm3.506,6.977L8.33,253.094a.882.882,0,0,1-1.248,0L5.317,251.33a.882.882,0,1,1,1.248-1.248l1.141,1.141,3.494-3.494a.882.882,0,1,1,1.248,1.248Z" transform="translate(-1 -227.765)" fill="#fff"/>
      <path id="Trazado_832429" data-name="Trazado 832429" d="M137.176,7.647a.882.882,0,0,1-.882-.882V0H123.647A2.65,2.65,0,0,0,121,2.647v9.864c.291-.026.585-.041.882-.041A9.69,9.69,0,0,1,129.364,16h9.577a.882.882,0,1,1,0,1.765h-8.415a9.633,9.633,0,0,1,1.021,3.529h7.393a.882.882,0,1,1,0,1.765h-7.393a9.709,9.709,0,0,1-4.091,7.059h13.838a2.65,2.65,0,0,0,2.647-2.647V7.647Zm1.765,4.824H126a.882.882,0,1,1,0-1.765h12.941a.882.882,0,1,1,0,1.765Z" transform="translate(-113.941)" fill="#fff"/>
      <path id="Trazado_832430" data-name="Trazado 832430" d="M411,8.783v5.366h5.365Z" transform="translate(-386.882 -8.266)" fill="#fff"/>
    </g>
  </g>
</svg>
