<svg xmlns="http://www.w3.org/2000/svg" width="60" height="60" viewBox="0 0 60 60">
  <g id="Grupo_1078848" data-name="Grupo 1078848" transform="translate(-180 -12238)">
    <circle id="Elipse_10109" data-name="Elipse 10109" cx="30" cy="30" r="30" transform="translate(180 12238)" fill="#1682fb"/>
    <g id="google-docs" transform="translate(198.604 12253.039)">
      <path id="Trazado_832431" data-name="Trazado 832431" d="M63.63,29.923H81.163a2.633,2.633,0,0,0,2.63-2.63V8.766H77.656a2.633,2.633,0,0,1-2.63-2.63V0H63.63A2.633,2.633,0,0,0,61,2.63V27.293A2.633,2.633,0,0,0,63.63,29.923Zm3.507-17.591h10.52a.877.877,0,1,1,0,1.753H67.137a.877.877,0,1,1,0-1.753Zm0,3.507h10.52a.877.877,0,1,1,0,1.753H67.137a.877.877,0,1,1,0-1.753Zm0,3.507h10.52a.877.877,0,1,1,0,1.753H67.137a.877.877,0,1,1,0-1.753Zm0,3.507H74.15a.877.877,0,1,1,0,1.753H67.137a.877.877,0,1,1,0-1.753Z" transform="translate(-61)" fill="#fff"/>
      <path id="Trazado_832432" data-name="Trazado 832432" d="M331.877,15.288H337.5l-6.5-6.5v5.623A.877.877,0,0,0,331.877,15.288Z" transform="translate(-315.22 -8.275)" fill="#fff"/>
    </g>
  </g>
</svg>
