<svg id="web-design" xmlns="http://www.w3.org/2000/svg" width="50" height="55.275" viewBox="0 0 50 55.275">
  <path id="Trazado_833649" data-name="Trazado 833649" d="M70.069,7.188h-.656A4.725,4.725,0,0,0,61.452,2.1L58.047,7.189H28.791A4.366,4.366,0,0,0,24.43,11.55V39.432a4.366,4.366,0,0,0,4.361,4.361h16.94l-1.28,5.376H41.689a3.269,3.269,0,0,0-3.265,3.265v.682H35.018a1.08,1.08,0,0,0,0,2.159H63.842a1.08,1.08,0,1,0,0-2.159H60.437v-.682a3.269,3.269,0,0,0-3.265-3.265H54.409l-1.28-5.376h16.94a4.366,4.366,0,0,0,4.361-4.361V11.55a4.366,4.366,0,0,0-4.361-4.361ZM54.6,26.167c-1.688,1.182-4.85-.424-7.87,1.187-.737-3.828-.272-7.427,3.563-8.222a6.872,6.872,0,0,1,1.484-.141l3.905,2.9A3.485,3.485,0,0,1,54.6,26.167ZM55.689,14.6l3.056,2.267-2.35,2.865-2.767-2.053ZM63.247,3.3a2.566,2.566,0,1,1,4.117,3.054l-7.248,8.837L56.891,12.8Zm-4.97,49.134v.682H40.583v-.682a1.107,1.107,0,0,1,1.106-1.106H57.171A1.107,1.107,0,0,1,58.277,52.434Zm-6.088-3.265H46.67l1.28-5.376h2.959Zm20.081-9.737a2.2,2.2,0,0,1-2.2,2.2H28.791a2.2,2.2,0,0,1-2.2-2.2V34.376h3.085a1.08,1.08,0,1,0,0-2.159H26.589V11.55a2.2,2.2,0,0,1,2.2-2.2H56.6L51.595,16.83a7.376,7.376,0,0,0-5.61,2.37C44.1,21.4,43.772,24.848,45,29.458a1.08,1.08,0,0,0,1.789.5c2.791-2.667,6.268.242,9.381-2.278a5.654,5.654,0,0,0,1.634-6.271L67.7,9.348h2.368a2.2,2.2,0,0,1,2.2,2.2V32.217H38.31a1.08,1.08,0,1,0,0,2.159h33.96Z" transform="translate(-24.43 0)" fill="#3ee2a8"/>
  <path id="Trazado_833650" data-name="Trazado 833650" d="M103.9,298.444a1.079,1.079,0,1,0,1.27.848A1.078,1.078,0,0,0,103.9,298.444Z" transform="translate(-94.549 -266.207)" fill="#3ee2a8"/>
</svg>
