<svg xmlns="http://www.w3.org/2000/svg" width="86" height="86" viewBox="0 0 86 86">
  <g id="Grupo_1076334" data-name="Grupo 1076334" transform="translate(-210 -2102)">
    <circle id="Elipse_9897" data-name="Elipse 9897" cx="43" cy="43" r="43" transform="translate(210 2102)" fill="#1682fb"/>
    <path id="efficacy" d="M37.893,32.206H32.473a.864.864,0,0,0-.864.864V54.608a.864.864,0,0,0,.864.864h5.421a.864.864,0,0,0,.864-.864V33.07a.864.864,0,0,0-.864-.864Zm-.864,21.538H33.337V33.935h3.692ZM27.828,37.9H22.407a.864.864,0,0,0-.864.864V54.608a.864.864,0,0,0,.864.864h5.421a.864.864,0,0,0,.864-.864V38.76A.864.864,0,0,0,27.828,37.9Zm-.864,15.849H23.271V39.624h3.692Zm-9.2-10.4H12.341a.864.864,0,0,0-.864.864v10.4a.864.864,0,0,0,.864.864h5.421a.864.864,0,0,0,.864-.864v-10.4A.864.864,0,0,0,17.762,43.344Zm-.864,10.4H13.205V45.073H16.9v8.671Zm-5.127-13.8a.865.865,0,0,1-.284-1.681A101.56,101.56,0,0,0,45.57,18.652l-1.9.1a.864.864,0,1,1-.094-1.726l4.335-.235a.864.864,0,0,1,.9.988l-.626,4.3a.864.864,0,0,1-1.711-.249l.279-1.919a103.259,103.259,0,0,1-34.7,19.982.859.859,0,0,1-.284.048ZM49.787,13.478l2.22,1.784-.747,2.748a1.1,1.1,0,0,0,1.672,1.215l2.383-1.56,2.383,1.56a1.105,1.105,0,0,0,1.672-1.215l-.747-2.748,2.22-1.784a1.105,1.105,0,0,0-.638-1.965l-2.844-.139L56.347,8.712a1.106,1.106,0,0,0-2.066,0L53.27,11.374l-2.844.139a1.105,1.105,0,0,0-.639,1.965Zm3.975-.4a1.1,1.1,0,0,0,.98-.712l.573-1.508.573,1.509a1.105,1.105,0,0,0,.979.711l1.612.079L57.22,14.171a1.1,1.1,0,0,0-.374,1.151l.423,1.557-1.35-.884a1.105,1.105,0,0,0-1.21,0l-1.35.884.423-1.557a1.1,1.1,0,0,0-.374-1.151L52.15,13.16Zm9.557,33.951-1.468-.565a10.529,10.529,0,0,0-.931-2.245l.639-1.438a.864.864,0,0,0-.179-.962l-2.173-2.173a.862.862,0,0,0-.319-.2V22.834a.864.864,0,0,0-.864-.864H52.6a.864.864,0,0,0-.864.864V37.157H50.117a.864.864,0,0,0-.807.554l-.487,1.265V27.952a.864.864,0,0,0-.864-.864H42.538a.864.864,0,0,0-.864.864V45.795c-.08.222-.153.446-.217.673l-1.468.565a.864.864,0,0,0-.554.807v3.073a.864.864,0,0,0,.554.807l1.468.565c.065.227.138.452.218.674v1.65a.863.863,0,0,0,.365.7l-.291.655a.864.864,0,0,0,.179.962L44.1,59.1a.864.864,0,0,0,.962.179l1.439-.639a10.532,10.532,0,0,0,2.244.93l.565,1.468a.864.864,0,0,0,.807.554h3.073A.864.864,0,0,0,54,61.041l.565-1.468a10.527,10.527,0,0,0,2.245-.931l1.438.639a.864.864,0,0,0,.962-.179l2.173-2.173a.864.864,0,0,0,.179-.962l-.639-1.439a10.532,10.532,0,0,0,.93-2.244l1.468-.565a.864.864,0,0,0,.554-.807V47.839a.864.864,0,0,0-.554-.807ZM57.16,23.7V39.952l-.353.157a10.534,10.534,0,0,0-2.244-.93L54,37.711a.863.863,0,0,0-.529-.507V23.7ZM47.094,28.816V39.8q-.3.144-.594.306l-1.439-.639a.865.865,0,0,0-.962.179l-.7.7V28.816Zm15.049,21.5-1.328.511a.864.864,0,0,0-.53.607,8.811,8.811,0,0,1-1.071,2.584.864.864,0,0,0-.054.8l.578,1.3L58.4,57.461l-1.3-.578a.864.864,0,0,0-.8.054,8.809,8.809,0,0,1-2.585,1.072.864.864,0,0,0-.607.53L52.6,59.866H50.711L50.2,58.539a.864.864,0,0,0-.607-.53,8.809,8.809,0,0,1-2.584-1.071.865.865,0,0,0-.8-.054l-1.3.578-1.334-1.334.578-1.3a.865.865,0,0,0-.054-.8,8.811,8.811,0,0,1-1.072-2.585.864.864,0,0,0-.53-.607l-1.327-.511V48.433l1.328-.511a.864.864,0,0,0,.53-.607,8.812,8.812,0,0,1,1.072-2.585.865.865,0,0,0,.054-.8l-.578-1.3L44.9,41.291l1.3.578a.864.864,0,0,0,.8-.054,8.813,8.813,0,0,1,2.584-1.071.864.864,0,0,0,.607-.53l.511-1.328H52.6l.511,1.328a.864.864,0,0,0,.607.53A8.813,8.813,0,0,1,56.3,41.816a.865.865,0,0,0,.8.054l1.3-.578,1.334,1.334-.578,1.3a.864.864,0,0,0,.054.8,8.813,8.813,0,0,1,1.072,2.585.864.864,0,0,0,.53.607l1.327.511v1.886Zm-10.49-7.168a6.224,6.224,0,1,0,6.224,6.224A6.231,6.231,0,0,0,51.654,43.152Zm0,10.72a4.5,4.5,0,1,1,4.5-4.5A4.5,4.5,0,0,1,51.654,53.872Z" transform="translate(215.611 2108.292)" fill="#fff"/>
  </g>
</svg>
