<svg id="web-design_1_" data-name="web-design(1)" xmlns="http://www.w3.org/2000/svg" width="50" height="50.807" viewBox="0 0 50 50.807">
  <g id="Grupo_1076344" data-name="Grupo 1076344" transform="translate(19.697 4.059)">
    <g id="Grupo_1076343" data-name="Grupo 1076343">
      <path id="Trazado_833637" data-name="Trazado 833637" d="M216.277,40.9h-12.96a.755.755,0,1,0,0,1.511h12.96a.755.755,0,1,0,0-1.511Z" transform="translate(-202.562 -40.902)" fill="#3ee2a8"/>
    </g>
  </g>
  <g id="Grupo_1076346" data-name="Grupo 1076346" transform="translate(19.697 7.278)">
    <g id="Grupo_1076345" data-name="Grupo 1076345">
      <path id="Trazado_833638" data-name="Trazado 833638" d="M209.088,73.341h-5.771a.755.755,0,1,0,0,1.511h5.771a.755.755,0,1,0,0-1.511Z" transform="translate(-202.561 -73.341)" fill="#3ee2a8"/>
    </g>
  </g>
  <g id="Grupo_1076348" data-name="Grupo 1076348" transform="translate(0)">
    <g id="Grupo_1076347" data-name="Grupo 1076347">
      <path id="Trazado_833639" data-name="Trazado 833639" d="M51.2,7.409a.755.755,0,1,0,0,1.511,1.349,1.349,0,0,1,1.348,1.348V31.73H47.038V8.92H48.3a.755.755,0,1,0,0-1.511H47.038V2.269A2.272,2.272,0,0,0,44.768,0H13.152a2.272,2.272,0,0,0-2.269,2.269v5.14H6.919a2.862,2.862,0,0,0-2.858,2.858V39.445A2.862,2.862,0,0,0,6.919,42.3h4.652a.755.755,0,1,0,0-1.511H6.919a1.349,1.349,0,0,1-1.348-1.348V33.24H52.55v6.205A1.349,1.349,0,0,1,51.2,40.793H15.13a.755.755,0,1,0,0,1.511H22.87v4a3.75,3.75,0,0,0-3.679,3.744.755.755,0,0,0,.755.755H38.175a.755.755,0,0,0,.755-.755,3.75,3.75,0,0,0-3.679-3.744v-4H51.2a2.862,2.862,0,0,0,2.858-2.858V10.268A2.862,2.862,0,0,0,51.2,7.409ZM10.883,31.73H5.572V10.268A1.349,1.349,0,0,1,6.919,8.92h3.964ZM45.527,11.035H19.8a.755.755,0,1,0,0,1.511H45.527V31.73H12.394V12.546h3.474a.755.755,0,0,0,0-1.511H12.394V2.269a.76.76,0,0,1,.759-.759H44.768a.76.76,0,0,1,.759.759v8.766ZM24.381,42.3h9.361v4H24.381v-4ZM37.289,49.3H20.833a2.239,2.239,0,0,1,2.1-1.48H35.184A2.239,2.239,0,0,1,37.289,49.3Z" transform="translate(-4.061)" fill="#3ee2a8"/>
    </g>
  </g>
  <g id="Grupo_1076350" data-name="Grupo 1076350" transform="translate(23.122 34.734)">
    <g id="Grupo_1076349" data-name="Grupo 1076349">
      <path id="Trazado_833640" data-name="Trazado 833640" d="M239.361,350.032a2.283,2.283,0,1,0,2.283,2.283A2.285,2.285,0,0,0,239.361,350.032Zm0,3.055a.772.772,0,1,1,.772-.772A.773.773,0,0,1,239.361,353.087Z" transform="translate(-237.078 -350.032)" fill="#3ee2a8"/>
    </g>
  </g>
  <g id="Grupo_1076352" data-name="Grupo 1076352" transform="translate(10.22 3.129)">
    <g id="Grupo_1076351" data-name="Grupo 1076351">
      <path id="Trazado_833641" data-name="Trazado 833641" d="M113.435,36.214l-2.486-4.306a.755.755,0,0,0-1.308,0l-2.486,4.306a.755.755,0,0,0,.654,1.133h4.972a.755.755,0,0,0,.654-1.133Zm-4.318-.378,1.178-2.04,1.178,2.04Z" transform="translate(-107.053 -31.53)" fill="#3ee2a8"/>
    </g>
  </g>
  <g id="Grupo_1076354" data-name="Grupo 1076354" transform="translate(27.546 15.331)">
    <g id="Grupo_1076353" data-name="Grupo 1076353">
      <path id="Trazado_833642" data-name="Trazado 833642" d="M293.349,154.5H282.41a.755.755,0,1,0,0,1.511h10.939a.755.755,0,1,0,0-1.511Z" transform="translate(-281.655 -154.498)" fill="#3ee2a8"/>
    </g>
  </g>
  <g id="Grupo_1076356" data-name="Grupo 1076356" transform="translate(27.546 18.653)">
    <g id="Grupo_1076355" data-name="Grupo 1076355">
      <path id="Trazado_833643" data-name="Trazado 833643" d="M293.349,187.975H282.41a.755.755,0,1,0,0,1.511h10.939a.755.755,0,1,0,0-1.511Z" transform="translate(-281.655 -187.975)" fill="#3ee2a8"/>
    </g>
  </g>
  <g id="Grupo_1076358" data-name="Grupo 1076358" transform="translate(27.546 21.975)">
    <g id="Grupo_1076357" data-name="Grupo 1076357">
      <path id="Trazado_833644" data-name="Trazado 833644" d="M293.349,221.452H282.41a.755.755,0,1,0,0,1.511h10.939a.755.755,0,1,0,0-1.511Z" transform="translate(-281.655 -221.452)" fill="#3ee2a8"/>
    </g>
  </g>
  <g id="Grupo_1076360" data-name="Grupo 1076360" transform="translate(27.546 25.297)">
    <g id="Grupo_1076359" data-name="Grupo 1076359">
      <path id="Trazado_833645" data-name="Trazado 833645" d="M293.349,254.929H282.41a.755.755,0,1,0,0,1.511h10.939a.755.755,0,1,0,0-1.511Z" transform="translate(-281.655 -254.929)" fill="#3ee2a8"/>
    </g>
  </g>
  <g id="Grupo_1076362" data-name="Grupo 1076362" transform="translate(27.546 28.619)">
    <g id="Grupo_1076361" data-name="Grupo 1076361">
      <path id="Trazado_833646" data-name="Trazado 833646" d="M287.522,288.406H282.41a.755.755,0,1,0,0,1.511h5.111a.755.755,0,1,0,0-1.511Z" transform="translate(-281.655 -288.406)" fill="#3ee2a8"/>
    </g>
  </g>
  <g id="Grupo_1076364" data-name="Grupo 1076364" transform="translate(10.22 14.695)">
    <g id="Grupo_1076363" data-name="Grupo 1076363">
      <path id="Trazado_833647" data-name="Trazado 833647" d="M121.731,148.085H107.807a.755.755,0,0,0-.755.755v13.924a.755.755,0,0,0,.755.755h13.924a.755.755,0,0,0,.755-.755V148.84A.755.755,0,0,0,121.731,148.085ZM108.563,149.6h12.413v7.9c-.085-.014-.169-.027-.254-.037a3.564,3.564,0,0,0-2.682.8,2.847,2.847,0,0,1-1.512.645,3.542,3.542,0,0,1-2.622-1.2,5.2,5.2,0,0,0-3.8-1.6,4.821,4.821,0,0,0-1.54.358V149.6Zm12.413,12.413H108.563v-3.857a3.566,3.566,0,0,1,1.632-.537,3.824,3.824,0,0,1,2.75,1.255,4.945,4.945,0,0,0,3.707,1.54,4.285,4.285,0,0,0,2.252-.911,2.1,2.1,0,0,1,1.652-.542,3.018,3.018,0,0,1,.422.078Z" transform="translate(-107.052 -148.085)" fill="#3ee2a8"/>
    </g>
  </g>
  <g id="Grupo_1076366" data-name="Grupo 1076366" transform="translate(17.619 17.892)">
    <g id="Grupo_1076365" data-name="Grupo 1076365">
      <path id="Trazado_833648" data-name="Trazado 833648" d="M183.929,180.312a2.311,2.311,0,1,0,2.311,2.311A2.314,2.314,0,0,0,183.929,180.312Zm0,3.111a.8.8,0,1,1,.8-.8A.8.8,0,0,1,183.929,183.423Z" transform="translate(-181.618 -180.312)" fill="#3ee2a8"/>
    </g>
  </g>
</svg>
