<svg xmlns="http://www.w3.org/2000/svg" width="86" height="86" viewBox="0 0 86 86">
  <g id="Grupo_1076335" data-name="Grupo 1076335" transform="translate(-210 -2102)">
    <circle id="Elipse_9897" data-name="Elipse 9897" cx="43" cy="43" r="43" transform="translate(210 2102)" fill="#1682fb"/>
    <g id="XMLID_947_" transform="translate(224.161 2113.833)">
      <g id="XMLID_335_" transform="translate(0)">
        <path id="XMLID_363_" d="M137.56,116.749l5.245-11.227a17.932,17.932,0,1,0-32.494,0l5.245,11.227a3.645,3.645,0,0,0-.259,5.132,3.65,3.65,0,0,0,2.719,6.087h2.826a5.844,5.844,0,0,0,11.431,0H135.1a3.65,3.65,0,0,0,2.719-6.087,3.645,3.645,0,0,0-.259-5.132Zm-19.763-.955-5.28-11.3a15.5,15.5,0,1,1,28.082,0l-5.28,11.3H130.7V105.567h1.7a4.139,4.139,0,1,0-4.139-4.139v1.7h-3.409v-1.7a4.139,4.139,0,1,0-4.139,4.139h1.7v10.227Zm4.622-12.662h-1.7a1.7,1.7,0,1,1,1.7-1.7Zm2.435,2.435h3.409v10.227h-3.409Zm5.844-2.435v-1.7a1.7,1.7,0,1,1,1.7,1.7Zm-4.139,27.028a3.414,3.414,0,0,1-3.183-2.191h6.367A3.414,3.414,0,0,1,126.558,130.16Zm8.542-4.626H118.016a1.217,1.217,0,1,1,0-2.435h3.063a1.217,1.217,0,0,0,0-2.435h-3.063a1.217,1.217,0,1,1,0-2.435H135.1a1.217,1.217,0,1,1,0,2.435h-3.063a1.217,1.217,0,0,0,0,2.435H135.1a1.217,1.217,0,0,1,0,2.435Z" transform="translate(-97.719 -70.26)" fill="#fff"/>
        <path id="XMLID_372_" d="M247.217,7.3a1.218,1.218,0,0,0,1.217-1.217V1.217a1.217,1.217,0,0,0-2.435,0v4.87A1.218,1.218,0,0,0,247.217,7.3Z" transform="translate(-218.379)" fill="#fff"/>
        <path id="XMLID_373_" d="M89.323,72.1a1.218,1.218,0,0,0,1.722-1.722L87.6,66.933a1.218,1.218,0,0,0-1.722,1.722Z" transform="translate(-77.44 -58.471)" fill="#fff"/>
        <path id="XMLID_374_" d="M25.214,227.127h-4.87a1.217,1.217,0,1,0,0,2.435h4.87a1.217,1.217,0,0,0,0-2.435Z" transform="translate(-19.127 -199.475)" fill="#fff"/>
        <path id="XMLID_375_" d="M89.5,359.675l-3.443,3.444a1.218,1.218,0,1,0,1.722,1.722l3.443-3.443a1.218,1.218,0,0,0-1.722-1.722Z" transform="translate(-77.598 -315.573)" fill="#fff"/>
        <path id="XMLID_376_" d="M381.991,66.933l-3.443,3.444A1.218,1.218,0,1,0,380.27,72.1l3.443-3.443a1.218,1.218,0,0,0-1.722-1.722Z" transform="translate(-334.476 -58.471)" fill="#fff"/>
        <path id="XMLID_377_" d="M438.96,227.127h-4.87a1.217,1.217,0,1,0,0,2.435h4.87a1.217,1.217,0,1,0,0-2.435Z" transform="translate(-382.501 -199.475)" fill="#fff"/>
        <path id="XMLID_378_" d="M380.091,359.676a1.218,1.218,0,0,0-1.722,1.722l3.443,3.443a1.217,1.217,0,0,0,1.722-1.722Z" transform="translate(-334.319 -315.573)" fill="#fff"/>
        <path id="XMLID_379_" d="M247.217,414a1.218,1.218,0,1,0,.861.357A1.227,1.227,0,0,0,247.217,414Z" transform="translate(-218.379 -363.597)" fill="#fff"/>
      </g>
    </g>
  </g>
</svg>
