<svg id="Grupo_1076448" data-name="Grupo 1076448" xmlns="http://www.w3.org/2000/svg" xmlns:xlink="http://www.w3.org/1999/xlink" width="260" height="269.053" viewBox="0 0 260 269.053">
  <defs>
    <clipPath id="clip-path">
      <rect id="Rectángulo_384870" data-name="Rectángulo 384870" width="260" height="269.052" fill="none"/>
    </clipPath>
  </defs>
  <g id="Grupo_1076447" data-name="Grupo 1076447" clip-path="url(#clip-path)">
    <path id="Trazado_834289" data-name="Trazado 834289" d="M295.229,424.185c0,5.967-46.443,10.8-103.733,10.8s-103.734-4.837-103.734-10.8,46.443-10.8,103.734-10.8,103.733,4.837,103.733,10.8" transform="translate(-35.229 -165.938)" fill="#e3eeff"/>
    <path id="Trazado_834290" data-name="Trazado 834290" d="M100.605,345.356a4.9,4.9,0,0,1-1.442,1.916H90.815c-.414-.22-.813-.459-1.193-.709-.129-.08-.254-.165-.379-.249a18.71,18.71,0,0,1-1.757-1.373,19.609,19.609,0,0,1-4.456-5.654,17.915,17.915,0,0,1-1.153-2.68c-.115-.329-.215-.664-.309-1a15.648,15.648,0,0,1-.544-5.269,13.9,13.9,0,0,1,.36-2.311c.12-.5.274-.988.439-1.472.125-.359.25-.719.369-1.083a7.953,7.953,0,0,0,.484-2.749,5.614,5.614,0,0,0-.649-2.311c-1.552-3.019-4.771-4.606-6.847-7.191a1.989,1.989,0,0,1-.135-.16,7.646,7.646,0,0,1-1.487-3.119c0-.005,0-.01,0-.01a5.82,5.82,0,0,1-.115-1.288,9.011,9.011,0,0,1,1.238-4c1.427-2.61,3.633-4.886,4.441-7.8a6.92,6.92,0,0,0-.214-4.262,21.051,21.051,0,0,0-2.141-3.922,18.728,18.728,0,0,1-2.021-3.887,7.248,7.248,0,0,1-.015-4.676,14.058,14.058,0,0,1,2.815-4.531,23.723,23.723,0,0,1,3.214-3.124v0a.87.87,0,0,1,.08-.065h0c.339-.274.689-.534,1.043-.784a15.51,15.51,0,0,1,7.889-2.864c.244-.02.489-.025.733-.025a12.806,12.806,0,0,1,1.512.09,10.772,10.772,0,0,1,5.045,1.981,9.568,9.568,0,0,1,2.83,3.293,8.281,8.281,0,0,1,.9,4.79,13.742,13.742,0,0,1-2.176,5.524c-1.632,2.605-3.772,5.045-4.835,7.949a10.773,10.773,0,0,0-.544,2.1,7.058,7.058,0,0,0,.928,4.88,20.612,20.612,0,0,0,3.987,4.117,12.388,12.388,0,0,1,3.059,3.782,5.694,5.694,0,0,1,.08,4.82,27.089,27.089,0,0,1-2.914,4.451,22.638,22.638,0,0,0-2.535,4.427,9.394,9.394,0,0,0-.743,4.761,10.6,10.6,0,0,0,2.255,4.87c2.006,2.665,4.786,5.17,5.3,8.648a7.928,7.928,0,0,1-2.056,6.173" transform="translate(-29.481 -107.862)" fill="#b2b0f7"/>
    <path id="Trazado_834291" data-name="Trazado 834291" d="M102.9,340.582a11.745,11.745,0,0,1-2.471,6.507H99.338a1.528,1.528,0,0,1-.03-.22,5.669,5.669,0,0,1-.035-1.053,4.5,4.5,0,0,0-.11-.449c-1.147-3.788-4.716-5.549-7.8-7.735a11.127,11.127,0,0,1-4.551-5.309,6.687,6.687,0,0,1-.349-1.8,9.6,9.6,0,0,1,.324-2.859c.424-1.682,1.048-3.308,1.472-5,.22-.873.4-1.751.564-2.64a7.289,7.289,0,0,0,.125-2.505,4.4,4.4,0,0,0-1.746-2.674c-1.681-1.347-3.827-2.071-5.315-3.673a4.987,4.987,0,0,1-1.347-3.393,10.541,10.541,0,0,1,1.257-4.511c.773-1.612,1.642-3.179,2.47-4.761a14.06,14.06,0,0,0,1.886-4.79c.309-2.84-1.991-4.606-3.872-6.3a11.111,11.111,0,0,1-2.39-2.77,7.817,7.817,0,0,1-.9-4.187c.15-3.159,1.926-5.913,3.992-8.2v-.005a.92.92,0,0,1,.08-.065h.005c.214-.1.489.18.3.384a22.8,22.8,0,0,0-1.472,1.8c-1.836,2.51-3.069,5.758-2.071,8.857.819,2.55,3.159,3.937,4.92,5.779a6.623,6.623,0,0,1,1.786,2.934,6.958,6.958,0,0,1-.664,4.491c-.269.614-.568,1.218-.878,1.816-.513,1-1.062,1.986-1.582,2.979a24.633,24.633,0,0,0-2.065,4.556,5.255,5.255,0,0,0,.409,4.412,7.57,7.57,0,0,0,2.38,2.116c1.712,1.077,3.857,1.966,4.865,3.832a6.168,6.168,0,0,1,.295,4.117,37.812,37.812,0,0,1-.913,3.872c-.119.424-.25.848-.384,1.267a14.368,14.368,0,0,0-1.043,5.015,6.617,6.617,0,0,0,.16,1.133,7.8,7.8,0,0,0,1.492,2.929,12.1,12.1,0,0,0,1.7,1.732c1.781,1.522,3.9,2.65,5.729,4.112a10.932,10.932,0,0,1,3.4,4.311,11.008,11.008,0,0,0,.364-4.047,7.546,7.546,0,0,0-2.255-3.753c-1.986-1.991-4.65-3.408-6.063-5.923a7.791,7.791,0,0,1-.324-6.253,28.919,28.919,0,0,1,1.083-2.934c1.128-2.7,2.45-6.207.509-8.872-1.513-2.066-4.2-2.879-5.654-5-1.8-2.62-.749-5.943.613-8.489,1.462-2.725,4-5.958,2.625-9.2a12.93,12.93,0,0,0-2.4-3.319,11.913,11.913,0,0,1-2.275-3.423,10.681,10.681,0,0,1,.679-8.608A18.555,18.555,0,0,1,92,268.545c.116-.085.23-.17.344-.25a.251.251,0,0,1,.389.224.214.214,0,0,1-.1.185c-.594.429-1.177.873-1.736,1.347a14.7,14.7,0,0,0-5.04,7.451,9.927,9.927,0,0,0-.095,4.561,8.982,8.982,0,0,0,1.971,3.783,30.005,30.005,0,0,1,2.54,3.149,5.789,5.789,0,0,1,.9,3.877,10.031,10.031,0,0,1-1.028,3.164,57.658,57.658,0,0,0-2.974,5.688,7.191,7.191,0,0,0-.26,4.661,6.451,6.451,0,0,0,2.44,2.994,32.755,32.755,0,0,1,2.984,2.265,5.91,5.91,0,0,1,1.817,3.393c.479,3.134-1.223,6.039-2.246,8.873a9.461,9.461,0,0,0-.669,4.96,7.468,7.468,0,0,0,2.241,3.778c1.986,1.966,4.571,3.383,6.024,5.848a6.24,6.24,0,0,1,.818,4.012c-.135,1.1-.469,2.211-.534,3.323a5.873,5.873,0,0,1,.12,1.108,11,11,0,0,0,.888-1.238,10.672,10.672,0,0,0,1.447-7.495,7.6,7.6,0,0,0-1.666-3.413,23.139,23.139,0,0,0-3.014-2.655,10.013,10.013,0,0,1-2.58-2.844,6.74,6.74,0,0,1-.734-3.932c.3-3.049,2.076-5.554,3.678-8.059a8.481,8.481,0,0,0,1.611-4.316,6.242,6.242,0,0,0-1.283-3.9c-1.566-2.026-4.281-2.65-5.988-4.526-2.036-2.241-1.413-5.4-.27-7.914.085-.185.17-.369.26-.554a40.146,40.146,0,0,0,1.8-3.887,13.705,13.705,0,0,0,.769-4.955,22.776,22.776,0,0,0-.883-4.831,9.019,9.019,0,0,1-.185-4.386c.684-2.775,2.785-4.95,4.811-6.842a.265.265,0,0,1,.329-.025.205.205,0,0,1,.054.345c-.524.489-1.038.988-1.532,1.5-2.036,2.141-3.718,4.731-3.3,7.8.224,1.607.818,3.139,1.058,4.746a14.366,14.366,0,0,1-.11,4.8,12.873,12.873,0,0,1-.469,1.747,21.4,21.4,0,0,1-1.182,2.764,19.193,19.193,0,0,0-1.822,4.412,5.68,5.68,0,0,0,.569,4.342,8.5,8.5,0,0,0,2.864,2.4,15.74,15.74,0,0,1,3.054,2.121,6.637,6.637,0,0,1,1.816,3.4,6.783,6.783,0,0,1-.494,4.1,32.59,32.59,0,0,1-2.41,3.967c-1.5,2.42-2.944,5.554-2.011,8.444.863,2.674,3.543,3.967,5.424,5.828a8.6,8.6,0,0,1,2.5,6.692" transform="translate(-31.703 -107.679)" fill="#837af9"/>
    <path id="Trazado_834292" data-name="Trazado 834292" d="M67.305,381.084H31.357a52.267,52.267,0,0,1-5.764-2.535,43.061,43.061,0,0,1-11.617-8.6c-2.849-3.019-5.269-6.751-5.564-10.878a6.4,6.4,0,0,1,.873-4.017,4.3,4.3,0,0,1,1.6-1.437c2-1.053,4.4-.724,6.537-.115A54.3,54.3,0,0,1,31.3,360.051c1.881,1.183,3.723,2.43,5.539,3.7,2.46,1.722,4.89,3.488,7.351,5.21a98.532,98.532,0,0,0,13.7,8.2q1.728.831,3.488,1.587,2.926,1.265,5.933,2.33" transform="translate(-3.367 -141.674)" fill="#b2b0f7"/>
    <path id="Trazado_834293" data-name="Trazado 834293" d="M54.7,382.674H52.828a90.691,90.691,0,0,1-41.363-25.32.281.281,0,0,1,.08-.434.194.194,0,0,1,.245.05c.369.4.739.794,1.118,1.183A89.9,89.9,0,0,0,33.416,374a90.592,90.592,0,0,0,11.7,5.549,88.882,88.882,0,0,0,9.586,3.129" transform="translate(-4.573 -143.263)" fill="#837af9"/>
    <path id="Trazado_834294" data-name="Trazado 834294" d="M79.917,360.4H73.934c-.564-.229-1.128-.464-1.687-.709-3.428-1.457-6.807-3.049-10.09-4.82a80.33,80.33,0,0,1-13.6-9.122q-1.534-1.295-2.984-2.68a57.67,57.67,0,0,1-7.934-9.306,50.115,50.115,0,0,1-3.518-6.058,42.715,42.715,0,0,1-3.1-8.448,28.966,28.966,0,0,1-.813-5,17.347,17.347,0,0,1,1.442-8.673,9.222,9.222,0,0,1,1.517-2.3,5.42,5.42,0,0,1,3.982-1.877c2.56-.03,4.741,1.527,6.507,3.229.254.245.5.494.754.743a58.857,58.857,0,0,1,9.246,12.875c.878,1.581,1.717,3.189,2.525,4.805.005,0,.005,0,0,.01.554,1.088,1.088,2.181,1.622,3.278.973,2.021,1.931,4.047,2.909,6.063.21.439.424.879.639,1.317.988,2.011,2.011,4,3.094,5.954q1.16,2.1,2.42,4.152c.214.344.429.688.643,1.028q1.3,2.059,2.735,4.042c.15.21.3.414.454.618.35.479.7.954,1.068,1.422a106.764,106.764,0,0,0,7.944,9.237c.065.075.135.15.2.22" transform="translate(-12.106 -120.989)" fill="#837af9"/>
    <path id="Trazado_834295" data-name="Trazado 834295" d="M79.783,361.735H78.91a108.985,108.985,0,0,1-10.694-8.5q-1.175-1.063-2.321-2.161l-.314-.3c-.154-.01-.319-.04-.464-.05l-.869-.075-1.861-.16c-1.2-.1-2.4-.2-3.6-.309-.319-.025-.229-.519.09-.489l6.143.524Q61.736,347,58.71,343.537a.266.266,0,0,1-.125.015,64.156,64.156,0,0,1-9.975-2.4c-.3-.1-.085-.549.214-.45a63.836,63.836,0,0,0,9.391,2.276l-.15-.165q-3.406-3.975-6.427-8.259a.335.335,0,0,1-.12-.02q-6.7-2.747-13.3-5.734a.22.22,0,0,1-.139-.21.255.255,0,0,1,.354-.245q6.3,2.852,12.7,5.489c-.6-.858-1.192-1.726-1.771-2.6A112.926,112.926,0,0,1,42.5,319.19a44.844,44.844,0,0,1-8.738-3.5.249.249,0,0,1,.215-.45,44.017,44.017,0,0,0,8.219,3.339,109.731,109.731,0,0,1-5.474-13.514.323.323,0,0,1-.01-.135.252.252,0,0,1,.479-.04c.184.564.374,1.123.569,1.682a109.631,109.631,0,0,0,4.946,11.911q.516-4.768,1.033-9.526a.209.209,0,0,1,.22-.2.264.264,0,0,1,.275.29q-.547,5.015-1.093,10.035a.236.236,0,0,1-.075.135c.115.229.224.459.339.688a112.534,112.534,0,0,0,7.355,12.51c.229.339.474.669.7,1q.592-5.7.933-11.417c.02-.32.509-.23.489.09q-.352,5.988-.983,11.951c2.061,2.929,4.267,5.763,6.592,8.483q.585-3.878,1.163-7.765a.249.249,0,0,1,.469-.055.23.23,0,0,1,.02.145l-1.223,8.179c.239.274.474.558.714.828,1.9,2.145,3.893,4.216,5.949,6.207.054.055.11.1.165.16a.56.56,0,0,0,.05-.25c.035-.265.07-.529.1-.793q.09-.794.165-1.587c.095-1.083.154-2.166.19-3.249.01-.319.5-.364.494-.045-.035,1.193-.1,2.381-.21,3.563-.055.594-.12,1.188-.195,1.777a2,2,0,0,1-.215.953c1.247,1.188,2.51,2.365,3.808,3.493a108.566,108.566,0,0,0,9.846,7.645" transform="translate(-13.499 -122.325)" fill="#b2b0f7"/>
    <path id="Trazado_834296" data-name="Trazado 834296" d="M41.786,10.673c12.745-6.233,27.887-5.062,40.181.1,11.877,4.981,23.783,13.86,37.581,10.969,6.177-1.3,11.877-4.506,17.662-7.106,5.81-2.608,11.826-4.547,18.1-4.164,12.324.756,23.116,9.173,28.744,20.05,5.906,11.395,5.8,25.385,12.157,36.557,6.081,10.691,17.5,16.046,27.475,22.075,9.732,5.873,19.595,13.538,21.212,26.07a30.186,30.186,0,0,1-3.578,18.282c-3.359,6.018-8.663,9.925-14.079,13.779-5.539,3.939-10.792,8.1-13.282,14.786-2.472,6.65-2.4,13.866-3.487,20.755a36.52,36.52,0,0,1-7.795,18.141,38.952,38.952,0,0,1-15.828,11.3c-12.835,4.949-26.982,2.39-38.357-3.933-5.88-3.272-11.161-7.786-17.571-10.056a17.86,17.86,0,0,0-9.792-.743,54.9,54.9,0,0,0-9.167,3.366,30,30,0,0,1-9.245,2.49,25.337,25.337,0,0,1-8.972-1.01A31.235,31.235,0,0,1,78.679,192.1c-8.7-10.624-10.541-25.01-12.007-38.631a71.456,71.456,0,0,0-2.505-13.9,22.452,22.452,0,0,0-5.707-4.835c-5.589-3.325-12.138-4.723-18.358-6.472-6.141-1.721-12.4-3.777-17.334-7.963a26.067,26.067,0,0,1-8.357-14.692,30.664,30.664,0,0,1,1.472-17.363,29.657,29.657,0,0,1,5.038-8.222c2.49-2.948,5.331-5.58,7.7-8.64a18.964,18.964,0,0,0,4.046-8.867,23.058,23.058,0,0,0-.289-7.479c-.948-5.15-2.95-9.965-4.218-15.008-1.3-5.156-1.843-10.618.159-15.846,2.379-6.219,7.759-10.726,13.465-13.515" transform="translate(-5.531 -2.584)" fill="#e3eeff"/>
    <rect id="Rectángulo_384836" data-name="Rectángulo 384836" width="1.052" height="16.368" transform="translate(36.342 77.729)" fill="#504f56"/>
    <rect id="Rectángulo_384837" data-name="Rectángulo 384837" width="1.052" height="30.145" transform="translate(36.342 43.526)" fill="#504f56"/>
    <path id="Trazado_834297" data-name="Trazado 834297" d="M179.2,13.984V225.578a14.01,14.01,0,0,1-8.113,12.674,13.776,13.776,0,0,1-5.872,1.3H76.455a13.822,13.822,0,0,1-5.986-1.35,14.014,14.014,0,0,1-8-12.628V13.984a13.849,13.849,0,0,1,3.252-8.934A.171.171,0,0,0,65.752,5c.04-.04.074-.086.115-.132a1.117,1.117,0,0,1,.1-.1A13.917,13.917,0,0,1,76.455,0h88.762a13.952,13.952,0,0,1,10.25,4.5c.006.011.017.017.023.029a.18.18,0,0,0,.029.035,13.892,13.892,0,0,1,3.683,9.422" transform="translate(-25.077 0)" fill="#dddce2"/>
    <path id="Trazado_834298" data-name="Trazado 834298" d="M187.978,13.476a.613.613,0,1,1-.613.613.612.612,0,0,1,.613-.613" transform="translate(-75.211 -5.409)" fill="#e4def9"/>
    <path id="Trazado_834299" data-name="Trazado 834299" d="M185.6,10.855a.739.739,0,1,1-.739.739.739.739,0,0,1,.739-.739" transform="translate(-74.208 -4.357)" fill="#e4def9"/>
    <path id="Trazado_834300" data-name="Trazado 834300" d="M185.766,9.087a2.431,2.431,0,1,1-2.428,2.434,2.432,2.432,0,0,1,2.428-2.434m1.209,3.24a.613.613,0,1,0-.614.613.612.612,0,0,0,.614-.613m-1.244-1.443a.739.739,0,1,0-.739.739.739.739,0,0,0,.739-.739" transform="translate(-73.595 -3.648)" fill="#8365c4"/>
    <path id="Trazado_834301" data-name="Trazado 834301" d="M205.13,10.293a1.5,1.5,0,1,1-1.5,1.5,1.5,1.5,0,0,1,1.5-1.5" transform="translate(-81.742 -4.132)" fill="#fff1c5"/>
    <path id="Trazado_834302" data-name="Trazado 834302" d="M177.68,371.046v6.1A9.879,9.879,0,0,1,167.833,387H77.089a9.864,9.864,0,0,1-8.417-4.757,9.749,9.749,0,0,1-1.431-5.1v-6.1H68.3a4.941,4.941,0,0,0,4.924,4.924h98.753a4.941,4.941,0,0,0,4.924-4.924Z" transform="translate(-26.992 -148.944)"/>
    <path id="Trazado_834303" data-name="Trazado 834303" d="M188.914,10.39a1.5,1.5,0,1,0-1.5,1.5,1.5,1.5,0,0,0,1.5-1.5m-10.285.217a2.431,2.431,0,1,0-2.434,2.428,2.431,2.431,0,0,0,2.434-2.428m34.537-.71a9.29,9.29,0,0,0-.712-.977,10.073,10.073,0,0,0-2.241-2.005h-.005c-.511-.005-30.962-.241-36.478,0-5.567.242-6.153,1.592-7.245,2.844-1.356,1.5-3.183,4.538-6.992,4.538v1.73h49.52a4.936,4.936,0,0,1,4.924,4.918V224.834h.776V15.177a9.756,9.756,0,0,0-1.546-5.28" transform="translate(-64.023 -2.732)"/>
    <path id="Trazado_834304" data-name="Trazado 834304" d="M170.823,4.338a9.754,9.754,0,0,1,5.338,1.587c-.511-.006-30.957-.241-36.475,0-5.566.24-6.155,1.593-7.243,2.843-1.359,1.5-3.186,4.538-7,4.538s-4.184-1.623-8.241-4.755-7.454-2.591-7.454-2.591H74.682a9.722,9.722,0,0,1,5.392-1.623Zm-43.19,5.043a2.248,2.248,0,1,0-2.248,2.248,2.245,2.245,0,0,0,2.248-2.248" transform="translate(-29.979 -1.741)" fill="#232535"/>
    <path id="Trazado_834305" data-name="Trazado 834305" d="M157.88,9.007a2.248,2.248,0,1,1-2.248,2.248,2.245,2.245,0,0,1,2.248-2.248" transform="translate(-62.473 -3.616)" fill="#393b44"/>
    <path id="Trazado_834306" data-name="Trazado 834306" d="M177.618,27.129V231.018a4.941,4.941,0,0,1-4.924,4.924H73.941a4.941,4.941,0,0,1-4.924-4.924V27.129a4.936,4.936,0,0,1,4.924-4.918h98.753a4.936,4.936,0,0,1,4.924,4.918" transform="translate(-27.704 -8.916)" fill="#b0e2e0"/>
    <path id="Trazado_834307" data-name="Trazado 834307" d="M122.46,14.373V16.1H73.227A4.936,4.936,0,0,0,68.3,21.021v203.89H67.241V15.253c0-.339.017-.672.045-1.006A9.807,9.807,0,0,1,69,9.651c.1-.149.207-.293.316-.431a10.063,10.063,0,0,1,1.5-1.546c.276-.224.563-.442.868-.643h35.076s3.4-.546,7.452,2.585,4.436,4.758,8.245,4.758" transform="translate(-26.992 -2.808)"/>
    <path id="Trazado_834308" data-name="Trazado 834308" d="M223.737,50.529a1.115,1.115,0,1,1-1.115-1.115,1.115,1.115,0,0,1,1.115,1.115" transform="translate(-88.917 -19.836)"/>
    <path id="Trazado_834309" data-name="Trazado 834309" d="M231.561,50.529a1.115,1.115,0,1,1-1.115-1.115,1.115,1.115,0,0,1,1.115,1.115" transform="translate(-92.057 -19.836)"/>
    <path id="Trazado_834310" data-name="Trazado 834310" d="M239.386,50.529a1.115,1.115,0,1,1-1.115-1.115,1.115,1.115,0,0,1,1.115,1.115" transform="translate(-95.198 -19.836)"/>
    <path id="Trazado_834311" data-name="Trazado 834311" d="M247.21,50.529a1.115,1.115,0,1,1-1.115-1.115,1.115,1.115,0,0,1,1.115,1.115" transform="translate(-98.339 -19.836)"/>
    <path id="Trazado_834312" data-name="Trazado 834312" d="M255.035,50.529a1.115,1.115,0,1,1-1.115-1.115,1.115,1.115,0,0,1,1.115,1.115" transform="translate(-101.48 -19.836)"/>
    <path id="Trazado_834313" data-name="Trazado 834313" d="M223.737,58.468a1.115,1.115,0,1,1-1.115-1.115,1.115,1.115,0,0,1,1.115,1.115" transform="translate(-88.917 -23.022)"/>
    <path id="Trazado_834314" data-name="Trazado 834314" d="M231.561,58.468a1.115,1.115,0,1,1-1.115-1.115,1.115,1.115,0,0,1,1.115,1.115" transform="translate(-92.057 -23.022)"/>
    <path id="Trazado_834315" data-name="Trazado 834315" d="M239.386,58.468a1.115,1.115,0,1,1-1.115-1.115,1.115,1.115,0,0,1,1.115,1.115" transform="translate(-95.198 -23.022)"/>
    <path id="Trazado_834316" data-name="Trazado 834316" d="M247.21,58.468a1.115,1.115,0,1,1-1.115-1.115,1.115,1.115,0,0,1,1.115,1.115" transform="translate(-98.339 -23.022)"/>
    <path id="Trazado_834317" data-name="Trazado 834317" d="M255.035,58.468a1.115,1.115,0,1,1-1.115-1.115,1.115,1.115,0,0,1,1.115,1.115" transform="translate(-101.48 -23.022)"/>
    <path id="Trazado_834318" data-name="Trazado 834318" d="M223.737,27.495a1.115,1.115,0,1,1-1.115-1.115,1.115,1.115,0,0,1,1.115,1.115" transform="translate(-88.917 -10.589)"/>
    <path id="Trazado_834319" data-name="Trazado 834319" d="M231.561,27.495a1.115,1.115,0,1,1-1.115-1.115,1.115,1.115,0,0,1,1.115,1.115" transform="translate(-92.057 -10.589)"/>
    <path id="Trazado_834320" data-name="Trazado 834320" d="M239.386,27.495a1.115,1.115,0,1,1-1.115-1.115,1.115,1.115,0,0,1,1.115,1.115" transform="translate(-95.198 -10.589)"/>
    <path id="Trazado_834321" data-name="Trazado 834321" d="M247.21,27.495A1.115,1.115,0,1,1,246.1,26.38a1.115,1.115,0,0,1,1.115,1.115" transform="translate(-98.339 -10.589)"/>
    <path id="Trazado_834322" data-name="Trazado 834322" d="M255.035,27.495a1.115,1.115,0,1,1-1.115-1.115,1.115,1.115,0,0,1,1.115,1.115" transform="translate(-101.48 -10.589)"/>
    <path id="Trazado_834323" data-name="Trazado 834323" d="M223.737,35.434a1.115,1.115,0,1,1-1.115-1.115,1.115,1.115,0,0,1,1.115,1.115" transform="translate(-88.917 -13.776)"/>
    <path id="Trazado_834324" data-name="Trazado 834324" d="M231.561,35.434a1.115,1.115,0,1,1-1.115-1.115,1.115,1.115,0,0,1,1.115,1.115" transform="translate(-92.057 -13.776)"/>
    <path id="Trazado_834325" data-name="Trazado 834325" d="M239.386,35.434a1.115,1.115,0,1,1-1.115-1.115,1.115,1.115,0,0,1,1.115,1.115" transform="translate(-95.198 -13.776)"/>
    <path id="Trazado_834326" data-name="Trazado 834326" d="M247.21,35.434a1.115,1.115,0,1,1-1.115-1.115,1.115,1.115,0,0,1,1.115,1.115" transform="translate(-98.339 -13.776)"/>
    <path id="Trazado_834327" data-name="Trazado 834327" d="M255.035,35.434a1.115,1.115,0,1,1-1.115-1.115,1.115,1.115,0,0,1,1.115,1.115" transform="translate(-101.48 -13.776)"/>
    <path id="Trazado_834328" data-name="Trazado 834328" d="M223.737,43.372a1.115,1.115,0,1,1-1.115-1.115,1.115,1.115,0,0,1,1.115,1.115" transform="translate(-88.917 -16.963)"/>
    <path id="Trazado_834329" data-name="Trazado 834329" d="M231.561,43.372a1.115,1.115,0,1,1-1.115-1.115,1.115,1.115,0,0,1,1.115,1.115" transform="translate(-92.057 -16.963)"/>
    <path id="Trazado_834330" data-name="Trazado 834330" d="M239.386,43.372a1.115,1.115,0,1,1-1.115-1.115,1.115,1.115,0,0,1,1.115,1.115" transform="translate(-95.198 -16.963)"/>
    <path id="Trazado_834331" data-name="Trazado 834331" d="M247.21,43.372a1.115,1.115,0,1,1-1.115-1.115,1.115,1.115,0,0,1,1.115,1.115" transform="translate(-98.339 -16.963)"/>
    <path id="Trazado_834332" data-name="Trazado 834332" d="M255.035,43.372a1.115,1.115,0,1,1-1.115-1.115,1.115,1.115,0,0,1,1.115,1.115" transform="translate(-101.48 -16.963)"/>
    <path id="Trazado_834333" data-name="Trazado 834333" d="M179.783,9.595v16a4.26,4.26,0,0,1-4.247,4.248H153.73l-11.4,6.986,2.071-6.986h-1.578a4.26,4.26,0,0,1-4.248-4.248v-16a4.26,4.26,0,0,1,4.248-4.247h32.71a4.26,4.26,0,0,1,4.247,4.247" transform="translate(-55.628 -2.147)" fill="#fdffff"/>
    <path id="Trazado_834334" data-name="Trazado 834334" d="M178.6,8.412v16a4.26,4.26,0,0,1-4.247,4.247H152.548l-11.4,6.986,2.071-6.986h-1.578a4.26,4.26,0,0,1-4.247-4.247v-16a4.26,4.26,0,0,1,4.247-4.247h32.71A4.26,4.26,0,0,1,178.6,8.412Z" transform="translate(-55.153 -1.672)" fill="none" stroke="#000" stroke-miterlimit="10" stroke-width="1"/>
    <path id="Trazado_834335" data-name="Trazado 834335" d="M175.941,15.3H146a1.224,1.224,0,1,1,0-2.449h29.939a1.224,1.224,0,1,1,0,2.449" transform="translate(-58.116 -5.161)" fill="#4cccd3"/>
    <path id="Trazado_834336" data-name="Trazado 834336" d="M175.941,24.733H146a1.224,1.224,0,1,1,0-2.449h29.939a1.224,1.224,0,1,1,0,2.449" transform="translate(-58.116 -8.945)" fill="#4cccd3"/>
    <path id="Trazado_834337" data-name="Trazado 834337" d="M164.678,33.019H146.036a1.28,1.28,0,0,1-1.276-1.276v-.007a1.28,1.28,0,0,1,1.276-1.276h18.642a1.279,1.279,0,0,1,1.276,1.276v.007a1.279,1.279,0,0,1-1.276,1.276" transform="translate(-58.109 -12.228)" fill="#4cccd3"/>
    <rect id="Rectángulo_384838" data-name="Rectángulo 384838" width="35.47" height="35.47" transform="translate(46.774 25.014)" fill="#ffb3b3"/>
    <path id="Trazado_834338" data-name="Trazado 834338" d="M95.613,50.2V67.782H91.543V53.465H88.027V50.2Z" transform="translate(-35.336 -20.151)" fill="#fdffff"/>
    <path id="Trazado_834339" data-name="Trazado 834339" d="M118.129,62.407c0,2.964-2.285,5.676-7.284,5.676a12.088,12.088,0,0,1-6.706-1.884l1.583-3.114a8.534,8.534,0,0,0,5.023,1.583c2.034,0,3.29-.829,3.29-2.261,0-1.331-.98-2.16-3.29-2.16h-1.859V57.56l3.617-4.094h-7.485V50.2h12.307v2.637l-3.969,4.521c3.165.5,4.773,2.461,4.773,5.048" transform="translate(-41.803 -20.151)" fill="#fdffff"/>
    <path id="Trazado_834340" data-name="Trazado 834340" d="M95.02,88.639l.62-.743a1.107,1.107,0,0,0,.9.53c.448,0,.682-.269.682-.8V85.331h-1.7v-.9h2.8v3.128a1.559,1.559,0,0,1-1.736,1.778,1.94,1.94,0,0,1-1.571-.7" transform="translate(-38.143 -33.894)" fill="#fdffff"/>
    <path id="Trazado_834341" data-name="Trazado 834341" d="M102.321,87.136v-2.7h1.116V87.1c0,.916.4,1.3,1.075,1.3s1.075-.379,1.075-1.3v-2.66h1.1v2.7a2.185,2.185,0,1,1-4.369,0" transform="translate(-41.073 -33.894)" fill="#fdffff"/>
    <path id="Trazado_834342" data-name="Trazado 834342" d="M115.891,84.435v4.823h-.916l-2.405-2.928v2.928h-1.1V84.435h.924l2.4,2.928V84.435Z" transform="translate(-44.744 -33.894)" fill="#fdffff"/>
    <rect id="Rectángulo_384839" data-name="Rectángulo 384839" width="41.821" height="1.885" transform="translate(84.948 58.598)" fill="#837af9"/>
    <rect id="Rectángulo_384840" data-name="Rectángulo 384840" width="60.84" height="1.885" transform="translate(84.947 53.919)" fill="#837af9"/>
    <rect id="Rectángulo_384841" data-name="Rectángulo 384841" width="60.84" height="1.885" transform="translate(84.947 49.33)" fill="#837af9"/>
    <rect id="Rectángulo_384842" data-name="Rectángulo 384842" width="60.84" height="1.885" transform="translate(84.947 44.65)" fill="#837af9"/>
    <rect id="Rectángulo_384843" data-name="Rectángulo 384843" width="60.84" height="1.885" transform="translate(84.947 40.231)" fill="#837af9"/>
    <path id="Trazado_834343" data-name="Trazado 834343" d="M51.959,203.8a1.115,1.115,0,1,1-1.115-1.115,1.115,1.115,0,0,1,1.115,1.115" transform="translate(-19.962 -81.361)"/>
    <path id="Trazado_834344" data-name="Trazado 834344" d="M59.783,203.8a1.115,1.115,0,1,1-1.115-1.115,1.115,1.115,0,0,1,1.115,1.115" transform="translate(-23.103 -81.361)"/>
    <path id="Trazado_834345" data-name="Trazado 834345" d="M67.608,203.8a1.115,1.115,0,1,1-1.115-1.115,1.115,1.115,0,0,1,1.115,1.115" transform="translate(-26.244 -81.361)"/>
    <path id="Trazado_834346" data-name="Trazado 834346" d="M75.432,203.8a1.115,1.115,0,1,1-1.115-1.115,1.115,1.115,0,0,1,1.115,1.115" transform="translate(-29.385 -81.361)"/>
    <path id="Trazado_834347" data-name="Trazado 834347" d="M83.257,203.8a1.115,1.115,0,1,1-1.115-1.115,1.115,1.115,0,0,1,1.115,1.115" transform="translate(-32.526 -81.361)"/>
    <path id="Trazado_834348" data-name="Trazado 834348" d="M51.959,211.738a1.115,1.115,0,1,1-1.115-1.115,1.115,1.115,0,0,1,1.115,1.115" transform="translate(-19.962 -84.547)"/>
    <path id="Trazado_834349" data-name="Trazado 834349" d="M59.783,211.738a1.115,1.115,0,1,1-1.115-1.115,1.115,1.115,0,0,1,1.115,1.115" transform="translate(-23.103 -84.547)"/>
    <path id="Trazado_834350" data-name="Trazado 834350" d="M67.608,211.738a1.115,1.115,0,1,1-1.115-1.115,1.115,1.115,0,0,1,1.115,1.115" transform="translate(-26.244 -84.547)"/>
    <path id="Trazado_834351" data-name="Trazado 834351" d="M75.432,211.738a1.115,1.115,0,1,1-1.115-1.115,1.115,1.115,0,0,1,1.115,1.115" transform="translate(-29.385 -84.547)"/>
    <path id="Trazado_834352" data-name="Trazado 834352" d="M83.257,211.738a1.115,1.115,0,1,1-1.115-1.115,1.115,1.115,0,0,1,1.115,1.115" transform="translate(-32.526 -84.547)"/>
    <path id="Trazado_834353" data-name="Trazado 834353" d="M51.959,180.765a1.115,1.115,0,1,1-1.115-1.115,1.115,1.115,0,0,1,1.115,1.115" transform="translate(-19.962 -72.114)"/>
    <path id="Trazado_834354" data-name="Trazado 834354" d="M59.783,180.765a1.115,1.115,0,1,1-1.115-1.115,1.115,1.115,0,0,1,1.115,1.115" transform="translate(-23.103 -72.114)"/>
    <path id="Trazado_834355" data-name="Trazado 834355" d="M67.608,180.765a1.115,1.115,0,1,1-1.115-1.115,1.115,1.115,0,0,1,1.115,1.115" transform="translate(-26.244 -72.114)"/>
    <path id="Trazado_834356" data-name="Trazado 834356" d="M75.432,180.765a1.115,1.115,0,1,1-1.115-1.115,1.115,1.115,0,0,1,1.115,1.115" transform="translate(-29.385 -72.114)"/>
    <path id="Trazado_834357" data-name="Trazado 834357" d="M83.257,180.765a1.115,1.115,0,1,1-1.115-1.115,1.115,1.115,0,0,1,1.115,1.115" transform="translate(-32.526 -72.114)"/>
    <path id="Trazado_834358" data-name="Trazado 834358" d="M51.959,188.7a1.115,1.115,0,1,1-1.115-1.115,1.115,1.115,0,0,1,1.115,1.115" transform="translate(-19.962 -75.301)"/>
    <path id="Trazado_834359" data-name="Trazado 834359" d="M59.783,188.7a1.115,1.115,0,1,1-1.115-1.115,1.115,1.115,0,0,1,1.115,1.115" transform="translate(-23.103 -75.301)"/>
    <path id="Trazado_834360" data-name="Trazado 834360" d="M67.608,188.7a1.115,1.115,0,1,1-1.115-1.115,1.115,1.115,0,0,1,1.115,1.115" transform="translate(-26.244 -75.301)"/>
    <path id="Trazado_834361" data-name="Trazado 834361" d="M75.432,188.7a1.115,1.115,0,1,1-1.115-1.115,1.115,1.115,0,0,1,1.115,1.115" transform="translate(-29.385 -75.301)"/>
    <path id="Trazado_834362" data-name="Trazado 834362" d="M83.257,188.7a1.115,1.115,0,1,1-1.115-1.115,1.115,1.115,0,0,1,1.115,1.115" transform="translate(-32.526 -75.301)"/>
    <path id="Trazado_834363" data-name="Trazado 834363" d="M51.959,196.643a1.115,1.115,0,1,1-1.115-1.115,1.115,1.115,0,0,1,1.115,1.115" transform="translate(-19.962 -78.488)"/>
    <path id="Trazado_834364" data-name="Trazado 834364" d="M59.783,196.643a1.115,1.115,0,1,1-1.115-1.115,1.115,1.115,0,0,1,1.115,1.115" transform="translate(-23.103 -78.488)"/>
    <path id="Trazado_834365" data-name="Trazado 834365" d="M67.608,196.643a1.115,1.115,0,1,1-1.115-1.115,1.115,1.115,0,0,1,1.115,1.115" transform="translate(-26.244 -78.488)"/>
    <path id="Trazado_834366" data-name="Trazado 834366" d="M75.432,196.643a1.115,1.115,0,1,1-1.115-1.115,1.115,1.115,0,0,1,1.115,1.115" transform="translate(-29.385 -78.488)"/>
    <path id="Trazado_834367" data-name="Trazado 834367" d="M83.257,196.643a1.115,1.115,0,1,1-1.115-1.115,1.115,1.115,0,0,1,1.115,1.115" transform="translate(-32.526 -78.488)"/>
    <line id="Línea_431" data-name="Línea 431" x2="98.14" transform="translate(46.047 146.881)" fill="none" stroke="#000" stroke-miterlimit="10" stroke-width="1"/>
    <path id="Trazado_834368" data-name="Trazado 834368" d="M31.341,187.892a.3.3,0,0,1-.082-.011q-.4-.12-.806-.246a.287.287,0,0,1,.171-.549q.4.126.8.244a.287.287,0,0,1-.082.563m-3.518-1.18a.272.272,0,0,1-.1-.019c-.9-.339-1.8-.706-2.674-1.092a.287.287,0,1,1,.232-.525c.863.381,1.752.744,2.645,1.079a.287.287,0,0,1-.1.556m-5.253-2.321a.285.285,0,0,1-.131-.031c-.858-.44-1.711-.907-2.533-1.391a.287.287,0,0,1,.292-.5c.812.477,1.654.94,2.5,1.374a.287.287,0,0,1-.131.543m-4.95-2.911a.286.286,0,0,1-.16-.048c-.8-.537-1.589-1.1-2.347-1.686a.287.287,0,1,1,.35-.456c.748.575,1.528,1.134,2.317,1.665a.287.287,0,0,1-.16.526m-4.552-3.5a.286.286,0,0,1-.189-.071c-.729-.64-1.438-1.3-2.109-1.978a.287.287,0,1,1,.407-.405c.661.664,1.361,1.321,2.08,1.951a.287.287,0,0,1-.189.5m-4.048-4.07a.288.288,0,0,1-.217-.1c-.63-.73-1.238-1.489-1.809-2.258a.287.287,0,1,1,.461-.342c.563.757,1.162,1.505,1.783,2.224a.287.287,0,0,1-.217.475M5.6,169.3a.286.286,0,0,1-.243-.134q-.387-.614-.75-1.246t-.693-1.265a.287.287,0,0,1,.51-.265q.328.629.681,1.244t.738,1.226a.287.287,0,0,1-.09.4.284.284,0,0,1-.153.044m-2.646-5.094a.286.286,0,0,1-.265-.177c-.369-.885-.706-1.8-1-2.717a.287.287,0,0,1,.547-.176c.291.9.623,1.8.986,2.672a.288.288,0,0,1-.155.376.3.3,0,0,1-.11.022m-1.762-5.461a.287.287,0,0,1-.28-.221c-.219-.937-.4-1.894-.543-2.845A.287.287,0,0,1,.94,155.6c.138.935.318,1.876.533,2.8a.288.288,0,0,1-.214.346.3.3,0,0,1-.065.007m-.84-5.677a.287.287,0,0,1-.286-.269C.023,152.093,0,151.378,0,150.676c0-.257,0-.514.009-.77a.291.291,0,0,1,.294-.28.287.287,0,0,1,.281.294c-.006.252-.008.5-.009.757,0,.69.022,1.393.066,2.089a.287.287,0,0,1-.269.3H.354m.137-5.736-.033,0a.287.287,0,0,1-.253-.318c.11-.965.263-1.928.459-2.862a.287.287,0,0,1,.562.117c-.191.916-.342,1.862-.45,2.809a.288.288,0,0,1-.285.255m1.176-5.615a.288.288,0,0,1-.274-.373A28.6,28.6,0,0,1,2.4,138.625a.287.287,0,0,1,.528.227,27.871,27.871,0,0,0-.985,2.666.287.287,0,0,1-.274.2M3.93,136.45a.287.287,0,0,1-.25-.427q.2-.356.409-.705c.346-.576.728-1.165,1.137-1.748a.287.287,0,1,1,.47.329c-.4.573-.775,1.15-1.115,1.716q-.207.343-.4.69a.286.286,0,0,1-.251.147M7.2,131.736a.287.287,0,0,1-.221-.469c.575-.7,1.2-1.414,1.9-2.179a.287.287,0,0,1,.423.388c-.693.757-1.307,1.461-1.875,2.154a.287.287,0,0,1-.223.105m3.866-4.248a.287.287,0,0,1-.205-.488q1.006-1.026,2.028-2.04a.287.287,0,0,1,.406.407c-.678.676-1.355,1.352-2.023,2.035a.288.288,0,0,1-.205.086m4.053-4.073a.287.287,0,0,1-.2-.488c.57-.581,1.136-1.165,1.689-1.757l.29-.312a.287.287,0,0,1,.423.389l-.292.315q-.837.894-1.7,1.768a.285.285,0,0,1-.2.086m3.875-4.241a.287.287,0,0,1-.221-.469c.626-.763,1.209-1.525,1.733-2.266a.287.287,0,1,1,.469.332c-.531.752-1.122,1.525-1.758,2.3a.286.286,0,0,1-.222.1m3.3-4.7a.282.282,0,0,1-.143-.038.287.287,0,0,1-.105-.393,24.835,24.835,0,0,0,1.28-2.532.287.287,0,1,1,.527.229,25.5,25.5,0,0,1-1.31,2.591.287.287,0,0,1-.249.144m2.255-5.266a.284.284,0,0,1-.077-.01.287.287,0,0,1-.2-.353,17.275,17.275,0,0,0,.527-2.771.284.284,0,0,1,.315-.256.287.287,0,0,1,.256.315A17.753,17.753,0,0,1,24.823,109a.287.287,0,0,1-.277.211m.584-5.686a.287.287,0,0,1-.287-.268,19.29,19.29,0,0,0-.406-2.8.288.288,0,0,1,.562-.122,20.269,20.269,0,0,1,.417,2.879.287.287,0,0,1-.267.306h-.02m-1.177-5.605a.287.287,0,0,1-.273-.2c-.275-.829-.6-1.7-1-2.674a.287.287,0,0,1,.532-.217c.4.983.733,1.869,1.011,2.712a.287.287,0,0,1-.183.363.276.276,0,0,1-.09.014m-2.144-5.333a.286.286,0,0,1-.262-.169q-.326-.726-.657-1.452L20.362,89.8a.287.287,0,0,1,.524-.236l.527,1.165q.33.726.657,1.454a.286.286,0,0,1-.144.38.282.282,0,0,1-.117.025m-2.331-5.252a.287.287,0,0,1-.265-.178c-.407-.983-.743-1.867-1.027-2.7a.288.288,0,0,1,.545-.184c.279.822.611,1.695,1.013,2.666a.288.288,0,0,1-.266.4M17.669,81.89a.287.287,0,0,1-.28-.224,20.308,20.308,0,0,1-.447-2.874.287.287,0,1,1,.573-.045,19.7,19.7,0,0,0,.434,2.792.287.287,0,0,1-.216.344.3.3,0,0,1-.064.007m-.418-5.7h-.028a.287.287,0,0,1-.258-.314,16.548,16.548,0,0,1,.544-2.867.287.287,0,1,1,.553.156,15.916,15.916,0,0,0-.525,2.767.287.287,0,0,1-.286.259m1.528-5.508a.282.282,0,0,1-.119-.026.287.287,0,0,1-.142-.38,23.627,23.627,0,0,1,1.374-2.561.287.287,0,1,1,.489.3,23.056,23.056,0,0,0-1.341,2.5.287.287,0,0,1-.262.168m2.98-4.9a.287.287,0,0,1-.229-.46c.551-.733,1.147-1.469,1.82-2.248a.287.287,0,1,1,.435.375c-.665.769-1.252,1.495-1.8,2.218a.287.287,0,0,1-.23.114M25.5,61.419a.287.287,0,0,1-.209-.485c.663-.7,1.337-1.389,2.009-2.064a.287.287,0,0,1,.408.405c-.669.672-1.34,1.356-2,2.054a.286.286,0,0,1-.209.09m4.039-4.088a.287.287,0,0,1-.2-.491l2.035-2.027a.287.287,0,1,1,.406.407l-2.036,2.028a.285.285,0,0,1-.2.083m4.07-4.055a.287.287,0,0,1-.2-.491l2.035-2.027a.287.287,0,0,1,.406.407L33.81,53.193a.286.286,0,0,1-.2.084" transform="translate(0 -20.342)"/>
    <path id="Trazado_834369" data-name="Trazado 834369" d="M264.1,222.5a.287.287,0,0,1-.269-.186,6.429,6.429,0,0,1-.409-2.276c0-.226.011-.452.033-.678a.293.293,0,0,1,.314-.259.288.288,0,0,1,.259.314c-.02.208-.031.415-.031.623a5.841,5.841,0,0,0,.372,2.072.287.287,0,0,1-.269.389m.4-5.582a.292.292,0,0,1-.116-.024.288.288,0,0,1-.148-.379,14.856,14.856,0,0,1,1.459-2.537.287.287,0,1,1,.469.332,14.238,14.238,0,0,0-1.4,2.436.289.289,0,0,1-.263.172m3.247-4.711a.287.287,0,0,1-.211-.482c.631-.684,1.313-1.376,2.026-2.06a.287.287,0,1,1,.4.414c-.7.676-1.378,1.361-2,2.036a.285.285,0,0,1-.211.092m4.137-3.981a.287.287,0,0,1-.188-.5c.69-.6,1.435-1.22,2.215-1.845a.287.287,0,1,1,.359.448c-.773.621-1.513,1.237-2.2,1.832a.288.288,0,0,1-.188.07m4.472-3.6a.287.287,0,0,1-.174-.516q1.143-.869,2.306-1.721a.287.287,0,0,1,.34.463q-1.156.85-2.3,1.716a.291.291,0,0,1-.174.058m4.619-3.415a.287.287,0,0,1-.169-.519q1.159-.848,2.314-1.7a.287.287,0,1,1,.342.461q-1.155.857-2.317,1.7a.283.283,0,0,1-.169.056m4.608-3.433a.287.287,0,0,1-.176-.514c.806-.623,1.54-1.2,2.243-1.782a.288.288,0,0,1,.365.445c-.708.58-1.445,1.167-2.256,1.792a.287.287,0,0,1-.175.06m4.433-3.653a.287.287,0,0,1-.192-.5l.16-.144c.652-.586,1.293-1.2,1.908-1.822a.287.287,0,1,1,.409.4c-.623.632-1.273,1.253-1.932,1.845l-.162.145a.284.284,0,0,1-.192.074m4.026-4.093a.287.287,0,0,1-.218-.475c.629-.732,1.228-1.482,1.78-2.229a.287.287,0,0,1,.462.341c-.56.758-1.167,1.519-1.806,2.262a.285.285,0,0,1-.218.1m3.408-4.62a.287.287,0,0,1-.244-.439c.51-.82.979-1.654,1.4-2.482a.287.287,0,1,1,.513.258c-.424.843-.9,1.693-1.421,2.527a.287.287,0,0,1-.244.136m2.568-5.132a.294.294,0,0,1-.1-.019.288.288,0,0,1-.166-.371,23.709,23.709,0,0,0,.851-2.706.287.287,0,1,1,.558.138,24.575,24.575,0,0,1-.871,2.773.288.288,0,0,1-.269.185m1.365-5.565h-.031a.288.288,0,0,1-.255-.317,18.949,18.949,0,0,0,.111-2.034q0-.4-.017-.79a.288.288,0,0,1,.274-.3.276.276,0,0,1,.3.274c.012.272.018.544.018.816a19.474,19.474,0,0,1-.114,2.1.287.287,0,0,1-.285.256m-.259-5.716a.286.286,0,0,1-.28-.229c-.04-.192-.083-.384-.129-.575a19.234,19.234,0,0,0-.657-2.139.287.287,0,0,1,.539-.2,19.842,19.842,0,0,1,.677,2.2q.069.3.132.592a.287.287,0,0,1-.223.339.25.25,0,0,1-.059.007m-1.956-5.382a.289.289,0,0,1-.257-.157c-.393-.775-.848-1.589-1.39-2.49a.287.287,0,1,1,.493-.3c.549.912,1.01,1.738,1.41,2.525a.288.288,0,0,1-.256.418m-2.932-4.937a.287.287,0,0,1-.241-.131l-.6-.918c-.324-.5-.649-.994-.97-1.492a.287.287,0,0,1,.484-.311c.319.5.643.992.967,1.488l.6.919a.287.287,0,0,1-.24.444m-3.077-4.852a.288.288,0,0,1-.248-.142l-.283-.49c-.38-.669-.747-1.361-1.09-2.056a.287.287,0,1,1,.515-.255c.338.685.7,1.367,1.074,2.026l.28.485a.287.287,0,0,1-.1.393.284.284,0,0,1-.145.04m-2.542-5.147a.287.287,0,0,1-.266-.178c-.361-.885-.7-1.8-1-2.715a.287.287,0,1,1,.545-.18c.3.9.629,1.8.985,2.677a.287.287,0,0,1-.157.374.278.278,0,0,1-.108.022m-1.793-5.454a.287.287,0,0,1-.278-.217c-.235-.928-.441-1.879-.612-2.827a.287.287,0,0,1,.566-.1c.168.934.372,1.872.6,2.788a.288.288,0,0,1-.278.358m-1.02-5.65a.287.287,0,0,1-.285-.256c-.105-.959-.178-1.93-.215-2.885a.288.288,0,0,1,.277-.3.272.272,0,0,1,.3.276c.037.942.107,1.9.211,2.844a.288.288,0,0,1-.254.317h-.032m-.223-5.736h-.009a.287.287,0,0,1-.278-.3c.029-.937.093-1.884.189-2.816l.008-.075a.293.293,0,0,1,.319-.251.287.287,0,0,1,.251.32l-.006.063c-.095.92-.157,1.854-.186,2.777a.287.287,0,0,1-.287.278m.585-5.711a.323.323,0,0,1-.048,0,.287.287,0,0,1-.236-.331c.154-.911.335-1.838.553-2.833a.287.287,0,0,1,.561.124c-.215.985-.4,1.9-.547,2.8a.288.288,0,0,1-.283.24m1.22-5.612a.3.3,0,0,1-.072-.009.288.288,0,0,1-.207-.35c.239-.928.491-1.854.749-2.779a.288.288,0,0,1,.554.155c-.258.921-.509,1.843-.746,2.767a.288.288,0,0,1-.278.216m1.536-5.536a.284.284,0,0,1-.08-.011.287.287,0,0,1-.2-.355l.051-.176c.248-.861.5-1.722.737-2.585a.287.287,0,0,1,.553.155q-.364,1.3-.739,2.588l-.05.176a.288.288,0,0,1-.277.208m1.542-5.535a.284.284,0,0,1-.072-.01.288.288,0,0,1-.206-.35c.259-1,.479-1.906.675-2.782a.287.287,0,0,1,.561.125c-.2.882-.419,1.8-.679,2.8a.288.288,0,0,1-.278.215m1.235-5.609a.259.259,0,0,1-.048,0,.287.287,0,0,1-.236-.331c.159-.944.287-1.9.381-2.827a.3.3,0,0,1,.314-.257.287.287,0,0,1,.257.314c-.095.945-.224,1.909-.385,2.866a.288.288,0,0,1-.283.239m.564-5.713h-.007a.288.288,0,0,1-.28-.295q.012-.454.012-.907c0-.653-.019-1.306-.056-1.941a.287.287,0,0,1,.27-.3.291.291,0,0,1,.3.27c.038.646.057,1.31.057,1.975q0,.461-.012.921a.287.287,0,0,1-.287.28m-.35-5.728a.288.288,0,0,1-.283-.243,25.018,25.018,0,0,0-.6-2.776.287.287,0,0,1,.554-.153,25.638,25.638,0,0,1,.61,2.84.288.288,0,0,1-.285.332m-1.543-5.52a.288.288,0,0,1-.265-.175,18.886,18.886,0,0,0-1.294-2.513.287.287,0,1,1,.489-.3,19.463,19.463,0,0,1,1.333,2.589.287.287,0,0,1-.264.4m-3.011-4.863a.288.288,0,0,1-.217-.1q-.153-.177-.312-.35a17.565,17.565,0,0,0-1.706-1.622.287.287,0,0,1,.367-.442,18.157,18.157,0,0,1,1.762,1.675c.109.12.217.24.323.362a.287.287,0,0,1-.217.475m-4.393-3.662a.29.29,0,0,1-.148-.041,21.313,21.313,0,0,0-2.521-1.288.287.287,0,1,1,.228-.527,21.878,21.878,0,0,1,2.589,1.323.287.287,0,0,1-.148.533m-5.251-2.288a.293.293,0,0,1-.084-.012c-.871-.265-1.8-.5-2.758-.7a.287.287,0,0,1-.223-.339.29.29,0,0,1,.339-.223c.976.2,1.921.443,2.808.713a.287.287,0,0,1-.083.562m-5.613-1.185a.276.276,0,0,1-.039,0c-.9-.12-1.857-.22-2.841-.3a.287.287,0,0,1-.264-.308.3.3,0,0,1,.308-.265c.994.077,1.961.177,2.873.3a.287.287,0,0,1-.037.572m-5.727-.454h-.01c-.9-.031-1.841-.047-2.865-.05a.287.287,0,0,1,0-.575h0c1.031,0,1.974.019,2.883.05a.287.287,0,0,1-.01.574" transform="translate(-105.743 -29.622)"/>
    <path id="Trazado_834370" data-name="Trazado 834370" d="M166.621,275.6H84.55a8.649,8.649,0,0,1,0-17.3h82.071a8.649,8.649,0,0,1,0,17.3" transform="translate(-30.468 -103.685)" fill="#4cccd3"/>
    <path id="Trazado_834371" data-name="Trazado 834371" d="M166.621,307.291H84.55a8.649,8.649,0,1,1,0-17.3h82.071a8.649,8.649,0,1,1,0,17.3" transform="translate(-30.468 -116.408)" fill="#ffb3b3"/>
    <path id="Trazado_834372" data-name="Trazado 834372" d="M166.621,340.284H84.55a8.649,8.649,0,0,1,0-17.3h82.071a8.649,8.649,0,0,1,0,17.3" transform="translate(-30.468 -129.651)" fill="#837af9"/>
    <path id="Trazado_834373" data-name="Trazado 834373" d="M87.761,275.1a7.14,7.14,0,1,1,7.139-7.14,7.149,7.149,0,0,1-7.139,7.14m0-12.794a5.654,5.654,0,1,0,5.654,5.654,5.661,5.661,0,0,0-5.654-5.654" transform="translate(-32.362 -104.697)" fill="#fdffff"/>
    <path id="Trazado_834374" data-name="Trazado 834374" d="M91.307,270.884v-5.053h1.486v3.228l2.478-.512.3,1.455Z" transform="translate(-36.652 -106.708)" fill="#fdffff"/>
    <path id="Trazado_834375" data-name="Trazado 834375" d="M87.761,306.584a7.14,7.14,0,1,1,7.139-7.14,7.149,7.149,0,0,1-7.139,7.14m0-12.794a5.654,5.654,0,1,0,5.654,5.654,5.661,5.661,0,0,0-5.654-5.654" transform="translate(-32.362 -117.335)" fill="#fdffff"/>
    <path id="Trazado_834376" data-name="Trazado 834376" d="M89.511,304.044l-1.128-.966,1.751-2.044v-4.082h1.486v4.632Z" transform="translate(-35.478 -119.201)" fill="#fdffff"/>
    <path id="Trazado_834377" data-name="Trazado 834377" d="M86.519,339.787a7.14,7.14,0,1,1,7.14-7.14,7.149,7.149,0,0,1-7.14,7.14m0-12.794a5.654,5.654,0,1,0,5.654,5.654,5.661,5.661,0,0,0-5.654-5.654" transform="translate(-31.864 -130.664)" fill="#fdffff"/>
    <path id="Trazado_834378" data-name="Trazado 834378" d="M88.284,337.946l-1.3-.724,1.149-2.059-2.457-2.651,1.089-1.01,3.192,3.441Z" transform="translate(-34.393 -133.07)" fill="#fdffff"/>
    <rect id="Rectángulo_384844" data-name="Rectángulo 384844" width="15.658" height="14.453" transform="translate(44.958 69.975)" fill="#837af9"/>
    <rect id="Rectángulo_384845" data-name="Rectángulo 384845" width="15.658" height="14.453" transform="translate(63.694 69.975)" fill="#e1fffe"/>
    <rect id="Rectángulo_384846" data-name="Rectángulo 384846" width="15.658" height="14.453" transform="translate(82.569 69.975)" fill="#4cccd3"/>
    <rect id="Rectángulo_384847" data-name="Rectángulo 384847" width="15.658" height="14.453" transform="translate(101.306 69.975)" fill="#e1fffe"/>
    <rect id="Rectángulo_384848" data-name="Rectángulo 384848" width="15.658" height="14.453" transform="translate(44.704 88.418)" fill="#837af9"/>
    <rect id="Rectángulo_384849" data-name="Rectángulo 384849" width="15.658" height="14.453" transform="translate(63.44 88.418)" fill="#e1fffe"/>
    <rect id="Rectángulo_384850" data-name="Rectángulo 384850" width="15.658" height="14.453" transform="translate(82.315 88.418)" fill="#e1fffe"/>
    <rect id="Rectángulo_384851" data-name="Rectángulo 384851" width="15.658" height="14.453" transform="translate(45.241 106.861)" fill="#4cccd3"/>
    <rect id="Rectángulo_384852" data-name="Rectángulo 384852" width="15.658" height="14.453" transform="translate(63.977 106.861)" fill="#e1fffe"/>
    <rect id="Rectángulo_384853" data-name="Rectángulo 384853" width="15.658" height="14.453" transform="translate(82.852 106.861)" fill="#4cccd3"/>
    <rect id="Rectángulo_384854" data-name="Rectángulo 384854" width="15.658" height="14.453" transform="translate(101.588 106.861)" fill="#e1fffe"/>
    <rect id="Rectángulo_384855" data-name="Rectángulo 384855" width="15.658" height="14.453" transform="translate(45.241 125.304)" fill="#e1fffe"/>
    <rect id="Rectángulo_384856" data-name="Rectángulo 384856" width="15.658" height="14.453" transform="translate(63.977 125.304)" fill="#e1fffe"/>
    <rect id="Rectángulo_384857" data-name="Rectángulo 384857" width="15.658" height="14.453" transform="translate(82.852 125.304)" fill="#e1fffe"/>
    <rect id="Rectángulo_384858" data-name="Rectángulo 384858" width="15.658" height="14.453" transform="translate(101.588 125.304)" fill="#e1fffe"/>
    <path id="Trazado_834379" data-name="Trazado 834379" d="M116.658,128.769H106.115a2.827,2.827,0,0,1-2.824-2.824v-9.339a2.827,2.827,0,0,1,2.824-2.824h10.543a2.827,2.827,0,0,1,2.824,2.824v9.339a2.827,2.827,0,0,1-2.824,2.824m-10.543-14.453a2.293,2.293,0,0,0-2.291,2.291v9.339a2.293,2.293,0,0,0,2.291,2.291h10.543a2.293,2.293,0,0,0,2.291-2.291v-9.339a2.293,2.293,0,0,0-2.291-2.291Z" transform="translate(-41.463 -45.674)" fill="#837af9"/>
    <path id="Trazado_834380" data-name="Trazado 834380" d="M147.766,159.58H137.222a2.827,2.827,0,0,1-2.824-2.824v-9.339a2.827,2.827,0,0,1,2.824-2.824h10.544a2.827,2.827,0,0,1,2.824,2.824v9.339a2.827,2.827,0,0,1-2.824,2.824m-10.544-14.453a2.293,2.293,0,0,0-2.291,2.291v9.339a2.293,2.293,0,0,0,2.291,2.29h10.544a2.293,2.293,0,0,0,2.29-2.29v-9.339a2.293,2.293,0,0,0-2.29-2.291Z" transform="translate(-53.949 -58.042)" fill="#837af9"/>
    <path id="Trazado_834381" data-name="Trazado 834381" d="M117.13,221.2H106.587a2.827,2.827,0,0,1-2.824-2.824V209.04a2.827,2.827,0,0,1,2.824-2.824H117.13a2.827,2.827,0,0,1,2.824,2.824v9.339a2.827,2.827,0,0,1-2.824,2.824m-10.543-14.453a2.293,2.293,0,0,0-2.291,2.291v9.339a2.293,2.293,0,0,0,2.291,2.29H117.13a2.293,2.293,0,0,0,2.291-2.29V209.04a2.293,2.293,0,0,0-2.291-2.291Z" transform="translate(-41.652 -82.778)" fill="#837af9"/>
    <path id="Trazado_834382" data-name="Trazado 834382" d="M113.948,160.893l-5.784-5.9,1.9-1.867,3.716,3.788,5.376-6.474,2.051,1.7Z" transform="translate(-43.419 -60.39)" fill="#837af9"/>
    <path id="Trazado_834383" data-name="Trazado 834383" d="M148.088,223.128l-5.784-5.9,1.9-1.867,3.716,3.788,5.376-6.474,2.051,1.7Z" transform="translate(-57.123 -85.373)" fill="#837af9"/>
    <rect id="Rectángulo_384859" data-name="Rectángulo 384859" width="15.658" height="14.453" transform="translate(118.94 69.975)" fill="#837af9"/>
    <rect id="Rectángulo_384860" data-name="Rectángulo 384860" width="15.658" height="14.453" transform="translate(137.676 69.975)" fill="#e1fffe"/>
    <rect id="Rectángulo_384861" data-name="Rectángulo 384861" width="15.658" height="14.453" transform="translate(156.551 69.975)" fill="#4cccd3"/>
    <rect id="Rectángulo_384862" data-name="Rectángulo 384862" width="32.755" height="32.897" transform="translate(101.588 88.418)" fill="#ffb3b3"/>
    <rect id="Rectángulo_384863" data-name="Rectángulo 384863" width="15.658" height="14.453" transform="translate(137.421 88.418)" fill="#e1fffe"/>
    <rect id="Rectángulo_384864" data-name="Rectángulo 384864" width="15.658" height="14.453" transform="translate(156.296 88.418)" fill="#e1fffe"/>
    <rect id="Rectángulo_384865" data-name="Rectángulo 384865" width="15.658" height="14.453" transform="translate(137.958 106.861)" fill="#e1fffe"/>
    <rect id="Rectángulo_384866" data-name="Rectángulo 384866" width="15.658" height="14.453" transform="translate(156.833 106.861)" fill="#4cccd3"/>
    <rect id="Rectángulo_384867" data-name="Rectángulo 384867" width="15.658" height="14.453" transform="translate(119.222 125.304)" fill="#e1fffe"/>
    <rect id="Rectángulo_384868" data-name="Rectángulo 384868" width="15.658" height="14.453" transform="translate(137.958 125.304)" fill="#e1fffe"/>
    <rect id="Rectángulo_384869" data-name="Rectángulo 384869" width="15.658" height="14.453" transform="translate(156.833 125.304)" fill="#e1fffe"/>
    <path id="Trazado_834384" data-name="Trazado 834384" d="M240.252,128.769H229.709a2.827,2.827,0,0,1-2.824-2.824v-9.339a2.827,2.827,0,0,1,2.824-2.824h10.543a2.827,2.827,0,0,1,2.824,2.824v9.339a2.827,2.827,0,0,1-2.824,2.824m-10.543-14.453a2.293,2.293,0,0,0-2.291,2.291v9.339a2.293,2.293,0,0,0,2.291,2.291h10.543a2.293,2.293,0,0,0,2.291-2.291v-9.339a2.293,2.293,0,0,0-2.291-2.291Z" transform="translate(-91.075 -45.674)" fill="#837af9"/>
    <path id="Trazado_834385" data-name="Trazado 834385" d="M271.36,159.58H260.816a2.827,2.827,0,0,1-2.824-2.824v-9.339a2.827,2.827,0,0,1,2.824-2.824H271.36a2.827,2.827,0,0,1,2.823,2.824v9.339a2.827,2.827,0,0,1-2.823,2.824m-10.544-14.453a2.293,2.293,0,0,0-2.291,2.291v9.339a2.293,2.293,0,0,0,2.291,2.29H271.36a2.292,2.292,0,0,0,2.29-2.29v-9.339a2.293,2.293,0,0,0-2.29-2.291Z" transform="translate(-103.562 -58.042)" fill="#837af9"/>
    <path id="Trazado_834386" data-name="Trazado 834386" d="M240.724,221.2H230.181a2.827,2.827,0,0,1-2.824-2.824V209.04a2.827,2.827,0,0,1,2.824-2.824h10.543a2.827,2.827,0,0,1,2.824,2.824v9.339a2.827,2.827,0,0,1-2.824,2.824m-10.543-14.453a2.293,2.293,0,0,0-2.291,2.291v9.339a2.293,2.293,0,0,0,2.291,2.29h10.543a2.293,2.293,0,0,0,2.291-2.29V209.04a2.293,2.293,0,0,0-2.291-2.291Z" transform="translate(-91.265 -82.778)" fill="#837af9"/>
    <path id="Trazado_834387" data-name="Trazado 834387" d="M237.542,160.893l-5.784-5.9,1.9-1.867,3.716,3.788,5.376-6.474,2.051,1.7Z" transform="translate(-93.032 -60.39)" fill="#837af9"/>
    <path id="Trazado_834388" data-name="Trazado 834388" d="M271.682,223.128l-5.784-5.9,1.9-1.867,3.716,3.788,5.376-6.474,2.051,1.7Z" transform="translate(-106.736 -85.373)" fill="#837af9"/>
    <path id="Trazado_834389" data-name="Trazado 834389" d="M200.9,175.436a1.981,1.981,0,0,1-1.982,1.977H183.475a1.979,1.979,0,1,1,0-3.958h.678V167.06a6.916,6.916,0,0,1,6.895-6.9h.27a6.916,6.916,0,0,1,6.895,6.9v6.395h.707a1.986,1.986,0,0,1,1.982,1.981" transform="translate(-72.854 -64.292)" fill="#e1fffe"/>
    <path id="Trazado_834390" data-name="Trazado 834390" d="M199.163,190.58a5.108,5.108,0,0,1-4.328,2.486h-.2a5.1,5.1,0,0,1-4.325-2.486Z" transform="translate(-76.393 -76.502)" fill="#e1fffe"/>
    <path id="Trazado_834391" data-name="Trazado 834391" d="M198.232,155.155a1.6,1.6,0,1,1-1.6-1.6,1.6,1.6,0,0,1,1.6,1.6" transform="translate(-78.287 -61.639)" fill="#e1fffe"/>
    <path id="Trazado_834392" data-name="Trazado 834392" d="M184.566,156.7a8.822,8.822,0,0,0-4.278,7.719c.009.37.581.318.572-.05a8.249,8.249,0,0,1,4.038-7.2c.318-.187-.015-.655-.332-.469" transform="translate(-72.369 -62.883)" fill="#e1fffe"/>
    <path id="Trazado_834393" data-name="Trazado 834393" d="M178.674,156.522a6.864,6.864,0,0,0-2.469,4.223.287.287,0,0,0,.565.1,6.264,6.264,0,0,1,2.236-3.858c.287-.23-.043-.7-.332-.469" transform="translate(-70.73 -62.805)" fill="#e1fffe"/>
    <path id="Trazado_834394" data-name="Trazado 834394" d="M207.9,156.449c-.318-.19-.561.332-.245.52,2.525,1.5,3.311,4.555,3.454,7.3.019.369.591.318.572-.05-.156-2.976-1.068-6.153-3.781-7.77" transform="translate(-83.297 -62.784)" fill="#e1fffe"/>
    <path id="Trazado_834395" data-name="Trazado 834395" d="M213.75,156.558c-.273-.251-.641.19-.369.44a4.415,4.415,0,0,1,1.4,2.929.287.287,0,0,0,.572-.05,5.01,5.01,0,0,0-1.607-3.319" transform="translate(-85.616 -62.815)" fill="#e1fffe"/>
    <path id="Trazado_834396" data-name="Trazado 834396" d="M182.593,194.416c-.98-.283-1.359-1.413-1.654-2.271-.12-.35-.658-.15-.538.2a6.313,6.313,0,0,0,.752,1.648,2.5,2.5,0,0,0,1.337.988.289.289,0,0,0,.334-.23.293.293,0,0,0-.23-.335" transform="translate(-72.408 -77.057)" fill="#e1fffe"/>
    <path id="Trazado_834397" data-name="Trazado 834397" d="M179.384,196.466q-.116-.056-.225-.122l-.009,0-.008-.005-.048-.033c-.035-.025-.069-.05-.1-.077q-.1-.075-.185-.16c-.028-.028-.055-.056-.083-.084l-.013-.014-.046-.053a2.528,2.528,0,0,1-.278-.409l-.006-.011-.025-.053c-.02-.042-.038-.084-.056-.128a2.453,2.453,0,0,1-.082-.242.289.289,0,0,0-.369-.169.3.3,0,0,0-.169.37,2.768,2.768,0,0,0,1.458,1.715.287.287,0,1,0,.245-.52" transform="translate(-71.318 -78.229)" fill="#e1fffe"/>
    <path id="Trazado_834398" data-name="Trazado 834398" d="M209.765,191.572a7.892,7.892,0,0,1-2.115,2.514c-.291.226.04.7.332.469a8.588,8.588,0,0,0,2.3-2.738c.174-.327-.346-.57-.52-.245" transform="translate(-83.309 -76.838)" fill="#e1fffe"/>
    <path id="Trazado_834399" data-name="Trazado 834399" d="M213.126,194.394a.294.294,0,0,0-.382.137c-.033.06-.066.121-.1.18l-.053.089-.025.039v0l0,0c-.077.115-.156.228-.241.337a5.142,5.142,0,0,1-.56.609.286.286,0,0,0-.066.21.287.287,0,0,0,.506.16,5.327,5.327,0,0,0,1.064-1.385.29.29,0,0,0-.137-.383" transform="translate(-84.977 -78.023)" fill="#e1fffe"/>
    <path id="Trazado_834400" data-name="Trazado 834400" d="M219.322,345.129a4.9,4.9,0,0,0,1.442,1.916h8.348c.414-.22.813-.459,1.193-.709.129-.08.254-.165.379-.249a18.708,18.708,0,0,0,1.757-1.373,19.609,19.609,0,0,0,4.456-5.654,17.913,17.913,0,0,0,1.153-2.68c.115-.329.215-.664.309-1a15.648,15.648,0,0,0,.544-5.269,13.9,13.9,0,0,0-.36-2.311c-.12-.5-.274-.988-.439-1.472-.125-.359-.25-.719-.369-1.083a7.954,7.954,0,0,1-.484-2.75,5.614,5.614,0,0,1,.649-2.31c1.552-3.019,4.771-4.606,6.847-7.191a1.987,1.987,0,0,0,.135-.16,7.646,7.646,0,0,0,1.487-3.119c0-.005,0-.01,0-.01a5.818,5.818,0,0,0,.115-1.288,9.012,9.012,0,0,0-1.238-4c-1.427-2.61-3.633-4.886-4.441-7.8a6.92,6.92,0,0,1,.214-4.262,21.051,21.051,0,0,1,2.141-3.922,18.717,18.717,0,0,0,2.021-3.888,7.247,7.247,0,0,0,.015-4.676,14.059,14.059,0,0,0-2.815-4.531,23.72,23.72,0,0,0-3.214-3.124v0a.871.871,0,0,0-.08-.065h0c-.339-.274-.689-.534-1.043-.784a15.51,15.51,0,0,0-7.889-2.864c-.244-.02-.489-.025-.733-.025a12.806,12.806,0,0,0-1.512.09,10.772,10.772,0,0,0-5.045,1.981,9.567,9.567,0,0,0-2.83,3.293,8.281,8.281,0,0,0-.9,4.79,13.743,13.743,0,0,0,2.176,5.524c1.632,2.605,3.772,5.045,4.835,7.949a10.776,10.776,0,0,1,.544,2.1,7.058,7.058,0,0,1-.928,4.88,20.613,20.613,0,0,1-3.987,4.117,12.388,12.388,0,0,0-3.059,3.782,5.694,5.694,0,0,0-.08,4.82,27.09,27.09,0,0,0,2.914,4.451,22.638,22.638,0,0,1,2.535,4.427,9.394,9.394,0,0,1,.743,4.761,10.6,10.6,0,0,1-2.255,4.87c-2.006,2.665-4.786,5.17-5.3,8.648a7.928,7.928,0,0,0,2.056,6.173" transform="translate(-87.186 -107.77)" fill="#b2b0f7"/>
    <path id="Trazado_834401" data-name="Trazado 834401" d="M220.621,340.355a11.74,11.74,0,0,0,2.47,6.507h1.088a1.526,1.526,0,0,0,.03-.22,5.669,5.669,0,0,0,.035-1.053,4.508,4.508,0,0,1,.11-.449c1.147-3.788,4.716-5.549,7.8-7.735A11.123,11.123,0,0,0,236.7,332.1a6.664,6.664,0,0,0,.349-1.8,9.6,9.6,0,0,0-.324-2.859c-.424-1.682-1.048-3.308-1.472-5-.22-.873-.4-1.751-.564-2.64a7.29,7.29,0,0,1-.125-2.505,4.4,4.4,0,0,1,1.746-2.674c1.682-1.347,3.828-2.071,5.315-3.673a4.99,4.99,0,0,0,1.347-3.393,10.549,10.549,0,0,0-1.258-4.511c-.773-1.612-1.642-3.179-2.47-4.761a14.061,14.061,0,0,1-1.886-4.79c-.309-2.84,1.991-4.606,3.872-6.3a11.126,11.126,0,0,0,2.39-2.77,7.822,7.822,0,0,0,.9-4.187c-.15-3.159-1.926-5.913-3.992-8.2v-.005a.927.927,0,0,0-.08-.065h-.005c-.214-.1-.489.18-.3.384a22.8,22.8,0,0,1,1.472,1.8c1.836,2.51,3.069,5.758,2.071,8.857-.818,2.55-3.159,3.938-4.92,5.779a6.623,6.623,0,0,0-1.786,2.934,6.958,6.958,0,0,0,.664,4.491c.269.614.569,1.218.878,1.816.514,1,1.063,1.986,1.582,2.979a24.677,24.677,0,0,1,2.066,4.556,5.257,5.257,0,0,1-.409,4.412,7.569,7.569,0,0,1-2.38,2.116c-1.712,1.077-3.857,1.966-4.865,3.832a6.168,6.168,0,0,0-.294,4.117,37.968,37.968,0,0,0,.913,3.872c.12.424.25.848.384,1.267a14.368,14.368,0,0,1,1.043,5.015,6.61,6.61,0,0,1-.16,1.133,7.8,7.8,0,0,1-1.492,2.929,12.094,12.094,0,0,1-1.7,1.732c-1.781,1.522-3.9,2.65-5.729,4.112a10.932,10.932,0,0,0-3.4,4.311,11.008,11.008,0,0,1-.364-4.047,7.546,7.546,0,0,1,2.255-3.753c1.986-1.991,4.65-3.408,6.063-5.923a7.791,7.791,0,0,0,.324-6.253,28.93,28.93,0,0,0-1.083-2.934c-1.128-2.7-2.45-6.207-.509-8.872,1.512-2.066,4.2-2.879,5.654-5,1.8-2.62.749-5.943-.614-8.489-1.462-2.725-4-5.958-2.625-9.2a12.928,12.928,0,0,1,2.4-3.319,11.913,11.913,0,0,0,2.275-3.423,10.681,10.681,0,0,0-.679-8.608,18.555,18.555,0,0,0-5.669-6.273c-.115-.085-.23-.17-.344-.25a.251.251,0,0,0-.389.224.214.214,0,0,0,.1.185c.594.429,1.177.873,1.737,1.347a14.7,14.7,0,0,1,5.04,7.451,9.927,9.927,0,0,1,.095,4.561,8.982,8.982,0,0,1-1.971,3.783,30.083,30.083,0,0,0-2.54,3.149,5.789,5.789,0,0,0-.9,3.877,10.03,10.03,0,0,0,1.028,3.164,57.67,57.67,0,0,1,2.974,5.688,7.191,7.191,0,0,1,.26,4.661,6.451,6.451,0,0,1-2.44,2.994,32.751,32.751,0,0,0-2.984,2.265,5.91,5.91,0,0,0-1.817,3.393c-.479,3.134,1.223,6.039,2.246,8.873a9.461,9.461,0,0,1,.669,4.96,7.468,7.468,0,0,1-2.24,3.778c-1.986,1.966-4.571,3.383-6.024,5.848a6.24,6.24,0,0,0-.818,4.012c.135,1.1.469,2.211.534,3.323a5.874,5.874,0,0,0-.12,1.108,11,11,0,0,1-.888-1.238,10.672,10.672,0,0,1-1.447-7.495,7.6,7.6,0,0,1,1.666-3.413,23.139,23.139,0,0,1,3.014-2.655,10.013,10.013,0,0,0,2.58-2.844,6.74,6.74,0,0,0,.734-3.932c-.3-3.049-2.076-5.554-3.678-8.059a8.476,8.476,0,0,1-1.612-4.316,6.243,6.243,0,0,1,1.283-3.9c1.566-2.026,4.281-2.65,5.988-4.526,2.036-2.241,1.413-5.4.27-7.915-.085-.185-.17-.369-.26-.554a40.155,40.155,0,0,1-1.8-3.887,13.705,13.705,0,0,1-.769-4.955,22.777,22.777,0,0,1,.883-4.831,9.012,9.012,0,0,0,.185-4.386c-.684-2.775-2.785-4.95-4.811-6.842a.265.265,0,0,0-.329-.025.205.205,0,0,0-.054.345c.524.489,1.038.988,1.532,1.5,2.036,2.141,3.718,4.731,3.3,7.8-.224,1.607-.818,3.139-1.058,4.746a14.366,14.366,0,0,0,.11,4.8,12.894,12.894,0,0,0,.469,1.747,21.325,21.325,0,0,0,1.183,2.764,19.218,19.218,0,0,1,1.822,4.412,5.68,5.68,0,0,1-.569,4.342,8.494,8.494,0,0,1-2.864,2.4,15.772,15.772,0,0,0-3.054,2.121,6.637,6.637,0,0,0-1.816,3.4,6.783,6.783,0,0,0,.494,4.1,32.588,32.588,0,0,0,2.41,3.967c1.5,2.42,2.944,5.554,2.011,8.444-.863,2.674-3.543,3.967-5.424,5.828a8.6,8.6,0,0,0-2.495,6.692" transform="translate(-88.555 -107.588)" fill="#837af9"/>
    <path id="Trazado_834402" data-name="Trazado 834402" d="M232.751,380.857H268.7a52.263,52.263,0,0,0,5.764-2.535,43.061,43.061,0,0,0,11.617-8.6c2.849-3.019,5.269-6.751,5.564-10.878a6.4,6.4,0,0,0-.873-4.017,4.3,4.3,0,0,0-1.6-1.437c-2-1.053-4.4-.724-6.537-.115a54.3,54.3,0,0,0-13.878,6.547c-1.881,1.183-3.723,2.43-5.539,3.7-2.46,1.721-4.89,3.488-7.351,5.21a98.534,98.534,0,0,1-13.7,8.2q-1.728.831-3.488,1.587-2.926,1.265-5.933,2.33" transform="translate(-93.43 -141.583)" fill="#b2b0f7"/>
    <path id="Trazado_834403" data-name="Trazado 834403" d="M255.819,382.447H257.7a90.69,90.69,0,0,0,41.363-25.32.281.281,0,0,0-.08-.434.193.193,0,0,0-.245.05c-.369.4-.739.793-1.118,1.182a89.9,89.9,0,0,1-20.509,15.844,90.617,90.617,0,0,1-11.7,5.549,88.927,88.927,0,0,1-9.586,3.129" transform="translate(-102.69 -143.172)" fill="#837af9"/>
    <path id="Trazado_834404" data-name="Trazado 834404" d="M226.282,360.172h5.983c.564-.229,1.128-.464,1.687-.709,3.428-1.457,6.807-3.049,10.09-4.82a80.332,80.332,0,0,0,13.6-9.122q1.534-1.295,2.984-2.68a57.671,57.671,0,0,0,7.934-9.306,50.122,50.122,0,0,0,3.518-6.058,42.713,42.713,0,0,0,3.1-8.448,28.964,28.964,0,0,0,.813-5,17.347,17.347,0,0,0-1.442-8.673,9.224,9.224,0,0,0-1.517-2.3,5.42,5.42,0,0,0-3.982-1.877c-2.56-.03-4.741,1.527-6.507,3.229-.254.245-.5.494-.754.743a58.859,58.859,0,0,0-9.246,12.875c-.878,1.581-1.717,3.189-2.525,4.805-.005,0-.005,0,0,.01-.554,1.088-1.088,2.181-1.622,3.278-.973,2.021-1.931,4.047-2.909,6.063-.21.439-.424.879-.639,1.317-.988,2.011-2.011,4-3.094,5.954q-1.16,2.1-2.42,4.152c-.214.344-.429.688-.643,1.028q-1.3,2.059-2.735,4.042c-.15.21-.3.414-.454.618-.35.479-.7.954-1.068,1.422a106.759,106.759,0,0,1-7.944,9.237c-.065.075-.135.15-.2.22" transform="translate(-90.833 -120.898)" fill="#837af9"/>
    <path id="Trazado_834405" data-name="Trazado 834405" d="M228.833,361.509h.873a108.981,108.981,0,0,0,10.694-8.5q1.175-1.063,2.321-2.161l.314-.3c.154-.01.319-.04.464-.05l.869-.075,1.861-.16c1.2-.1,2.4-.2,3.6-.309.319-.025.229-.519-.09-.489l-6.143.524q3.286-3.211,6.313-6.677a.266.266,0,0,0,.125.015,64.154,64.154,0,0,0,9.975-2.4c.3-.1.085-.549-.214-.45a63.84,63.84,0,0,1-9.391,2.276l.15-.165q3.406-3.975,6.427-8.259a.335.335,0,0,0,.12-.02q6.7-2.747,13.3-5.734a.22.22,0,0,0,.139-.21.255.255,0,0,0-.354-.245q-6.3,2.852-12.7,5.489c.6-.858,1.192-1.726,1.771-2.6a112.929,112.929,0,0,0,6.866-12.041,44.845,44.845,0,0,0,8.738-3.5.249.249,0,0,0-.215-.45,44.017,44.017,0,0,1-8.219,3.339,109.691,109.691,0,0,0,5.474-13.514.323.323,0,0,0,.01-.135.252.252,0,0,0-.479-.039c-.184.564-.374,1.122-.569,1.681a109.632,109.632,0,0,1-4.945,11.911q-.516-4.768-1.033-9.526a.209.209,0,0,0-.22-.2.264.264,0,0,0-.275.29q.547,5.015,1.093,10.035a.235.235,0,0,0,.075.135c-.115.229-.224.459-.339.688a112.537,112.537,0,0,1-7.355,12.51c-.229.339-.474.669-.7,1q-.592-5.7-.933-11.417c-.02-.32-.509-.23-.489.09q.352,5.988.983,11.951c-2.061,2.929-4.267,5.763-6.592,8.483q-.585-3.878-1.163-7.765a.249.249,0,0,0-.469-.055.23.23,0,0,0-.02.145l1.223,8.179c-.239.274-.474.558-.714.828-1.9,2.145-3.893,4.216-5.949,6.207-.054.055-.11.1-.165.16a.56.56,0,0,1-.05-.25c-.035-.265-.07-.529-.1-.793q-.09-.794-.165-1.587c-.095-1.083-.154-2.166-.19-3.249-.01-.319-.5-.364-.494-.045.035,1.193.1,2.381.21,3.563.055.594.12,1.188.195,1.777a2,2,0,0,0,.215.953c-1.247,1.188-2.51,2.365-3.808,3.493a108.579,108.579,0,0,1-9.846,7.645" transform="translate(-91.857 -122.234)" fill="#b2b0f7"/>
    <path id="Trazado_834406" data-name="Trazado 834406" d="M300.272,63.3c.454,2.947-1.224,5.895-3.3,8.078-1.322,1.391-2.832,2.615-4.034,4.114l-6.147,2.631.546-2.476c4.154-.293,9.279-7.188,9.279-7.188-3.413,2.385-6.24,3.632-8.566,3.964-5.245.758-7.992-3.062-9.4-8.756-1.557-6.3.212-12.749,1.12-15.415a8.966,8.966,0,0,0,.7.615c.465.368,1.206.655,1.568.2a1.008,1.008,0,0,0,.166-.465,3.593,3.593,0,0,0-.16-1.81,9.768,9.768,0,0,0,5.188,4.413,1.4,1.4,0,0,0,1.264.005,1.366,1.366,0,0,0,.448-.96,8.438,8.438,0,0,0,.046-2.252,13.815,13.815,0,0,0,3.091,2.7,5.727,5.727,0,0,0,3.482.839c.684,1.483,2.218,3.4,5.694,4.47,0,0,1.557-2.275,3.51-.96,1.9,1.282-.23,8.4-4.487,8.256" transform="translate(-111.605 -18.779)" fill="#ffb3b3"/>
    <path id="Trazado_834407" data-name="Trazado 834407" d="M238.164,83.625l-10.054-.569h-2.925l.092-6.625V65.25l12.594.638V74.3Z" transform="translate(-90.393 -26.193)" fill="#837af9"/>
    <path id="Trazado_834408" data-name="Trazado 834408" d="M217.014,86.469l-3.924,1.546-9.026,4.372-2.9-5.981-4.826-9.962,13.818-5.4,3.447,7.75,2.925,6.584Z" transform="translate(-78.815 -28.52)" fill="#4cccd3"/>
    <path id="Trazado_834409" data-name="Trazado 834409" d="M377.8,385.345l-3.545,1.632-6.073-8.268,4.154-.517,16.173-2.011,2.752-.345.96,2.873-4.113,1.9Z" transform="translate(-147.794 -150.867)" fill="#b0e2e0"/>
    <path id="Trazado_834410" data-name="Trazado 834410" d="M297.619,402.161l-4.9.4-1.247-6.7,2.815-.764,15.518-4.194,3.706-1.005v11l-4.8.385Z" transform="translate(-117.001 -156.507)" fill="#b0e2e0"/>
    <path id="Trazado_834411" data-name="Trazado 834411" d="M291.75,74.379s1.437,3.2-1.919,4.252a3.225,3.225,0,0,1-4.234-2.293Z" transform="translate(-114.643 -29.857)" fill="#fff"/>
    <path id="Trazado_834412" data-name="Trazado 834412" d="M295.531,60.711a1.741,1.741,0,1,1-1.276,1.678,1.518,1.518,0,0,1,1.276-1.678" transform="translate(-118.118 -24.37)"/>
    <path id="Trazado_834413" data-name="Trazado 834413" d="M281.853,59.271a1.741,1.741,0,1,1-1.276,1.678,1.521,1.521,0,0,1,1.276-1.678" transform="translate(-112.628 -23.792)"/>
    <path id="Trazado_834414" data-name="Trazado 834414" d="M302.316,66.316a2.264,2.264,0,1,1-2.264,2.264,2.264,2.264,0,0,1,2.264-2.264" transform="translate(-120.446 -26.62)" fill="#ef7b7b"/>
    <path id="Trazado_834415" data-name="Trazado 834415" d="M285.391,63.072l.638,4.774s-4.033.351-4.5-.678,3.246-2.459,3.861-4.1" transform="translate(-112.994 -25.318)" fill="#ef7b7b"/>
    <path id="Trazado_834416" data-name="Trazado 834416" d="M302.863,82.989s-5.125,6.895-9.279,7.188l.712-3.223c2.327-.333,5.154-1.58,8.566-3.964" transform="translate(-117.849 -33.313)"/>
    <path id="Trazado_834417" data-name="Trazado 834417" d="M319.171,179.078a67.054,67.054,0,0,1,6.877,8.336q-20.322,3.12-40.787,5.183c0-1.769,0-3.47.006-5.079q16.952-4.223,33.9-8.44" transform="translate(-114.508 -71.885)"/>
    <path id="Trazado_834418" data-name="Trazado 834418" d="M316.883,156.877c-.913,3.556-1.649,6.631-2,8.107q-14.746,1.724-29.5,3.436c.012-1.126.023-2.154.041-3.08q15.822-3.886,31.456-8.463" transform="translate(-114.558 -62.973)"/>
    <path id="Trazado_834419" data-name="Trazado 834419" d="M315.825,129.167a23.9,23.9,0,0,1-.954,3.987c-.557,1.678-1.132,3.586-1.7,5.55q-18.969,2.784-37.989,5.229l-.253.2a35.367,35.367,0,0,1-3.533-5.458l4.958,4.189,5.706-6.125q16.771-4.249,33.76-7.573" transform="translate(-108.945 -51.85)"/>
    <path id="Trazado_834420" data-name="Trazado 834420" d="M342.037,118.325c-1.982.011-3.97.023-5.952.04a7.706,7.706,0,0,0,2.534-2.034,11.38,11.38,0,0,0,2.068-5.056l.15.029a20.333,20.333,0,0,1,1.2,7.021" transform="translate(-134.91 -44.668)"/>
    <path id="Trazado_834421" data-name="Trazado 834421" d="M294.116,117.034l-35.013.155-.591.414-.529-.666s1.557-1.649,3.671-3.769q11.575-1.991,23.229-3.5a6.323,6.323,0,0,0,.81.655,9.07,9.07,0,0,0,4.119,1.465,4.933,4.933,0,0,0,1.212,2.947,9.663,9.663,0,0,0,2.769,2.132c.1.057.213.115.322.172" transform="translate(-103.558 -44.02)"/>
    <path id="Trazado_834422" data-name="Trazado 834422" d="M282.065,139.948l-5.705,6.125-4.959-4.188c1.224-.713,2-1.224,2-1.224l1.965,2.488,9.3-5.986Z" transform="translate(-108.945 -55.059)"/>
    <path id="Trazado_834423" data-name="Trazado 834423" d="M394.557,383.8l-7.624,9.353-2.683-4.613Z" transform="translate(-154.244 -154.064)"/>
    <path id="Trazado_834424" data-name="Trazado 834424" d="M312.836,408.9l-11.095,5.36v-4.47Z" transform="translate(-121.124 -164.14)"/>
    <path id="Trazado_834425" data-name="Trazado 834425" d="M340.641,240.287,329.414,252.25l1.166-6.372Z" transform="translate(-132.232 -96.455)"/>
    <path id="Trazado_834426" data-name="Trazado 834426" d="M396.357,383.8l4.113,12.215s-5.406.293-8.44,2.81l-3.3-5.671Z" transform="translate(-156.043 -154.064)" fill="#ffb3b3"/>
    <path id="Trazado_834427" data-name="Trazado 834427" d="M312.836,415.78a3.371,3.371,0,0,1-3.746,3.849,12.281,12.281,0,0,1-7.349-2.89v-2.476l11.095-5.36Z" transform="translate(-121.123 -164.14)" fill="#ffb3b3"/>
    <path id="Trazado_834428" data-name="Trazado 834428" d="M243.8,78.2V75.009a35.336,35.336,0,0,1,8.279.96l2.982,7.188,7.682,8.492a80.139,80.139,0,0,0-7,6.286L252.5,90.556c-6.975-2-7.774-7.245-7.774-7.245a11.26,11.26,0,0,1-.919-.69v-.005c-2.235-1.868-4.889-5.292-3.447-5.476A8.6,8.6,0,0,1,243.8,78.2" transform="translate(-96.321 -30.096)" fill="#ffb3b3"/>
    <path id="Trazado_834429" data-name="Trazado 834429" d="M235.405,110.374l9.5,12.02s-.776.511-2,1.224c-2.953,1.718-8.509,4.591-11.974,4.137-4.895-.637-17.725-18.793-17.725-18.793s-9.692-2.367-11.594-3.407-.575-4.367-.575-4.367a3.683,3.683,0,0,1,.029-4.045c-.293-1.781,1.735-2.465,1.735-2.465l2.9,5.981,5.378-2.729c-1.252-4.4-1.568-7.865-.051-5.521a22.472,22.472,0,0,0,3.7,3.878c1.3,1.166,2.574,2.241,3.275,3.039,1.459,1.678.851,5.3.851,5.3l11.284,9.124Z" transform="translate(-80.452 -36.791)" fill="#ffb3b3"/>
    <path id="Trazado_834430" data-name="Trazado 834430" d="M393.724,404.209s3.436,6.016,2.953,10.118c-.954-5.648-9.423-3.143-11.181,1.385s-6.067,9.152-6.067,9.152h-7.348c-1.385-9.5,6.923-8.411,6.923-8.411l6.28-9.434c3.034-2.516,8.44-2.81,8.44-2.81" transform="translate(-149.296 -162.256)"/>
    <path id="Trazado_834431" data-name="Trazado 834431" d="M401.71,418.927c-.477,4.1-5.855,10.537-5.855,10.537H384.462s4.315-4.631,6.067-9.153,10.227-7.032,11.181-1.385" transform="translate(-154.329 -166.856)" fill="#4cccd3"/>
    <path id="Trazado_834432" data-name="Trazado 834432" d="M311.692,234.884,304.4,274.66a126.1,126.1,0,0,1,2.919,38.805L291.8,317.659c-5.234-31.847-6.383-79.96-6.522-111.129h.19s25.349,2.85,42.16-9.532h.006c5.205,8.3,9.279,19.437,5.992,31.824l8.624,38.971s11.1,20.684,12.939,36.254l.04.345L339.058,306.4Zm.006-.011,11.226-11.962-10.06,5.59Z" transform="translate(-114.516 -79.078)" fill="#4cccd3"/>
    <path id="Trazado_834433" data-name="Trazado 834433" d="M327.628,195.4h-.006c-16.811,12.382-42.16,9.532-42.16,9.532h-.19c-.005-2.35-.011-4.6-.011-6.739q20.46-2.069,40.787-5.183c.535.77,1.063,1.563,1.58,2.39" transform="translate(-114.508 -77.476)" fill="#837af9"/>
    <path id="Trazado_834434" data-name="Trazado 834434" d="M278.946,39.811a9.974,9.974,0,0,1-2.677-9.406,4.854,4.854,0,0,1,1.121-2.212,4.444,4.444,0,0,1,2.832-1.183,15.482,15.482,0,0,1,3.131.2,25.249,25.249,0,0,0,9.245-.356c1.862-.477,3.723-1.287,5.63-1.04a6.009,6.009,0,0,1,3.741,2.114,8.389,8.389,0,0,1,1.735,3.688,6.353,6.353,0,0,1,6.929,3.108c1.85,3.493.046,7.888,1.138,11.686.712,2.476,2.574,4.441,4.516,6.136s4.039,3.263,5.5,5.384a13.157,13.157,0,0,1,.943,12.6,11.687,11.687,0,0,1-3.913,4.884,9.145,9.145,0,0,1-2.178,1.1c-.029.144-.051.293-.08.436a11.374,11.374,0,0,1-2.069,5.056,7.718,7.718,0,0,1-2.533,2.034,9.474,9.474,0,0,1-3.919,1,13.418,13.418,0,0,1-6.7-1.684c-.11-.057-.218-.115-.322-.172a9.641,9.641,0,0,1-2.769-2.132,4.934,4.934,0,0,1-1.213-2.947,9.074,9.074,0,0,1-4.119-1.465,6.279,6.279,0,0,1-.81-.655,5.934,5.934,0,0,1-1.89-3.648,7.508,7.508,0,0,1,1.9-5.286c1.2-1.5,2.712-2.724,4.033-4.113,2.074-2.184,3.752-5.131,3.3-8.078,4.257.144,6.389-6.975,4.487-8.256-1.953-1.316-3.511.96-3.511.96-3.476-1.068-5.01-2.988-5.694-4.47a5.73,5.73,0,0,1-3.481-.839,13.815,13.815,0,0,1-3.091-2.7,8.444,8.444,0,0,1-.046,2.252,1.367,1.367,0,0,1-.448.96,1.4,1.4,0,0,1-1.264-.006,9.764,9.764,0,0,1-5.189-4.413,3.587,3.587,0,0,1,.161,1.81,1.006,1.006,0,0,1-.166.465c-.362.46-1.1.172-1.569-.2a8.821,8.821,0,0,1-.695-.615" transform="translate(-110.784 -10.342)"/>
    <path id="Trazado_834435" data-name="Trazado 834435" d="M311.04,122.62a23.772,23.772,0,0,1-.247,3.66q-16.978,3.327-33.76,7.573l2.6-2.786-9.3,5.986-1.965-2.488-9.5-12.02.591-.414,35.013-.155a13.421,13.421,0,0,0,6.7,1.683,9.465,9.465,0,0,0,3.918-1c1.982-.017,3.97-.029,5.952-.04" transform="translate(-103.913 -48.963)" fill="#837af9"/>
    <path id="Trazado_834436" data-name="Trazado 834436" d="M319.175,175.6q-16.952,4.223-33.9,8.44c.017-3.93.04-7.366.069-10.187q14.754-1.706,29.5-3.436c-.138.6-.219.931-.219.931a52.145,52.145,0,0,1,4.556,4.252" transform="translate(-114.512 -68.409)" fill="#837af9"/>
    <path id="Trazado_834437" data-name="Trazado 834437" d="M315.546,145.1c-.672,2.355-1.327,4.8-1.908,7.05q-15.625,4.585-31.456,8.463c.046-3.574.086-5.573.086-5.573a17.52,17.52,0,0,1-4.964-4.51l.253-.2q19.021-2.448,37.989-5.229" transform="translate(-111.314 -58.245)" fill="#837af9"/>
    <path id="Trazado_834438" data-name="Trazado 834438" d="M303.554,420.315l1.471,13.634H291.5l-12.882-6.389c1.121-7.561,8.836-7.4,10.635-7.349a6.411,6.411,0,0,1,3.205,1.063,12.28,12.28,0,0,0,7.349,2.89,3.371,3.371,0,0,0,3.746-3.849" transform="translate(-111.842 -168.675)"/>
    <path id="Trazado_834439" data-name="Trazado 834439" d="M281.209,97.368l6.147-2.631a7.508,7.508,0,0,0-1.9,5.286,5.934,5.934,0,0,0,1.89,3.648q-11.652,1.508-23.229,3.505c.419-.426.861-.862,1.321-1.31a80.323,80.323,0,0,1,7-6.286c.213-.166.419-.316.62-.454,4.355-3.034,8.147-1.758,8.147-1.758" transform="translate(-106.02 -38.029)" fill="#837af9"/>
    <path id="Trazado_834440" data-name="Trazado 834440" d="M282.832,54.632a.876.876,0,0,0-.934-.784,12.86,12.86,0,0,0-2.391.481.862.862,0,0,0-.068,1.587.948.948,0,0,0,.669.029c.232-.069.466-.129.7-.184a11.71,11.71,0,0,1,1.238-.2.9.9,0,0,0,.585-.3.877.877,0,0,0,.2-.629" transform="translate(-111.974 -21.614)"/>
    <path id="Trazado_834441" data-name="Trazado 834441" d="M297.478,55.545a.835.835,0,0,0-.439-.478,9.6,9.6,0,0,0-3.354-.535.867.867,0,0,0-.784.934.882.882,0,0,0,.934.784c.16,0,.32,0,.481.006a8.469,8.469,0,0,1,1.986.369h0a.938.938,0,0,0,.669.029.882.882,0,0,0,.478-.439.869.869,0,0,0,.029-.669" transform="translate(-117.573 -21.889)"/>
    <path id="Trazado_834442" data-name="Trazado 834442" d="M318.294,62.163a3.31,3.31,0,0,0-1.289.9,5.05,5.05,0,0,0-1.388,2.6c-.157.815-.154,2.08.831,2.37,1.041.307,1.956-.8,2.248-1.671.161-.479.267-1.221-.336-1.44-.568-.206-1.125.482-1.356.912-.175.326.345.57.519.245a1.468,1.468,0,0,1,.456-.524c.08-.055.153-.128.236-.054s.037.274.021.367a2.333,2.333,0,0,1-.542,1.113c-.258.3-.725.664-1.144.48a.941.941,0,0,1-.433-.834,4.041,4.041,0,0,1,.618-2.3,4.475,4.475,0,0,1,.739-.93,4.185,4.185,0,0,1,.491-.405c.086-.06.174-.12.265-.174a1.182,1.182,0,0,1,.175-.092.138.138,0,0,0,.058-.007c-.1.285.362.479.54.187.283-.464-.283-.863-.708-.748" transform="translate(-126.663 -24.945)" fill="#ef7b7b"/>
    <path id="Trazado_834443" data-name="Trazado 834443" d="M250.03,81.272,246.862,79.7a.287.287,0,0,0-.246.519l3.169,1.57a.287.287,0,0,0,.245-.52" transform="translate(-98.932 -31.981)"/>
    <path id="Trazado_834444" data-name="Trazado 834444" d="M218.295,101.914a.288.288,0,0,0-.369-.169.3.3,0,0,0-.169.37c.06.249.115.535.155.813s.069.576.084.867a.289.289,0,0,0,.311.261.293.293,0,0,0,.262-.311,9.945,9.945,0,0,0-.272-1.83" transform="translate(-87.406 -40.835)"/>
    <path id="Trazado_834445" data-name="Trazado 834445" d="M250.064,127.059l1.6,1.759,1.918-4.015Z" transform="translate(-100.38 -50.098)"/>
    <path id="Trazado_834446" data-name="Trazado 834446" d="M292.068,280.439c-.816-14.122-1.094-28.271-1.18-42.415-.048-7.962-.035-15.925-.021-23.888,0-.37-.572-.317-.572.05-.025,14.221-.048,28.444.278,42.661.323,14.127.991,28.254,2.347,42.323.763,7.912,1.745,15.8,3,23.654.058.363.631.316.573-.05a422.731,422.731,0,0,1-4.424-42.336" transform="translate(-116.524 -85.856)" fill="#b0e2e0"/>
    <path id="Trazado_834447" data-name="Trazado 834447" d="M360.613,329.6q-2.536-7.037-5.086-14.069-2.561-7.066-5.133-14.128-2.56-7.028-5.132-14.052-2.584-7.057-5.181-14.111-2.583-7.02-5.179-14.034l-.649-1.754a.288.288,0,0,0-.539.2q2.6,7.014,5.183,14.033,2.6,7.053,5.184,14.11,2.573,7.024,5.135,14.051,2.574,7.062,5.136,14.127,2.55,7.032,5.088,14.068l.635,1.759a.288.288,0,0,0,.539-.2" transform="translate(-133.95 -103.274)" fill="#b0e2e0"/>
  </g>
</svg>
