<svg id="Grupo_1076385" data-name="Grupo 1076385" xmlns="http://www.w3.org/2000/svg" xmlns:xlink="http://www.w3.org/1999/xlink" width="260" height="259.377" viewBox="0 0 260 259.377">
  <defs>
    <clipPath id="clip-path">
      <rect id="Rectángulo_384779" data-name="Rectángulo 384779" width="260" height="259.376" fill="none"/>
    </clipPath>
    <clipPath id="clip-path-3">
      <rect id="Rectángulo_384773" data-name="Rectángulo 384773" width="255.211" height="243.973" fill="none"/>
    </clipPath>
    <clipPath id="clip-path-4">
      <rect id="Rectángulo_384774" data-name="Rectángulo 384774" width="45.011" height="52.067" fill="none"/>
    </clipPath>
    <clipPath id="clip-path-5">
      <rect id="Rectángulo_384775" data-name="Rectángulo 384775" width="38.704" height="44.772" fill="none"/>
    </clipPath>
    <clipPath id="clip-path-6">
      <rect id="Rectángulo_384776" data-name="Rectángulo 384776" width="26.278" height="30.398" fill="none"/>
    </clipPath>
    <clipPath id="clip-path-7">
      <rect id="Rectángulo_384777" data-name="Rectángulo 384777" width="41.883" height="31.515" fill="none"/>
    </clipPath>
  </defs>
  <g id="Grupo_1076384" data-name="Grupo 1076384" clip-path="url(#clip-path)">
    <g id="Grupo_1076383" data-name="Grupo 1076383">
      <g id="Grupo_1076382" data-name="Grupo 1076382" clip-path="url(#clip-path)">
        <path id="Trazado_833651" data-name="Trazado 833651" d="M263.1,120.139a100.288,100.288,0,0,0-28.212-82.078,94.2,94.2,0,0,0-44.109-25.4C137.066-.869,102.255,11.524,84.853,44.436S17.515,71.674,9.57,128.419s30.643,119.165,96.089,122.57,57.023-29.175,92.823-43.149c27.381-10.688,59.49-42.633,64.616-87.7" transform="translate(-3.751 -3.19)" fill="#92e3a9"/>
        <g id="Grupo_1076369" data-name="Grupo 1076369" transform="translate(4.789 4.074)" opacity="0.7">
          <g id="Grupo_1076368" data-name="Grupo 1076368">
            <g id="Grupo_1076367" data-name="Grupo 1076367" clip-path="url(#clip-path-3)">
              <path id="Trazado_833652" data-name="Trazado 833652" d="M263.1,120.139a100.288,100.288,0,0,0-28.212-82.078,94.2,94.2,0,0,0-44.109-25.4C137.066-.869,102.255,11.524,84.853,44.436S17.515,71.674,9.57,128.419s30.643,119.165,96.089,122.57,57.023-29.175,92.823-43.149c27.381-10.688,59.49-42.633,64.616-87.7" transform="translate(-8.54 -7.264)" fill="#fff"/>
            </g>
          </g>
        </g>
        <g id="Grupo_1076372" data-name="Grupo 1076372" transform="translate(209.122 207.093)" opacity="0.15">
          <g id="Grupo_1076371" data-name="Grupo 1076371">
            <g id="Grupo_1076370" data-name="Grupo 1076370" clip-path="url(#clip-path-4)">
              <path id="Trazado_833653" data-name="Trazado 833653" d="M375.665,390.9a15.006,15.006,0,0,0,4.389.368c.032,0-.722-2.014-.783-2.136-.719-1.407-2.936-3.7-4.683-3.419a2.094,2.094,0,0,0-1.61,2.668,4.376,4.376,0,0,0,2.687,2.519" transform="translate(-372.899 -376.489)"/>
              <path id="Trazado_833654" data-name="Trazado 833654" d="M377.372,392.661a14.54,14.54,0,0,0,4.29-.791,37.084,37.084,0,0,0,1.8,4.605c.4.873.839,1.738,1.286,2.6-.263-.363-.5-.686-.538-.728-1.065-1.168-3.81-2.8-5.419-2.061a2.093,2.093,0,0,0-.849,3,4.377,4.377,0,0,0,3.257,1.721,13.863,13.863,0,0,0,4.17-.754c.175.329.346.66.522.988.845,1.576,1.695,3.146,2.481,4.711.278.551.53,1.1.786,1.657-.233-.322-.433-.592-.468-.63-1.065-1.167-3.81-2.8-5.419-2.061a2.094,2.094,0,0,0-.848,3,4.379,4.379,0,0,0,3.257,1.72,13.357,13.357,0,0,0,4.059-.72c.244.574.49,1.148.7,1.715.135.39.293.757.406,1.156s.241.782.359,1.168c.2.751.414,1.524.592,2.262.128.512.24,1,.354,1.5-.27-.552-.82-1.622-.876-1.706-.876-1.315-3.342-3.34-5.044-2.858a2.094,2.094,0,0,0-1.293,2.835,4.376,4.376,0,0,0,2.958,2.193,14.369,14.369,0,0,0,4.335-.128c.187.818.361,1.615.513,2.369.138.676.261,1.317.374,1.93l1.108-.03c-.137-.67-.287-1.374-.456-2.12-.186-.831-.4-1.715-.632-2.621a22.815,22.815,0,0,0,2.389-1.2,15.341,15.341,0,0,0,3.586,2.18c-.295.785-.589,1.545-.879,2.258-.2.491-.393.961-.583,1.413l1.174-.031c.127-.325.255-.656.385-1,.3-.8.611-1.652.919-2.534a14.4,14.4,0,0,0,4.333.221,4.38,4.38,0,0,0,3-2.13,2.093,2.093,0,0,0-1.232-2.862c-1.691-.519-4.2,1.454-5.1,2.75-.053.076-.539.97-.836,1.539.123-.361.248-.711.371-1.083.248-.737.474-1.479.72-2.277l.32-1.18c.114-.391.186-.82.282-1.233.2-.964.361-1.95.5-2.947a13.755,13.755,0,0,0,4.129.834,4.375,4.375,0,0,0,3.293-1.65,2.094,2.094,0,0,0-.784-3.016c-1.594-.769-4.372.8-5.462,1.945-.068.071-.758.98-1.127,1.486.078-.6.159-1.2.218-1.807.171-1.76.289-3.546.416-5.328.038-.546.083-1.089.126-1.633a14.555,14.555,0,0,0,4.269.881,4.372,4.372,0,0,0,3.292-1.65,2.093,2.093,0,0,0-.784-3.015c-1.594-.769-4.372.8-5.462,1.944-.082.086-1.073,1.4-1.308,1.741.094-1.2.2-2.392.351-3.564a36.959,36.959,0,0,1,.9-4.7,14.771,14.771,0,0,0,4.294.89,4.379,4.379,0,0,0,3.293-1.65,2.094,2.094,0,0,0-.785-3.016c-1.594-.769-4.372.8-5.462,1.944-.086.09-1.151,1.5-1.326,1.768.024-.089.039-.184.063-.274a27.019,27.019,0,0,1,1.733-4.47c.381-.8.791-1.539,1.2-2.251a14.09,14.09,0,0,0,4.078,1.313,4.376,4.376,0,0,0,3.454-1.279,2.094,2.094,0,0,0-.448-3.084c-1.5-.939-4.434.316-5.642,1.333-.066.056-.672.692-1.106,1.161.192-.319.384-.651.574-.952.71-1.134,1.431-2.129,2.076-3,.371-.5.716-.935,1.043-1.344a13.994,13.994,0,0,0,4.2-.712,4.379,4.379,0,0,0,2.477-2.727,2.094,2.094,0,0,0-1.819-2.53c-1.764-.143-3.789,2.323-4.394,3.783-.052.127-.642,2.194-.61,2.193l.038,0c-.323.387-.664.805-1.028,1.27-.665.863-1.409,1.844-2.147,2.968a37.258,37.258,0,0,0-2.209,3.736,27.321,27.321,0,0,0-1.852,4.488c-.006.018-.009.038-.015.057,0-.519-.066-1.968-.084-2.078-.245-1.561-1.635-4.433-3.383-4.708a2.094,2.094,0,0,0-2.362,2.033,4.378,4.378,0,0,0,1.768,3.231,14.6,14.6,0,0,0,4.014,1.707,37.092,37.092,0,0,0-1.035,4.836c-.144.951-.259,1.913-.362,2.879-.019-.449-.038-.849-.047-.9-.245-1.561-1.635-4.433-3.383-4.709A2.094,2.094,0,0,0,397,394.857a4.377,4.377,0,0,0,1.767,3.231,13.881,13.881,0,0,0,3.894,1.672c-.036.371-.076.741-.11,1.113-.165,1.781-.322,3.558-.529,5.3-.072.613-.167,1.214-.259,1.815-.017-.4-.035-.732-.042-.783-.245-1.561-1.635-4.434-3.383-4.709a2.094,2.094,0,0,0-2.362,2.033,4.374,4.374,0,0,0,1.768,3.231,13.331,13.331,0,0,0,3.781,1.639c-.113.614-.225,1.228-.362,1.817-.1.4-.174.792-.3,1.188l-.344,1.173c-.246.737-.5,1.5-.754,2.214-.176.5-.353.969-.53,1.443.08-.609.21-1.805.21-1.906a8.129,8.129,0,0,0-1.2-3.925,2.418,2.418,0,0,0-.042-.462,2.094,2.094,0,0,0-2.607-1.708c-1.7.5-2.7,3.53-2.74,5.109,0,.094.085,1.107.151,1.746-.1-.37-.185-.729-.288-1.108-.2-.751-.421-1.5-.655-2.3q-.19-.575-.385-1.16c-.12-.39-.3-.786-.445-1.184-.363-.915-.775-1.825-1.21-2.733a13.735,13.735,0,0,0,3.9-1.582,4.376,4.376,0,0,0,1.836-3.193,2.094,2.094,0,0,0-2.317-2.083c-1.754.238-3.206,3.08-3.483,4.635-.017.1-.091,1.235-.12,1.862-.266-.543-.529-1.087-.816-1.628-.828-1.562-1.714-3.117-2.593-4.673-.269-.476-.531-.954-.8-1.431a14.57,14.57,0,0,0,4.047-1.62,4.376,4.376,0,0,0,1.836-3.193,2.094,2.094,0,0,0-2.318-2.083c-1.754.238-3.2,3.08-3.483,4.635-.021.117-.125,1.755-.131,2.173-.582-1.051-1.152-2.1-1.673-3.166a36.932,36.932,0,0,1-1.845-4.412,14.783,14.783,0,0,0,4.072-1.626,4.377,4.377,0,0,0,1.836-3.193,2.093,2.093,0,0,0-2.318-2.083c-1.754.238-3.2,3.079-3.483,4.635-.022.122-.133,1.885-.13,2.206-.03-.087-.07-.175-.1-.263a27,27,0,0,1-1.02-4.684c-.122-.876-.19-1.72-.237-2.542a14.1,14.1,0,0,0,4.125-1.155A4.377,4.377,0,0,0,387,380.167a2.094,2.094,0,0,0-2.074-2.325c-1.769.044-3.524,2.709-3.971,4.224-.025.082-.179.947-.283,1.579-.016-.372-.039-.755-.047-1.111-.033-1.338.018-2.565.073-3.651.036-.618.081-1.175.129-1.7a14.012,14.012,0,0,0,3.111-2.913,4.377,4.377,0,0,0,.561-3.64,2.094,2.094,0,0,0-2.913-1.108c-1.549.854-1.879,4.029-1.578,5.58.026.133.675,2.183.7,2.165l.03-.022c-.056.5-.11,1.038-.157,1.626-.079,1.087-.158,2.317-.153,3.66a37.113,37.113,0,0,0,.219,4.334,27.293,27.293,0,0,0,.931,4.765c.005.019.013.037.019.056-.29-.43-1.141-1.6-1.216-1.687-1.065-1.167-3.81-2.8-5.419-2.061a2.094,2.094,0,0,0-.849,3,4.377,4.377,0,0,0,3.257,1.72" transform="translate(-373.296 -369.28)"/>
              <path id="Trazado_833655" data-name="Trazado 833655" d="M430.383,388.585c.028.016.51-2.078.525-2.214.176-1.57-.407-4.708-2.019-5.435a2.094,2.094,0,0,0-2.815,1.337,4.378,4.378,0,0,0,.851,3.584,15,15,0,0,0,3.458,2.728" transform="translate(-396.197 -374.322)"/>
            </g>
          </g>
        </g>
        <g id="Grupo_1076375" data-name="Grupo 1076375" transform="translate(3.918 214.458)" opacity="0.15">
          <g id="Grupo_1076374" data-name="Grupo 1076374">
            <g id="Grupo_1076373" data-name="Grupo 1076373" clip-path="url(#clip-path-5)">
              <path id="Trazado_833656" data-name="Trazado 833656" d="M9.365,401.007a12.9,12.9,0,0,0,3.774.316c.028,0-.62-1.732-.674-1.837-.618-1.21-2.525-3.184-4.027-2.94a1.8,1.8,0,0,0-1.385,2.294,3.765,3.765,0,0,0,2.311,2.166" transform="translate(-6.987 -388.612)"/>
              <path id="Trazado_833657" data-name="Trazado 833657" d="M10.834,402.517a12.5,12.5,0,0,0,3.688-.68,31.931,31.931,0,0,0,1.552,3.96c.348.75.722,1.5,1.106,2.237-.226-.313-.43-.591-.463-.626-.916-1-3.276-2.4-4.66-1.772a1.8,1.8,0,0,0-.73,2.578,3.761,3.761,0,0,0,2.8,1.479,11.906,11.906,0,0,0,3.586-.648c.15.283.3.568.449.85.726,1.355,1.457,2.7,2.133,4.05.239.474.456.95.676,1.425-.2-.278-.372-.509-.4-.542-.916-1-3.276-2.4-4.66-1.772a1.8,1.8,0,0,0-.73,2.579,3.764,3.764,0,0,0,2.8,1.479,11.472,11.472,0,0,0,3.489-.619c.21.493.421.987.6,1.475.117.335.252.651.349.994l.31,1c.173.646.356,1.311.509,1.945.11.44.206.862.305,1.286-.232-.474-.705-1.394-.754-1.467-.753-1.131-2.874-2.872-4.338-2.457a1.8,1.8,0,0,0-1.112,2.438,3.764,3.764,0,0,0,2.544,1.886,12.35,12.35,0,0,0,3.728-.11c.16.7.31,1.388.441,2.037.118.582.224,1.133.321,1.66l.953-.025c-.118-.577-.247-1.182-.393-1.824-.16-.714-.345-1.474-.543-2.253a19.547,19.547,0,0,0,2.054-1.034,13.163,13.163,0,0,0,3.083,1.875c-.253.675-.507,1.329-.756,1.942q-.256.633-.5,1.215l1.009-.027c.109-.28.219-.564.331-.86.261-.684.525-1.421.79-2.179a12.378,12.378,0,0,0,3.725.19,3.765,3.765,0,0,0,2.584-1.832,1.8,1.8,0,0,0-1.059-2.461c-1.455-.446-3.612,1.25-4.389,2.364-.046.066-.464.835-.719,1.324.106-.31.213-.611.319-.931.214-.634.408-1.272.62-1.958l.274-1.014c.1-.337.16-.706.243-1.061.174-.828.311-1.676.428-2.534a11.836,11.836,0,0,0,3.55.717,3.765,3.765,0,0,0,2.831-1.419,1.8,1.8,0,0,0-.675-2.594c-1.37-.661-3.76.689-4.7,1.672-.058.061-.652.843-.969,1.278.067-.515.137-1.03.187-1.555.147-1.513.249-3.049.357-4.581.033-.469.071-.937.108-1.4a12.492,12.492,0,0,0,3.671.758,3.763,3.763,0,0,0,2.831-1.419,1.8,1.8,0,0,0-.674-2.593c-1.371-.661-3.76.688-4.7,1.672-.071.074-.923,1.2-1.125,1.5.081-1.03.172-2.056.3-3.064a31.754,31.754,0,0,1,.77-4.04,12.71,12.71,0,0,0,3.692.765,3.763,3.763,0,0,0,2.831-1.419,1.8,1.8,0,0,0-.675-2.593c-1.37-.661-3.759.689-4.7,1.672-.073.077-.989,1.289-1.14,1.52.021-.077.033-.159.054-.236a23.235,23.235,0,0,1,1.49-3.843c.328-.686.68-1.323,1.036-1.936a12.1,12.1,0,0,0,3.506,1.129,3.764,3.764,0,0,0,2.97-1.1,1.8,1.8,0,0,0-.385-2.652c-1.29-.808-3.813.271-4.852,1.146-.057.048-.578.6-.952,1,.165-.274.33-.56.494-.819.611-.975,1.23-1.83,1.784-2.584.319-.426.616-.8.9-1.156a12.038,12.038,0,0,0,3.613-.612A3.767,3.767,0,0,0,46,386.967a1.8,1.8,0,0,0-1.564-2.176c-1.517-.123-3.259,2-3.778,3.253-.045.108-.552,1.886-.524,1.885h.033c-.278.333-.571.693-.884,1.092-.573.742-1.212,1.586-1.846,2.552a31.941,31.941,0,0,0-1.9,3.212,23.465,23.465,0,0,0-1.593,3.859c-.005.016-.008.033-.012.049,0-.446-.057-1.692-.072-1.787-.211-1.343-1.406-3.812-2.909-4.049A1.8,1.8,0,0,0,28.92,396.6a3.767,3.767,0,0,0,1.52,2.779,12.552,12.552,0,0,0,3.452,1.468A31.9,31.9,0,0,0,33,405.009c-.123.818-.223,1.645-.311,2.475-.016-.385-.033-.73-.041-.777-.21-1.343-1.405-3.812-2.909-4.049a1.8,1.8,0,0,0-2.031,1.748,3.763,3.763,0,0,0,1.52,2.779,11.916,11.916,0,0,0,3.348,1.437c-.031.319-.065.638-.094.957-.142,1.532-.276,3.06-.455,4.555-.063.527-.144,1.044-.223,1.561-.015-.342-.03-.63-.036-.674-.211-1.343-1.406-3.812-2.909-4.049a1.8,1.8,0,0,0-2.031,1.748,3.761,3.761,0,0,0,1.52,2.778,11.474,11.474,0,0,0,3.252,1.409c-.1.527-.193,1.055-.311,1.562-.088.344-.149.681-.257,1.022l-.3,1.009c-.212.634-.427,1.289-.649,1.9-.151.428-.3.833-.455,1.241.068-.524.181-1.552.18-1.639a6.993,6.993,0,0,0-1.028-3.375,2.1,2.1,0,0,0-.035-.4,1.8,1.8,0,0,0-2.242-1.468c-1.459.43-2.323,3.035-2.356,4.393,0,.08.073.952.131,1.5-.083-.317-.159-.627-.248-.953-.172-.646-.362-1.286-.564-1.975-.109-.329-.22-.662-.331-1s-.255-.676-.382-1.018c-.312-.787-.666-1.57-1.041-2.35a11.813,11.813,0,0,0,3.357-1.36,3.763,3.763,0,0,0,1.579-2.746,1.8,1.8,0,0,0-1.993-1.791c-1.508.2-2.756,2.649-3,3.986-.015.084-.079,1.062-.1,1.6-.229-.467-.455-.935-.7-1.4-.712-1.344-1.474-2.681-2.229-4.018-.232-.41-.457-.82-.685-1.231a12.509,12.509,0,0,0,3.48-1.393,3.764,3.764,0,0,0,1.579-2.745,1.8,1.8,0,0,0-1.993-1.791c-1.508.2-2.756,2.648-3,3.986-.018.1-.107,1.51-.113,1.869-.5-.9-.991-1.81-1.438-2.722a31.75,31.75,0,0,1-1.587-3.794,12.709,12.709,0,0,0,3.5-1.4,3.766,3.766,0,0,0,1.579-2.746,1.8,1.8,0,0,0-1.993-1.791c-1.508.2-2.756,2.648-3,3.985-.019.105-.114,1.621-.112,1.9-.026-.075-.06-.15-.085-.226a23.179,23.179,0,0,1-.877-4.028c-.105-.753-.163-1.479-.2-2.186a12.12,12.12,0,0,0,3.548-.993,3.763,3.763,0,0,0,1.871-2.556,1.8,1.8,0,0,0-1.784-2c-1.521.038-3.031,2.33-3.415,3.633-.021.071-.154.815-.243,1.358-.013-.319-.034-.649-.04-.955-.029-1.15.016-2.206.063-3.139.031-.531.07-1.011.111-1.459a12.053,12.053,0,0,0,2.676-2.505,3.765,3.765,0,0,0,.483-3.13,1.8,1.8,0,0,0-2.505-.952c-1.332.735-1.616,3.464-1.357,4.8.023.115.58,1.878.6,1.861l.026-.018c-.048.43-.095.892-.135,1.4-.068.935-.136,1.992-.132,3.147a31.965,31.965,0,0,0,.188,3.728,23.5,23.5,0,0,0,.8,4.1c.005.016.012.031.017.047-.25-.37-.981-1.38-1.046-1.451-.916-1-3.276-2.4-4.66-1.772a1.8,1.8,0,0,0-.73,2.579,3.763,3.763,0,0,0,2.8,1.479" transform="translate(-7.329 -382.413)"/>
              <path id="Trazado_833658" data-name="Trazado 833658" d="M56.417,399.013c.024.014.439-1.787.451-1.9.151-1.35-.349-4.048-1.737-4.673a1.8,1.8,0,0,0-2.42,1.15,3.761,3.761,0,0,0,.732,3.081,12.876,12.876,0,0,0,2.973,2.346" transform="translate(-27.021 -386.749)"/>
            </g>
          </g>
        </g>
        <g id="Grupo_1076378" data-name="Grupo 1076378" transform="translate(84.761 228.83)" opacity="0.15">
          <g id="Grupo_1076377" data-name="Grupo 1076377">
            <g id="Grupo_1076376" data-name="Grupo 1076376" clip-path="url(#clip-path-6)">
              <path id="Trazado_833659" data-name="Trazado 833659" d="M152.757,420.665a8.757,8.757,0,0,0,2.563.215c.018,0-.422-1.176-.458-1.247-.42-.822-1.714-2.161-2.734-2a1.222,1.222,0,0,0-.94,1.557,2.554,2.554,0,0,0,1.569,1.471" transform="translate(-151.142 -412.25)"/>
              <path id="Trazado_833660" data-name="Trazado 833660" d="M153.753,421.691a8.5,8.5,0,0,0,2.5-.462,21.678,21.678,0,0,0,1.053,2.689c.236.509.49,1.014.751,1.518-.153-.212-.292-.4-.314-.425-.622-.681-2.224-1.632-3.164-1.2a1.222,1.222,0,0,0-.5,1.75,2.554,2.554,0,0,0,1.9,1,8.113,8.113,0,0,0,2.434-.44c.1.192.2.385.305.577.493.92.989,1.837,1.449,2.75.162.322.31.645.459.967-.136-.188-.253-.346-.273-.368-.622-.681-2.224-1.633-3.164-1.2a1.223,1.223,0,0,0-.5,1.751,2.555,2.555,0,0,0,1.9,1,7.788,7.788,0,0,0,2.369-.419c.142.335.286.67.409,1,.079.228.171.442.237.675s.141.457.21.682c.117.438.242.89.345,1.32.075.3.14.585.207.874-.158-.322-.479-.947-.512-1-.511-.768-1.951-1.95-2.945-1.668a1.222,1.222,0,0,0-.755,1.655A2.556,2.556,0,0,0,159.9,436a8.369,8.369,0,0,0,2.531-.075c.109.477.21.943.3,1.383.081.395.153.769.218,1.127l.647-.017c-.08-.391-.168-.8-.267-1.238-.108-.485-.234-1-.368-1.53a13.214,13.214,0,0,0,1.395-.7,8.945,8.945,0,0,0,2.093,1.273c-.172.458-.344.9-.514,1.318q-.173.43-.34.825l.685-.018c.074-.19.149-.383.225-.584.177-.464.357-.964.536-1.479a8.42,8.42,0,0,0,2.53.129,2.555,2.555,0,0,0,1.754-1.244,1.221,1.221,0,0,0-.72-1.671c-.987-.3-2.452.849-2.98,1.605-.031.045-.315.566-.488.9.072-.211.145-.415.216-.633.145-.43.277-.864.421-1.329l.186-.689c.067-.229.109-.478.165-.72.118-.562.211-1.138.291-1.721a8.028,8.028,0,0,0,2.41.487,2.556,2.556,0,0,0,1.922-.963,1.223,1.223,0,0,0-.458-1.761c-.93-.449-2.553.468-3.189,1.136-.039.042-.442.572-.658.868.046-.35.093-.7.127-1.055.1-1.027.169-2.07.242-3.11.022-.319.049-.636.073-.953a8.5,8.5,0,0,0,2.493.514,2.554,2.554,0,0,0,1.922-.963,1.223,1.223,0,0,0-.458-1.761c-.931-.449-2.553.468-3.189,1.135-.048.05-.626.815-.764,1.016.056-.7.117-1.4.205-2.08a21.564,21.564,0,0,1,.523-2.743,8.633,8.633,0,0,0,2.506.52,2.556,2.556,0,0,0,1.922-.963,1.222,1.222,0,0,0-.458-1.761c-.93-.449-2.552.468-3.189,1.136-.05.052-.672.875-.774,1.032.014-.052.022-.108.037-.16a15.789,15.789,0,0,1,1.012-2.609c.223-.465.462-.9.7-1.314a8.245,8.245,0,0,0,2.381.767,2.557,2.557,0,0,0,2.017-.746,1.223,1.223,0,0,0-.261-1.8c-.875-.548-2.589.185-3.294.778-.039.032-.392.4-.646.678.112-.186.224-.38.335-.556.415-.662.835-1.243,1.212-1.754.216-.289.418-.546.609-.785a8.184,8.184,0,0,0,2.454-.416,2.557,2.557,0,0,0,1.446-1.592,1.223,1.223,0,0,0-1.062-1.477c-1.03-.083-2.212,1.356-2.565,2.209-.03.073-.375,1.28-.356,1.28h.022c-.189.226-.388.47-.6.741-.389.5-.823,1.077-1.253,1.733a21.575,21.575,0,0,0-1.289,2.181,15.962,15.962,0,0,0-1.082,2.62c0,.011-.005.022-.008.033,0-.3-.039-1.148-.049-1.213-.143-.911-.954-2.589-1.975-2.749a1.222,1.222,0,0,0-1.378,1.187,2.554,2.554,0,0,0,1.032,1.887,8.519,8.519,0,0,0,2.344,1,21.611,21.611,0,0,0-.605,2.823c-.084.555-.151,1.117-.211,1.681-.011-.262-.022-.5-.027-.528-.143-.911-.954-2.588-1.975-2.748a1.222,1.222,0,0,0-1.378,1.187,2.555,2.555,0,0,0,1.032,1.887,8.091,8.091,0,0,0,2.273.976c-.021.216-.044.433-.064.649-.1,1.04-.188,2.078-.309,3.093-.042.358-.1.709-.151,1.06-.01-.232-.02-.428-.025-.458-.143-.911-.954-2.588-1.975-2.749a1.223,1.223,0,0,0-1.379,1.187,2.555,2.555,0,0,0,1.032,1.886,7.793,7.793,0,0,0,2.208.957c-.066.358-.131.717-.211,1.061-.06.233-.1.463-.174.694l-.2.685c-.144.431-.29.875-.44,1.292-.1.291-.206.565-.31.842.047-.356.123-1.054.123-1.113a4.745,4.745,0,0,0-.7-2.291,1.4,1.4,0,0,0-.024-.27,1.222,1.222,0,0,0-1.521-1c-.991.292-1.578,2.061-1.6,2.983,0,.054.05.646.089,1.019-.056-.216-.108-.426-.169-.647-.116-.439-.245-.873-.382-1.34q-.111-.336-.224-.677c-.071-.228-.173-.459-.26-.691-.212-.534-.453-1.066-.707-1.6a8.041,8.041,0,0,0,2.279-.924,2.555,2.555,0,0,0,1.072-1.864,1.222,1.222,0,0,0-1.353-1.216c-1.023.139-1.871,1.8-2.033,2.706-.01.057-.053.721-.07,1.087-.155-.317-.309-.634-.477-.951-.483-.912-1-1.82-1.514-2.728-.157-.278-.31-.557-.464-.836a8.515,8.515,0,0,0,2.363-.946,2.556,2.556,0,0,0,1.072-1.864,1.223,1.223,0,0,0-1.353-1.216c-1.024.139-1.871,1.8-2.033,2.706-.012.068-.073,1.025-.077,1.269-.34-.614-.673-1.229-.976-1.848a21.516,21.516,0,0,1-1.077-2.576,8.644,8.644,0,0,0,2.377-.95,2.555,2.555,0,0,0,1.072-1.864,1.222,1.222,0,0,0-1.353-1.216c-1.023.139-1.871,1.8-2.033,2.706-.013.071-.078,1.1-.076,1.288-.017-.052-.041-.1-.057-.154a15.737,15.737,0,0,1-.6-2.734c-.072-.511-.111-1-.139-1.484a8.215,8.215,0,0,0,2.408-.674,2.554,2.554,0,0,0,1.271-1.735,1.223,1.223,0,0,0-1.211-1.358c-1.033.026-2.058,1.581-2.318,2.466-.015.048-.1.553-.165.922-.009-.217-.023-.441-.027-.649-.019-.781.011-1.5.043-2.131.021-.361.047-.686.075-.99a8.179,8.179,0,0,0,1.816-1.7,2.557,2.557,0,0,0,.328-2.125,1.223,1.223,0,0,0-1.7-.647c-.9.5-1.1,2.352-.921,3.258.015.078.394,1.274.409,1.263l.017-.013c-.033.292-.064.606-.091.949-.046.635-.093,1.353-.09,2.137a21.705,21.705,0,0,0,.128,2.53,15.922,15.922,0,0,0,.543,2.782l.011.033c-.169-.251-.666-.937-.711-.985-.621-.681-2.224-1.632-3.163-1.2a1.222,1.222,0,0,0-.5,1.75,2.555,2.555,0,0,0,1.9,1" transform="translate(-151.374 -408.041)"/>
              <path id="Trazado_833661" data-name="Trazado 833661" d="M184.7,419.311c.016.01.3-1.214.307-1.293.1-.916-.238-2.749-1.179-3.173a1.222,1.222,0,0,0-1.643.781,2.556,2.556,0,0,0,.5,2.092,8.757,8.757,0,0,0,2.019,1.593" transform="translate(-164.744 -410.984)"/>
            </g>
          </g>
        </g>
        <path id="Trazado_833662" data-name="Trazado 833662" d="M363.515,264.5l-.287-1.719H328.845l-.286,1.719s-2.15,17.624-.573,29.087,3.868,20.633,3.868,21.349,1.325,12.9,3.009,20.776c.729,3.412,3.438,26.507,3.438,26.507s-1.576,5.158-3.582,7.594-3.3,3.869-2.293,4.442,12.036,0,12.036,0a9.919,9.919,0,0,0,.573-4.012c0-2.866-.717-7.021-.717-9.313s1.146-43.415,1.146-43.415l.287-35.247v-1.327l.569,1.327.287,35.247s1.146,41.122,1.146,43.415-.716,6.448-.716,9.313a9.918,9.918,0,0,0,.573,4.012s11.033.573,12.036,0-.287-2.006-2.293-4.442-3.582-7.594-3.582-7.594,2.832-23.071,3.439-26.507c1.578-8.925,3.009-20.06,3.009-20.776s2.292-9.886,3.868-21.349-.573-29.087-.573-29.087" transform="translate(-143.797 -115.412)" fill="#fff"/>
        <path id="Trazado_833663" data-name="Trazado 833663" d="M363.515,264.5l-.287-1.719H328.845l-.286,1.719s-2.15,17.624-.573,29.087,3.868,20.633,3.868,21.349,1.325,12.9,3.009,20.776c.729,3.412,3.438,26.507,3.438,26.507s-1.576,5.158-3.582,7.594-3.3,3.869-2.293,4.442,12.036,0,12.036,0a9.919,9.919,0,0,0,.573-4.012c0-2.866-.717-7.021-.717-9.313s1.146-43.415,1.146-43.415l.287-35.247v-1.327l.569,1.327.287,35.247s1.146,41.122,1.146,43.415-.716,6.448-.716,9.313a9.918,9.918,0,0,0,.573,4.012s11.033.573,12.036,0-.287-2.006-2.293-4.442-3.582-7.594-3.582-7.594,2.832-23.071,3.439-26.507c1.578-8.925,3.009-20.06,3.009-20.776s2.292-9.886,3.868-21.349S363.515,264.5,363.515,264.5Z" transform="translate(-143.797 -115.412)" fill="none" stroke="#263238" stroke-linecap="round" stroke-linejoin="round" stroke-width="1"/>
        <path id="Trazado_833664" data-name="Trazado 833664" d="M363.229,262.779H328.845l-.286,1.719s-2.15,17.624-.573,29.087,3.868,20.632,3.868,21.349,1.325,12.9,3.009,20.776c.343,1.6,1.121,7.539,1.851,13.389H344.6c.339-12.883.861-31.586.861-31.586l.287-35.247v-1.327l.569,1.327.287,35.247s.522,18.7.861,31.586h7.941c.742-5.845,1.516-11.777,1.8-13.389,1.578-8.925,3.009-20.059,3.009-20.776s2.293-9.886,3.869-21.349-.573-29.087-.573-29.087Z" transform="translate(-143.797 -115.412)" fill="#92e3a9"/>
        <path id="Trazado_833665" data-name="Trazado 833665" d="M363.229,262.779H328.845l-.286,1.719s-2.15,17.624-.573,29.087,3.868,20.632,3.868,21.349,1.325,12.9,3.009,20.776c.343,1.6,1.121,7.539,1.851,13.389H344.6c.339-12.883.861-31.586.861-31.586l.287-35.247v-1.327l.569,1.327.287,35.247s.522,18.7.861,31.586h7.941c.742-5.845,1.516-11.777,1.8-13.389,1.578-8.925,3.009-20.059,3.009-20.776s2.293-9.886,3.869-21.349-.573-29.087-.573-29.087Z" transform="translate(-143.797 -115.412)" fill="none" stroke="#263238" stroke-linecap="round" stroke-linejoin="round" stroke-width="1"/>
        <path id="Trazado_833666" data-name="Trazado 833666" d="M348.695,450.8c0-1.355-.16-3-.329-4.6l-1.943,4.166h-8.044c-2.006,2.436-3.3,3.868-2.293,4.442s12.036,0,12.036,0a9.919,9.919,0,0,0,.573-4.012" transform="translate(-147.456 -195.973)" fill="#263238"/>
        <path id="Trazado_833667" data-name="Trazado 833667" d="M348.695,450.8c0-1.355-.16-3-.329-4.6l-1.943,4.166h-8.044c-2.006,2.436-3.3,3.868-2.293,4.442s12.036,0,12.036,0A9.919,9.919,0,0,0,348.695,450.8Z" transform="translate(-147.456 -195.973)" fill="none" stroke="#263238" stroke-linecap="round" stroke-linejoin="round" stroke-width="1"/>
        <path id="Trazado_833668" data-name="Trazado 833668" d="M362.483,450.8c0-1.355.16-3,.329-4.6l1.943,4.166H372.8c2.006,2.436,3.3,3.868,2.293,4.442s-12.036,0-12.036,0a9.92,9.92,0,0,1-.573-4.012" transform="translate(-159.202 -195.973)" fill="#263238"/>
        <path id="Trazado_833669" data-name="Trazado 833669" d="M362.483,450.8c0-1.355.16-3,.329-4.6l1.943,4.166H372.8c2.006,2.436,3.3,3.868,2.293,4.442s-12.036,0-12.036,0A9.92,9.92,0,0,1,362.483,450.8Z" transform="translate(-159.202 -195.973)" fill="none" stroke="#263238" stroke-linecap="round" stroke-linejoin="round" stroke-width="1"/>
        <path id="Trazado_833670" data-name="Trazado 833670" d="M349.623,111.248s-10.757,6.911-10.9,8.717,2.365,5.745,2.365,5.745l-3.844,12.619s6.779,2.364,11.029,3.514a44.112,44.112,0,0,0,11.708,1.346c2.232-.123,9.258-2.083,9.258-2.083s-2.821-10.125-3.117-11.462-.011-9.9-.419-12.356-6.176-4.84-7.046-5.315-5.553-3.78-9.031-.727" transform="translate(-148.116 -48.298)" fill="#263238"/>
        <path id="Trazado_833671" data-name="Trazado 833671" d="M349.623,111.248s-10.757,6.911-10.9,8.717,2.365,5.745,2.365,5.745l-3.844,12.619s6.779,2.364,11.029,3.514a44.112,44.112,0,0,0,11.708,1.346c2.232-.123,9.258-2.083,9.258-2.083s-2.821-10.125-3.117-11.462-.011-9.9-.419-12.356-6.176-4.84-7.046-5.315S353.1,108.195,349.623,111.248Z" transform="translate(-148.116 -48.298)" fill="none" stroke="#263238" stroke-linecap="round" stroke-linejoin="round" stroke-width="1"/>
        <path id="Trazado_833672" data-name="Trazado 833672" d="M347.994,158.3l-.1,9.262-3.927,1.208v50.135H364.5l-1.712-50.538-3.926-1.309-.3-8.658Z" transform="translate(-151.07 -69.526)" fill="#bababa"/>
        <path id="Trazado_833673" data-name="Trazado 833673" d="M347.994,158.3l-.1,9.262-3.927,1.208v50.135H364.5l-1.712-50.538-3.926-1.309-.3-8.658Z" transform="translate(-151.07 -69.526)" fill="none" stroke="#263238" stroke-linecap="round" stroke-linejoin="round" stroke-width="1"/>
        <path id="Trazado_833674" data-name="Trazado 833674" d="M349.673,158.3l-.1,9.262-1.783.548,6.515,10.827,8.646-11.078-2.4-.8-.3-8.658Z" transform="translate(-152.748 -69.526)" fill="#fff"/>
        <path id="Trazado_833675" data-name="Trazado 833675" d="M349.673,158.3l-.1,9.262-1.783.548,6.515,10.827,8.646-11.078-2.4-.8-.3-8.658Z" transform="translate(-152.748 -69.526)" fill="none" stroke="#263238" stroke-linecap="round" stroke-linejoin="round" stroke-width="1"/>
        <path id="Trazado_833676" data-name="Trazado 833676" d="M363.5,160.439l-7.089.353-1.3,4.45,7.378,3.734,3.677-.176-2.4-.8Z" transform="translate(-155.964 -70.464)" fill="#263238"/>
        <path id="Trazado_833677" data-name="Trazado 833677" d="M363.5,160.439l-7.089.353-1.3,4.45,7.378,3.734,3.677-.176-2.4-.8Z" transform="translate(-155.964 -70.464)" fill="none" stroke="#263238" stroke-linecap="round" stroke-linejoin="round" stroke-width="1"/>
        <path id="Trazado_833678" data-name="Trazado 833678" d="M358.8,123.3l-12.263,6.79s-1.169,9.5-.74,10.444,4.21,7.914,5.182,8.4a7.79,7.79,0,0,0,3.588.592c.619-.152,7.718-5.54,7.718-5.54l1.017-3.857s1.489.322,2.486-2.022.274-3.412-.119-3.544-1.529.18-3.784-1.921S358,125.659,358.8,123.3" transform="translate(-151.832 -54.153)" fill="#fff"/>
        <path id="Trazado_833679" data-name="Trazado 833679" d="M358.8,123.3l-12.263,6.79s-1.169,9.5-.74,10.444,4.21,7.914,5.182,8.4a7.79,7.79,0,0,0,3.588.592c.619-.152,7.718-5.54,7.718-5.54l1.017-3.857s1.489.322,2.486-2.022.274-3.412-.119-3.544-1.529.18-3.784-1.921S358,125.659,358.8,123.3Z" transform="translate(-151.832 -54.153)" fill="none" stroke="#263238" stroke-linecap="round" stroke-linejoin="round" stroke-width="1"/>
        <path id="Trazado_833680" data-name="Trazado 833680" d="M349.179,137.239a1.654,1.654,0,0,1,2.493.4l1.2,2.622-1.725,5.113,2.175.579" transform="translate(-153.359 -60.102)" fill="none" stroke="#263238" stroke-linecap="round" stroke-linejoin="round" stroke-width="1"/>
        <path id="Trazado_833681" data-name="Trazado 833681" d="M359.779,137.754a4.076,4.076,0,0,1,3.673.8" transform="translate(-158.014 -60.441)" fill="none" stroke="#263238" stroke-linecap="round" stroke-linejoin="round" stroke-width="1"/>
        <path id="Trazado_833682" data-name="Trazado 833682" d="M351.113,141.385c-.049.61-.4,1.078-.791,1.047s-.663-.551-.614-1.16.4-1.078.791-1.047.662.551.613,1.16" transform="translate(-153.589 -61.586)" fill="#263238"/>
        <path id="Trazado_833683" data-name="Trazado 833683" d="M362.386,142.293c-.049.61-.4,1.078-.791,1.047s-.663-.551-.614-1.16.4-1.078.791-1.047.662.551.614,1.16" transform="translate(-158.54 -61.985)" fill="#263238"/>
        <line id="Línea_374" data-name="Línea 374" x2="2.292" y2="0.386" transform="translate(198.267 88.141)" fill="none" stroke="#263238" stroke-linecap="round" stroke-linejoin="round" stroke-width="1"/>
        <path id="Trazado_833684" data-name="Trazado 833684" d="M319.322,182.177,316.384,216.7l-4.353,24.73s-1.574,7.132-1.482,7.41.556,5.65.556,5.65-.556,4.631-.186,5.094a16.577,16.577,0,0,0,2.038,2.316c.463.278,1.019.278.926-.463a15.762,15.762,0,0,0-.926-2.964c-.278-.649.371-3.705.371-4.261a13.856,13.856,0,0,1,.37-2.038l.926,3.52s-.371,2.779.463,2.686.833-1.018,1.018-1.667.186-4.909.186-5.279-2.038-6.576-2.038-6.576l5.372-12.967,6.3-15.653-.463-11.022Z" transform="translate(-136.391 -80.012)" fill="#fff"/>
        <path id="Trazado_833685" data-name="Trazado 833685" d="M319.322,182.177,316.384,216.7l-4.353,24.73s-1.574,7.132-1.482,7.41.556,5.65.556,5.65-.556,4.631-.186,5.094a16.577,16.577,0,0,0,2.038,2.316c.463.278,1.019.278.926-.463a15.762,15.762,0,0,0-.926-2.964c-.278-.649.371-3.705.371-4.261a13.856,13.856,0,0,1,.37-2.038l.926,3.52s-.371,2.779.463,2.686.833-1.018,1.018-1.667.186-4.909.186-5.279-2.038-6.576-2.038-6.576l5.372-12.967,6.3-15.653-.463-11.022Z" transform="translate(-136.391 -80.012)" fill="none" stroke="#263238" stroke-linecap="round" stroke-linejoin="round" stroke-width="1"/>
        <path id="Trazado_833686" data-name="Trazado 833686" d="M326.238,225.08l3.558-8.844-.463-11.022-6.139-23.038L320.256,216.7l-.894,5.08Z" transform="translate(-140.263 -80.012)" fill="#263238"/>
        <path id="Trazado_833687" data-name="Trazado 833687" d="M326.238,225.08l3.558-8.844-.463-11.022-6.139-23.038L320.256,216.7l-.894,5.08Z" transform="translate(-140.263 -80.012)" fill="none" stroke="#263238" stroke-linecap="round" stroke-linejoin="round" stroke-width="1"/>
        <path id="Trazado_833688" data-name="Trazado 833688" d="M340.088,174.812l-1.007,55.975a40.4,40.4,0,0,1-5.638.3,27.427,27.427,0,0,1-6.846-.906s3.926-19.732,4.128-20.94-4.531-30.3-4.531-30.3,13.39-4.329,13.894-4.127" transform="translate(-143.264 -76.774)" fill="#263238"/>
        <path id="Trazado_833689" data-name="Trazado 833689" d="M340.088,174.812l-1.007,55.975a40.4,40.4,0,0,1-5.638.3,27.427,27.427,0,0,1-6.846-.906s3.926-19.732,4.128-20.94-4.531-30.3-4.531-30.3S339.584,174.61,340.088,174.812Z" transform="translate(-143.264 -76.774)" fill="none" stroke="#263238" stroke-linecap="round" stroke-linejoin="round" stroke-width="1"/>
        <path id="Trazado_833690" data-name="Trazado 833690" d="M370.715,174.286l1.007,56.268a40.113,40.113,0,0,0,5.638.3,27.288,27.288,0,0,0,6.846-.911s-3.926-19.836-4.127-21.05,4.53-30.462,4.53-30.462-13.389-4.352-13.893-4.149" transform="translate(-162.817 -76.543)" fill="#263238"/>
        <path id="Trazado_833691" data-name="Trazado 833691" d="M370.715,174.286l1.007,56.268a40.113,40.113,0,0,0,5.638.3,27.288,27.288,0,0,0,6.846-.911s-3.926-19.836-4.127-21.05,4.53-30.462,4.53-30.462S371.219,174.083,370.715,174.286Z" transform="translate(-162.817 -76.543)" fill="none" stroke="#263238" stroke-linecap="round" stroke-linejoin="round" stroke-width="1"/>
        <path id="Trazado_833692" data-name="Trazado 833692" d="M392.931,181.689S401.8,215,401.8,216.486s-1.945,1.389-3.89.926-7.224-8.614-7.224-8.614l-1.019-6.391Z" transform="translate(-171.14 -79.798)" fill="#263238"/>
        <path id="Trazado_833693" data-name="Trazado 833693" d="M392.931,181.689S401.8,215,401.8,216.486s-1.945,1.389-3.89.926-7.224-8.614-7.224-8.614l-1.019-6.391Z" transform="translate(-171.14 -79.798)" fill="none" stroke="#263238" stroke-linecap="round" stroke-linejoin="round" stroke-width="1"/>
        <path id="Trazado_833694" data-name="Trazado 833694" d="M373.829,214.712l-23.457-9.765s-.7-2.819-.906-3.222-1.51-2.114-2.014-3.02-1.308-1.813-1.812-1.108.4,1.309.5,1.712.7,3.121.7,3.121l-6.021-4.328a.612.612,0,0,0-.785.935l4.289,4.2-6.536-3.455a.54.54,0,0,0-.592.9l5.015,4.069-4.2-1.964a.575.575,0,0,0-.659.918l2.569,1.994.319.365-1.764-.993a.464.464,0,0,0-.471.8l4.936,3.05c.3.1,5.712,1.166,5.712,1.166s17.215,11.98,19.128,13.087,10.47,5.135,11.175,3.725c.353-.7-.276-3.574-.994-6.267" transform="translate(-148.011 -86.674)" fill="#263238"/>
        <path id="Trazado_833695" data-name="Trazado 833695" d="M373.829,214.712l-23.457-9.765s-.7-2.819-.906-3.222-1.51-2.114-2.014-3.02-1.308-1.813-1.812-1.108.4,1.309.5,1.712.7,3.121.7,3.121l-6.021-4.328a.612.612,0,0,0-.785.935l4.289,4.2-6.536-3.455a.54.54,0,0,0-.592.9l5.015,4.069-4.2-1.964a.575.575,0,0,0-.659.918l2.569,1.994.319.365-1.764-.993a.464.464,0,0,0-.471.8l4.936,3.05c.3.1,5.712,1.166,5.712,1.166s17.215,11.98,19.128,13.087,10.47,5.135,11.175,3.725c.353-.7-.276-3.574-.994-6.267" transform="translate(-148.011 -86.674)" fill="none" stroke="#263238" stroke-linecap="round" stroke-linejoin="round" stroke-width="1"/>
        <path id="Trazado_833696" data-name="Trazado 833696" d="M369.586,212.947l-19.214-8s-.7-2.819-.906-3.222-1.51-2.114-2.013-3.02-1.309-1.812-1.812-1.107.4,1.308.5,1.712.7,3.121.7,3.121l-6.021-4.328a.612.612,0,0,0-.786.935l4.29,4.2-6.536-3.455a.54.54,0,0,0-.593.9l5.015,4.068-4.2-1.964a.575.575,0,0,0-.659.919l2.569,1.994.319.364-1.764-.992a.464.464,0,0,0-.472.8l4.936,3.05c.3.1,5.712,1.166,5.712,1.166s14.388,10.013,18.314,12.574Z" transform="translate(-148.011 -86.674)" fill="#fff"/>
        <path id="Trazado_833697" data-name="Trazado 833697" d="M369.586,212.947l-19.214-8s-.7-2.819-.906-3.222-1.51-2.114-2.013-3.02-1.309-1.812-1.812-1.107.4,1.308.5,1.712.7,3.121.7,3.121l-6.021-4.328a.612.612,0,0,0-.786.935l4.29,4.2-6.536-3.455a.54.54,0,0,0-.593.9l5.015,4.068-4.2-1.964a.575.575,0,0,0-.659.919l2.569,1.994.319.364-1.764-.992a.464.464,0,0,0-.472.8l4.936,3.05c.3.1,5.712,1.166,5.712,1.166s14.388,10.013,18.314,12.574Z" transform="translate(-148.011 -86.674)" fill="none" stroke="#263238" stroke-linecap="round" stroke-linejoin="round" stroke-width="1"/>
        <path id="Trazado_833698" data-name="Trazado 833698" d="M372.039,29.9H327V57.641h16.844l5.134,6.846,4.564-6.846h18.5Z" transform="translate(-143.619 -13.131)" fill="#263238"/>
        <path id="Trazado_833699" data-name="Trazado 833699" d="M368.34,26.2H323.3V53.941h16.844l5.134,6.846,4.564-6.846h18.5Z" transform="translate(-141.994 -11.506)" fill="#fff"/>
        <path id="Trazado_833700" data-name="Trazado 833700" d="M368.34,43.3,323.3,59.465v1.986h16.844l5.134,6.846,4.564-6.846h18.5Z" transform="translate(-141.994 -19.016)" fill="#c7c7c7"/>
        <path id="Trazado_833701" data-name="Trazado 833701" d="M368.34,26.2H323.3V53.941h16.844l5.134,6.846,4.564-6.846h18.5Z" transform="translate(-141.994 -11.506)" fill="none" stroke="#263238" stroke-linecap="round" stroke-linejoin="round" stroke-width="1"/>
        <path id="Trazado_833702" data-name="Trazado 833702" d="M349.651,48.44a1.729,1.729,0,1,0-1.729,1.73,1.729,1.729,0,0,0,1.729-1.73" transform="translate(-152.048 -20.516)" fill="#263238"/>
        <path id="Trazado_833703" data-name="Trazado 833703" d="M363.831,48.44a1.729,1.729,0,1,0-1.729,1.73,1.729,1.729,0,0,0,1.729-1.73" transform="translate(-158.276 -20.516)" fill="#263238"/>
        <path id="Trazado_833704" data-name="Trazado 833704" d="M378.011,48.44a1.729,1.729,0,1,0-1.729,1.73,1.729,1.729,0,0,0,1.729-1.73" transform="translate(-164.503 -20.516)" fill="#263238"/>
        <path id="Trazado_833705" data-name="Trazado 833705" d="M200.5,437.306l-1.593,5.1s-5.892,4.3-5.733,5.255a24.651,24.651,0,0,1,0,3.5h20.065s.159-2.708.159-4.14a23.618,23.618,0,0,0-.159-3.663l-.478-2.389Z" transform="translate(-84.839 -192.064)" fill="#92e3a9"/>
        <path id="Trazado_833706" data-name="Trazado 833706" d="M200.5,437.306l-1.593,5.1s-5.892,4.3-5.733,5.255a24.651,24.651,0,0,1,0,3.5h20.065s.159-2.708.159-4.14a23.618,23.618,0,0,0-.159-3.663l-.478-2.389Z" transform="translate(-84.839 -192.064)" fill="none" stroke="#263238" stroke-linecap="round" stroke-linejoin="round" stroke-width="1"/>
        <path id="Trazado_833707" data-name="Trazado 833707" d="M213.238,460.015s.075-1.281.122-2.548H193.24c.022,1.119-.067,2.548-.067,2.548Z" transform="translate(-84.841 -200.919)" fill="#fff"/>
        <path id="Trazado_833708" data-name="Trazado 833708" d="M213.238,460.015s.075-1.281.122-2.548H193.24c.022,1.119-.067,2.548-.067,2.548Z" transform="translate(-84.841 -200.919)" fill="none" stroke="#263238" stroke-linecap="round" stroke-linejoin="round" stroke-width="1"/>
        <path id="Trazado_833709" data-name="Trazado 833709" d="M259.173,437.306l1.593,5.1s5.892,4.3,5.733,5.255a24.651,24.651,0,0,0,0,3.5H246.433s-.159-2.708-.159-4.14a23.618,23.618,0,0,1,.159-3.663l.478-2.389Z" transform="translate(-108.163 -192.064)" fill="#92e3a9"/>
        <path id="Trazado_833710" data-name="Trazado 833710" d="M259.173,437.306l1.593,5.1s5.892,4.3,5.733,5.255a24.651,24.651,0,0,0,0,3.5H246.433s-.159-2.708-.159-4.14a23.618,23.618,0,0,1,.159-3.663l.478-2.389Z" transform="translate(-108.163 -192.064)" fill="none" stroke="#263238" stroke-linecap="round" stroke-linejoin="round" stroke-width="1"/>
        <path id="Trazado_833711" data-name="Trazado 833711" d="M246.462,460.015s-.075-1.281-.122-2.548h20.12c-.022,1.119.067,2.548.067,2.548Z" transform="translate(-108.192 -200.919)" fill="#fff"/>
        <path id="Trazado_833712" data-name="Trazado 833712" d="M246.462,460.015s-.075-1.281-.122-2.548h20.12c-.022,1.119.067,2.548.067,2.548Z" transform="translate(-108.192 -200.919)" fill="none" stroke="#263238" stroke-linecap="round" stroke-linejoin="round" stroke-width="1"/>
        <path id="Trazado_833713" data-name="Trazado 833713" d="M239.745,327.509c1.274-10.032,2.707-65.769,2.707-65.769l-21.02-1.911v.2l-1.274-.2-21.021,1.911s1.433,55.736,2.707,65.769,1.115,28.346,1.115,28.346l-1.274,2.388.8,2.867,12.9,1.911s1.274-6.21,1.593-8.6a42.219,42.219,0,0,0-.478-8.44c-.146-.873,3.029-54.467,3.58-63.757l1.357-1.958v.584s3.821,64.176,3.663,65.131a42.17,42.17,0,0,0-.478,8.44c.319,2.389,1.593,8.6,1.593,8.6l12.9-1.911.8-2.867-1.274-2.388s-.159-18.313,1.115-28.346" transform="translate(-87.461 -114.117)" fill="#263238"/>
        <path id="Trazado_833714" data-name="Trazado 833714" d="M239.745,327.509c1.274-10.032,2.707-65.769,2.707-65.769l-21.02-1.911v.2l-1.274-.2-21.021,1.911s1.433,55.736,2.707,65.769,1.115,28.346,1.115,28.346l-1.274,2.388.8,2.867,12.9,1.911s1.274-6.21,1.593-8.6a42.219,42.219,0,0,0-.478-8.44c-.146-.873,3.029-54.467,3.58-63.757l1.357-1.958v.584s3.821,64.176,3.663,65.131a42.17,42.17,0,0,0-.478,8.44c.319,2.389,1.593,8.6,1.593,8.6l12.9-1.911.8-2.867-1.274-2.388S238.471,337.542,239.745,327.509Z" transform="translate(-87.461 -114.117)" fill="none" stroke="#263238" stroke-linecap="round" stroke-linejoin="round" stroke-width="1"/>
        <path id="Trazado_833715" data-name="Trazado 833715" d="M216.413,140.781l-.1,9.512-7.53,3.17,4.26,56.277h23.383l2.279-56.574s-6.935-2.477-7.233-2.477-.693-11.295-.693-11.295Z" transform="translate(-91.698 -61.222)" fill="#bababa"/>
        <path id="Trazado_833716" data-name="Trazado 833716" d="M216.413,140.781l-.1,9.512-7.53,3.17,4.26,56.277h23.383l2.279-56.574s-6.935-2.477-7.233-2.477-.693-11.295-.693-11.295Z" transform="translate(-91.698 -61.222)" fill="none" stroke="#263238" stroke-linecap="round" stroke-linejoin="round" stroke-width="1"/>
        <path id="Trazado_833717" data-name="Trazado 833717" d="M235.92,150.688c-.3,0-.694-11.3-.694-11.3L220.86,140.78l-.1,9.511-1.852.78c1.715,2.311,8.161,10.772,10.472,10.515,2.013-.224,5.934-7.125,7.751-10.526a11.773,11.773,0,0,0-1.212-.372" transform="translate(-96.144 -61.221)" fill="#fff"/>
        <path id="Trazado_833718" data-name="Trazado 833718" d="M235.92,150.688c-.3,0-.694-11.3-.694-11.3L220.86,140.78l-.1,9.511-1.852.78c1.715,2.311,8.161,10.772,10.472,10.515,2.013-.224,5.934-7.125,7.751-10.526A11.773,11.773,0,0,0,235.92,150.688Z" transform="translate(-96.144 -61.221)" fill="none" stroke="#263238" stroke-linecap="round" stroke-linejoin="round" stroke-width="1"/>
        <path id="Trazado_833719" data-name="Trazado 833719" d="M223.163,141.471l-2.3.222-.1,9.512-1.851.779,11.759-3.95Z" transform="translate(-96.145 -62.134)" fill="#263238"/>
        <path id="Trazado_833720" data-name="Trazado 833720" d="M223.163,141.471l-2.3.222-.1,9.512-1.851.779,11.759-3.95Z" transform="translate(-96.145 -62.134)" fill="none" stroke="#263238" stroke-linecap="round" stroke-linejoin="round" stroke-width="1"/>
        <path id="Trazado_833721" data-name="Trazado 833721" d="M219.32,98.3s-1.981-.1-2.378.4-4.756,7.332-4.458,8.521a27.824,27.824,0,0,0,1.783,3.963l1.189,4.26.892-7.134,4.855-4.756,10.9,3.269,1.09,5.747.793.2s.4-2.477.5-2.873,1.883-6.737,1.387-8.124-11.493-6.044-13.375-5.846S219.32,98.3,219.32,98.3" transform="translate(-93.316 -42.128)" fill="#263238"/>
        <path id="Trazado_833722" data-name="Trazado 833722" d="M219.32,98.3s-1.981-.1-2.378.4-4.756,7.332-4.458,8.521a27.824,27.824,0,0,0,1.783,3.963l1.189,4.26.892-7.134,4.855-4.756,10.9,3.269,1.09,5.747.793.2s.4-2.477.5-2.873,1.883-6.737,1.387-8.124-11.493-6.044-13.375-5.846S219.32,98.3,219.32,98.3Z" transform="translate(-93.316 -42.128)" fill="none" stroke="#263238" stroke-linecap="round" stroke-linejoin="round" stroke-width="1"/>
        <path id="Trazado_833723" data-name="Trazado 833723" d="M215.971,127.148s-1.783-3.269-2.279.1,2.874,4.855,2.874,4.855Z" transform="translate(-93.831 -55.218)" fill="#fff"/>
        <path id="Trazado_833724" data-name="Trazado 833724" d="M215.971,127.148s-1.783-3.269-2.279.1,2.874,4.855,2.874,4.855Z" transform="translate(-93.831 -55.218)" fill="none" stroke="#263238" stroke-linecap="round" stroke-linejoin="round" stroke-width="1"/>
        <path id="Trazado_833725" data-name="Trazado 833725" d="M249.419,125.075s1.684-1.783,2.18.4-1.685,4.855-1.685,4.855Z" transform="translate(-109.544 -54.631)" fill="#fff"/>
        <path id="Trazado_833726" data-name="Trazado 833726" d="M249.419,125.075s1.684-1.783,2.18.4-1.685,4.855-1.685,4.855Z" transform="translate(-109.544 -54.631)" fill="none" stroke="#263238" stroke-linecap="round" stroke-linejoin="round" stroke-width="1"/>
        <path id="Trazado_833727" data-name="Trazado 833727" d="M217.088,113.256s1.288,11.3,1.486,12.187,7.134,6.737,7.53,7.035,2.774.693,3.765-.1,5.647-7.53,5.846-8.124-.694-14.466-.694-14.466l-5.549-2.477s1.288,1.585.3,1.684-6.638-3.171-6.638-3.171Z" transform="translate(-95.345 -46.478)" fill="#fff"/>
        <path id="Trazado_833728" data-name="Trazado 833728" d="M217.088,113.256s1.288,11.3,1.486,12.187,7.134,6.737,7.53,7.035,2.774.693,3.765-.1,5.647-7.53,5.846-8.124-.694-14.466-.694-14.466l-5.549-2.477s1.288,1.585.3,1.684-6.638-3.171-6.638-3.171Z" transform="translate(-95.345 -46.478)" fill="none" stroke="#263238" stroke-linecap="round" stroke-linejoin="round" stroke-width="1"/>
        <path id="Trazado_833729" data-name="Trazado 833729" d="M227.454,117.045a3.807,3.807,0,0,0-4.36.892" transform="translate(-97.983 -51.258)" fill="none" stroke="#263238" stroke-linecap="round" stroke-linejoin="round" stroke-width="1"/>
        <path id="Trazado_833730" data-name="Trazado 833730" d="M237.052,117a3.022,3.022,0,0,1,4.26.1" transform="translate(-104.113 -51.01)" fill="none" stroke="#263238" stroke-linecap="round" stroke-linejoin="round" stroke-width="1"/>
        <path id="Trazado_833731" data-name="Trazado 833731" d="M235.168,119.606s.2,3.963.3,4.458,1.189.892.4,1.783-2.279,1.288-2.874.4" transform="translate(-102.328 -52.531)" fill="none" stroke="#263238" stroke-linecap="round" stroke-linejoin="round" stroke-width="1"/>
        <path id="Trazado_833732" data-name="Trazado 833732" d="M227.865,134.334s2.081,2.18,4.36,1.883a6.572,6.572,0,0,0,3.864-2.477" transform="translate(-100.078 -58.738)" fill="none" stroke="#263238" stroke-linecap="round" stroke-linejoin="round" stroke-width="1"/>
        <path id="Trazado_833733" data-name="Trazado 833733" d="M227.486,122.64c0,.6-.311,1.09-.694,1.09s-.693-.488-.693-1.09.31-1.09.693-1.09.694.488.694,1.09" transform="translate(-99.302 -53.385)" fill="#263238"/>
        <path id="Trazado_833734" data-name="Trazado 833734" d="M242.15,122.64c0,.6-.311,1.09-.694,1.09s-.693-.488-.693-1.09.31-1.09.693-1.09.694.488.694,1.09" transform="translate(-105.743 -53.385)" fill="#263238"/>
        <path id="Trazado_833735" data-name="Trazado 833735" d="M201.105,158.828s.792,73.318.792,73.615a1.168,1.168,0,0,1-1.09,1.288c-1.09.2-17.636-9.512-17.636-10.106s2.279-14.862,2.279-14.862l-11.3-8.52s9.413-34.678,10.007-34.876,16.942-6.539,16.942-6.539" transform="translate(-76.489 -69.757)" fill="#92e3a9"/>
        <path id="Trazado_833736" data-name="Trazado 833736" d="M201.105,158.828s.792,73.318.792,73.615a1.168,1.168,0,0,1-1.09,1.288c-1.09.2-17.636-9.512-17.636-10.106s2.279-14.862,2.279-14.862l-11.3-8.52s9.413-34.678,10.007-34.876S201.105,158.828,201.105,158.828Z" transform="translate(-76.489 -69.757)" fill="none" stroke="#263238" stroke-linecap="round" stroke-linejoin="round" stroke-width="1"/>
        <path id="Trazado_833737" data-name="Trazado 833737" d="M178.756,227.511a36.556,36.556,0,0,1,4.4-1.284c1.284-.183,5.5,3.851,5.5,3.851" transform="translate(-78.509 -99.356)" fill="none" stroke="#263238" stroke-linecap="round" stroke-linejoin="round" stroke-width="1"/>
        <path id="Trazado_833738" data-name="Trazado 833738" d="M186.6,221.981s3.484.367,5.135,2.751" transform="translate(-81.956 -97.494)" fill="none" stroke="#263238" stroke-linecap="round" stroke-linejoin="round" stroke-width="1"/>
        <path id="Trazado_833739" data-name="Trazado 833739" d="M199.48,250.875l2.477,1.189-2.972,6.737-1.685-2.18Z" transform="translate(-86.654 -110.184)" fill="#fff"/>
        <path id="Trazado_833740" data-name="Trazado 833740" d="M199.48,250.875l2.477,1.189-2.972,6.737-1.685-2.18Z" transform="translate(-86.654 -110.184)" fill="none" stroke="#263238" stroke-linecap="round" stroke-linejoin="round" stroke-width="1"/>
        <path id="Trazado_833741" data-name="Trazado 833741" d="M173.714,226.67s-3.369,8.62-3.269,9.016,14.069,12.881,14.763,12.583,3.765-8.422,3.864-8.818-6.935-10.4-6.935-10.4" transform="translate(-74.858 -99.553)" fill="#92e3a9"/>
        <path id="Trazado_833742" data-name="Trazado 833742" d="M173.714,226.67s-3.369,8.62-3.269,9.016,14.069,12.881,14.763,12.583,3.765-8.422,3.864-8.818-6.935-10.4-6.935-10.4" transform="translate(-74.858 -99.553)" fill="none" stroke="#263238" stroke-linecap="round" stroke-linejoin="round" stroke-width="1"/>
        <line id="Línea_375" data-name="Línea 375" y1="23.977" x2="0.792" transform="translate(110.746 110.274)" fill="none" stroke="#263238" stroke-linecap="round" stroke-linejoin="round" stroke-width="1"/>
        <path id="Trazado_833743" data-name="Trazado 833743" d="M203.422,248.048l-5.945,13.078,1.783,1.387,5.845-13.673Z" transform="translate(-86.732 -108.942)" fill="#92e3a9"/>
        <path id="Trazado_833744" data-name="Trazado 833744" d="M203.422,248.048l-5.945,13.078,1.783,1.387,5.845-13.673Z" transform="translate(-86.732 -108.942)" fill="none" stroke="#263238" stroke-linecap="round" stroke-linejoin="round" stroke-width="1"/>
        <path id="Trazado_833745" data-name="Trazado 833745" d="M190.365,272.517c-.082.575-.131.954-.131,1.04,0,.594,16.546,10.3,17.636,10.106a1.177,1.177,0,0,0,1-.725Z" transform="translate(-83.55 -119.689)" fill="#92e3a9"/>
        <path id="Trazado_833746" data-name="Trazado 833746" d="M190.365,272.517c-.082.575-.131.954-.131,1.04,0,.594,16.546,10.3,17.636,10.106a1.177,1.177,0,0,0,1-.725Z" transform="translate(-83.55 -119.689)" fill="none" stroke="#263238" stroke-linecap="round" stroke-linejoin="round" stroke-width="1"/>
        <path id="Trazado_833747" data-name="Trazado 833747" d="M213.345,158.522l.2,36.362s-6.044-26.058-6.836-27.445-5.053-4.459-4.657-5.152,10.5-5.549,11.3-3.765" transform="translate(-88.729 -69.451)" fill="#fff"/>
        <path id="Trazado_833748" data-name="Trazado 833748" d="M213.345,158.522l.2,36.362s-6.044-26.058-6.836-27.445-5.053-4.459-4.657-5.152S212.552,156.738,213.345,158.522Z" transform="translate(-88.729 -69.451)" fill="none" stroke="#263238" stroke-linecap="round" stroke-linejoin="round" stroke-width="1"/>
        <path id="Trazado_833749" data-name="Trazado 833749" d="M248.794,158.828S248,232.146,248,232.443a1.168,1.168,0,0,0,1.09,1.288c1.09.2,17.636-9.512,17.636-10.106s-2.279-14.862-2.279-14.862l11.3-8.52s-9.412-34.678-10.007-34.876-16.942-6.539-16.942-6.539" transform="translate(-108.922 -69.757)" fill="#92e3a9"/>
        <path id="Trazado_833750" data-name="Trazado 833750" d="M248.794,158.828S248,232.146,248,232.443a1.168,1.168,0,0,0,1.09,1.288c1.09.2,17.636-9.512,17.636-10.106s-2.279-14.862-2.279-14.862l11.3-8.52s-9.412-34.678-10.007-34.876S248.794,158.828,248.794,158.828Z" transform="translate(-108.922 -69.757)" fill="none" stroke="#263238" stroke-linecap="round" stroke-linejoin="round" stroke-width="1"/>
        <path id="Trazado_833751" data-name="Trazado 833751" d="M285.918,223.616s-3.851,0-5.318.734a36.934,36.934,0,0,0-4.4,3.117" transform="translate(-121.306 -98.212)" fill="none" stroke="#263238" stroke-linecap="round" stroke-linejoin="round" stroke-width="1"/>
        <path id="Trazado_833752" data-name="Trazado 833752" d="M275.872,223.216a61.194,61.194,0,0,1,5.135-3.851h2.567" transform="translate(-121.163 -96.345)" fill="none" stroke="#263238" stroke-linecap="round" stroke-linejoin="round" stroke-width="1"/>
        <path id="Trazado_833753" data-name="Trazado 833753" d="M268.5,250.875l-2.477,1.189,2.972,6.737,1.685-2.18Z" transform="translate(-116.837 -110.184)" fill="#fff"/>
        <path id="Trazado_833754" data-name="Trazado 833754" d="M268.5,250.875l-2.477,1.189,2.972,6.737,1.685-2.18Z" transform="translate(-116.837 -110.184)" fill="none" stroke="#263238" stroke-linecap="round" stroke-linejoin="round" stroke-width="1"/>
        <path id="Trazado_833755" data-name="Trazado 833755" d="M283.322,226.67s3.369,8.62,3.269,9.016-14.069,12.881-14.763,12.583-3.765-8.422-3.864-8.818,6.935-10.4,6.935-10.4" transform="translate(-117.689 -99.553)" fill="#92e3a9"/>
        <path id="Trazado_833756" data-name="Trazado 833756" d="M283.322,226.67s3.369,8.62,3.269,9.016-14.069,12.881-14.763,12.583-3.765-8.422-3.864-8.818,6.935-10.4,6.935-10.4" transform="translate(-117.689 -99.553)" fill="none" stroke="#263238" stroke-linecap="round" stroke-linejoin="round" stroke-width="1"/>
        <line id="Línea_376" data-name="Línea 376" x1="0.792" y1="23.977" transform="translate(152.951 110.274)" fill="none" stroke="#263238" stroke-linecap="round" stroke-linejoin="round" stroke-width="1"/>
        <path id="Trazado_833757" data-name="Trazado 833757" d="M262.23,248.048l5.944,13.078-1.783,1.387-5.845-13.673Z" transform="translate(-114.431 -108.942)" fill="#92e3a9"/>
        <path id="Trazado_833758" data-name="Trazado 833758" d="M262.23,248.048l5.944,13.078-1.783,1.387-5.845-13.673Z" transform="translate(-114.431 -108.942)" fill="none" stroke="#263238" stroke-linecap="round" stroke-linejoin="round" stroke-width="1"/>
        <path id="Trazado_833759" data-name="Trazado 833759" d="M266.666,272.517c.082.575.131.954.131,1.04,0,.594-16.546,10.3-17.636,10.106a1.177,1.177,0,0,1-1-.725Z" transform="translate(-108.991 -119.689)" fill="#92e3a9"/>
        <path id="Trazado_833760" data-name="Trazado 833760" d="M266.666,272.517c.082.575.131.954.131,1.04,0,.594-16.546,10.3-17.636,10.106a1.177,1.177,0,0,1-1-.725Z" transform="translate(-108.991 -119.689)" fill="none" stroke="#263238" stroke-linecap="round" stroke-linejoin="round" stroke-width="1"/>
        <path id="Trazado_833761" data-name="Trazado 833761" d="M249.26,158.522l-.2,36.362s6.044-26.058,6.836-27.445,5.053-4.459,4.657-5.152-10.5-5.549-11.3-3.765" transform="translate(-109.388 -69.451)" fill="#fff"/>
        <path id="Trazado_833762" data-name="Trazado 833762" d="M249.26,158.522l-.2,36.362s6.044-26.058,6.836-27.445,5.053-4.459,4.657-5.152S250.052,156.738,249.26,158.522Z" transform="translate(-109.388 -69.451)" fill="none" stroke="#263238" stroke-linecap="round" stroke-linejoin="round" stroke-width="1"/>
        <path id="Trazado_833763" data-name="Trazado 833763" d="M241.412,26.717a22.518,22.518,0,1,0-26.838,22.1l4.5,5.823,4.329-5.856a22.525,22.525,0,0,0,18.01-22.066" transform="translate(-86.248 -1.844)" fill="#263238"/>
        <path id="Trazado_833764" data-name="Trazado 833764" d="M239.562,23.018a22.518,22.518,0,1,0-26.838,22.1l4.5,5.823,4.329-5.856a22.525,22.525,0,0,0,18.01-22.066" transform="translate(-85.435 -0.22)" fill="#92e3a9"/>
        <g id="Grupo_1076381" data-name="Grupo 1076381" transform="translate(112.243 19.207)" opacity="0.2">
          <g id="Grupo_1076380" data-name="Grupo 1076380">
            <g id="Grupo_1076379" data-name="Grupo 1076379" clip-path="url(#clip-path-7)">
              <path id="Trazado_833765" data-name="Trazado 833765" d="M215.194,59.941l4.5,5.823,4.329-5.856a22.523,22.523,0,0,0,17.721-25.658l-41.6,15.081a22.543,22.543,0,0,0,15.046,10.611" transform="translate(-200.148 -34.249)"/>
            </g>
          </g>
        </g>
        <path id="Trazado_833766" data-name="Trazado 833766" d="M239.562,23.018a22.518,22.518,0,1,0-26.838,22.1l4.5,5.823,4.329-5.856A22.525,22.525,0,0,0,239.562,23.018Z" transform="translate(-85.435 -0.22)" fill="none" stroke="#263238" stroke-linecap="round" stroke-linejoin="round" stroke-width="1"/>
        <path id="Trazado_833767" data-name="Trazado 833767" d="M221.785,40.809a1.729,1.729,0,1,0-1.729,1.729,1.729,1.729,0,0,0,1.729-1.729" transform="translate(-95.889 -17.164)" fill="#263238"/>
        <path id="Trazado_833768" data-name="Trazado 833768" d="M235.965,40.809a1.729,1.729,0,1,0-1.729,1.729,1.729,1.729,0,0,0,1.729-1.729" transform="translate(-102.117 -17.164)" fill="#263238"/>
        <path id="Trazado_833769" data-name="Trazado 833769" d="M250.145,40.809a1.729,1.729,0,1,0-1.729,1.729,1.729,1.729,0,0,0,1.729-1.729" transform="translate(-108.345 -17.164)" fill="#263238"/>
        <path id="Trazado_833770" data-name="Trazado 833770" d="M74.929,439.486l-.383,2.041s-4.593,5.742-5.486,6.635-1.148,3.955-1.148,3.955H86.029a26.975,26.975,0,0,0,.893-5.1c-.127-1.148-.127-4.466-.127-4.466Z" transform="translate(-29.827 -193.022)" fill="#92e3a9"/>
        <path id="Trazado_833771" data-name="Trazado 833771" d="M74.929,439.486l-.383,2.041s-4.593,5.742-5.486,6.635-1.148,3.955-1.148,3.955H86.029a26.975,26.975,0,0,0,.893-5.1c-.127-1.148-.127-4.466-.127-4.466Z" transform="translate(-29.827 -193.022)" fill="none" stroke="#263238" stroke-linecap="round" stroke-linejoin="round" stroke-width="1"/>
        <path id="Trazado_833772" data-name="Trazado 833772" d="M68.337,457.687a15.447,15.447,0,0,0-.425,2.424H86.03s.3-1.172.557-2.424Z" transform="translate(-29.827 -201.015)" fill="#fff"/>
        <path id="Trazado_833773" data-name="Trazado 833773" d="M68.337,457.687a15.447,15.447,0,0,0-.425,2.424H86.03s.3-1.172.557-2.424Z" transform="translate(-29.827 -201.015)" fill="none" stroke="#263238" stroke-linecap="round" stroke-linejoin="round" stroke-width="1"/>
        <path id="Trazado_833774" data-name="Trazado 833774" d="M137.23,439.486l.382,2.041s4.594,5.742,5.487,6.635,1.148,3.955,1.148,3.955H126.13a26.975,26.975,0,0,1-.893-5.1c.127-1.148.127-4.466.127-4.466Z" transform="translate(-54.999 -193.022)" fill="#92e3a9"/>
        <path id="Trazado_833775" data-name="Trazado 833775" d="M137.23,439.486l.382,2.041s4.594,5.742,5.487,6.635,1.148,3.955,1.148,3.955H126.13a26.975,26.975,0,0,1-.893-5.1c.127-1.148.127-4.466.127-4.466Z" transform="translate(-54.999 -193.022)" fill="none" stroke="#263238" stroke-linecap="round" stroke-linejoin="round" stroke-width="1"/>
        <path id="Trazado_833776" data-name="Trazado 833776" d="M144.1,457.687a15.449,15.449,0,0,1,.425,2.424H126.4s-.3-1.172-.557-2.424Z" transform="translate(-55.271 -201.015)" fill="#fff"/>
        <path id="Trazado_833777" data-name="Trazado 833777" d="M144.1,457.687a15.449,15.449,0,0,1,.425,2.424H126.4s-.3-1.172-.557-2.424Z" transform="translate(-55.271 -201.015)" fill="none" stroke="#263238" stroke-linecap="round" stroke-linejoin="round" stroke-width="1"/>
        <path id="Trazado_833778" data-name="Trazado 833778" d="M116.333,329.724l1.276-52.949-18.373-3.828h-.893L79.97,276.775l1.276,52.949.638,33.3L80.1,364.556l.127,1.786L92.091,369.4s.255-4.721.382-5.358a35.261,35.261,0,0,0-.382-3.828c0-.51,3.955-44.018,3.955-44.018l1.531-24.114,1.212-.3,1.212.3,1.531,24.114s3.955,43.508,3.955,44.018a35.4,35.4,0,0,0-.382,3.828c.128.638.382,5.358.382,5.358l11.866-3.062.128-1.786-1.787-1.531Z" transform="translate(-35.123 -119.878)" fill="#263238"/>
        <path id="Trazado_833779" data-name="Trazado 833779" d="M116.333,329.724l1.276-52.949-18.373-3.828h-.893L79.97,276.775l1.276,52.949.638,33.3L80.1,364.556l.127,1.786L92.091,369.4s.255-4.721.382-5.358a35.261,35.261,0,0,0-.382-3.828c0-.51,3.955-44.018,3.955-44.018l1.531-24.114,1.212-.3,1.212.3,1.531,24.114s3.955,43.508,3.955,44.018a35.4,35.4,0,0,0-.382,3.828c.128.638.382,5.358.382,5.358l11.866-3.062.128-1.786-1.787-1.531Z" transform="translate(-35.123 -119.878)" fill="none" stroke="#263238" stroke-linecap="round" stroke-linejoin="round" stroke-width="1"/>
        <path id="Trazado_833780" data-name="Trazado 833780" d="M43.277,201.337,42,206.568l-8.038-9.186s-.638-4.338-1.149-4.848a22.745,22.745,0,0,0-3.7-2.042c-1.276-.638-3.062-1.148-3.7-2.169s-1.913-.638-1.021.893a7.365,7.365,0,0,0,2.552,2.424,40.032,40.032,0,0,1-4.975-.382c-.638-.256-3.955-2.807-4.721-1.787s.893,2.3,1.276,3.19,3.827,3.19,6.889,4.976a53.792,53.792,0,0,0,6.252,3.062s10.08,16.587,11.738,17.991,4.211,3.062,5.1,1.658a65.853,65.853,0,0,0,2.807-6L51.7,204.4Z" transform="translate(-7.488 -82.461)" fill="#fff"/>
        <path id="Trazado_833781" data-name="Trazado 833781" d="M43.277,201.337,42,206.568l-8.038-9.186s-.638-4.338-1.149-4.848a22.745,22.745,0,0,0-3.7-2.042c-1.276-.638-3.062-1.148-3.7-2.169s-1.913-.638-1.021.893a7.365,7.365,0,0,0,2.552,2.424,40.032,40.032,0,0,1-4.975-.382c-.638-.256-3.955-2.807-4.721-1.787s.893,2.3,1.276,3.19,3.827,3.19,6.889,4.976a53.792,53.792,0,0,0,6.252,3.062s10.08,16.587,11.738,17.991,4.211,3.062,5.1,1.658a65.853,65.853,0,0,0,2.807-6L51.7,204.4Z" transform="translate(-7.488 -82.461)" fill="none" stroke="#263238" stroke-linecap="round" stroke-linejoin="round" stroke-width="1"/>
        <path id="Trazado_833782" data-name="Trazado 833782" d="M34.293,201.818s-2.041-2.807-2.807-3.19-8.166-2.807-8.166-2.807" transform="translate(-10.242 -86.004)" fill="none" stroke="#263238" stroke-linecap="round" stroke-linejoin="round" stroke-width="1"/>
        <line id="Línea_377" data-name="Línea 377" x2="6.252" y2="4.083" transform="translate(34.513 124.107)" fill="none" stroke="#263238" stroke-linecap="round" stroke-linejoin="round" stroke-width="1"/>
        <path id="Trazado_833783" data-name="Trazado 833783" d="M150.082,207.883l1.613,16.382,1.914,28.835s1.531,6.762,1.659,7.272a68.667,68.667,0,0,1-.51,8.676,5.561,5.561,0,0,1-1.786,2.3c-.511.255-2.042,0-1.659-.638s1.148-1.4,1.148-1.914v-3.317c0-.893-1.531-3.318-1.531-3.318s.128,3.955.128,4.849,0,1.276-.638,1.149-1.276-.383-1.276-1.4-.51-3.572-.638-4.466-.638-1.531-.51-2.3,1.786-6.507,1.786-6.507l-5.741-19.522-1.276-18.372Z" transform="translate(-62.702 -91.302)" fill="#fff"/>
        <path id="Trazado_833784" data-name="Trazado 833784" d="M150.082,207.883l1.613,16.382,1.914,28.835s1.531,6.762,1.659,7.272a68.667,68.667,0,0,1-.51,8.676,5.561,5.561,0,0,1-1.786,2.3c-.511.255-2.042,0-1.659-.638s1.148-1.4,1.148-1.914v-3.317c0-.893-1.531-3.318-1.531-3.318s.128,3.955.128,4.849,0,1.276-.638,1.149-1.276-.383-1.276-1.4-.51-3.572-.638-4.466-.638-1.531-.51-2.3,1.786-6.507,1.786-6.507l-5.741-19.522-1.276-18.372Z" transform="translate(-62.702 -91.302)" fill="none" stroke="#263238" stroke-linecap="round" stroke-linejoin="round" stroke-width="1"/>
        <path id="Trazado_833785" data-name="Trazado 833785" d="M80,162.133l-16.153,7.753-2.985,18.148,8.421,4.593,1.4,36.363,16.969,3.828L90.46,228.1l2.041,5.1,17.224-4.593-.765-36.618,7.272-4.849-4.069-18.227L96.585,161.24Z" transform="translate(-26.729 -70.816)" fill="#bababa"/>
        <path id="Trazado_833786" data-name="Trazado 833786" d="M80,162.133l-16.153,7.753-2.985,18.148,8.421,4.593,1.4,36.363,16.969,3.828L90.46,228.1l2.041,5.1,17.224-4.593-.765-36.618,7.272-4.849-4.069-18.227L96.585,161.24Z" transform="translate(-26.729 -70.816)" fill="none" stroke="#263238" stroke-linecap="round" stroke-linejoin="round" stroke-width="1"/>
        <line id="Línea_378" data-name="Línea 378" x2="1.531" y2="59.839" transform="translate(62.2 96.037)" fill="none" stroke="#263238" stroke-linecap="round" stroke-linejoin="round" stroke-width="1"/>
        <line id="Línea_379" data-name="Línea 379" x1="1.149" y1="14.29" transform="translate(81.083 106.883)" fill="none" stroke="#263238" stroke-linecap="round" stroke-linejoin="round" stroke-width="1"/>
        <line id="Línea_380" data-name="Línea 380" x1="0.638" y1="16.969" transform="translate(41.913 104.841)" fill="none" stroke="#263238" stroke-linecap="round" stroke-linejoin="round" stroke-width="1"/>
        <path id="Trazado_833787" data-name="Trazado 833787" d="M114.718,192.719a.765.765,0,1,1-.765-.766A.765.765,0,0,1,114.718,192.719Z" transform="translate(-49.712 -84.306)" fill="none" stroke="#263238" stroke-linecap="round" stroke-linejoin="round" stroke-width="1"/>
        <circle id="Elipse_10099" data-name="Elipse 10099" cx="0.765" cy="0.765" r="0.765" transform="translate(63.476 127.297)" fill="none" stroke="#263238" stroke-linecap="round" stroke-linejoin="round" stroke-width="1"/>
        <circle id="Elipse_10100" data-name="Elipse 10100" cx="0.765" cy="0.765" r="0.765" transform="translate(64.369 146.945)" fill="none" stroke="#263238" stroke-linecap="round" stroke-linejoin="round" stroke-width="1"/>
        <path id="Trazado_833788" data-name="Trazado 833788" d="M59.888,203.1l-1.531,5.1,9.824,4.466.128-3.955Z" transform="translate(-25.63 -89.202)" fill="#fff"/>
        <path id="Trazado_833789" data-name="Trazado 833789" d="M59.888,203.1l-1.531,5.1,9.824,4.466.128-3.955Z" transform="translate(-25.63 -89.202)" fill="none" stroke="#263238" stroke-linecap="round" stroke-linejoin="round" stroke-width="1"/>
        <path id="Trazado_833790" data-name="Trazado 833790" d="M146.631,206.985v5.486l8.676-6.38-2.3-3.444Z" transform="translate(-64.4 -89.002)" fill="#fff"/>
        <path id="Trazado_833791" data-name="Trazado 833791" d="M146.631,206.985v5.486l8.676-6.38-2.3-3.444Z" transform="translate(-64.4 -89.002)" fill="none" stroke="#263238" stroke-linecap="round" stroke-linejoin="round" stroke-width="1"/>
        <path id="Trazado_833792" data-name="Trazado 833792" d="M99.081,149.02l.765,6,5.869,5.741,6.762-7.272-.128-5.359-3.572,2.424-9.7-3.19Z" transform="translate(-43.516 -64.721)" fill="#fff"/>
        <path id="Trazado_833793" data-name="Trazado 833793" d="M99.081,149.02l.765,6,5.869,5.741,6.762-7.272-.128-5.359-3.572,2.424-9.7-3.19Z" transform="translate(-43.516 -64.721)" fill="none" stroke="#263238" stroke-linecap="round" stroke-linejoin="round" stroke-width="1"/>
        <path id="Trazado_833794" data-name="Trazado 833794" d="M110.144,153.7l-5.711-4.581-5.351-1.76v1.659l.766,6,1.516,1.484Z" transform="translate(-43.517 -64.721)" fill="#263238"/>
        <path id="Trazado_833795" data-name="Trazado 833795" d="M110.144,153.7l-5.711-4.581-5.351-1.76v1.659l.766,6,1.516,1.484Z" transform="translate(-43.517 -64.721)" fill="none" stroke="#263238" stroke-linecap="round" stroke-linejoin="round" stroke-width="1"/>
        <path id="Trazado_833796" data-name="Trazado 833796" d="M103.218,165.155l-3.062,5.614-6.762-10.079,3.444-3.317Z" transform="translate(-41.019 -69.118)" fill="#fff"/>
        <path id="Trazado_833797" data-name="Trazado 833797" d="M103.218,165.155l-3.062,5.614-6.762-10.079,3.444-3.317Z" transform="translate(-41.019 -69.118)" fill="none" stroke="#263238" stroke-linecap="round" stroke-linejoin="round" stroke-width="1"/>
        <path id="Trazado_833798" data-name="Trazado 833798" d="M110.912,165.554l3.7,5.1,5.869-10.079-2.807-2.3Z" transform="translate(-48.712 -69.517)" fill="#fff"/>
        <path id="Trazado_833799" data-name="Trazado 833799" d="M110.912,165.554l3.7,5.1,5.869-10.079-2.807-2.3Z" transform="translate(-48.712 -69.517)" fill="none" stroke="#263238" stroke-linecap="round" stroke-linejoin="round" stroke-width="1"/>
        <path id="Trazado_833800" data-name="Trazado 833800" d="M90.79,109.667l.7,8.806s-1.817-1.4-1.817,1.4.419,5.172,1.4,5.452a16.72,16.72,0,0,0,1.957.419s.419,3.495,1.4,4.333,6.291,3.914,7.269,4.473,4.054.14,4.753-.14,3.215-4.753,3.774-6.011.979-6.01.979-6.01-.559-8.387-.559-10.763.14-4.613-.979-6.291-5.731-4.193-10.483-3.215-8.806,1.957-8.387,7.548" transform="translate(-39.384 -44.754)" fill="#fff"/>
        <path id="Trazado_833801" data-name="Trazado 833801" d="M90.79,109.667l.7,8.806s-1.817-1.4-1.817,1.4.419,5.172,1.4,5.452a16.72,16.72,0,0,0,1.957.419s.419,3.495,1.4,4.333,6.291,3.914,7.269,4.473,4.054.14,4.753-.14,3.215-4.753,3.774-6.011.979-6.01.979-6.01-.559-8.387-.559-10.763.14-4.613-.979-6.291-5.731-4.193-10.483-3.215S90.371,104.076,90.79,109.667Z" transform="translate(-39.384 -44.754)" fill="none" stroke="#263238" stroke-linecap="round" stroke-linejoin="round" stroke-width="1"/>
        <path id="Trazado_833802" data-name="Trazado 833802" d="M92.892,131.438l-.026-.019Z" transform="translate(-40.787 -57.719)" fill="none" stroke="#263238" stroke-linecap="round" stroke-linejoin="round" stroke-width="1"/>
        <path id="Trazado_833803" data-name="Trazado 833803" d="M111.432,108.377a6.323,6.323,0,0,0-.919-3.043c-1.118-1.677-5.731-4.193-10.484-3.215s-8.806,1.957-8.387,7.548l.7,8.806,1.817-.14-.419-3.075s1.957-.28,1.957-1.118-2.516-5.452-.559-6.43,2.936-1.258,4.194-1.118,3.355,2.1,6.15,1.4a9.145,9.145,0,0,0,4.053-1.957Z" transform="translate(-40.236 -44.754)" fill="#263238"/>
        <path id="Trazado_833804" data-name="Trazado 833804" d="M111.432,108.377a6.323,6.323,0,0,0-.919-3.043c-1.118-1.677-5.731-4.193-10.484-3.215s-8.806,1.957-8.387,7.548l.7,8.806,1.817-.14-.419-3.075s1.957-.28,1.957-1.118-2.516-5.452-.559-6.43,2.936-1.258,4.194-1.118,3.355,2.1,6.15,1.4a9.145,9.145,0,0,0,4.053-1.957Z" transform="translate(-40.236 -44.754)" fill="none" stroke="#263238" stroke-linecap="round" stroke-linejoin="round" stroke-width="1"/>
        <path id="Trazado_833805" data-name="Trazado 833805" d="M115.667,129.459l.979,6.849-2.8.28" transform="translate(-50.003 -56.858)" fill="none" stroke="#263238" stroke-linecap="round" stroke-linejoin="round" stroke-width="1"/>
        <path id="Trazado_833806" data-name="Trazado 833806" d="M107.945,127.714a5.7,5.7,0,0,0-5.311.839" transform="translate(-45.077 -55.952)" fill="none" stroke="#263238" stroke-linecap="round" stroke-linejoin="round" stroke-width="1"/>
        <path id="Trazado_833807" data-name="Trazado 833807" d="M119.084,126.93s2.376-1.538,3.774,0" transform="translate(-52.301 -55.447)" fill="none" stroke="#263238" stroke-linecap="round" stroke-linejoin="round" stroke-width="1"/>
        <path id="Trazado_833808" data-name="Trazado 833808" d="M108.547,131.823c0,.617-.376,1.118-.838,1.118s-.839-.5-.839-1.118.376-1.118.839-1.118.838.5.838,1.118" transform="translate(-46.937 -57.405)" fill="#263238"/>
        <path id="Trazado_833809" data-name="Trazado 833809" d="M123.5,131.823c0,.617-.376,1.118-.838,1.118s-.839-.5-.839-1.118.376-1.118.839-1.118.838.5.838,1.118" transform="translate(-53.505 -57.405)" fill="#263238"/>
        <path id="Trazado_833810" data-name="Trazado 833810" d="M116.274,148.961c0,.309-.376.559-.838.559s-.839-.25-.839-.559.376-.559.839-.559.838.25.838.559" transform="translate(-50.331 -65.178)" fill="#263238"/>
        <path id="Trazado_833811" data-name="Trazado 833811" d="M119.265,29.9H74.228V57.641H91.072l5.134,6.846,4.564-6.846h18.5Z" transform="translate(-32.601 -13.131)" fill="#263238"/>
        <path id="Trazado_833812" data-name="Trazado 833812" d="M115.566,26.2H70.529V53.941H87.373l5.134,6.846,4.564-6.846h18.5Z" transform="translate(-30.976 -11.506)" fill="#fff"/>
        <path id="Trazado_833813" data-name="Trazado 833813" d="M115.566,43.3,70.529,59.465v1.986H87.373L92.507,68.3l4.564-6.846h18.5Z" transform="translate(-30.976 -19.016)" fill="#c7c7c7"/>
        <path id="Trazado_833814" data-name="Trazado 833814" d="M115.566,26.2H70.529V53.941H87.373l5.134,6.846,4.564-6.846h18.5Z" transform="translate(-30.976 -11.506)" fill="none" stroke="#263238" stroke-linecap="round" stroke-linejoin="round" stroke-width="1"/>
        <path id="Trazado_833815" data-name="Trazado 833815" d="M96.878,48.44a1.729,1.729,0,1,0-1.729,1.73,1.729,1.729,0,0,0,1.729-1.73" transform="translate(-41.03 -20.516)" fill="#263238"/>
        <path id="Trazado_833816" data-name="Trazado 833816" d="M111.058,48.44a1.729,1.729,0,1,0-1.729,1.73,1.729,1.729,0,0,0,1.729-1.73" transform="translate(-47.258 -20.516)" fill="#263238"/>
        <path id="Trazado_833817" data-name="Trazado 833817" d="M125.238,48.44a1.729,1.729,0,1,0-1.729,1.73,1.729,1.729,0,0,0,1.729-1.73" transform="translate(-53.486 -20.516)" fill="#263238"/>
        <line id="Línea_381" data-name="Línea 381" x2="259.413" transform="translate(0.28 259.096)" fill="none" stroke="#263238" stroke-linecap="round" stroke-linejoin="round" stroke-width="1"/>
      </g>
    </g>
  </g>
</svg>
