<svg xmlns="http://www.w3.org/2000/svg" width="86" height="86" viewBox="0 0 86 86">
  <g id="Grupo_1078862" data-name="Grupo 1078862" transform="translate(6183 8623)">
    <circle id="Elipse_9897" data-name="Elipse 9897" cx="43" cy="43" r="43" transform="translate(-6183 -8623)" fill="#1682fb"/>
    <g id="low-vision" transform="translate(-6173.283 -8657.306)">
      <path id="Trazado_835441" data-name="Trazado 835441" d="M.573,79.051A51.879,51.879,0,0,0,15.451,93.1a38.15,38.15,0,0,0,5.439,2.721L17.23,102.05a1.3,1.3,0,1,0,2.241,1.317l3.91-6.653a32.68,32.68,0,0,0,9.9,1.542,34.177,34.177,0,0,0,17.5-4.959,1.3,1.3,0,0,0-1.319-2.24,31.611,31.611,0,0,1-16.182,4.6,30.029,30.029,0,0,1-8.546-1.247l19.6-33.352a35.334,35.334,0,0,1,5.434,2.679A49.308,49.308,0,0,1,63.894,77.1a.358.358,0,0,1,0,.419,57.967,57.967,0,0,1-5.539,6.528,1.3,1.3,0,0,0,1.847,1.83,60.569,60.569,0,0,0,5.789-6.821,2.944,2.944,0,0,0,0-3.492A51.877,51.877,0,0,0,51.115,61.509a38.155,38.155,0,0,0-5.44-2.721l3.66-6.228a1.3,1.3,0,0,0-2.241-1.318L43.184,57.9a32.687,32.687,0,0,0-9.9-1.542c-.124,0-.247,0-.37,0a34.325,34.325,0,0,0-17.461,5.153A51.878,51.878,0,0,0,.573,75.56a2.944,2.944,0,0,0,0,3.491ZM41.828,60.2l-4.066,6.918a11.127,11.127,0,0,0-11.2,19.055l-3.677,6.256a18.329,18.329,0,0,1-7.955-15.123A18.353,18.353,0,0,1,32.957,58.956l.325,0A30.033,30.033,0,0,1,41.828,60.2ZM27.892,83.911A8.528,8.528,0,0,1,36.433,69.38ZM2.671,77.1A49.3,49.3,0,0,1,16.792,63.737q.539-.324,1.081-.626a20.922,20.922,0,0,0,0,28.39q-.543-.3-1.083-.627A49.3,49.3,0,0,1,2.671,77.515a.358.358,0,0,1,0-.419Z" fill="#fff"/>
      <circle id="Elipse_10112" data-name="Elipse 10112" cx="1.3" cy="1.3" r="1.3" transform="translate(53.649 87.586)" fill="#fff"/>
    </g>
  </g>
</svg>
