<svg xmlns="http://www.w3.org/2000/svg" width="86" height="86" viewBox="0 0 86 86">
  <g id="Grupo_1078863" data-name="Grupo 1078863" transform="translate(6183 8623)">
    <circle id="Elipse_9897" data-name="Elipse 9897" cx="43" cy="43" r="43" transform="translate(-6183 -8623)" fill="#1682fb"/>
    <g id="technology_1_" data-name="technology(1)" transform="translate(-6182.236 -8629.67)">
      <g id="Grupo_1078871" data-name="Grupo 1078871" transform="translate(13.855 22.278)">
        <g id="Grupo_1078867" data-name="Grupo 1078867" transform="translate(0 0)">
          <g id="Grupo_1078866" data-name="Grupo 1078866">
            <g id="Grupo_1078865" data-name="Grupo 1078865">
              <path id="Trazado_835454" data-name="Trazado 835454" d="M180.287,284.283s-1.457.728-1.457,1.249c0,.942.369,3-.312,3.226s-8.929-.543-11.314-1.111" transform="translate(-149.327 -253.74)" fill="none" stroke="#fff" stroke-linecap="round" stroke-linejoin="round" stroke-miterlimit="10" stroke-width="2"/>
              <path id="Trazado_835455" data-name="Trazado 835455" d="M253.348,102.7a7.888,7.888,0,0,1,1.961,7.151,10.5,10.5,0,0,0-.8,3.294c.114,1.022,3.294,4.089,3.181,4.544s-2.726.682-2.726,1.136a16.06,16.06,0,0,0,.749,2.441l-3.955.937" transform="translate(-224.028 -93.328)" fill="none" stroke="#fff" stroke-linecap="round" stroke-linejoin="round" stroke-miterlimit="10" stroke-width="2"/>
              <path id="Trazado_835456" data-name="Trazado 835456" d="M174.673,319.251a79.781,79.781,0,0,0-3.393,9.5" transform="translate(-152.928 -284.632)" fill="none" stroke="#fff" stroke-linecap="round" stroke-linejoin="round" stroke-miterlimit="10" stroke-width="2"/>
              <path id="Trazado_835457" data-name="Trazado 835457" d="M19.072,59.975l2.322-6.29s-9.542-7.27-7.156-18.4a16.134,16.134,0,0,1,.629-2.177,16.344,16.344,0,0,1,17.6-10.724c9.406.916,14.219,6.764,15.642,12.456" transform="translate(-13.855 -22.278)" fill="none" stroke="#fff" stroke-linecap="round" stroke-linejoin="round" stroke-miterlimit="10" stroke-width="2"/>
            </g>
            <path id="Trazado_835458" data-name="Trazado 835458" d="M168.411,81.141s.912,10.743-10.237,13.277" transform="translate(-141.35 -74.279)" fill="none" stroke="#fff" stroke-linecap="round" stroke-linejoin="round" stroke-miterlimit="10" stroke-width="2"/>
          </g>
          <path id="Trazado_835459" data-name="Trazado 835459" d="M116.827,178.4a2.547,2.547,0,0,1-2.547-2.547v-2.377a2.547,2.547,0,1,1,5.094,0" transform="translate(-102.573 -153.597)" fill="none" stroke="#fff" stroke-linecap="round" stroke-linejoin="round" stroke-miterlimit="10" stroke-width="2"/>
        </g>
        <g id="Grupo_1078868" data-name="Grupo 1078868" transform="translate(21.4 41.036)">
          <path id="Trazado_835460" data-name="Trazado 835460" d="M197.428,388.043l6.045-9.147,7.466-4.4a1.468,1.468,0,0,1,1.744,2.341l-3.847,3.573,7.344.933,9.621-3.9a1.406,1.406,0,0,1,1.3,2.484l-9.874,5.617-8.743-.117-1.515,2.565" transform="translate(-197.428 -374.295)" fill="none" stroke="#fff" stroke-linecap="round" stroke-linejoin="round" stroke-miterlimit="10" stroke-width="2"/>
        </g>
        <g id="Grupo_1078870" data-name="Grupo 1078870" transform="translate(37.926 16.673)">
          <path id="Trazado_835461" data-name="Trazado 835461" d="M348.612,165.3a9.419,9.419,0,0,0-4.557,17.662l-.074,3.776,2.971-2.748a9.419,9.419,0,1,0,1.661-18.691Z" transform="translate(-339.194 -165.303)" fill="none" stroke="#fff" stroke-linecap="round" stroke-linejoin="round" stroke-miterlimit="10" stroke-width="2"/>
          <g id="Grupo_1078869" data-name="Grupo 1078869" transform="translate(3.226 8.586)">
            <circle id="Elipse_10114" data-name="Elipse 10114" cx="1.197" cy="1.197" r="1.197" fill="#fff"/>
            <circle id="Elipse_10115" data-name="Elipse 10115" cx="1.197" cy="1.197" r="1.197" transform="translate(4.995)" fill="#fff"/>
            <circle id="Elipse_10116" data-name="Elipse 10116" cx="1.197" cy="1.197" r="1.197" transform="translate(9.991)" fill="#fff"/>
          </g>
        </g>
        <path id="Trazado_835462" data-name="Trazado 835462" d="M14.28,348.714l1.584-1.414a3.289,3.289,0,0,1,3.687-.476l11.771,6.012a9.715,9.715,0,0,1,3.855,3.56l.437.71" transform="translate(-14.23 -308.673)" fill="none" stroke="#fff" stroke-linecap="round" stroke-linejoin="round" stroke-miterlimit="10" stroke-width="2"/>
      </g>
      <path id="Trazado_835463" data-name="Trazado 835463" d="M248.953,376.793H247.8a1.515,1.515,0,1,1,0-3.031h25.18a1.515,1.515,0,1,1,0,3.031H259.607" transform="translate(-205.331 -310.511)" fill="none" stroke="#fff" stroke-linecap="round" stroke-linejoin="round" stroke-miterlimit="10" stroke-width="2"/>
    </g>
  </g>
</svg>
