<svg xmlns="http://www.w3.org/2000/svg" width="86" height="86" viewBox="0 0 86 86">
  <g id="Grupo_1078893" data-name="Grupo 1078893" transform="translate(-1145 -2657)">
    <circle id="Elipse_10120" data-name="Elipse 10120" cx="43" cy="43" r="43" transform="translate(1145 2657)" fill="#1682fb"/>
    <g id="website" transform="translate(1160.71 2668.137)">
      <g id="Grupo_1078874" data-name="Grupo 1078874" transform="translate(0 8.533)">
        <g id="Grupo_1078873" data-name="Grupo 1078873">
          <path id="Trazado_835468" data-name="Trazado 835468" d="M50.939,8.533H3.64A3.644,3.644,0,0,0,0,12.173V42.19a.91.91,0,0,0,.91.91H53.669a.91.91,0,0,0,.91-.91V12.173A3.644,3.644,0,0,0,50.939,8.533Zm1.82,32.747H1.819V12.173a1.822,1.822,0,0,1,1.82-1.82h47.3a1.822,1.822,0,0,1,1.82,1.82Z" transform="translate(0 -8.533)" fill="#fff"/>
        </g>
      </g>
      <g id="Grupo_1078876" data-name="Grupo 1078876" transform="translate(0 41.28)">
        <g id="Grupo_1078875" data-name="Grupo 1078875">
          <path id="Trazado_835469" data-name="Trazado 835469" d="M53.669,315.733H.91a.91.91,0,0,0-.91.91v4.547a3.644,3.644,0,0,0,3.64,3.639h47.3a3.644,3.644,0,0,0,3.64-3.639v-4.547A.91.91,0,0,0,53.669,315.733Zm-.91,5.457a1.822,1.822,0,0,1-1.82,1.82H3.64a1.822,1.822,0,0,1-1.82-1.82v-3.638H52.76v3.638Z" transform="translate(0 -315.733)" fill="#fff"/>
        </g>
      </g>
      <g id="Grupo_1078878" data-name="Grupo 1078878" transform="translate(23.651 44.919)">
        <g id="Grupo_1078877" data-name="Grupo 1078877">
          <path id="Trazado_835470" data-name="Trazado 835470" d="M228.234,349.867h-5.458a.91.91,0,0,0,0,1.819h5.458a.91.91,0,0,0,0-1.819Z" transform="translate(-221.867 -349.867)" fill="#fff"/>
        </g>
      </g>
      <g id="Grupo_1078880" data-name="Grupo 1078880" transform="translate(3.639 12.172)">
        <g id="Grupo_1078879" data-name="Grupo 1078879">
          <path id="Trazado_835471" data-name="Trazado 835471" d="M80.526,42.667H35.044a.91.91,0,0,0-.91.91V72.685a.91.91,0,0,0,.91.91H80.526a.91.91,0,0,0,.91-.91V43.577A.91.91,0,0,0,80.526,42.667Zm-.91,29.109H35.953V44.486H79.616V71.776Z" transform="translate(-34.134 -42.667)" fill="#fff"/>
        </g>
      </g>
      <g id="Grupo_1078882" data-name="Grupo 1078882" transform="translate(12.735 55.835)">
        <g id="Grupo_1078881" data-name="Grupo 1078881">
          <path id="Trazado_835472" data-name="Trazado 835472" d="M145.847,452.267H122.2a2.729,2.729,0,0,0,0,5.458h23.651a2.729,2.729,0,1,0,0-5.458Zm0,3.639H122.2a.91.91,0,1,1,0-1.819h23.651a.91.91,0,1,1,0,1.819Z" transform="translate(-119.467 -452.267)" fill="#fff"/>
        </g>
      </g>
      <g id="Grupo_1078884" data-name="Grupo 1078884" transform="translate(16.374 48.558)">
        <g id="Grupo_1078883" data-name="Grupo 1078883">
          <path id="Trazado_835473" data-name="Trazado 835473" d="M174.523,391.278c-3.018,0-4.548-2.142-4.548-6.367a.91.91,0,0,0-.91-.91h-9.1a.91.91,0,0,0-.91.91c0,4.225-1.53,6.367-4.548,6.367a.91.91,0,1,0,0,1.819h20.012a.91.91,0,1,0,0-1.819Zm-15.581,0a8.715,8.715,0,0,0,1.912-5.458h7.327a8.7,8.7,0,0,0,1.912,5.458Z" transform="translate(-153.601 -384.001)" fill="#fff"/>
        </g>
      </g>
      <g id="Grupo_1078886" data-name="Grupo 1078886" transform="translate(31.844 27.635)">
        <g id="Grupo_1078885" data-name="Grupo 1078885">
          <path id="Trazado_835474" data-name="Trazado 835474" d="M310.346,195.431l-2.2-2.2,1.222-1.222a.909.909,0,0,0-.381-1.515l-9.1-2.729a.91.91,0,0,0-1.133,1.133l2.729,9.1a.909.909,0,0,0,1.515.382l1.286-1.287,2.2,2.2a.909.909,0,0,0,1.286,0l2.572-2.573A.909.909,0,0,0,310.346,195.431Zm-3.216,1.93-2-2a1.189,1.189,0,0,0-1.679,0l-.657.657L300.99,190l6.019,1.806-.7.7a1.031,1.031,0,0,0,0,1.456l2.11,2.11Z" transform="translate(-298.723 -187.731)" fill="#fff"/>
        </g>
      </g>
      <g id="Grupo_1078888" data-name="Grupo 1078888" transform="translate(11.825 15.81)">
        <g id="Grupo_1078887" data-name="Grupo 1078887">
          <path id="Trazado_835475" data-name="Trazado 835475" d="M137.314,76.8h-25.47a.91.91,0,0,0-.91.91v4.548a.91.91,0,0,0,.91.91h25.47a.91.91,0,0,0,.91-.91V77.71A.91.91,0,0,0,137.314,76.8Zm-.91,4.548H112.753V78.619H136.4Z" transform="translate(-110.934 -76.8)" fill="#fff"/>
        </g>
      </g>
      <g id="Grupo_1078890" data-name="Grupo 1078890" transform="translate(15.464 25.816)">
        <g id="Grupo_1078889" data-name="Grupo 1078889">
          <path id="Trazado_835476" data-name="Trazado 835476" d="M153.254,170.667h-7.277a.91.91,0,0,0-.91.91v3.639a.91.91,0,0,0,.91.91h7.277a.91.91,0,0,0,.91-.91v-3.639A.91.91,0,0,0,153.254,170.667Zm-.91,3.639h-5.458v-1.819h5.458Z" transform="translate(-145.067 -170.667)" fill="#fff"/>
        </g>
      </g>
      <g id="Grupo_1078892" data-name="Grupo 1078892" transform="translate(11.825 15.81)">
        <g id="Grupo_1078891" data-name="Grupo 1078891">
          <path id="Trazado_835477" data-name="Trazado 835477" d="M137.314,76.8h-25.47a.91.91,0,0,0-.91.91V94.993a.91.91,0,0,0,.91.91H133.5a.91.91,0,0,0,.871-1.172l-1.152-3.84,3.834,1.151a.91.91,0,0,0,1.171-.871V77.71A.91.91,0,0,0,137.314,76.8Zm-.91,13.148-4.282-1.284A.91.91,0,0,0,130.99,89.8l1.286,4.286H112.753V78.619H136.4Z" transform="translate(-110.934 -76.8)" fill="#fff"/>
        </g>
      </g>
    </g>
  </g>
</svg>
